<svg height="63pt" viewBox="0.00 0.00 370.00 63.00" width="370pt" xmlns="http://www.w3.org/2000/svg" xmlns:xlink="http://www.w3.org/1999/xlink">
<g class="graph" id="graph0" transform="scale(1 1) rotate(0) translate(4 59)">
<title>%3</title>
<polygon fill="white" points="-4,4 -4,-59 366,-59 366,4 -4,4" stroke="none"/>
<!-- _START -->
<g class="node" id="node1"><title>_START</title>
</g>
<!-- 0 -->
<g class="node" id="node2"><title>0</title>
<path d="M53.3333,-21C53.3333,-21 43.6667,-21 43.6667,-21 40.8333,-21 38,-18.1667 38,-15.3333 38,-15.3333 38,-9.66667 38,-9.66667 38,-6.83333 40.8333,-4 43.6667,-4 43.6667,-4 53.3333,-4 53.3333,-4 56.1667,-4 59,-6.83333 59,-9.66667 59,-9.66667 59,-15.3333 59,-15.3333 59,-18.1667 56.1667,-21 53.3333,-21" fill="none" stroke="black"/>
<text font-family="Courier,monospace" font-size="10.00" text-anchor="start" x="42" y="-10">q1</text>
</g>
<!-- _START&#45;&gt;0 -->
<g class="edge" id="edge1"><title>_START-&gt;0</title>
<path d="M1.13339,-12.5C2.79277,-12.5 19.5956,-12.5 32.5011,-12.5" fill="none" stroke="black"/>
<polygon fill="black" points="37.7379,-12.5 32.738,-14.7501 35.2379,-12.5 32.7379,-12.5001 32.7379,-12.5001 32.7379,-12.5001 35.2379,-12.5 32.7379,-10.2501 37.7379,-12.5 37.7379,-12.5" stroke="black"/>
</g>
<!-- 1 -->
<g class="node" id="node3"><title>1</title>
<path d="M149.333,-21C149.333,-21 139.667,-21 139.667,-21 136.833,-21 134,-18.1667 134,-15.3333 134,-15.3333 134,-9.66667 134,-9.66667 134,-6.83333 136.833,-4 139.667,-4 139.667,-4 149.333,-4 149.333,-4 152.167,-4 155,-6.83333 155,-9.66667 155,-9.66667 155,-15.3333 155,-15.3333 155,-18.1667 152.167,-21 149.333,-21" fill="none" stroke="black"/>
<text font-family="Courier,monospace" font-size="10.00" text-anchor="start" x="138" y="-10">q2</text>
</g>
<!-- 0&#45;&gt;1 -->
<g class="edge" id="edge2"><title>0-&gt;1</title>
<path d="M59.2056,-12.5C75.756,-12.5 109.526,-12.5 128.923,-12.5" fill="none" stroke="black"/>
<polygon fill="black" points="133.987,-12.5 128.987,-14.7501 131.487,-12.5 128.987,-12.5001 128.987,-12.5001 128.987,-12.5001 131.487,-12.5 128.987,-10.2501 133.987,-12.5 133.987,-12.5" stroke="black"/>
<text font-family="Courier,monospace" font-size="9.00" text-anchor="start" x="80.5" y="-18.3">ε,ε → $</text>
</g>
<!-- 1&#45;&gt;1 -->
<g class="edge" id="edge6"><title>1-&gt;1</title>
<path d="M137.348,-21.1857C133.397,-29.6739 135.781,-39 144.5,-39 151.584,-39 154.486,-32.8433 153.206,-25.9817" fill="none" stroke="black"/>
<polygon fill="black" points="151.652,-21.1857 155.334,-25.2485 152.423,-23.5639 153.194,-25.9422 153.194,-25.9422 153.194,-25.9422 152.423,-23.5639 151.053,-26.6358 151.652,-21.1857 151.652,-21.1857" stroke="black"/>
<text font-family="Courier,monospace" font-size="9.00" text-anchor="start" x="127.5" y="-44.8">0,ε → 0</text>
</g>
<!-- 2 -->
<g class="node" id="node4"><title>2</title>
<path d="M249.333,-21C249.333,-21 239.667,-21 239.667,-21 236.833,-21 234,-18.1667 234,-15.3333 234,-15.3333 234,-9.66667 234,-9.66667 234,-6.83333 236.833,-4 239.667,-4 239.667,-4 249.333,-4 249.333,-4 252.167,-4 255,-6.83333 255,-9.66667 255,-9.66667 255,-15.3333 255,-15.3333 255,-18.1667 252.167,-21 249.333,-21" fill="none" stroke="black"/>
<text font-family="Courier,monospace" font-size="10.00" text-anchor="start" x="238" y="-10">q3</text>
</g>
<!-- 1&#45;&gt;2 -->
<g class="edge" id="edge5"><title>1-&gt;2</title>
<path d="M155.255,-12.5C172.499,-12.5 208.455,-12.5 228.745,-12.5" fill="none" stroke="black"/>
<polygon fill="black" points="233.785,-12.5 228.785,-14.7501 231.285,-12.5 228.785,-12.5001 228.785,-12.5001 228.785,-12.5001 231.285,-12.5 228.785,-10.2501 233.785,-12.5 233.785,-12.5" stroke="black"/>
<text font-family="Courier,monospace" font-size="9.00" text-anchor="start" x="176.5" y="-18.3">1,0 → ε</text>
</g>
<!-- 2&#45;&gt;2 -->
<g class="edge" id="edge3"><title>2-&gt;2</title>
<path d="M237.348,-21.1857C233.397,-29.6739 235.781,-39 244.5,-39 251.584,-39 254.486,-32.8433 253.206,-25.9817" fill="none" stroke="black"/>
<polygon fill="black" points="251.652,-21.1857 255.334,-25.2485 252.423,-23.5639 253.194,-25.9422 253.194,-25.9422 253.194,-25.9422 252.423,-23.5639 251.053,-26.6358 251.652,-21.1857 251.652,-21.1857" stroke="black"/>
<text font-family="Courier,monospace" font-size="9.00" text-anchor="start" x="226.5" y="-44.8">1,0 → ε</text>
</g>
<!-- 3 -->
<g class="node" id="node5"><title>3</title>
<path d="M352.333,-21C352.333,-21 342.667,-21 342.667,-21 339.833,-21 337,-18.1667 337,-15.3333 337,-15.3333 337,-9.66667 337,-9.66667 337,-6.83333 339.833,-4 342.667,-4 342.667,-4 352.333,-4 352.333,-4 355.167,-4 358,-6.83333 358,-9.66667 358,-9.66667 358,-15.3333 358,-15.3333 358,-18.1667 355.167,-21 352.333,-21" fill="none" stroke="black"/>
<path d="M353.667,-25C353.667,-25 341.333,-25 341.333,-25 337.167,-25 333,-20.8333 333,-16.6667 333,-16.6667 333,-8.33333 333,-8.33333 333,-4.16667 337.167,-0 341.333,-0 341.333,-0 353.667,-0 353.667,-0 357.833,-0 362,-4.16667 362,-8.33333 362,-8.33333 362,-16.6667 362,-16.6667 362,-20.8333 357.833,-25 353.667,-25" fill="none" stroke="black"/>
<text font-family="Courier,monospace" font-size="10.00" text-anchor="start" x="341" y="-10">q4</text>
</g>
<!-- 2&#45;&gt;3 -->
<g class="edge" id="edge4"><title>2-&gt;3</title>
<path d="M255.184,-12.5C271.843,-12.5 306.202,-12.5 327.698,-12.5" fill="none" stroke="black"/>
<polygon fill="black" points="332.867,-12.5 327.867,-14.7501 330.367,-12.5 327.867,-12.5001 327.867,-12.5001 327.867,-12.5001 330.367,-12.5 327.867,-10.2501 332.867,-12.5 332.867,-12.5" stroke="black"/>
<text font-family="Courier,monospace" font-size="9.00" text-anchor="start" x="276" y="-18.3">ε,$ → ε</text>
</g>
</g>
</svg>