<svg height="182pt" viewBox="0.00 0.00 745.00 181.50" width="745pt" xmlns="http://www.w3.org/2000/svg" xmlns:xlink="http://www.w3.org/1999/xlink">
<g class="graph" id="graph0" transform="scale(1 1) rotate(0) translate(4 177.5)">
<title>%3</title>
<polygon fill="white" points="-4,4 -4,-177.5 741,-177.5 741,4 -4,4" stroke="none"/>
<!-- _START -->
<g class="node" id="node1"><title>_START</title>
</g>
<!-- 1 -->
<g class="node" id="node3"><title>1</title>
<path d="M67.3333,-131C67.3333,-131 47.6667,-131 47.6667,-131 44.8333,-131 42,-128.167 42,-125.333 42,-125.333 42,-119.667 42,-119.667 42,-116.833 44.8333,-114 47.6667,-114 47.6667,-114 67.3333,-114 67.3333,-114 70.1667,-114 73,-116.833 73,-119.667 73,-119.667 73,-125.333 73,-125.333 73,-128.167 70.1667,-131 67.3333,-131" fill="none" stroke="black"/>
<text font-family="Courier,monospace" font-size="10.00" text-anchor="start" x="46" y="-120">q1,ε</text>
</g>
<!-- _START&#45;&gt;1 -->
<g class="edge" id="edge1"><title>_START-&gt;1</title>
<path d="M1.15921,-122.5C3.05054,-122.5 21.4247,-122.5 36.4903,-122.5" fill="none" stroke="black"/>
<polygon fill="black" points="41.8545,-122.5 36.8546,-124.75 39.3545,-122.5 36.8545,-122.5 36.8545,-122.5 36.8545,-122.5 39.3545,-122.5 36.8545,-120.25 41.8545,-122.5 41.8545,-122.5" stroke="black"/>
</g>
<!-- 0 -->
<g class="node" id="node2"><title>0</title>
<path d="M68.3333,-78C68.3333,-78 46.6667,-78 46.6667,-78 43.8333,-78 41,-75.1667 41,-72.3333 41,-72.3333 41,-66.6667 41,-66.6667 41,-63.8333 43.8333,-61 46.6667,-61 46.6667,-61 68.3333,-61 68.3333,-61 71.1667,-61 74,-63.8333 74,-66.6667 74,-66.6667 74,-72.3333 74,-72.3333 74,-75.1667 71.1667,-78 68.3333,-78" fill="none" stroke="black"/>
<text font-family="Courier,monospace" font-size="10.00" text-anchor="start" x="45" y="-67">q2,$</text>
</g>
<!-- 2 -->
<g class="node" id="node4"><title>2</title>
<path d="M176.333,-78C176.333,-78 130.667,-78 130.667,-78 127.833,-78 125,-75.1667 125,-72.3333 125,-72.3333 125,-66.6667 125,-66.6667 125,-63.8333 127.833,-61 130.667,-61 130.667,-61 176.333,-61 176.333,-61 179.167,-61 182,-63.8333 182,-66.6667 182,-66.6667 182,-72.3333 182,-72.3333 182,-75.1667 179.167,-78 176.333,-78" fill="none" stroke="black"/>
<text font-family="Courier,monospace" font-size="10.00" text-anchor="start" x="129" y="-67">q2,[0] $</text>
</g>
<!-- 0&#45;&gt;2 -->
<g class="edge" id="edge4"><title>0-&gt;2</title>
<path d="M74.0222,-69.5C86.3905,-69.5 104.141,-69.5 119.633,-69.5" fill="none" stroke="black"/>
<polygon fill="black" points="124.789,-69.5 119.79,-71.7501 122.289,-69.5 119.789,-69.5001 119.789,-69.5001 119.789,-69.5001 122.289,-69.5 119.789,-67.2501 124.789,-69.5 124.789,-69.5" stroke="black"/>
</g>
<!-- 1&#45;&gt;0 -->
<g class="edge" id="edge15"><title>1-&gt;0</title>
<path d="M57.5,-113.847C57.5,-103.634 57.5,-93.4214 57.5,-83.2088" fill="none" stroke="black"/>
<polygon fill="black" points="57.5,-78.1953 59.7501,-83.1953 57.5,-80.6953 57.5001,-83.1953 57.5001,-83.1953 57.5001,-83.1953 57.5,-80.6953 55.2501,-83.1954 57.5,-78.1953 57.5,-78.1953" stroke="black"/>
</g>
<!-- 3 -->
<g class="node" id="node5"><title>3</title>
<path d="M293.333,-78C293.333,-78 235.667,-78 235.667,-78 232.833,-78 230,-75.1667 230,-72.3333 230,-72.3333 230,-66.6667 230,-66.6667 230,-63.8333 232.833,-61 235.667,-61 235.667,-61 293.333,-61 293.333,-61 296.167,-61 299,-63.8333 299,-66.6667 299,-66.6667 299,-72.3333 299,-72.3333 299,-75.1667 296.167,-78 293.333,-78" fill="none" stroke="black"/>
<text font-family="Courier,monospace" font-size="10.00" text-anchor="start" x="234" y="-67">q2,[0] 0 $</text>
</g>
<!-- 2&#45;&gt;3 -->
<g class="edge" id="edge2"><title>2-&gt;3</title>
<path d="M182.005,-69.5C194.924,-69.5 210.55,-69.5 224.65,-69.5" fill="none" stroke="black"/>
<polygon fill="black" points="229.767,-69.5 224.768,-71.7501 227.267,-69.5 224.767,-69.5001 224.767,-69.5001 224.767,-69.5001 227.267,-69.5 224.767,-67.2501 229.767,-69.5 229.767,-69.5" stroke="black"/>
</g>
<!-- 4 -->
<g class="node" id="node6"><title>4</title>
<path d="M422.333,-78C422.333,-78 352.667,-78 352.667,-78 349.833,-78 347,-75.1667 347,-72.3333 347,-72.3333 347,-66.6667 347,-66.6667 347,-63.8333 349.833,-61 352.667,-61 352.667,-61 422.333,-61 422.333,-61 425.167,-61 428,-63.8333 428,-66.6667 428,-66.6667 428,-72.3333 428,-72.3333 428,-75.1667 425.167,-78 422.333,-78" fill="none" stroke="black"/>
<text font-family="Courier,monospace" font-size="10.00" text-anchor="start" x="351" y="-67">q2,[0] 0 0 …</text>
</g>
<!-- 3&#45;&gt;4 -->
<g class="edge" id="edge5"><title>3-&gt;4</title>
<path d="M299.205,-69.5C312.408,-69.5 327.745,-69.5 341.846,-69.5" fill="none" stroke="black"/>
<polygon fill="black" points="346.98,-69.5 341.98,-71.7501 344.48,-69.5 341.98,-69.5001 341.98,-69.5001 341.98,-69.5001 344.48,-69.5 341.979,-67.2501 346.98,-69.5 346.98,-69.5" stroke="black"/>
</g>
<!-- 5 -->
<g class="node" id="node7"><title>5</title>
<path d="M539.333,-78C539.333,-78 481.667,-78 481.667,-78 478.833,-78 476,-75.1667 476,-72.3333 476,-72.3333 476,-66.6667 476,-66.6667 476,-63.8333 478.833,-61 481.667,-61 481.667,-61 539.333,-61 539.333,-61 542.167,-61 545,-63.8333 545,-66.6667 545,-66.6667 545,-72.3333 545,-72.3333 545,-75.1667 542.167,-78 539.333,-78" fill="none" stroke="black"/>
<text font-family="Courier,monospace" font-size="10.00" text-anchor="start" x="480" y="-67">q3,[0] 0 $</text>
</g>
<!-- 4&#45;&gt;5 -->
<g class="edge" id="edge13"><title>4-&gt;5</title>
<path d="M428.12,-69.5C441.749,-69.5 456.991,-69.5 470.565,-69.5" fill="none" stroke="black"/>
<polygon fill="black" points="475.875,-69.5 470.875,-71.7501 473.375,-69.5 470.875,-69.5001 470.875,-69.5001 470.875,-69.5001 473.375,-69.5 470.875,-67.2501 475.875,-69.5 475.875,-69.5" stroke="black"/>
</g>
<!-- 6 -->
<g class="node" id="node8"><title>6</title>
<path d="M644.333,-78C644.333,-78 598.667,-78 598.667,-78 595.833,-78 593,-75.1667 593,-72.3333 593,-72.3333 593,-66.6667 593,-66.6667 593,-63.8333 595.833,-61 598.667,-61 598.667,-61 644.333,-61 644.333,-61 647.167,-61 650,-63.8333 650,-66.6667 650,-66.6667 650,-72.3333 650,-72.3333 650,-75.1667 647.167,-78 644.333,-78" fill="none" stroke="black"/>
<text font-family="Courier,monospace" font-size="10.00" text-anchor="start" x="597" y="-67">q3,[0] $</text>
</g>
<!-- 5&#45;&gt;6 -->
<g class="edge" id="edge14"><title>5-&gt;6</title>
<path d="M545.093,-69.5C558.567,-69.5 574.051,-69.5 587.468,-69.5" fill="none" stroke="black"/>
<polygon fill="black" points="592.693,-69.5 587.693,-71.7501 590.193,-69.5 587.693,-69.5001 587.693,-69.5001 587.693,-69.5001 590.193,-69.5 587.693,-67.2501 592.693,-69.5 592.693,-69.5" stroke="black"/>
</g>
<!-- 7 -->
<g class="node" id="node9"><title>7</title>
<path d="M728.333,-78C728.333,-78 706.667,-78 706.667,-78 703.833,-78 701,-75.1667 701,-72.3333 701,-72.3333 701,-66.6667 701,-66.6667 701,-63.8333 703.833,-61 706.667,-61 706.667,-61 728.333,-61 728.333,-61 731.167,-61 734,-63.8333 734,-66.6667 734,-66.6667 734,-72.3333 734,-72.3333 734,-75.1667 731.167,-78 728.333,-78" fill="none" stroke="black"/>
<text font-family="Courier,monospace" font-size="10.00" text-anchor="start" x="705" y="-67">q3,$</text>
</g>
<!-- 6&#45;&gt;7 -->
<g class="edge" id="edge3"><title>6-&gt;7</title>
<path d="M650.195,-69.5C664.824,-69.5 682.474,-69.5 695.885,-69.5" fill="none" stroke="black"/>
<polygon fill="black" points="700.984,-69.5 695.984,-71.7501 698.484,-69.5 695.984,-69.5001 695.984,-69.5001 695.984,-69.5001 698.484,-69.5 695.984,-67.2501 700.984,-69.5 700.984,-69.5" stroke="black"/>
</g>
<!-- 8 -->
<g class="node" id="node10"><title>8</title>
<path d="M727.333,-21C727.333,-21 707.667,-21 707.667,-21 704.833,-21 702,-18.1667 702,-15.3333 702,-15.3333 702,-9.66667 702,-9.66667 702,-6.83333 704.833,-4 707.667,-4 707.667,-4 727.333,-4 727.333,-4 730.167,-4 733,-6.83333 733,-9.66667 733,-9.66667 733,-15.3333 733,-15.3333 733,-18.1667 730.167,-21 727.333,-21" fill="none" stroke="black"/>
<path d="M728.667,-25C728.667,-25 706.333,-25 706.333,-25 702.167,-25 698,-20.8333 698,-16.6667 698,-16.6667 698,-8.33333 698,-8.33333 698,-4.16667 702.167,-0 706.333,-0 706.333,-0 728.667,-0 728.667,-0 732.833,-0 737,-4.16667 737,-8.33333 737,-8.33333 737,-16.6667 737,-16.6667 737,-20.8333 732.833,-25 728.667,-25" fill="none" stroke="black"/>
<text font-family="Courier,monospace" font-size="10.00" text-anchor="start" x="706" y="-10">q4,ε</text>
</g>
<!-- 7&#45;&gt;8 -->
<g class="edge" id="edge12"><title>7-&gt;8</title>
<path d="M717.5,-60.8895C717.5,-50.8196 717.5,-40.7498 717.5,-30.6799" fill="none" stroke="black"/>
<polygon fill="black" points="717.5,-25.4141 719.75,-30.414 717.5,-27.9141 717.5,-30.4141 717.5,-30.4141 717.5,-30.4141 717.5,-27.9141 715.25,-30.4141 717.5,-25.4141 717.5,-25.4141" stroke="black"/>
</g>
<!-- 9 -->
<g class="node" id="node11"><title>9</title>
</g>
<!-- 10 -->
<g class="node" id="node12"><title>10</title>
</g>
<!-- 9&#45;&gt;10 -->
<g class="edge" id="edge9"><title>9-&gt;10</title>
<path d="M77.0714,-157.5C91.8772,-157.5 112.712,-157.5 128.734,-157.5" fill="none" stroke="white"/>
<polygon fill="white" points="133.967,-157.5 128.967,-159.75 131.467,-157.5 128.967,-157.5 128.967,-157.5 128.967,-157.5 131.467,-157.5 128.967,-155.25 133.967,-157.5 133.967,-157.5" stroke="white"/>
<text font-family="Courier,monospace" font-size="9.00" text-anchor="start" x="98" y="-163.3">0</text>
</g>
<!-- 11 -->
<g class="node" id="node13"><title>11</title>
</g>
<!-- 10&#45;&gt;11 -->
<g class="edge" id="edge8"><title>10-&gt;11</title>
<path d="M173.486,-157.5C191.851,-157.5 219.746,-157.5 239.611,-157.5" fill="none" stroke="white"/>
<polygon fill="white" points="244.731,-157.5 239.731,-159.75 242.231,-157.5 239.731,-157.5 239.731,-157.5 239.731,-157.5 242.231,-157.5 239.731,-155.25 244.731,-157.5 244.731,-157.5" stroke="white"/>
<text font-family="Courier,monospace" font-size="9.00" text-anchor="start" x="203" y="-163.3">0</text>
</g>
<!-- 12 -->
<g class="node" id="node14"><title>12</title>
</g>
<!-- 11&#45;&gt;12 -->
<g class="edge" id="edge7"><title>11-&gt;12</title>
<path d="M284.141,-157.5C305.219,-157.5 339.592,-157.5 362.619,-157.5" fill="none" stroke="white"/>
<polygon fill="white" points="367.638,-157.5 362.638,-159.75 365.138,-157.5 362.638,-157.5 362.638,-157.5 362.638,-157.5 365.138,-157.5 362.638,-155.25 367.638,-157.5 367.638,-157.5" stroke="white"/>
<text font-family="Courier,monospace" font-size="9.00" text-anchor="start" x="320" y="-163.3">0</text>
</g>
<!-- 13 -->
<g class="node" id="node15"><title>13</title>
</g>
<!-- 12&#45;&gt;13 -->
<g class="edge" id="edge6"><title>12-&gt;13</title>
<path d="M407.141,-157.5C428.219,-157.5 462.592,-157.5 485.619,-157.5" fill="none" stroke="white"/>
<polygon fill="white" points="490.638,-157.5 485.638,-159.75 488.138,-157.5 485.638,-157.5 485.638,-157.5 485.638,-157.5 488.138,-157.5 485.638,-155.25 490.638,-157.5 490.638,-157.5" stroke="white"/>
<text font-family="Courier,monospace" font-size="9.00" text-anchor="start" x="449" y="-163.3">1</text>
</g>
<!-- 14 -->
<g class="node" id="node16"><title>14</title>
</g>
<!-- 13&#45;&gt;14 -->
<g class="edge" id="edge11"><title>13-&gt;14</title>
<path d="M530.486,-157.5C548.851,-157.5 576.746,-157.5 596.611,-157.5" fill="none" stroke="white"/>
<polygon fill="white" points="601.731,-157.5 596.731,-159.75 599.231,-157.5 596.731,-157.5 596.731,-157.5 596.731,-157.5 599.231,-157.5 596.731,-155.25 601.731,-157.5 601.731,-157.5" stroke="white"/>
<text font-family="Courier,monospace" font-size="9.00" text-anchor="start" x="566" y="-163.3">1</text>
</g>
<!-- 15 -->
<g class="node" id="node17"><title>15</title>
</g>
<!-- 14&#45;&gt;15 -->
<g class="edge" id="edge10"><title>14-&gt;15</title>
<path d="M641.071,-157.5C655.877,-157.5 676.712,-157.5 692.734,-157.5" fill="none" stroke="white"/>
<polygon fill="white" points="697.967,-157.5 692.967,-159.75 695.467,-157.5 692.967,-157.5 692.967,-157.5 692.967,-157.5 695.467,-157.5 692.967,-155.25 697.967,-157.5 697.967,-157.5" stroke="white"/>
<text font-family="Courier,monospace" font-size="9.00" text-anchor="start" x="671" y="-163.3">1</text>
</g>
</g>
</svg>