<svg height="319pt" viewBox="0.00 0.00 256.00 318.50" width="256pt" xmlns="http://www.w3.org/2000/svg" xmlns:xlink="http://www.w3.org/1999/xlink">
<g class="graph" id="graph0" transform="scale(1 1) rotate(0) translate(4 314.5)">
<title>%3</title>
<polygon fill="white" points="-4,4 -4,-314.5 252,-314.5 252,4 -4,4" stroke="none"/>
<!-- _START -->
<g class="node" id="node1"><title>_START</title>
</g>
<!-- 3 -->
<g class="node" id="node5"><title>3</title>
<path d="M88.3333,-268C88.3333,-268 68.6667,-268 68.6667,-268 65.8333,-268 63,-265.167 63,-262.333 63,-262.333 63,-256.667 63,-256.667 63,-253.833 65.8333,-251 68.6667,-251 68.6667,-251 88.3333,-251 88.3333,-251 91.1667,-251 94,-253.833 94,-256.667 94,-256.667 94,-262.333 94,-262.333 94,-265.167 91.1667,-268 88.3333,-268" fill="none" stroke="black"/>
<text font-family="Courier,monospace" font-size="10.00" text-anchor="start" x="67" y="-257">q1,ε</text>
</g>
<!-- _START&#45;&gt;3 -->
<g class="edge" id="edge1"><title>_START-&gt;3</title>
<path d="M1.05545,-259.5C2.58848,-259.5 35.5724,-259.5 57.7081,-259.5" fill="none" stroke="black"/>
<polygon fill="black" points="62.801,-259.5 57.801,-261.75 60.301,-259.5 57.801,-259.5 57.801,-259.5 57.801,-259.5 60.301,-259.5 57.8009,-257.25 62.801,-259.5 62.801,-259.5" stroke="black"/>
</g>
<!-- 0 -->
<g class="node" id="node2"><title>0</title>
<path d="M101.333,-141C101.333,-141 55.6667,-141 55.6667,-141 52.8333,-141 50,-138.167 50,-135.333 50,-135.333 50,-129.667 50,-129.667 50,-126.833 52.8333,-124 55.6667,-124 55.6667,-124 101.333,-124 101.333,-124 104.167,-124 107,-126.833 107,-129.667 107,-129.667 107,-135.333 107,-135.333 107,-138.167 104.167,-141 101.333,-141" fill="none" stroke="black"/>
<text font-family="Courier,monospace" font-size="10.00" text-anchor="start" x="54" y="-130">q2,[#] $</text>
</g>
<!-- 4 -->
<g class="node" id="node6"><title>4</title>
<path d="M107.333,-88C107.333,-88 49.6667,-88 49.6667,-88 46.8333,-88 44,-85.1667 44,-82.3333 44,-82.3333 44,-76.6667 44,-76.6667 44,-73.8333 46.8333,-71 49.6667,-71 49.6667,-71 107.333,-71 107.333,-71 110.167,-71 113,-73.8333 113,-76.6667 113,-76.6667 113,-82.3333 113,-82.3333 113,-85.1667 110.167,-88 107.333,-88" fill="none" stroke="black"/>
<text font-family="Courier,monospace" font-size="10.00" text-anchor="start" x="48" y="-77">q2,[#] # $</text>
</g>
<!-- 0&#45;&gt;4 -->
<g class="edge" id="edge15"><title>0-&gt;4</title>
<path d="M78.5,-123.847C78.5,-113.634 78.5,-103.421 78.5,-93.2088" fill="none" stroke="black"/>
<polygon fill="black" points="78.5,-88.1953 80.7501,-93.1953 78.5,-90.6953 78.5001,-93.1953 78.5001,-93.1953 78.5001,-93.1953 78.5,-90.6953 76.2501,-93.1954 78.5,-88.1953 78.5,-88.1953" stroke="black"/>
</g>
<!-- 7 -->
<g class="node" id="node9"><title>7</title>
<path d="M230.333,-141C230.333,-141 184.667,-141 184.667,-141 181.833,-141 179,-138.167 179,-135.333 179,-135.333 179,-129.667 179,-129.667 179,-126.833 181.833,-124 184.667,-124 184.667,-124 230.333,-124 230.333,-124 233.167,-124 236,-126.833 236,-129.667 236,-129.667 236,-135.333 236,-135.333 236,-138.167 233.167,-141 230.333,-141" fill="none" stroke="black"/>
<text font-family="Courier,monospace" font-size="10.00" text-anchor="start" x="183" y="-130">q3,[#] $</text>
</g>
<!-- 0&#45;&gt;7 -->
<g class="edge" id="edge16"><title>0-&gt;7</title>
<path d="M107.057,-132.5C126.695,-132.5 153.171,-132.5 173.867,-132.5" fill="none" stroke="black"/>
<polygon fill="black" points="178.997,-132.5 173.997,-134.75 176.497,-132.5 173.997,-132.5 173.997,-132.5 173.997,-132.5 176.497,-132.5 173.997,-130.25 178.997,-132.5 178.997,-132.5" stroke="black"/>
</g>
<!-- 1 -->
<g class="node" id="node3"><title>1</title>
<path d="M218.333,-237C218.333,-237 196.667,-237 196.667,-237 193.833,-237 191,-234.167 191,-231.333 191,-231.333 191,-225.667 191,-225.667 191,-222.833 193.833,-220 196.667,-220 196.667,-220 218.333,-220 218.333,-220 221.167,-220 224,-222.833 224,-225.667 224,-225.667 224,-231.333 224,-231.333 224,-234.167 221.167,-237 218.333,-237" fill="none" stroke="black"/>
<text font-family="Courier,monospace" font-size="10.00" text-anchor="start" x="195" y="-226">q3,$</text>
</g>
<!-- 5 -->
<g class="node" id="node7"><title>5</title>
<path d="M217.333,-180C217.333,-180 197.667,-180 197.667,-180 194.833,-180 192,-177.167 192,-174.333 192,-174.333 192,-168.667 192,-168.667 192,-165.833 194.833,-163 197.667,-163 197.667,-163 217.333,-163 217.333,-163 220.167,-163 223,-165.833 223,-168.667 223,-168.667 223,-174.333 223,-174.333 223,-177.167 220.167,-180 217.333,-180" fill="none" stroke="black"/>
<path d="M218.667,-184C218.667,-184 196.333,-184 196.333,-184 192.167,-184 188,-179.833 188,-175.667 188,-175.667 188,-167.333 188,-167.333 188,-163.167 192.167,-159 196.333,-159 196.333,-159 218.667,-159 218.667,-159 222.833,-159 227,-163.167 227,-167.333 227,-167.333 227,-175.667 227,-175.667 227,-179.833 222.833,-184 218.667,-184" fill="none" stroke="black"/>
<text font-family="Courier,monospace" font-size="10.00" text-anchor="start" x="196" y="-169">q4,ε</text>
</g>
<!-- 1&#45;&gt;5 -->
<g class="edge" id="edge11"><title>1-&gt;5</title>
<path d="M207.5,-219.889C207.5,-209.82 207.5,-199.75 207.5,-189.68" fill="none" stroke="black"/>
<polygon fill="black" points="207.5,-184.414 209.75,-189.414 207.5,-186.914 207.5,-189.414 207.5,-189.414 207.5,-189.414 207.5,-186.914 205.25,-189.414 207.5,-184.414 207.5,-184.414" stroke="black"/>
</g>
<!-- 2 -->
<g class="node" id="node4"><title>2</title>
<path d="M89.3333,-215C89.3333,-215 67.6667,-215 67.6667,-215 64.8333,-215 62,-212.167 62,-209.333 62,-209.333 62,-203.667 62,-203.667 62,-200.833 64.8333,-198 67.6667,-198 67.6667,-198 89.3333,-198 89.3333,-198 92.1667,-198 95,-200.833 95,-203.667 95,-203.667 95,-209.333 95,-209.333 95,-212.167 92.1667,-215 89.3333,-215" fill="none" stroke="black"/>
<text font-family="Courier,monospace" font-size="10.00" text-anchor="start" x="66" y="-204">q2,$</text>
</g>
<!-- 2&#45;&gt;0 -->
<g class="edge" id="edge12"><title>2-&gt;0</title>
<path d="M78.5,-197.824C78.5,-180.71 78.5,-163.597 78.5,-146.483" fill="none" stroke="black"/>
<polygon fill="black" points="78.5,-141.172 80.7501,-146.172 78.5,-143.672 78.5001,-146.172 78.5001,-146.172 78.5001,-146.172 78.5,-143.672 76.2501,-146.172 78.5,-141.172 78.5,-141.172" stroke="black"/>
</g>
<!-- 2&#45;&gt;1 -->
<g class="edge" id="edge13"><title>2-&gt;1</title>
<path d="M95.0727,-209.198C117.829,-213.14 160.217,-220.483 185.645,-224.887" fill="none" stroke="black"/>
<polygon fill="black" points="190.8,-225.78 185.489,-227.144 188.337,-225.354 185.873,-224.927 185.873,-224.927 185.873,-224.927 188.337,-225.354 186.257,-222.71 190.8,-225.78 190.8,-225.78" stroke="black"/>
</g>
<!-- 3&#45;&gt;2 -->
<g class="edge" id="edge14"><title>3-&gt;2</title>
<path d="M78.5,-250.847C78.5,-240.634 78.5,-230.421 78.5,-220.209" fill="none" stroke="black"/>
<polygon fill="black" points="78.5,-215.195 80.7501,-220.195 78.5,-217.695 78.5001,-220.195 78.5001,-220.195 78.5001,-220.195 78.5,-217.695 76.2501,-220.195 78.5,-215.195 78.5,-215.195" stroke="black"/>
</g>
<!-- 6 -->
<g class="node" id="node8"><title>6</title>
<path d="M113.333,-17C113.333,-17 43.6667,-17 43.6667,-17 40.8333,-17 38,-14.1667 38,-11.3333 38,-11.3333 38,-5.66667 38,-5.66667 38,-2.83333 40.8333,-0 43.6667,-0 43.6667,-0 113.333,-0 113.333,-0 116.167,-0 119,-2.83333 119,-5.66667 119,-5.66667 119,-11.3333 119,-11.3333 119,-14.1667 116.167,-17 113.333,-17" fill="none" stroke="black"/>
<text font-family="Courier,monospace" font-size="10.00" text-anchor="start" x="42" y="-6">q2,[#] # # …</text>
</g>
<!-- 4&#45;&gt;6 -->
<g class="edge" id="edge5"><title>4-&gt;6</title>
<path d="M78.5,-70.7247C78.5,-54.5248 78.5,-38.325 78.5,-22.1252" fill="none" stroke="black"/>
<polygon fill="black" points="78.5,-17.0977 80.7501,-22.0976 78.5,-19.5977 78.5001,-22.0977 78.5001,-22.0977 78.5001,-22.0977 78.5,-19.5977 76.2501,-22.0977 78.5,-17.0977 78.5,-17.0977" stroke="black"/>
</g>
<!-- 8 -->
<g class="node" id="node10"><title>8</title>
<path d="M236.333,-88C236.333,-88 178.667,-88 178.667,-88 175.833,-88 173,-85.1667 173,-82.3333 173,-82.3333 173,-76.6667 173,-76.6667 173,-73.8333 175.833,-71 178.667,-71 178.667,-71 236.333,-71 236.333,-71 239.167,-71 242,-73.8333 242,-76.6667 242,-76.6667 242,-82.3333 242,-82.3333 242,-85.1667 239.167,-88 236.333,-88" fill="none" stroke="black"/>
<text font-family="Courier,monospace" font-size="10.00" text-anchor="start" x="177" y="-77">q3,[#] # $</text>
</g>
<!-- 4&#45;&gt;8 -->
<g class="edge" id="edge4"><title>4-&gt;8</title>
<path d="M113.2,-79.5C129.849,-79.5 150.033,-79.5 167.363,-79.5" fill="none" stroke="black"/>
<polygon fill="black" points="172.642,-79.5 167.642,-81.7501 170.142,-79.5 167.642,-79.5001 167.642,-79.5001 167.642,-79.5001 170.142,-79.5 167.642,-77.2501 172.642,-79.5 172.642,-79.5" stroke="black"/>
</g>
<!-- 6&#45;&gt;6 -->
<g class="edge" id="edge9"><title>6-&gt;6</title>
<path d="M69.8579,-17.1857C65.0841,-25.6739 67.9648,-35 78.5,-35 87.0598,-35 90.5665,-28.8433 89.02,-21.9817" fill="none" stroke="black"/>
<polygon fill="black" points="87.1421,-17.1857 91.0603,-21.0211 88.0537,-19.5136 88.9652,-21.8415 88.9652,-21.8415 88.9652,-21.8415 88.0537,-19.5136 86.8701,-22.6619 87.1421,-17.1857 87.1421,-17.1857" stroke="black"/>
</g>
<!-- 9 -->
<g class="node" id="node11"><title>9</title>
<path d="M242.333,-17C242.333,-17 172.667,-17 172.667,-17 169.833,-17 167,-14.1667 167,-11.3333 167,-11.3333 167,-5.66667 167,-5.66667 167,-2.83333 169.833,-0 172.667,-0 172.667,-0 242.333,-0 242.333,-0 245.167,-0 248,-2.83333 248,-5.66667 248,-5.66667 248,-11.3333 248,-11.3333 248,-14.1667 245.167,-17 242.333,-17" fill="none" stroke="black"/>
<text font-family="Courier,monospace" font-size="10.00" text-anchor="start" x="171" y="-6">q3,[#] # # …</text>
</g>
<!-- 6&#45;&gt;9 -->
<g class="edge" id="edge8"><title>6-&gt;9</title>
<path d="M119.335,-8.5C132.811,-8.5 147.946,-8.5 161.776,-8.5" fill="none" stroke="black"/>
<polygon fill="black" points="166.806,-8.5 161.806,-10.7501 164.306,-8.50005 161.806,-8.5001 161.806,-8.5001 161.806,-8.5001 164.306,-8.50005 161.806,-6.2501 166.806,-8.5 166.806,-8.5" stroke="black"/>
</g>
<!-- 7&#45;&gt;1 -->
<g class="edge" id="edge6"><title>7-&gt;1</title>
<path d="M178.761,-136.638C165.541,-140.137 151.039,-146.592 143,-158.5 127.137,-181.998 161.504,-205.439 185.901,-218.347" fill="none" stroke="black"/>
<polygon fill="black" points="190.629,-220.785 185.154,-220.493 188.407,-219.639 186.185,-218.493 186.185,-218.493 186.185,-218.493 188.407,-219.639 187.216,-216.493 190.629,-220.785 190.629,-220.785" stroke="black"/>
</g>
<!-- 8&#45;&gt;7 -->
<g class="edge" id="edge7"><title>8-&gt;7</title>
<path d="M207.5,-88.1953C207.5,-98.408 207.5,-108.621 207.5,-118.833" fill="none" stroke="black"/>
<polygon fill="black" points="207.5,-123.847 205.25,-118.847 207.5,-121.347 207.5,-118.847 207.5,-118.847 207.5,-118.847 207.5,-121.347 209.75,-118.847 207.5,-123.847 207.5,-123.847" stroke="black"/>
</g>
<!-- 9&#45;&gt;8 -->
<g class="edge" id="edge3"><title>9-&gt;8</title>
<path d="M207.5,-17.0977C207.5,-33.2975 207.5,-49.4973 207.5,-65.6971" fill="none" stroke="black"/>
<polygon fill="black" points="207.5,-70.7247 205.25,-65.7246 207.5,-68.2247 207.5,-65.7247 207.5,-65.7247 207.5,-65.7247 207.5,-68.2247 209.75,-65.7247 207.5,-70.7247 207.5,-70.7247" stroke="black"/>
</g>
<!-- 9&#45;&gt;9 -->
<g class="edge" id="edge2"><title>9-&gt;9</title>
<path d="M197.964,-17.1857C192.696,-25.6739 195.875,-35 207.5,-35 216.945,-35 220.815,-28.8433 219.108,-21.9817" fill="none" stroke="black"/>
<polygon fill="black" points="217.036,-17.1857 221.085,-20.8831 218.028,-19.4806 219.019,-21.7756 219.019,-21.7756 219.019,-21.7756 218.028,-19.4806 216.954,-22.668 217.036,-17.1857 217.036,-17.1857" stroke="black"/>
</g>
<!-- 10 -->
<g class="node" id="node12"><title>10</title>
</g>
<!-- 11 -->
<g class="node" id="node13"><title>11</title>
</g>
<!-- 10&#45;&gt;11 -->
<g class="edge" id="edge10"><title>10-&gt;11</title>
<path d="M98.2393,-294.5C120.656,-294.5 158.216,-294.5 182.674,-294.5" fill="none" stroke="white"/>
<polygon fill="white" points="187.684,-294.5 182.684,-296.75 185.184,-294.5 182.684,-294.5 182.684,-294.5 182.684,-294.5 185.184,-294.5 182.684,-292.25 187.684,-294.5 187.684,-294.5" stroke="white"/>
<text font-family="Courier,monospace" font-size="9.00" text-anchor="start" x="140" y="-300.3">0</text>
</g>
</g>
</svg>