<svg height="63pt" viewBox="0.00 0.00 366.00 63.00" width="366pt" xmlns="http://www.w3.org/2000/svg" xmlns:xlink="http://www.w3.org/1999/xlink">
<g class="graph" id="graph0" transform="scale(1 1) rotate(0) translate(4 59)">
<title>%3</title>
<polygon fill="white" points="-4,4 -4,-59 362,-59 362,4 -4,4" stroke="none"/>
<!-- _START -->
<g class="node" id="node1"><title>_START</title>
</g>
<!-- 0 -->
<g class="node" id="node2"><title>0</title>
<path d="M53.3333,-21C53.3333,-21 43.6667,-21 43.6667,-21 40.8333,-21 38,-18.1667 38,-15.3333 38,-15.3333 38,-9.66667 38,-9.66667 38,-6.83333 40.8333,-4 43.6667,-4 43.6667,-4 53.3333,-4 53.3333,-4 56.1667,-4 59,-6.83333 59,-9.66667 59,-9.66667 59,-15.3333 59,-15.3333 59,-18.1667 56.1667,-21 53.3333,-21" fill="none" stroke="black"/>
<text font-family="Courier,monospace" font-size="10.00" text-anchor="start" x="42" y="-10">q1</text>
</g>
<!-- _START&#45;&gt;0 -->
<g class="edge" id="edge1"><title>_START-&gt;0</title>
<path d="M1.13339,-12.5C2.79277,-12.5 19.5956,-12.5 32.5011,-12.5" fill="none" stroke="black"/>
<polygon fill="black" points="37.7379,-12.5 32.738,-14.7501 35.2379,-12.5 32.7379,-12.5001 32.7379,-12.5001 32.7379,-12.5001 35.2379,-12.5 32.7379,-10.2501 37.7379,-12.5 37.7379,-12.5" stroke="black"/>
</g>
<!-- 1 -->
<g class="node" id="node3"><title>1</title>
<path d="M149.333,-21C149.333,-21 139.667,-21 139.667,-21 136.833,-21 134,-18.1667 134,-15.3333 134,-15.3333 134,-9.66667 134,-9.66667 134,-6.83333 136.833,-4 139.667,-4 139.667,-4 149.333,-4 149.333,-4 152.167,-4 155,-6.83333 155,-9.66667 155,-9.66667 155,-15.3333 155,-15.3333 155,-18.1667 152.167,-21 149.333,-21" fill="none" stroke="black"/>
<text font-family="Courier,monospace" font-size="10.00" text-anchor="start" x="138" y="-10">q2</text>
</g>
<!-- 0&#45;&gt;1 -->
<g class="edge" id="edge2"><title>0-&gt;1</title>
<path d="M59.2056,-12.5C75.756,-12.5 109.526,-12.5 128.923,-12.5" fill="none" stroke="black"/>
<polygon fill="black" points="133.987,-12.5 128.987,-14.7501 131.487,-12.5 128.987,-12.5001 128.987,-12.5001 128.987,-12.5001 131.487,-12.5 128.987,-10.2501 133.987,-12.5 133.987,-12.5" stroke="black"/>
<text font-family="Courier,monospace" font-size="9.00" text-anchor="start" x="80.5" y="-18.3">ε,ε → $</text>
</g>
<!-- 1&#45;&gt;1 -->
<g class="edge" id="edge6"><title>1-&gt;1</title>
<path d="M137.348,-21.1857C133.397,-29.6739 135.781,-39 144.5,-39 151.584,-39 154.486,-32.8433 153.206,-25.9817" fill="none" stroke="black"/>
<polygon fill="black" points="151.652,-21.1857 155.334,-25.2485 152.423,-23.5639 153.194,-25.9422 153.194,-25.9422 153.194,-25.9422 152.423,-23.5639 151.053,-26.6358 151.652,-21.1857 151.652,-21.1857" stroke="black"/>
<text font-family="Courier,monospace" font-size="9.00" text-anchor="start" x="128.5" y="-44.8">ε,ε → #</text>
</g>
<!-- 2 -->
<g class="node" id="node4"><title>2</title>
<path d="M245.333,-21C245.333,-21 235.667,-21 235.667,-21 232.833,-21 230,-18.1667 230,-15.3333 230,-15.3333 230,-9.66667 230,-9.66667 230,-6.83333 232.833,-4 235.667,-4 235.667,-4 245.333,-4 245.333,-4 248.167,-4 251,-6.83333 251,-9.66667 251,-9.66667 251,-15.3333 251,-15.3333 251,-18.1667 248.167,-21 245.333,-21" fill="none" stroke="black"/>
<text font-family="Courier,monospace" font-size="10.00" text-anchor="start" x="234" y="-10">q3</text>
</g>
<!-- 1&#45;&gt;2 -->
<g class="edge" id="edge5"><title>1-&gt;2</title>
<path d="M155.206,-12.5C171.756,-12.5 205.526,-12.5 224.923,-12.5" fill="none" stroke="black"/>
<polygon fill="black" points="229.987,-12.5 224.987,-14.7501 227.487,-12.5 224.987,-12.5001 224.987,-12.5001 224.987,-12.5001 227.487,-12.5 224.987,-10.2501 229.987,-12.5 229.987,-12.5" stroke="black"/>
<text font-family="Courier,monospace" font-size="9.00" text-anchor="start" x="176.5" y="-18.3">0,ε → ε</text>
</g>
<!-- 2&#45;&gt;2 -->
<g class="edge" id="edge3"><title>2-&gt;2</title>
<path d="M233.348,-21.1857C229.397,-29.6739 231.781,-39 240.5,-39 247.584,-39 250.486,-32.8433 249.206,-25.9817" fill="none" stroke="black"/>
<polygon fill="black" points="247.652,-21.1857 251.334,-25.2485 248.423,-23.5639 249.194,-25.9422 249.194,-25.9422 249.194,-25.9422 248.423,-23.5639 247.053,-26.6358 247.652,-21.1857 247.652,-21.1857" stroke="black"/>
<text font-family="Courier,monospace" font-size="9.00" text-anchor="start" x="222.5" y="-44.8">ε,# → ε</text>
</g>
<!-- 3 -->
<g class="node" id="node5"><title>3</title>
<path d="M348.333,-21C348.333,-21 338.667,-21 338.667,-21 335.833,-21 333,-18.1667 333,-15.3333 333,-15.3333 333,-9.66667 333,-9.66667 333,-6.83333 335.833,-4 338.667,-4 338.667,-4 348.333,-4 348.333,-4 351.167,-4 354,-6.83333 354,-9.66667 354,-9.66667 354,-15.3333 354,-15.3333 354,-18.1667 351.167,-21 348.333,-21" fill="none" stroke="black"/>
<path d="M349.667,-25C349.667,-25 337.333,-25 337.333,-25 333.167,-25 329,-20.8333 329,-16.6667 329,-16.6667 329,-8.33333 329,-8.33333 329,-4.16667 333.167,-0 337.333,-0 337.333,-0 349.667,-0 349.667,-0 353.833,-0 358,-4.16667 358,-8.33333 358,-8.33333 358,-16.6667 358,-16.6667 358,-20.8333 353.833,-25 349.667,-25" fill="none" stroke="black"/>
<text font-family="Courier,monospace" font-size="10.00" text-anchor="start" x="337" y="-10">q4</text>
</g>
<!-- 2&#45;&gt;3 -->
<g class="edge" id="edge4"><title>2-&gt;3</title>
<path d="M251.184,-12.5C267.843,-12.5 302.202,-12.5 323.698,-12.5" fill="none" stroke="black"/>
<polygon fill="black" points="328.867,-12.5 323.867,-14.7501 326.367,-12.5 323.867,-12.5001 323.867,-12.5001 323.867,-12.5001 326.367,-12.5 323.867,-10.2501 328.867,-12.5 328.867,-12.5" stroke="black"/>
<text font-family="Courier,monospace" font-size="9.00" text-anchor="start" x="272" y="-18.3">ε,$ → ε</text>
</g>
</g>
</svg>