<svg xmlns="http://www.w3.org/2000/svg" xmlns:xlink="http://www.w3.org/1999/xlink" width="573pt" height="88pt" viewBox="0.00 0.00 573.00 88.47">
<g id="graph0" class="graph" transform="scale(1 1) rotate(0) translate(4 84.47)">
<title>%3</title>
<polygon fill="white" stroke="transparent" points="-4,4 -4,-84.47 569,-84.47 569,4 -4,4"/>
<!-- _START -->
<g id="node1" class="node">
<title>_START</title>
</g>
<!-- 0 -->
<g id="node2" class="node">
<title>0</title>
<path fill="none" stroke="black" d="M71.33,-52.97C71.33,-52.97 43.67,-52.97 43.67,-52.97 40.83,-52.97 38,-50.13 38,-47.3 38,-47.3 38,-41.63 38,-41.63 38,-38.8 40.83,-35.97 43.67,-35.97 43.67,-35.97 71.33,-35.97 71.33,-35.97 74.17,-35.97 77,-38.8 77,-41.63 77,-41.63 77,-47.3 77,-47.3 77,-50.13 74.17,-52.97 71.33,-52.97"/>
<text text-anchor="start" x="42" y="-41.97" font-family="Courier,monospace" font-size="10.00">start</text>
</g>
<!-- _START&#45;&gt;0 -->
<g id="edge1" class="edge">
<title>_START-&gt;0</title>
<path fill="none" stroke="black" d="M1.16,-44.47C2.89,-44.47 18.46,-44.47 32.64,-44.47"/>
<polygon fill="black" stroke="black" points="37.78,-44.47 32.78,-46.72 35.28,-44.47 32.78,-44.47 32.78,-44.47 32.78,-44.47 35.28,-44.47 32.78,-42.22 37.78,-44.47 37.78,-44.47"/>
</g>
<!-- 1 -->
<g id="node3" class="node">
<title>1</title>
<path fill="none" stroke="black" d="M555.33,-52.97C555.33,-52.97 521.67,-52.97 521.67,-52.97 518.83,-52.97 516,-50.13 516,-47.3 516,-47.3 516,-41.63 516,-41.63 516,-38.8 518.83,-35.97 521.67,-35.97 521.67,-35.97 555.33,-35.97 555.33,-35.97 558.17,-35.97 561,-38.8 561,-41.63 561,-41.63 561,-47.3 561,-47.3 561,-50.13 558.17,-52.97 555.33,-52.97"/>
<path fill="none" stroke="black" d="M556.67,-56.97C556.67,-56.97 520.33,-56.97 520.33,-56.97 516.17,-56.97 512,-52.8 512,-48.63 512,-48.63 512,-40.3 512,-40.3 512,-36.13 516.17,-31.97 520.33,-31.97 520.33,-31.97 556.67,-31.97 556.67,-31.97 560.83,-31.97 565,-36.13 565,-40.3 565,-40.3 565,-48.63 565,-48.63 565,-52.8 560.83,-56.97 556.67,-56.97"/>
<text text-anchor="start" x="520" y="-41.97" font-family="Courier,monospace" font-size="10.00">accept</text>
</g>
<!-- 0&#45;&gt;1 -->
<g id="edge7" class="edge">
<title>0-&gt;1</title>
<path fill="none" stroke="black" d="M77.12,-49.83C99.37,-55.75 137.83,-64.47 171.5,-64.47 171.5,-64.47 171.5,-64.47 417.5,-64.47 448.26,-64.47 482.86,-57.99 506.97,-52.41"/>
<polygon fill="black" stroke="black" points="511.96,-51.24 507.61,-54.58 509.52,-51.81 507.09,-52.39 507.09,-52.39 507.09,-52.39 509.52,-51.81 506.57,-50.2 511.96,-51.24 511.96,-51.24"/>
<text text-anchor="start" x="273.5" y="-70.27" font-family="Courier,monospace" font-size="9.00">ε ∪ a* a</text>
</g>
<!-- 2 -->
<g id="node4" class="node">
<title>2</title>
<path fill="none" stroke="black" d="M177.33,-33.97C177.33,-33.97 167.67,-33.97 167.67,-33.97 164.83,-33.97 162,-31.13 162,-28.3 162,-28.3 162,-22.63 162,-22.63 162,-19.8 164.83,-16.97 167.67,-16.97 167.67,-16.97 177.33,-16.97 177.33,-16.97 180.17,-16.97 183,-19.8 183,-22.63 183,-22.63 183,-28.3 183,-28.3 183,-31.13 180.17,-33.97 177.33,-33.97"/>
<text text-anchor="start" x="166" y="-22.97" font-family="Courier,monospace" font-size="10.00">q1</text>
</g>
<!-- 0&#45;&gt;2 -->
<g id="edge8" class="edge">
<title>0-&gt;2</title>
<path fill="none" stroke="black" d="M77.32,-38.73C82.96,-37.17 89.2,-35.6 95,-34.47 116.04,-30.37 140.73,-27.88 156.25,-26.58"/>
<polygon fill="black" stroke="black" points="161.52,-26.16 156.72,-28.8 159.03,-26.36 156.54,-26.56 156.54,-26.56 156.54,-26.56 159.03,-26.36 156.36,-24.32 161.52,-26.16 161.52,-26.16"/>
<text text-anchor="start" x="98.5" y="-40.27" font-family="Courier,monospace" font-size="9.00">ε ∪ a* a</text>
</g>
<!-- 3 -->
<g id="node5" class="node">
<title>3</title>
<path fill="none" stroke="black" d="M246.33,-33.97C246.33,-33.97 236.67,-33.97 236.67,-33.97 233.83,-33.97 231,-31.13 231,-28.3 231,-28.3 231,-22.63 231,-22.63 231,-19.8 233.83,-16.97 236.67,-16.97 236.67,-16.97 246.33,-16.97 246.33,-16.97 249.17,-16.97 252,-19.8 252,-22.63 252,-22.63 252,-28.3 252,-28.3 252,-31.13 249.17,-33.97 246.33,-33.97"/>
<text text-anchor="start" x="235" y="-22.97" font-family="Courier,monospace" font-size="10.00">q2</text>
</g>
<!-- 2&#45;&gt;3 -->
<g id="edge2" class="edge">
<title>2-&gt;3</title>
<path fill="none" stroke="black" d="M183.1,-25.47C194.24,-25.47 212.75,-25.47 225.73,-25.47"/>
<polygon fill="black" stroke="black" points="230.92,-25.47 225.92,-27.72 228.42,-25.47 225.92,-25.47 225.92,-25.47 225.92,-25.47 228.42,-25.47 225.92,-23.22 230.92,-25.47 230.92,-25.47"/>
<text text-anchor="start" x="204" y="-31.27" font-family="Courier,monospace" font-size="9.00">a</text>
</g>
<!-- 4 -->
<g id="node6" class="node">
<title>4</title>
<path fill="none" stroke="black" d="M352.33,-33.97C352.33,-33.97 342.67,-33.97 342.67,-33.97 339.83,-33.97 337,-31.13 337,-28.3 337,-28.3 337,-22.63 337,-22.63 337,-19.8 339.83,-16.97 342.67,-16.97 342.67,-16.97 352.33,-16.97 352.33,-16.97 355.17,-16.97 358,-19.8 358,-22.63 358,-22.63 358,-28.3 358,-28.3 358,-31.13 355.17,-33.97 352.33,-33.97"/>
<text text-anchor="start" x="341" y="-22.97" font-family="Courier,monospace" font-size="10.00">q3</text>
</g>
<!-- 3&#45;&gt;4 -->
<g id="edge4" class="edge">
<title>3-&gt;4</title>
<path fill="none" stroke="black" d="M252.1,-25.47C270.36,-25.47 310.22,-25.47 331.85,-25.47"/>
<polygon fill="black" stroke="black" points="336.93,-25.47 331.93,-27.72 334.43,-25.47 331.93,-25.47 331.93,-25.47 331.93,-25.47 334.43,-25.47 331.93,-23.22 336.93,-25.47 336.93,-25.47"/>
<text text-anchor="start" x="291.5" y="-31.27" font-family="Courier,monospace" font-size="9.00">ε</text>
</g>
<!-- 5 -->
<g id="node7" class="node">
<title>5</title>
<path fill="none" stroke="black" d="M421.33,-33.97C421.33,-33.97 411.67,-33.97 411.67,-33.97 408.83,-33.97 406,-31.13 406,-28.3 406,-28.3 406,-22.63 406,-22.63 406,-19.8 408.83,-16.97 411.67,-16.97 411.67,-16.97 421.33,-16.97 421.33,-16.97 424.17,-16.97 427,-19.8 427,-22.63 427,-22.63 427,-28.3 427,-28.3 427,-31.13 424.17,-33.97 421.33,-33.97"/>
<text text-anchor="start" x="410" y="-22.97" font-family="Courier,monospace" font-size="10.00">q4</text>
</g>
<!-- 4&#45;&gt;5 -->
<g id="edge3" class="edge">
<title>4-&gt;5</title>
<path fill="none" stroke="black" d="M358.1,-25.47C369.24,-25.47 387.75,-25.47 400.73,-25.47"/>
<polygon fill="black" stroke="black" points="405.92,-25.47 400.92,-27.72 403.42,-25.47 400.92,-25.47 400.92,-25.47 400.92,-25.47 403.42,-25.47 400.92,-23.22 405.92,-25.47 405.92,-25.47"/>
<text text-anchor="start" x="379" y="-31.27" font-family="Courier,monospace" font-size="9.00">b</text>
</g>
<!-- 5&#45;&gt;1 -->
<g id="edge5" class="edge">
<title>5-&gt;1</title>
<path fill="none" stroke="black" d="M427.45,-26.29C442.1,-27.58 470.28,-30.36 494,-34.47 498.17,-35.19 502.54,-36.06 506.84,-36.98"/>
<polygon fill="black" stroke="black" points="511.83,-38.08 506.46,-39.2 509.39,-37.54 506.95,-37 506.95,-37 506.95,-37 509.39,-37.54 507.43,-34.81 511.83,-38.08 511.83,-38.08"/>
<text text-anchor="start" x="448.5" y="-40.27" font-family="Courier,monospace" font-size="9.00">ε ∪ a* a</text>
</g>
<!-- 5&#45;&gt;2 -->
<g id="edge6" class="edge">
<title>5-&gt;2</title>
<path fill="none" stroke="black" d="M405.92,-21.65C394.66,-17.35 375.3,-10.57 358,-7.47 302.44,2.49 286.56,2.49 231,-7.47 216,-10.15 199.45,-15.61 187.97,-19.82"/>
<polygon fill="black" stroke="black" points="183.08,-21.65 186.98,-17.79 185.42,-20.77 187.76,-19.9 187.76,-19.9 187.76,-19.9 185.42,-20.77 188.55,-22 183.08,-21.65 183.08,-21.65"/>
<text text-anchor="start" x="273.5" y="-7.27" font-family="Courier,monospace" font-size="9.00">ε ∪ a* a</text>
</g>
</g>
</svg>