<svg height="77pt" viewBox="0.00 0.00 391.00 77.00" width="391pt" xmlns="http://www.w3.org/2000/svg" xmlns:xlink="http://www.w3.org/1999/xlink">
<g class="graph" id="graph0" transform="scale(1 1) rotate(0) translate(4 73)">
<title>%3</title>
<polygon fill="white" points="-4,4 -4,-73 387,-73 387,4 -4,4" stroke="none"/>
<!-- _START -->
<g class="node" id="node1"><title>_START</title>
</g>
<!-- 0 -->
<g class="node" id="node2"><title>0</title>
<path d="M57.3333,-21C57.3333,-21 47.6667,-21 47.6667,-21 44.8333,-21 42,-18.1667 42,-15.3333 42,-15.3333 42,-9.66667 42,-9.66667 42,-6.83333 44.8333,-4 47.6667,-4 47.6667,-4 57.3333,-4 57.3333,-4 60.1667,-4 63,-6.83333 63,-9.66667 63,-9.66667 63,-15.3333 63,-15.3333 63,-18.1667 60.1667,-21 57.3333,-21" fill="none" stroke="black"/>
<path d="M58.6667,-25C58.6667,-25 46.3333,-25 46.3333,-25 42.1667,-25 38,-20.8333 38,-16.6667 38,-16.6667 38,-8.33333 38,-8.33333 38,-4.16667 42.1667,-0 46.3333,-0 46.3333,-0 58.6667,-0 58.6667,-0 62.8333,-0 67,-4.16667 67,-8.33333 67,-8.33333 67,-16.6667 67,-16.6667 67,-20.8333 62.8333,-25 58.6667,-25" fill="none" stroke="black"/>
<text font-family="Courier,monospace" font-size="10.00" text-anchor="start" x="46" y="-10">q1</text>
</g>
<!-- _START&#45;&gt;0 -->
<g class="edge" id="edge1"><title>_START-&gt;0</title>
<path d="M1.14487,-12.5C2.8405,-12.5 19.0961,-12.5 32.6863,-12.5" fill="none" stroke="black"/>
<polygon fill="black" points="37.9171,-12.5 32.9172,-14.7501 35.4171,-12.5 32.9171,-12.5001 32.9171,-12.5001 32.9171,-12.5001 35.4171,-12.5 32.9171,-10.2501 37.9171,-12.5 37.9171,-12.5" stroke="black"/>
</g>
<!-- 1 -->
<g class="node" id="node3"><title>1</title>
<path d="M161.833,-21C161.833,-21 152.167,-21 152.167,-21 149.333,-21 146.5,-18.1667 146.5,-15.3333 146.5,-15.3333 146.5,-9.66667 146.5,-9.66667 146.5,-6.83333 149.333,-4 152.167,-4 152.167,-4 161.833,-4 161.833,-4 164.667,-4 167.5,-6.83333 167.5,-9.66667 167.5,-9.66667 167.5,-15.3333 167.5,-15.3333 167.5,-18.1667 164.667,-21 161.833,-21" fill="none" stroke="black"/>
<text font-family="Courier,monospace" font-size="10.00" text-anchor="start" x="150.5" y="-10">q2</text>
</g>
<!-- 0&#45;&gt;1 -->
<g class="edge" id="edge2"><title>0-&gt;1</title>
<path d="M67.3236,-12.5C86.6038,-12.5 121.422,-12.5 141.208,-12.5" fill="none" stroke="black"/>
<polygon fill="black" points="146.364,-12.5 141.364,-14.7501 143.864,-12.5 141.364,-12.5001 141.364,-12.5001 141.364,-12.5001 143.864,-12.5 141.364,-10.2501 146.364,-12.5 146.364,-12.5" stroke="black"/>
<text font-family="Courier,monospace" font-size="9.00" text-anchor="start" x="88.5" y="-18.3">ε,ε → $</text>
</g>
<!-- 1&#45;&gt;1 -->
<g class="edge" id="edge6"><title>1-&gt;1</title>
<path d="M149.252,-21.1857C144.972,-29.6739 147.555,-39 157,-39 164.674,-39 167.818,-32.8433 166.432,-25.9817" fill="none" stroke="black"/>
<polygon fill="black" points="164.748,-21.1857 168.527,-25.1581 165.576,-23.5445 166.404,-25.9034 166.404,-25.9034 166.404,-25.9034 165.576,-23.5445 164.281,-26.6487 164.748,-21.1857 164.748,-21.1857" stroke="black"/>
<text font-family="Courier,monospace" font-size="9.00" text-anchor="start" x="140" y="-58.8">0,ε → 0</text>
<text font-family="Courier,monospace" font-size="9.00" text-anchor="start" x="140" y="-44.8">1,ε → 1</text>
</g>
<!-- 2 -->
<g class="node" id="node4"><title>2</title>
<path d="M265.833,-21C265.833,-21 256.167,-21 256.167,-21 253.333,-21 250.5,-18.1667 250.5,-15.3333 250.5,-15.3333 250.5,-9.66667 250.5,-9.66667 250.5,-6.83333 253.333,-4 256.167,-4 256.167,-4 265.833,-4 265.833,-4 268.667,-4 271.5,-6.83333 271.5,-9.66667 271.5,-9.66667 271.5,-15.3333 271.5,-15.3333 271.5,-18.1667 268.667,-21 265.833,-21" fill="none" stroke="black"/>
<text font-family="Courier,monospace" font-size="10.00" text-anchor="start" x="254.5" y="-10">q3</text>
</g>
<!-- 1&#45;&gt;2 -->
<g class="edge" id="edge5"><title>1-&gt;2</title>
<path d="M167.78,-12.5C185.723,-12.5 223.997,-12.5 245.161,-12.5" fill="none" stroke="black"/>
<polygon fill="black" points="250.398,-12.5 245.398,-14.7501 247.898,-12.5 245.398,-12.5001 245.398,-12.5001 245.398,-12.5001 247.898,-12.5 245.398,-10.2501 250.398,-12.5 250.398,-12.5" stroke="black"/>
<text font-family="Courier,monospace" font-size="9.00" text-anchor="start" x="193" y="-18.3">ε,ε → ε</text>
</g>
<!-- 2&#45;&gt;2 -->
<g class="edge" id="edge3"><title>2-&gt;2</title>
<path d="M253.252,-21.1857C248.972,-29.6739 251.555,-39 261,-39 268.674,-39 271.818,-32.8433 270.432,-25.9817" fill="none" stroke="black"/>
<polygon fill="black" points="268.748,-21.1857 272.527,-25.1581 269.576,-23.5445 270.404,-25.9034 270.404,-25.9034 270.404,-25.9034 269.576,-23.5445 268.281,-26.6487 268.748,-21.1857 268.748,-21.1857" stroke="black"/>
<text font-family="Courier,monospace" font-size="9.00" text-anchor="start" x="243" y="-58.8">0,0 → ε</text>
<text font-family="Courier,monospace" font-size="9.00" text-anchor="start" x="243" y="-44.8">1,1 → ε</text>
</g>
<!-- 3 -->
<g class="node" id="node5"><title>3</title>
<path d="M373.333,-21C373.333,-21 363.667,-21 363.667,-21 360.833,-21 358,-18.1667 358,-15.3333 358,-15.3333 358,-9.66667 358,-9.66667 358,-6.83333 360.833,-4 363.667,-4 363.667,-4 373.333,-4 373.333,-4 376.167,-4 379,-6.83333 379,-9.66667 379,-9.66667 379,-15.3333 379,-15.3333 379,-18.1667 376.167,-21 373.333,-21" fill="none" stroke="black"/>
<path d="M374.667,-25C374.667,-25 362.333,-25 362.333,-25 358.167,-25 354,-20.8333 354,-16.6667 354,-16.6667 354,-8.33333 354,-8.33333 354,-4.16667 358.167,-0 362.333,-0 362.333,-0 374.667,-0 374.667,-0 378.833,-0 383,-4.16667 383,-8.33333 383,-8.33333 383,-16.6667 383,-16.6667 383,-20.8333 378.833,-25 374.667,-25" fill="none" stroke="black"/>
<text font-family="Courier,monospace" font-size="10.00" text-anchor="start" x="362" y="-10">q4</text>
</g>
<!-- 2&#45;&gt;3 -->
<g class="edge" id="edge4"><title>2-&gt;3</title>
<path d="M271.736,-12.5C289.209,-12.5 326.166,-12.5 348.715,-12.5" fill="none" stroke="black"/>
<polygon fill="black" points="353.843,-12.5 348.843,-14.7501 351.343,-12.5 348.843,-12.5001 348.843,-12.5001 348.843,-12.5001 351.343,-12.5 348.843,-10.2501 353.843,-12.5 353.843,-12.5" stroke="black"/>
<text font-family="Courier,monospace" font-size="9.00" text-anchor="start" x="297" y="-18.3">ε,$ → ε</text>
</g>
</g>
</svg>