<svg height="808pt" viewBox="0.00 0.00 532.00 807.50" width="532pt" xmlns="http://www.w3.org/2000/svg" xmlns:xlink="http://www.w3.org/1999/xlink">
<g class="graph" id="graph0" transform="scale(1 1) rotate(0) translate(4 803.5)">
<title>%3</title>
<polygon fill="white" points="-4,4 -4,-803.5 528,-803.5 528,4 -4,4" stroke="none"/>
<!-- _START -->
<g class="node" id="node1"><title>_START</title>
</g>
<!-- 1 -->
<g class="node" id="node3"><title>1</title>
<path d="M103.333,-757C103.333,-757 65.6667,-757 65.6667,-757 62.8333,-757 60,-754.167 60,-751.333 60,-751.333 60,-745.667 60,-745.667 60,-742.833 62.8333,-740 65.6667,-740 65.6667,-740 103.333,-740 103.333,-740 106.167,-740 109,-742.833 109,-745.667 109,-745.667 109,-751.333 109,-751.333 109,-754.167 106.167,-757 103.333,-757" fill="none" stroke="black"/>
<text font-family="Courier,monospace" font-size="10.00" text-anchor="start" x="64" y="-746">start,ε</text>
</g>
<!-- _START&#45;&gt;1 -->
<g class="edge" id="edge1"><title>_START-&gt;1</title>
<path d="M1.0598,-748.5C2.54767,-748.5 31.5062,-748.5 54.6856,-748.5" fill="none" stroke="black"/>
<polygon fill="black" points="59.8312,-748.5 54.8312,-750.75 57.3312,-748.5 54.8312,-748.5 54.8312,-748.5 54.8312,-748.5 57.3312,-748.5 54.8311,-746.25 59.8312,-748.5 59.8312,-748.5" stroke="black"/>
</g>
<!-- 0 -->
<g class="node" id="node2"><title>0</title>
<path d="M98.3333,-704C98.3333,-704 70.6667,-704 70.6667,-704 67.8333,-704 65,-701.167 65,-698.333 65,-698.333 65,-692.667 65,-692.667 65,-689.833 67.8333,-687 70.6667,-687 70.6667,-687 98.3333,-687 98.3333,-687 101.167,-687 104,-689.833 104,-692.667 104,-692.667 104,-698.333 104,-698.333 104,-701.167 101.167,-704 98.3333,-704" fill="none" stroke="black"/>
<text font-family="Courier,monospace" font-size="10.00" text-anchor="start" x="69" y="-693">0.1,$</text>
</g>
<!-- 9 -->
<g class="node" id="node11"><title>9</title>
<path d="M113.333,-651C113.333,-651 55.6667,-651 55.6667,-651 52.8333,-651 50,-648.167 50,-645.333 50,-645.333 50,-639.667 50,-639.667 50,-636.833 52.8333,-634 55.6667,-634 55.6667,-634 113.333,-634 113.333,-634 116.167,-634 119,-636.833 119,-639.667 119,-639.667 119,-645.333 119,-645.333 119,-648.167 116.167,-651 113.333,-651" fill="none" stroke="black"/>
<text font-family="Courier,monospace" font-size="10.00" text-anchor="start" x="54" y="-640">loop,[S] $</text>
</g>
<!-- 0&#45;&gt;9 -->
<g class="edge" id="edge13"><title>0-&gt;9</title>
<path d="M84.5,-686.847C84.5,-676.634 84.5,-666.421 84.5,-656.209" fill="none" stroke="black"/>
<polygon fill="black" points="84.5,-651.195 86.7501,-656.195 84.5,-653.695 84.5001,-656.195 84.5001,-656.195 84.5001,-656.195 84.5,-653.695 82.2501,-656.195 84.5,-651.195 84.5,-651.195" stroke="black"/>
</g>
<!-- 1&#45;&gt;0 -->
<g class="edge" id="edge8"><title>1-&gt;0</title>
<path d="M84.5,-739.847C84.5,-729.634 84.5,-719.421 84.5,-709.209" fill="none" stroke="black"/>
<polygon fill="black" points="84.5,-704.195 86.7501,-709.195 84.5,-706.695 84.5001,-709.195 84.5001,-709.195 84.5001,-709.195 84.5,-706.695 82.2501,-709.195 84.5,-704.195 84.5,-704.195" stroke="black"/>
</g>
<!-- 2 -->
<g class="node" id="node4"><title>2</title>
<path d="M407.333,-52C407.333,-52 325.667,-52 325.667,-52 322.833,-52 320,-49.1667 320,-46.3333 320,-46.3333 320,-40.6667 320,-40.6667 320,-37.8333 322.833,-35 325.667,-35 325.667,-35 407.333,-35 407.333,-35 410.167,-35 413,-37.8333 413,-40.6667 413,-40.6667 413,-46.3333 413,-46.3333 413,-49.1667 410.167,-52 407.333,-52" fill="none" stroke="black"/>
<text font-family="Courier,monospace" font-size="10.00" text-anchor="start" x="324" y="-41">loop,[a] a b …</text>
</g>
<!-- 3 -->
<g class="node" id="node5"><title>3</title>
<path d="M407.333,-17C407.333,-17 325.667,-17 325.667,-17 322.833,-17 320,-14.1667 320,-11.3333 320,-11.3333 320,-5.66667 320,-5.66667 320,-2.83333 322.833,-0 325.667,-0 325.667,-0 407.333,-0 407.333,-0 410.167,-0 413,-2.83333 413,-5.66667 413,-5.66667 413,-11.3333 413,-11.3333 413,-14.1667 410.167,-17 407.333,-17" fill="none" stroke="black"/>
<text font-family="Courier,monospace" font-size="10.00" text-anchor="start" x="324" y="-6">loop,[a] a a …</text>
</g>
<!-- 4 -->
<g class="node" id="node6"><title>4</title>
<path d="M509.333,-228C509.333,-228 475.667,-228 475.667,-228 472.833,-228 470,-225.167 470,-222.333 470,-222.333 470,-216.667 470,-216.667 470,-213.833 472.833,-211 475.667,-211 475.667,-211 509.333,-211 509.333,-211 512.167,-211 515,-213.833 515,-216.667 515,-216.667 515,-222.333 515,-222.333 515,-225.167 512.167,-228 509.333,-228" fill="none" stroke="black"/>
<text font-family="Courier,monospace" font-size="10.00" text-anchor="start" x="474" y="-217">loop,$</text>
</g>
<!-- 6 -->
<g class="node" id="node8"><title>6</title>
<path d="M514.333,-171C514.333,-171 470.667,-171 470.667,-171 467.833,-171 465,-168.167 465,-165.333 465,-165.333 465,-159.667 465,-159.667 465,-156.833 467.833,-154 470.667,-154 470.667,-154 514.333,-154 514.333,-154 517.167,-154 520,-156.833 520,-159.667 520,-159.667 520,-165.333 520,-165.333 520,-168.167 517.167,-171 514.333,-171" fill="none" stroke="black"/>
<path d="M515.667,-175C515.667,-175 469.333,-175 469.333,-175 465.167,-175 461,-170.833 461,-166.667 461,-166.667 461,-158.333 461,-158.333 461,-154.167 465.167,-150 469.333,-150 469.333,-150 515.667,-150 515.667,-150 519.833,-150 524,-154.167 524,-158.333 524,-158.333 524,-166.667 524,-166.667 524,-170.833 519.833,-175 515.667,-175" fill="none" stroke="black"/>
<text font-family="Courier,monospace" font-size="10.00" text-anchor="start" x="469" y="-160">accept,ε</text>
</g>
<!-- 4&#45;&gt;6 -->
<g class="edge" id="edge27"><title>4-&gt;6</title>
<path d="M492.5,-210.889C492.5,-200.82 492.5,-190.75 492.5,-180.68" fill="none" stroke="black"/>
<polygon fill="black" points="492.5,-175.414 494.75,-180.414 492.5,-177.914 492.5,-180.414 492.5,-180.414 492.5,-180.414 492.5,-177.914 490.25,-180.414 492.5,-175.414 492.5,-175.414" stroke="black"/>
</g>
<!-- 5 -->
<g class="node" id="node7"><title>5</title>
<path d="M266.333,-87C266.333,-87 184.667,-87 184.667,-87 181.833,-87 179,-84.1667 179,-81.3333 179,-81.3333 179,-75.6667 179,-75.6667 179,-72.8333 181.833,-70 184.667,-70 184.667,-70 266.333,-70 266.333,-70 269.167,-70 272,-72.8333 272,-75.6667 272,-75.6667 272,-81.3333 272,-81.3333 272,-84.1667 269.167,-87 266.333,-87" fill="none" stroke="black"/>
<text font-family="Courier,monospace" font-size="10.00" text-anchor="start" x="183" y="-76">loop,[a] a b …</text>
</g>
<!-- 7 -->
<g class="node" id="node9"><title>7</title>
<path d="M401.333,-87C401.333,-87 331.667,-87 331.667,-87 328.833,-87 326,-84.1667 326,-81.3333 326,-81.3333 326,-75.6667 326,-75.6667 326,-72.8333 328.833,-70 331.667,-70 331.667,-70 401.333,-70 401.333,-70 404.167,-70 407,-72.8333 407,-75.6667 407,-75.6667 407,-81.3333 407,-81.3333 407,-84.1667 404.167,-87 401.333,-87" fill="none" stroke="black"/>
<text font-family="Courier,monospace" font-size="10.00" text-anchor="start" x="330" y="-76">loop,[a] b $</text>
</g>
<!-- 5&#45;&gt;7 -->
<g class="edge" id="edge28"><title>5-&gt;7</title>
<path d="M272.014,-78.5C287.663,-78.5 305.163,-78.5 320.751,-78.5" fill="none" stroke="black"/>
<polygon fill="black" points="325.959,-78.5 320.959,-80.7501 323.459,-78.5 320.959,-78.5001 320.959,-78.5001 320.959,-78.5001 323.459,-78.5 320.959,-76.2501 325.959,-78.5 325.959,-78.5" stroke="black"/>
</g>
<!-- 8 -->
<g class="node" id="node10"><title>8</title>
<path d="M266.333,-52C266.333,-52 184.667,-52 184.667,-52 181.833,-52 179,-49.1667 179,-46.3333 179,-46.3333 179,-40.6667 179,-40.6667 179,-37.8333 181.833,-35 184.667,-35 184.667,-35 266.333,-35 266.333,-35 269.167,-35 272,-37.8333 272,-40.6667 272,-40.6667 272,-46.3333 272,-46.3333 272,-49.1667 269.167,-52 266.333,-52" fill="none" stroke="black"/>
<text font-family="Courier,monospace" font-size="10.00" text-anchor="start" x="183" y="-41">loop,[a] a a …</text>
</g>
<!-- 8&#45;&gt;2 -->
<g class="edge" id="edge18"><title>8-&gt;2</title>
<path d="M272.014,-43.5C285.694,-43.5 300.787,-43.5 314.782,-43.5" fill="none" stroke="black"/>
<polygon fill="black" points="319.884,-43.5 314.884,-45.7501 317.384,-43.5 314.884,-43.5001 314.884,-43.5001 314.884,-43.5001 317.384,-43.5 314.884,-41.2501 319.884,-43.5 319.884,-43.5" stroke="black"/>
</g>
<!-- 8&#45;&gt;3 -->
<g class="edge" id="edge19"><title>8-&gt;3</title>
<path d="M260.503,-34.938C280.444,-29.9169 305.715,-23.5538 326.467,-18.3284" fill="none" stroke="black"/>
<polygon fill="black" points="331.366,-17.0949 327.067,-20.4977 328.942,-17.7054 326.517,-18.3158 326.517,-18.3158 326.517,-18.3158 328.942,-17.7054 325.968,-16.1339 331.366,-17.0949 331.366,-17.0949" stroke="black"/>
</g>
<!-- 10 -->
<g class="node" id="node12"><title>10</title>
<path d="M110.333,-563C110.333,-563 58.6667,-563 58.6667,-563 55.8333,-563 53,-560.167 53,-557.333 53,-557.333 53,-551.667 53,-551.667 53,-548.833 55.8333,-546 58.6667,-546 58.6667,-546 110.333,-546 110.333,-546 113.167,-546 116,-548.833 116,-551.667 116,-551.667 116,-557.333 116,-557.333 116,-560.167 113.167,-563 110.333,-563" fill="none" stroke="black"/>
<text font-family="Courier,monospace" font-size="10.00" text-anchor="start" x="57" y="-552">1.2,[b] $</text>
</g>
<!-- 9&#45;&gt;10 -->
<g class="edge" id="edge7"><title>9-&gt;10</title>
<path d="M62.6617,-633.82C38.7168,-622.942 5.43966,-602.976 19.5,-580.5 25.8169,-570.402 36.8229,-564.225 48.0022,-560.447" fill="none" stroke="black"/>
<polygon fill="black" points="52.7907,-558.97 48.6759,-562.594 50.4017,-559.707 48.0128,-560.444 48.0128,-560.444 48.0128,-560.444 50.4017,-559.707 47.3497,-558.294 52.7907,-558.97 52.7907,-558.97" stroke="black"/>
</g>
<!-- 11 -->
<g class="node" id="node13"><title>11</title>
<path d="M113.333,-598C113.333,-598 55.6667,-598 55.6667,-598 52.8333,-598 50,-595.167 50,-592.333 50,-592.333 50,-586.667 50,-586.667 50,-583.833 52.8333,-581 55.6667,-581 55.6667,-581 113.333,-581 113.333,-581 116.167,-581 119,-583.833 119,-586.667 119,-586.667 119,-592.333 119,-592.333 119,-595.167 116.167,-598 113.333,-598" fill="none" stroke="black"/>
<text font-family="Courier,monospace" font-size="10.00" text-anchor="start" x="54" y="-587">loop,[b] $</text>
</g>
<!-- 9&#45;&gt;11 -->
<g class="edge" id="edge6"><title>9-&gt;11</title>
<path d="M84.5,-633.847C84.5,-623.634 84.5,-613.421 84.5,-603.209" fill="none" stroke="black"/>
<polygon fill="black" points="84.5,-598.195 86.7501,-603.195 84.5,-600.695 84.5001,-603.195 84.5001,-603.195 84.5001,-603.195 84.5,-600.695 82.2501,-603.195 84.5,-598.195 84.5,-598.195" stroke="black"/>
</g>
<!-- 12 -->
<g class="node" id="node14"><title>12</title>
<path d="M116.333,-510C116.333,-510 52.6667,-510 52.6667,-510 49.8333,-510 47,-507.167 47,-504.333 47,-504.333 47,-498.667 47,-498.667 47,-495.833 49.8333,-493 52.6667,-493 52.6667,-493 116.333,-493 116.333,-493 119.167,-493 122,-495.833 122,-498.667 122,-498.667 122,-504.333 122,-504.333 122,-507.167 119.167,-510 116.333,-510" fill="none" stroke="black"/>
<text font-family="Courier,monospace" font-size="10.00" text-anchor="start" x="51" y="-499">1.1,[T] b $</text>
</g>
<!-- 10&#45;&gt;12 -->
<g class="edge" id="edge16"><title>10-&gt;12</title>
<path d="M84.5,-545.847C84.5,-535.634 84.5,-525.421 84.5,-515.209" fill="none" stroke="black"/>
<polygon fill="black" points="84.5,-510.195 86.7501,-515.195 84.5,-512.695 84.5001,-515.195 84.5001,-515.195 84.5001,-515.195 84.5,-512.695 82.2501,-515.195 84.5,-510.195 84.5,-510.195" stroke="black"/>
</g>
<!-- 13 -->
<g class="node" id="node15"><title>13</title>
<path d="M125.333,-457C125.333,-457 43.6667,-457 43.6667,-457 40.8333,-457 38,-454.167 38,-451.333 38,-451.333 38,-445.667 38,-445.667 38,-442.833 40.8333,-440 43.6667,-440 43.6667,-440 125.333,-440 125.333,-440 128.167,-440 131,-442.833 131,-445.667 131,-445.667 131,-451.333 131,-451.333 131,-454.167 128.167,-457 125.333,-457" fill="none" stroke="black"/>
<text font-family="Courier,monospace" font-size="10.00" text-anchor="start" x="42" y="-446">loop,[a] T b …</text>
</g>
<!-- 12&#45;&gt;13 -->
<g class="edge" id="edge9"><title>12-&gt;13</title>
<path d="M84.5,-492.847C84.5,-482.634 84.5,-472.421 84.5,-462.209" fill="none" stroke="black"/>
<polygon fill="black" points="84.5,-457.195 86.7501,-462.195 84.5,-459.695 84.5001,-462.195 84.5001,-462.195 84.5001,-462.195 84.5,-459.695 82.2501,-462.195 84.5,-457.195 84.5,-457.195" stroke="black"/>
</g>
<!-- 18 -->
<g class="node" id="node20"><title>18</title>
<path d="M260.333,-457C260.333,-457 190.667,-457 190.667,-457 187.833,-457 185,-454.167 185,-451.333 185,-451.333 185,-445.667 185,-445.667 185,-442.833 187.833,-440 190.667,-440 190.667,-440 260.333,-440 260.333,-440 263.167,-440 266,-442.833 266,-445.667 266,-445.667 266,-451.333 266,-451.333 266,-454.167 263.167,-457 260.333,-457" fill="none" stroke="black"/>
<text font-family="Courier,monospace" font-size="10.00" text-anchor="start" x="189" y="-446">loop,[T] b $</text>
</g>
<!-- 13&#45;&gt;18 -->
<g class="edge" id="edge20"><title>13-&gt;18</title>
<path d="M131.014,-448.5C146.663,-448.5 164.163,-448.5 179.751,-448.5" fill="none" stroke="black"/>
<polygon fill="black" points="184.959,-448.5 179.959,-450.75 182.459,-448.5 179.959,-448.5 179.959,-448.5 179.959,-448.5 182.459,-448.5 179.959,-446.25 184.959,-448.5 184.959,-448.5" stroke="black"/>
</g>
<!-- 14 -->
<g class="node" id="node16"><title>14</title>
<path d="M260.333,-228C260.333,-228 190.667,-228 190.667,-228 187.833,-228 185,-225.167 185,-222.333 185,-222.333 185,-216.667 185,-216.667 185,-213.833 187.833,-211 190.667,-211 190.667,-211 260.333,-211 260.333,-211 263.167,-211 266,-213.833 266,-216.667 266,-216.667 266,-222.333 266,-222.333 266,-225.167 263.167,-228 260.333,-228" fill="none" stroke="black"/>
<text font-family="Courier,monospace" font-size="10.00" text-anchor="start" x="189" y="-217">loop,[a] b $</text>
</g>
<!-- 16 -->
<g class="node" id="node18"><title>16</title>
<path d="M395.333,-228C395.333,-228 337.667,-228 337.667,-228 334.833,-228 332,-225.167 332,-222.333 332,-222.333 332,-216.667 332,-216.667 332,-213.833 334.833,-211 337.667,-211 337.667,-211 395.333,-211 395.333,-211 398.167,-211 401,-213.833 401,-216.667 401,-216.667 401,-222.333 401,-222.333 401,-225.167 398.167,-228 395.333,-228" fill="none" stroke="black"/>
<text font-family="Courier,monospace" font-size="10.00" text-anchor="start" x="336" y="-217">loop,[b] $</text>
</g>
<!-- 14&#45;&gt;16 -->
<g class="edge" id="edge17"><title>14-&gt;16</title>
<path d="M266.332,-219.5C285.251,-219.5 307.78,-219.5 326.581,-219.5" fill="none" stroke="black"/>
<polygon fill="black" points="331.779,-219.5 326.779,-221.75 329.279,-219.5 326.779,-219.5 326.779,-219.5 326.779,-219.5 329.279,-219.5 326.778,-217.25 331.779,-219.5 331.779,-219.5" stroke="black"/>
</g>
<!-- 15 -->
<g class="node" id="node17"><title>15</title>
<path d="M266.333,-140C266.333,-140 184.667,-140 184.667,-140 181.833,-140 179,-137.167 179,-134.333 179,-134.333 179,-128.667 179,-128.667 179,-125.833 181.833,-123 184.667,-123 184.667,-123 266.333,-123 266.333,-123 269.167,-123 272,-125.833 272,-128.667 272,-128.667 272,-134.333 272,-134.333 272,-137.167 269.167,-140 266.333,-140" fill="none" stroke="black"/>
<text font-family="Courier,monospace" font-size="10.00" text-anchor="start" x="183" y="-129">loop,[T] a a …</text>
</g>
<!-- 15&#45;&gt;5 -->
<g class="edge" id="edge4"><title>15-&gt;5</title>
<path d="M225.5,-122.847C225.5,-112.634 225.5,-102.421 225.5,-92.2088" fill="none" stroke="black"/>
<polygon fill="black" points="225.5,-87.1953 227.75,-92.1953 225.5,-89.6953 225.5,-92.1953 225.5,-92.1953 225.5,-92.1953 225.5,-89.6953 223.25,-92.1954 225.5,-87.1953 225.5,-87.1953" stroke="black"/>
</g>
<!-- 15&#45;&gt;8 -->
<g class="edge" id="edge5"><title>15-&gt;8</title>
<path d="M201.633,-122.921C175.485,-112.142 139.217,-92.2746 155,-69.5 159.738,-62.6628 166.49,-57.6186 173.958,-53.8983" fill="none" stroke="black"/>
<polygon fill="black" points="178.689,-51.7488 175.068,-55.8656 176.413,-52.783 174.137,-53.8171 174.137,-53.8171 174.137,-53.8171 176.413,-52.783 173.206,-51.7686 178.689,-51.7488 178.689,-51.7488" stroke="black"/>
</g>
<!-- 17 -->
<g class="node" id="node19"><title>17</title>
<path d="M263.333,-193C263.333,-193 187.667,-193 187.667,-193 184.833,-193 182,-190.167 182,-187.333 182,-187.333 182,-181.667 182,-181.667 182,-178.833 184.833,-176 187.667,-176 187.667,-176 263.333,-176 263.333,-176 266.167,-176 269,-178.833 269,-181.667 269,-181.667 269,-187.333 269,-187.333 269,-190.167 266.167,-193 263.333,-193" fill="none" stroke="black"/>
<text font-family="Courier,monospace" font-size="10.00" text-anchor="start" x="186" y="-182">3.1,[a] a a …</text>
</g>
<!-- 15&#45;&gt;17 -->
<g class="edge" id="edge3"><title>15-&gt;17</title>
<path d="M244.632,-140.195C264.006,-151.151 265.498,-162.106 249.109,-173.061" fill="none" stroke="black"/>
<polygon fill="black" points="244.557,-175.847 247.648,-171.318 246.69,-174.542 248.822,-173.237 248.822,-173.237 248.822,-173.237 246.69,-174.542 249.997,-175.156 244.557,-175.847 244.557,-175.847" stroke="black"/>
</g>
<!-- 16&#45;&gt;4 -->
<g class="edge" id="edge22"><title>16-&gt;4</title>
<path d="M401.056,-219.5C420.987,-219.5 445.924,-219.5 464.563,-219.5" fill="none" stroke="black"/>
<polygon fill="black" points="469.643,-219.5 464.643,-221.75 467.143,-219.5 464.643,-219.5 464.643,-219.5 464.643,-219.5 467.143,-219.5 464.643,-217.25 469.643,-219.5 469.643,-219.5" stroke="black"/>
</g>
<!-- 17&#45;&gt;8 -->
<g class="edge" id="edge26"><title>17-&gt;8</title>
<path d="M200.861,-175.984C184.651,-168.945 164.7,-157.2 155,-139.5 140.048,-112.218 137.279,-95.071 155,-69.5 159.738,-62.6628 166.49,-57.6186 173.958,-53.8983" fill="none" stroke="black"/>
<polygon fill="black" points="178.689,-51.7488 175.068,-55.8656 176.413,-52.783 174.137,-53.8171 174.137,-53.8171 174.137,-53.8171 176.413,-52.783 173.206,-51.7686 178.689,-51.7488 178.689,-51.7488" stroke="black"/>
</g>
<!-- 17&#45;&gt;15 -->
<g class="edge" id="edge25"><title>17-&gt;15</title>
<path d="M206.443,-175.847C187.023,-164.891 185.485,-153.936 201.828,-142.981" fill="none" stroke="black"/>
<polygon fill="black" points="206.368,-140.195 203.283,-144.728 204.237,-141.503 202.106,-142.81 202.106,-142.81 202.106,-142.81 204.237,-141.503 200.93,-140.892 206.368,-140.195 206.368,-140.195" stroke="black"/>
</g>
<!-- 19 -->
<g class="node" id="node21"><title>19</title>
<path d="M257.333,-369C257.333,-369 193.667,-369 193.667,-369 190.833,-369 188,-366.167 188,-363.333 188,-363.333 188,-357.667 188,-357.667 188,-354.833 190.833,-352 193.667,-352 193.667,-352 257.333,-352 257.333,-352 260.167,-352 263,-354.833 263,-357.667 263,-357.667 263,-363.333 263,-363.333 263,-366.167 260.167,-369 257.333,-369" fill="none" stroke="black"/>
<text font-family="Courier,monospace" font-size="10.00" text-anchor="start" x="192" y="-358">3.1,[a] b $</text>
</g>
<!-- 18&#45;&gt;19 -->
<g class="edge" id="edge14"><title>18-&gt;19</title>
<path d="M201.633,-439.921C175.485,-429.142 139.217,-409.275 155,-386.5 161.573,-377.016 172.02,-370.982 182.88,-367.145" fill="none" stroke="black"/>
<polygon fill="black" points="187.886,-365.533 183.816,-369.208 185.506,-366.3 183.126,-367.066 183.126,-367.066 183.126,-367.066 185.506,-366.3 182.437,-364.924 187.886,-365.533 187.886,-365.533" stroke="black"/>
</g>
<!-- 20 -->
<g class="node" id="node22"><title>20</title>
<path d="M254.333,-404C254.333,-404 196.667,-404 196.667,-404 193.833,-404 191,-401.167 191,-398.333 191,-398.333 191,-392.667 191,-392.667 191,-389.833 193.833,-387 196.667,-387 196.667,-387 254.333,-387 254.333,-387 257.167,-387 260,-389.833 260,-392.667 260,-392.667 260,-398.333 260,-398.333 260,-401.167 257.167,-404 254.333,-404" fill="none" stroke="black"/>
<text font-family="Courier,monospace" font-size="10.00" text-anchor="start" x="195" y="-393">loop,[b] $</text>
</g>
<!-- 18&#45;&gt;20 -->
<g class="edge" id="edge15"><title>18-&gt;20</title>
<path d="M225.5,-439.847C225.5,-429.634 225.5,-419.421 225.5,-409.209" fill="none" stroke="black"/>
<polygon fill="black" points="225.5,-404.195 227.75,-409.195 225.5,-406.695 225.5,-409.195 225.5,-409.195 225.5,-409.195 225.5,-406.695 223.25,-409.195 225.5,-404.195 225.5,-404.195" stroke="black"/>
</g>
<!-- 21 -->
<g class="node" id="node23"><title>21</title>
<path d="M266.333,-316C266.333,-316 184.667,-316 184.667,-316 181.833,-316 179,-313.167 179,-310.333 179,-310.333 179,-304.667 179,-304.667 179,-301.833 181.833,-299 184.667,-299 184.667,-299 266.333,-299 266.333,-299 269.167,-299 272,-301.833 272,-304.667 272,-304.667 272,-310.333 272,-310.333 272,-313.167 269.167,-316 266.333,-316" fill="none" stroke="black"/>
<text font-family="Courier,monospace" font-size="10.00" text-anchor="start" x="183" y="-305">loop,[T] a b …</text>
</g>
<!-- 19&#45;&gt;21 -->
<g class="edge" id="edge2"><title>19-&gt;21</title>
<path d="M225.5,-351.847C225.5,-341.634 225.5,-331.421 225.5,-321.209" fill="none" stroke="black"/>
<polygon fill="black" points="225.5,-316.195 227.75,-321.195 225.5,-318.695 225.5,-321.195 225.5,-321.195 225.5,-321.195 225.5,-318.695 223.25,-321.195 225.5,-316.195 225.5,-316.195" stroke="black"/>
</g>
<!-- 21&#45;&gt;14 -->
<g class="edge" id="edge23"><title>21-&gt;14</title>
<path d="M201.633,-298.921C175.485,-288.142 139.217,-268.275 155,-245.5 161.003,-236.838 170.237,-231.054 180.065,-227.194" fill="none" stroke="black"/>
<polygon fill="black" points="184.927,-225.449 180.981,-229.256 182.574,-226.294 180.22,-227.138 180.22,-227.138 180.22,-227.138 182.574,-226.294 179.46,-225.021 184.927,-225.449 184.927,-225.449" stroke="black"/>
</g>
<!-- 22 -->
<g class="node" id="node24"><title>22</title>
<path d="M263.333,-263C263.333,-263 187.667,-263 187.667,-263 184.833,-263 182,-260.167 182,-257.333 182,-257.333 182,-251.667 182,-251.667 182,-248.833 184.833,-246 187.667,-246 187.667,-246 263.333,-246 263.333,-246 266.167,-246 269,-248.833 269,-251.667 269,-251.667 269,-257.333 269,-257.333 269,-260.167 266.167,-263 263.333,-263" fill="none" stroke="black"/>
<text font-family="Courier,monospace" font-size="10.00" text-anchor="start" x="186" y="-252">3.1,[a] a b …</text>
</g>
<!-- 21&#45;&gt;22 -->
<g class="edge" id="edge24"><title>21-&gt;22</title>
<path d="M225.5,-298.847C225.5,-288.634 225.5,-278.421 225.5,-268.209" fill="none" stroke="black"/>
<polygon fill="black" points="225.5,-263.195 227.75,-268.195 225.5,-265.695 225.5,-268.195 225.5,-268.195 225.5,-268.195 225.5,-265.695 223.25,-268.195 225.5,-263.195 225.5,-263.195" stroke="black"/>
</g>
<!-- 22&#45;&gt;15 -->
<g class="edge" id="edge21"><title>22-&gt;15</title>
<path d="M181.974,-246.88C171.44,-242.881 161.388,-236.787 155,-227.5 141.902,-208.459 143.79,-195.71 155,-175.5 163.625,-159.95 180.286,-149.174 195.247,-142.18" fill="none" stroke="black"/>
<polygon fill="black" points="199.824,-140.129 196.181,-144.227 197.543,-141.151 195.261,-142.173 195.261,-142.173 195.261,-142.173 197.543,-141.151 194.341,-140.12 199.824,-140.129 199.824,-140.129" stroke="black"/>
</g>
<!-- 23 -->
<g class="node" id="node25"><title>23</title>
</g>
<!-- 24 -->
<g class="node" id="node26"><title>24</title>
</g>
<!-- 23&#45;&gt;24 -->
<g class="edge" id="edge12"><title>23-&gt;24</title>
<path d="M104.246,-783.5C129.117,-783.5 173.055,-783.5 200.375,-783.5" fill="none" stroke="white"/>
<polygon fill="white" points="205.607,-783.5 200.607,-785.75 203.107,-783.5 200.607,-783.5 200.607,-783.5 200.607,-783.5 203.107,-783.5 200.607,-781.25 205.607,-783.5 205.607,-783.5" stroke="white"/>
<text font-family="Courier,monospace" font-size="9.00" text-anchor="start" x="152" y="-789.3">a</text>
</g>
<!-- 25 -->
<g class="node" id="node27"><title>25</title>
</g>
<!-- 24&#45;&gt;25 -->
<g class="edge" id="edge11"><title>24-&gt;25</title>
<path d="M245.246,-783.5C270.117,-783.5 314.055,-783.5 341.375,-783.5" fill="none" stroke="white"/>
<polygon fill="white" points="346.607,-783.5 341.607,-785.75 344.107,-783.5 341.607,-783.5 341.607,-783.5 341.607,-783.5 344.107,-783.5 341.607,-781.25 346.607,-783.5 346.607,-783.5" stroke="white"/>
<text font-family="Courier,monospace" font-size="9.00" text-anchor="start" x="293" y="-789.3">a</text>
</g>
<!-- 26 -->
<g class="node" id="node28"><title>26</title>
</g>
<!-- 25&#45;&gt;26 -->
<g class="edge" id="edge10"><title>25-&gt;26</title>
<path d="M386.064,-783.5C407.797,-783.5 443.839,-783.5 467.632,-783.5" fill="none" stroke="white"/>
<polygon fill="white" points="472.809,-783.5 467.809,-785.75 470.309,-783.5 467.809,-783.5 467.809,-783.5 467.809,-783.5 470.309,-783.5 467.809,-781.25 472.809,-783.5 472.809,-783.5" stroke="white"/>
<text font-family="Courier,monospace" font-size="9.00" text-anchor="start" x="434" y="-789.3">b</text>
</g>
</g>
</svg>