<svg height="260pt" viewBox="0.00 0.00 823.00 259.50" width="823pt" xmlns="http://www.w3.org/2000/svg" xmlns:xlink="http://www.w3.org/1999/xlink">
<g class="graph" id="graph0" transform="scale(1 1) rotate(0) translate(4 255.5)">
<title>%3</title>
<polygon fill="white" points="-4,4 -4,-255.5 819,-255.5 819,4 -4,4" stroke="none"/>
<!-- _START -->
<g class="node" id="node1"><title>_START</title>
</g>
<!-- 0 -->
<g class="node" id="node2"><title>0</title>
<path d="M67.3333,-205C67.3333,-205 47.6667,-205 47.6667,-205 44.8333,-205 42,-202.167 42,-199.333 42,-199.333 42,-193.667 42,-193.667 42,-190.833 44.8333,-188 47.6667,-188 47.6667,-188 67.3333,-188 67.3333,-188 70.1667,-188 73,-190.833 73,-193.667 73,-193.667 73,-199.333 73,-199.333 73,-202.167 70.1667,-205 67.3333,-205" fill="none" stroke="black"/>
<text font-family="Courier,monospace" font-size="10.00" text-anchor="start" x="46" y="-194">q1,ε</text>
</g>
<!-- _START&#45;&gt;0 -->
<g class="edge" id="edge1"><title>_START-&gt;0</title>
<path d="M1.15921,-196.5C3.05054,-196.5 21.4247,-196.5 36.4903,-196.5" fill="none" stroke="black"/>
<polygon fill="black" points="41.8545,-196.5 36.8546,-198.75 39.3545,-196.5 36.8545,-196.5 36.8545,-196.5 36.8545,-196.5 39.3545,-196.5 36.8545,-194.25 41.8545,-196.5 41.8545,-196.5" stroke="black"/>
</g>
<!-- 1 -->
<g class="node" id="node3"><title>1</title>
<path d="M68.3333,-152C68.3333,-152 46.6667,-152 46.6667,-152 43.8333,-152 41,-149.167 41,-146.333 41,-146.333 41,-140.667 41,-140.667 41,-137.833 43.8333,-135 46.6667,-135 46.6667,-135 68.3333,-135 68.3333,-135 71.1667,-135 74,-137.833 74,-140.667 74,-140.667 74,-146.333 74,-146.333 74,-149.167 71.1667,-152 68.3333,-152" fill="none" stroke="black"/>
<text font-family="Courier,monospace" font-size="10.00" text-anchor="start" x="45" y="-141">q2,$</text>
</g>
<!-- 0&#45;&gt;1 -->
<g class="edge" id="edge23"><title>0-&gt;1</title>
<path d="M57.5,-187.847C57.5,-177.634 57.5,-167.421 57.5,-157.209" fill="none" stroke="black"/>
<polygon fill="black" points="57.5,-152.195 59.7501,-157.195 57.5,-154.695 57.5001,-157.195 57.5001,-157.195 57.5001,-157.195 57.5,-154.695 55.2501,-157.195 57.5,-152.195 57.5,-152.195" stroke="black"/>
</g>
<!-- 2 -->
<g class="node" id="node4"><title>2</title>
<path d="M176.333,-152C176.333,-152 130.667,-152 130.667,-152 127.833,-152 125,-149.167 125,-146.333 125,-146.333 125,-140.667 125,-140.667 125,-137.833 127.833,-135 130.667,-135 130.667,-135 176.333,-135 176.333,-135 179.167,-135 182,-137.833 182,-140.667 182,-140.667 182,-146.333 182,-146.333 182,-149.167 179.167,-152 176.333,-152" fill="none" stroke="black"/>
<text font-family="Courier,monospace" font-size="10.00" text-anchor="start" x="129" y="-141">q2,[0] $</text>
</g>
<!-- 1&#45;&gt;2 -->
<g class="edge" id="edge7"><title>1-&gt;2</title>
<path d="M74.0222,-143.5C86.3905,-143.5 104.141,-143.5 119.633,-143.5" fill="none" stroke="black"/>
<polygon fill="black" points="124.789,-143.5 119.79,-145.75 122.289,-143.5 119.789,-143.5 119.789,-143.5 119.789,-143.5 122.289,-143.5 119.789,-141.25 124.789,-143.5 124.789,-143.5" stroke="black"/>
</g>
<!-- 3 -->
<g class="node" id="node5"><title>3</title>
<path d="M68.3333,-99C68.3333,-99 46.6667,-99 46.6667,-99 43.8333,-99 41,-96.1667 41,-93.3333 41,-93.3333 41,-87.6667 41,-87.6667 41,-84.8333 43.8333,-82 46.6667,-82 46.6667,-82 68.3333,-82 68.3333,-82 71.1667,-82 74,-84.8333 74,-87.6667 74,-87.6667 74,-93.3333 74,-93.3333 74,-96.1667 71.1667,-99 68.3333,-99" fill="none" stroke="black"/>
<text font-family="Courier,monospace" font-size="10.00" text-anchor="start" x="45" y="-88">q3,$</text>
</g>
<!-- 1&#45;&gt;3 -->
<g class="edge" id="edge8"><title>1-&gt;3</title>
<path d="M57.5,-134.847C57.5,-124.634 57.5,-114.421 57.5,-104.209" fill="none" stroke="black"/>
<polygon fill="black" points="57.5,-99.1953 59.7501,-104.195 57.5,-101.695 57.5001,-104.195 57.5001,-104.195 57.5001,-104.195 57.5,-101.695 55.2501,-104.195 57.5,-99.1953 57.5,-99.1953" stroke="black"/>
</g>
<!-- 4 -->
<g class="node" id="node6"><title>4</title>
<path d="M293.333,-158C293.333,-158 235.667,-158 235.667,-158 232.833,-158 230,-155.167 230,-152.333 230,-152.333 230,-146.667 230,-146.667 230,-143.833 232.833,-141 235.667,-141 235.667,-141 293.333,-141 293.333,-141 296.167,-141 299,-143.833 299,-146.667 299,-146.667 299,-152.333 299,-152.333 299,-155.167 296.167,-158 293.333,-158" fill="none" stroke="black"/>
<text font-family="Courier,monospace" font-size="10.00" text-anchor="start" x="234" y="-147">q2,[0] 0 $</text>
</g>
<!-- 2&#45;&gt;4 -->
<g class="edge" id="edge16"><title>2-&gt;4</title>
<path d="M182.005,-145.014C194.924,-145.725 210.55,-146.585 224.65,-147.361" fill="none" stroke="black"/>
<polygon fill="black" points="229.767,-147.643 224.651,-149.615 227.271,-147.506 224.775,-147.368 224.775,-147.368 224.775,-147.368 227.271,-147.506 224.899,-145.122 229.767,-147.643 229.767,-147.643" stroke="black"/>
</g>
<!-- 5 -->
<g class="node" id="node7"><title>5</title>
<path d="M176.333,-92C176.333,-92 130.667,-92 130.667,-92 127.833,-92 125,-89.1667 125,-86.3333 125,-86.3333 125,-80.6667 125,-80.6667 125,-77.8333 127.833,-75 130.667,-75 130.667,-75 176.333,-75 176.333,-75 179.167,-75 182,-77.8333 182,-80.6667 182,-80.6667 182,-86.3333 182,-86.3333 182,-89.1667 179.167,-92 176.333,-92" fill="none" stroke="black"/>
<text font-family="Courier,monospace" font-size="10.00" text-anchor="start" x="129" y="-81">q3,[0] $</text>
</g>
<!-- 2&#45;&gt;5 -->
<g class="edge" id="edge17"><title>2-&gt;5</title>
<path d="M153.5,-134.718C153.5,-122.377 153.5,-110.036 153.5,-97.6953" fill="none" stroke="black"/>
<polygon fill="black" points="153.5,-92.4062 155.75,-97.4062 153.5,-94.9062 153.5,-97.4062 153.5,-97.4062 153.5,-97.4062 153.5,-94.9062 151.25,-97.4063 153.5,-92.4062 153.5,-92.4062" stroke="black"/>
</g>
<!-- 6 -->
<g class="node" id="node8"><title>6</title>
<path d="M67.3333,-46C67.3333,-46 47.6667,-46 47.6667,-46 44.8333,-46 42,-43.1667 42,-40.3333 42,-40.3333 42,-34.6667 42,-34.6667 42,-31.8333 44.8333,-29 47.6667,-29 47.6667,-29 67.3333,-29 67.3333,-29 70.1667,-29 73,-31.8333 73,-34.6667 73,-34.6667 73,-40.3333 73,-40.3333 73,-43.1667 70.1667,-46 67.3333,-46" fill="none" stroke="black"/>
<text font-family="Courier,monospace" font-size="10.00" text-anchor="start" x="46" y="-35">q4,ε</text>
</g>
<!-- 3&#45;&gt;6 -->
<g class="edge" id="edge28"><title>3-&gt;6</title>
<path d="M57.5,-81.8467C57.5,-71.6341 57.5,-61.4214 57.5,-51.2088" fill="none" stroke="black"/>
<polygon fill="black" points="57.5,-46.1953 59.7501,-51.1953 57.5,-48.6953 57.5001,-51.1953 57.5001,-51.1953 57.5001,-51.1953 57.5,-48.6953 55.2501,-51.1954 57.5,-46.1953 57.5,-46.1953" stroke="black"/>
</g>
<!-- 7 -->
<g class="node" id="node9"><title>7</title>
<path d="M293.333,-105C293.333,-105 235.667,-105 235.667,-105 232.833,-105 230,-102.167 230,-99.3333 230,-99.3333 230,-93.6667 230,-93.6667 230,-90.8333 232.833,-88 235.667,-88 235.667,-88 293.333,-88 293.333,-88 296.167,-88 299,-90.8333 299,-93.6667 299,-93.6667 299,-99.3333 299,-99.3333 299,-102.167 296.167,-105 293.333,-105" fill="none" stroke="black"/>
<text font-family="Courier,monospace" font-size="10.00" text-anchor="start" x="234" y="-94">q3,[0] 0 $</text>
</g>
<!-- 4&#45;&gt;7 -->
<g class="edge" id="edge25"><title>4-&gt;7</title>
<path d="M264.5,-140.847C264.5,-130.634 264.5,-120.421 264.5,-110.209" fill="none" stroke="black"/>
<polygon fill="black" points="264.5,-105.195 266.75,-110.195 264.5,-107.695 264.5,-110.195 264.5,-110.195 264.5,-110.195 264.5,-107.695 262.25,-110.195 264.5,-105.195 264.5,-105.195" stroke="black"/>
</g>
<!-- 9 -->
<g class="node" id="node11"><title>9</title>
<path d="M422.333,-158C422.333,-158 352.667,-158 352.667,-158 349.833,-158 347,-155.167 347,-152.333 347,-152.333 347,-146.667 347,-146.667 347,-143.833 349.833,-141 352.667,-141 352.667,-141 422.333,-141 422.333,-141 425.167,-141 428,-143.833 428,-146.667 428,-146.667 428,-152.333 428,-152.333 428,-155.167 425.167,-158 422.333,-158" fill="none" stroke="black"/>
<text font-family="Courier,monospace" font-size="10.00" text-anchor="start" x="351" y="-147">q2,[1] 0 0 …</text>
</g>
<!-- 4&#45;&gt;9 -->
<g class="edge" id="edge24"><title>4-&gt;9</title>
<path d="M299.205,-149.5C312.408,-149.5 327.745,-149.5 341.846,-149.5" fill="none" stroke="black"/>
<polygon fill="black" points="346.98,-149.5 341.98,-151.75 344.48,-149.5 341.98,-149.5 341.98,-149.5 341.98,-149.5 344.48,-149.5 341.979,-147.25 346.98,-149.5 346.98,-149.5" stroke="black"/>
</g>
<!-- 8 -->
<g class="node" id="node10"><title>8</title>
<path d="M275.333,-70C275.333,-70 253.667,-70 253.667,-70 250.833,-70 248,-67.1667 248,-64.3333 248,-64.3333 248,-58.6667 248,-58.6667 248,-55.8333 250.833,-53 253.667,-53 253.667,-53 275.333,-53 275.333,-53 278.167,-53 281,-55.8333 281,-58.6667 281,-58.6667 281,-64.3333 281,-64.3333 281,-67.1667 278.167,-70 275.333,-70" fill="none" stroke="black"/>
<text font-family="Courier,monospace" font-size="10.00" text-anchor="start" x="252" y="-59">q3,$</text>
</g>
<!-- 5&#45;&gt;8 -->
<g class="edge" id="edge29"><title>5-&gt;8</title>
<path d="M182.005,-77.9485C200.866,-74.1417 225.498,-69.1701 242.724,-65.6933" fill="none" stroke="black"/>
<polygon fill="black" points="247.818,-64.6652 243.362,-67.8601 245.367,-65.1599 242.917,-65.6545 242.917,-65.6545 242.917,-65.6545 245.367,-65.1599 242.471,-63.449 247.818,-64.6652 247.818,-64.6652" stroke="black"/>
</g>
<!-- 10 -->
<g class="node" id="node12"><title>10</title>
<path d="M274.333,-17C274.333,-17 254.667,-17 254.667,-17 251.833,-17 249,-14.1667 249,-11.3333 249,-11.3333 249,-5.66667 249,-5.66667 249,-2.83333 251.833,-0 254.667,-0 254.667,-0 274.333,-0 274.333,-0 277.167,-0 280,-2.83333 280,-5.66667 280,-5.66667 280,-11.3333 280,-11.3333 280,-14.1667 277.167,-17 274.333,-17" fill="none" stroke="black"/>
<text font-family="Courier,monospace" font-size="10.00" text-anchor="start" x="253" y="-6">q4,ε</text>
</g>
<!-- 8&#45;&gt;10 -->
<g class="edge" id="edge21"><title>8-&gt;10</title>
<path d="M264.5,-52.8467C264.5,-42.6341 264.5,-32.4214 264.5,-22.2088" fill="none" stroke="black"/>
<polygon fill="black" points="264.5,-17.1953 266.75,-22.1953 264.5,-19.6953 264.5,-22.1953 264.5,-22.1953 264.5,-22.1953 264.5,-19.6953 262.25,-22.1954 264.5,-17.1953 264.5,-17.1953" stroke="black"/>
</g>
<!-- 11 -->
<g class="node" id="node13"><title>11</title>
<path d="M422.333,-100C422.333,-100 352.667,-100 352.667,-100 349.833,-100 347,-97.1667 347,-94.3333 347,-94.3333 347,-88.6667 347,-88.6667 347,-85.8333 349.833,-83 352.667,-83 352.667,-83 422.333,-83 422.333,-83 425.167,-83 428,-85.8333 428,-88.6667 428,-88.6667 428,-94.3333 428,-94.3333 428,-97.1667 425.167,-100 422.333,-100" fill="none" stroke="black"/>
<text font-family="Courier,monospace" font-size="10.00" text-anchor="start" x="351" y="-89">q3,[1] 0 0 …</text>
</g>
<!-- 9&#45;&gt;11 -->
<g class="edge" id="edge18"><title>9-&gt;11</title>
<path d="M387.5,-140.625C387.5,-128.808 387.5,-116.991 387.5,-105.174" fill="none" stroke="black"/>
<polygon fill="black" points="387.5,-100.109 389.75,-105.109 387.5,-102.609 387.5,-105.109 387.5,-105.109 387.5,-105.109 387.5,-102.609 385.25,-105.109 387.5,-100.109 387.5,-100.109" stroke="black"/>
</g>
<!-- 12 -->
<g class="node" id="node14"><title>12</title>
<path d="M551.333,-171C551.333,-171 481.667,-171 481.667,-171 478.833,-171 476,-168.167 476,-165.333 476,-165.333 476,-159.667 476,-159.667 476,-156.833 478.833,-154 481.667,-154 481.667,-154 551.333,-154 551.333,-154 554.167,-154 557,-156.833 557,-159.667 557,-159.667 557,-165.333 557,-165.333 557,-168.167 554.167,-171 551.333,-171" fill="none" stroke="black"/>
<text font-family="Courier,monospace" font-size="10.00" text-anchor="start" x="480" y="-160">q2,[1] 1 0 …</text>
</g>
<!-- 9&#45;&gt;12 -->
<g class="edge" id="edge19"><title>9-&gt;12</title>
<path d="M428.335,-153.578C441.811,-154.957 456.946,-156.506 470.776,-157.922" fill="none" stroke="black"/>
<polygon fill="black" points="475.806,-158.437 470.603,-160.166 473.319,-158.182 470.832,-157.928 470.832,-157.928 470.832,-157.928 473.319,-158.182 471.061,-155.689 475.806,-158.437 475.806,-158.437" stroke="black"/>
</g>
<!-- 14 -->
<g class="node" id="node16"><title>14</title>
<path d="M545.333,-83C545.333,-83 487.667,-83 487.667,-83 484.833,-83 482,-80.1667 482,-77.3333 482,-77.3333 482,-71.6667 482,-71.6667 482,-68.8333 484.833,-66 487.667,-66 487.667,-66 545.333,-66 545.333,-66 548.167,-66 551,-68.8333 551,-71.6667 551,-71.6667 551,-77.3333 551,-77.3333 551,-80.1667 548.167,-83 545.333,-83" fill="none" stroke="black"/>
<text font-family="Courier,monospace" font-size="10.00" text-anchor="start" x="486" y="-72">q3,[0] 0 $</text>
</g>
<!-- 11&#45;&gt;14 -->
<g class="edge" id="edge20"><title>11-&gt;14</title>
<path d="M428.335,-86.1677C443.759,-84.1031 461.357,-81.7475 476.683,-79.696" fill="none" stroke="black"/>
<polygon fill="black" points="481.787,-79.0128 477.13,-81.9064 479.309,-79.3445 476.831,-79.6763 476.831,-79.6763 476.831,-79.6763 479.309,-79.3445 476.532,-77.4461 481.787,-79.0128 481.787,-79.0128" stroke="black"/>
</g>
<!-- 13 -->
<g class="node" id="node15"><title>13</title>
<path d="M551.333,-118C551.333,-118 481.667,-118 481.667,-118 478.833,-118 476,-115.167 476,-112.333 476,-112.333 476,-106.667 476,-106.667 476,-103.833 478.833,-101 481.667,-101 481.667,-101 551.333,-101 551.333,-101 554.167,-101 557,-103.833 557,-106.667 557,-106.667 557,-112.333 557,-112.333 557,-115.167 554.167,-118 551.333,-118" fill="none" stroke="black"/>
<text font-family="Courier,monospace" font-size="10.00" text-anchor="start" x="480" y="-107">q3,[1] 1 0 …</text>
</g>
<!-- 12&#45;&gt;13 -->
<g class="edge" id="edge6"><title>12-&gt;13</title>
<path d="M516.5,-153.847C516.5,-143.634 516.5,-133.421 516.5,-123.209" fill="none" stroke="black"/>
<polygon fill="black" points="516.5,-118.195 518.75,-123.195 516.5,-120.695 516.5,-123.195 516.5,-123.195 516.5,-123.195 516.5,-120.695 514.25,-123.195 516.5,-118.195 516.5,-118.195" stroke="black"/>
</g>
<!-- 15 -->
<g class="node" id="node17"><title>15</title>
<path d="M680.333,-171C680.333,-171 610.667,-171 610.667,-171 607.833,-171 605,-168.167 605,-165.333 605,-165.333 605,-159.667 605,-159.667 605,-156.833 607.833,-154 610.667,-154 610.667,-154 680.333,-154 680.333,-154 683.167,-154 686,-156.833 686,-159.667 686,-159.667 686,-165.333 686,-165.333 686,-168.167 683.167,-171 680.333,-171" fill="none" stroke="black"/>
<text font-family="Courier,monospace" font-size="10.00" text-anchor="start" x="609" y="-160">q2,[0] 1 1 …</text>
</g>
<!-- 12&#45;&gt;15 -->
<g class="edge" id="edge5"><title>12-&gt;15</title>
<path d="M557.335,-162.5C570.811,-162.5 585.946,-162.5 599.776,-162.5" fill="none" stroke="black"/>
<polygon fill="black" points="604.806,-162.5 599.806,-164.75 602.306,-162.5 599.806,-162.5 599.806,-162.5 599.806,-162.5 602.306,-162.5 599.806,-160.25 604.806,-162.5 604.806,-162.5" stroke="black"/>
</g>
<!-- 16 -->
<g class="node" id="node18"><title>16</title>
<path d="M668.333,-83C668.333,-83 622.667,-83 622.667,-83 619.833,-83 617,-80.1667 617,-77.3333 617,-77.3333 617,-71.6667 617,-71.6667 617,-68.8333 619.833,-66 622.667,-66 622.667,-66 668.333,-66 668.333,-66 671.167,-66 674,-68.8333 674,-71.6667 674,-71.6667 674,-77.3333 674,-77.3333 674,-80.1667 671.167,-83 668.333,-83" fill="none" stroke="black"/>
<text font-family="Courier,monospace" font-size="10.00" text-anchor="start" x="621" y="-72">q3,[0] $</text>
</g>
<!-- 14&#45;&gt;16 -->
<g class="edge" id="edge22"><title>14-&gt;16</title>
<path d="M551.2,-74.5C569.873,-74.5 592.993,-74.5 611.546,-74.5" fill="none" stroke="black"/>
<polygon fill="black" points="616.65,-74.5 611.65,-76.7501 614.15,-74.5 611.65,-74.5001 611.65,-74.5001 611.65,-74.5001 614.15,-74.5 611.65,-72.2501 616.65,-74.5 616.65,-74.5" stroke="black"/>
</g>
<!-- 17 -->
<g class="node" id="node19"><title>17</title>
<path d="M680.333,-118C680.333,-118 610.667,-118 610.667,-118 607.833,-118 605,-115.167 605,-112.333 605,-112.333 605,-106.667 605,-106.667 605,-103.833 607.833,-101 610.667,-101 610.667,-101 680.333,-101 680.333,-101 683.167,-101 686,-103.833 686,-106.667 686,-106.667 686,-112.333 686,-112.333 686,-115.167 683.167,-118 680.333,-118" fill="none" stroke="black"/>
<text font-family="Courier,monospace" font-size="10.00" text-anchor="start" x="609" y="-107">q3,[0] 1 1 …</text>
</g>
<!-- 15&#45;&gt;17 -->
<g class="edge" id="edge27"><title>15-&gt;17</title>
<path d="M645.5,-153.847C645.5,-143.634 645.5,-133.421 645.5,-123.209" fill="none" stroke="black"/>
<polygon fill="black" points="645.5,-118.195 647.75,-123.195 645.5,-120.695 645.5,-123.195 645.5,-123.195 645.5,-123.195 645.5,-120.695 643.25,-123.195 645.5,-118.195 645.5,-118.195" stroke="black"/>
</g>
<!-- 19 -->
<g class="node" id="node21"><title>19</title>
<path d="M809.333,-206C809.333,-206 739.667,-206 739.667,-206 736.833,-206 734,-203.167 734,-200.333 734,-200.333 734,-194.667 734,-194.667 734,-191.833 736.833,-189 739.667,-189 739.667,-189 809.333,-189 809.333,-189 812.167,-189 815,-191.833 815,-194.667 815,-194.667 815,-200.333 815,-200.333 815,-203.167 812.167,-206 809.333,-206" fill="none" stroke="black"/>
<text font-family="Courier,monospace" font-size="10.00" text-anchor="start" x="738" y="-195">q2,[0] 0 1 …</text>
</g>
<!-- 15&#45;&gt;19 -->
<g class="edge" id="edge26"><title>15-&gt;19</title>
<path d="M677.568,-171.062C695.557,-176.02 718.293,-182.285 737.115,-187.473" fill="none" stroke="black"/>
<polygon fill="black" points="742.313,-188.905 736.895,-189.746 739.903,-188.241 737.493,-187.577 737.493,-187.577 737.493,-187.577 739.903,-188.241 738.09,-185.407 742.313,-188.905 742.313,-188.905" stroke="black"/>
</g>
<!-- 18 -->
<g class="node" id="node20"><title>18</title>
<path d="M785.333,-83C785.333,-83 763.667,-83 763.667,-83 760.833,-83 758,-80.1667 758,-77.3333 758,-77.3333 758,-71.6667 758,-71.6667 758,-68.8333 760.833,-66 763.667,-66 763.667,-66 785.333,-66 785.333,-66 788.167,-66 791,-68.8333 791,-71.6667 791,-71.6667 791,-77.3333 791,-77.3333 791,-80.1667 788.167,-83 785.333,-83" fill="none" stroke="black"/>
<text font-family="Courier,monospace" font-size="10.00" text-anchor="start" x="762" y="-72">q3,$</text>
</g>
<!-- 16&#45;&gt;18 -->
<g class="edge" id="edge4"><title>16-&gt;18</title>
<path d="M674.057,-74.5C697.73,-74.5 731.341,-74.5 752.783,-74.5" fill="none" stroke="black"/>
<polygon fill="black" points="757.959,-74.5 752.959,-76.7501 755.459,-74.5 752.959,-74.5001 752.959,-74.5001 752.959,-74.5001 755.459,-74.5 752.959,-72.2501 757.959,-74.5 757.959,-74.5" stroke="black"/>
</g>
<!-- 22 -->
<g class="node" id="node24"><title>22</title>
<path d="M809.333,-118C809.333,-118 739.667,-118 739.667,-118 736.833,-118 734,-115.167 734,-112.333 734,-112.333 734,-106.667 734,-106.667 734,-103.833 736.833,-101 739.667,-101 739.667,-101 809.333,-101 809.333,-101 812.167,-101 815,-103.833 815,-106.667 815,-106.667 815,-112.333 815,-112.333 815,-115.167 812.167,-118 809.333,-118" fill="none" stroke="black"/>
<text font-family="Courier,monospace" font-size="10.00" text-anchor="start" x="738" y="-107">q3,[1] 1 0 …</text>
</g>
<!-- 17&#45;&gt;22 -->
<g class="edge" id="edge2"><title>17-&gt;22</title>
<path d="M686.335,-109.5C699.811,-109.5 714.946,-109.5 728.776,-109.5" fill="none" stroke="black"/>
<polygon fill="black" points="733.806,-109.5 728.806,-111.75 731.306,-109.5 728.806,-109.5 728.806,-109.5 728.806,-109.5 731.306,-109.5 728.806,-107.25 733.806,-109.5 733.806,-109.5" stroke="black"/>
</g>
<!-- 20 -->
<g class="node" id="node22"><title>20</title>
<path d="M784.333,-26C784.333,-26 764.667,-26 764.667,-26 761.833,-26 759,-23.1667 759,-20.3333 759,-20.3333 759,-14.6667 759,-14.6667 759,-11.8333 761.833,-9 764.667,-9 764.667,-9 784.333,-9 784.333,-9 787.167,-9 790,-11.8333 790,-14.6667 790,-14.6667 790,-20.3333 790,-20.3333 790,-23.1667 787.167,-26 784.333,-26" fill="none" stroke="black"/>
<path d="M785.667,-30C785.667,-30 763.333,-30 763.333,-30 759.167,-30 755,-25.8333 755,-21.6667 755,-21.6667 755,-13.3333 755,-13.3333 755,-9.16667 759.167,-5 763.333,-5 763.333,-5 785.667,-5 785.667,-5 789.833,-5 794,-9.16667 794,-13.3333 794,-13.3333 794,-21.6667 794,-21.6667 794,-25.8333 789.833,-30 785.667,-30" fill="none" stroke="black"/>
<text font-family="Courier,monospace" font-size="10.00" text-anchor="start" x="763" y="-15">q4,ε</text>
</g>
<!-- 18&#45;&gt;20 -->
<g class="edge" id="edge3"><title>18-&gt;20</title>
<path d="M774.5,-65.8895C774.5,-55.8196 774.5,-45.7498 774.5,-35.6799" fill="none" stroke="black"/>
<polygon fill="black" points="774.5,-30.4141 776.75,-35.414 774.5,-32.9141 774.5,-35.4141 774.5,-35.4141 774.5,-35.4141 774.5,-32.9141 772.25,-35.4141 774.5,-30.4141 774.5,-30.4141" stroke="black"/>
</g>
<!-- 21 -->
<g class="node" id="node23"><title>21</title>
<path d="M809.333,-153C809.333,-153 739.667,-153 739.667,-153 736.833,-153 734,-150.167 734,-147.333 734,-147.333 734,-141.667 734,-141.667 734,-138.833 736.833,-136 739.667,-136 739.667,-136 809.333,-136 809.333,-136 812.167,-136 815,-138.833 815,-141.667 815,-141.667 815,-147.333 815,-147.333 815,-150.167 812.167,-153 809.333,-153" fill="none" stroke="black"/>
<text font-family="Courier,monospace" font-size="10.00" text-anchor="start" x="738" y="-142">q3,[0] 0 1 …</text>
</g>
<!-- 19&#45;&gt;21 -->
<g class="edge" id="edge9"><title>19-&gt;21</title>
<path d="M774.5,-188.847C774.5,-178.634 774.5,-168.421 774.5,-158.209" fill="none" stroke="black"/>
<polygon fill="black" points="774.5,-153.195 776.75,-158.195 774.5,-155.695 774.5,-158.195 774.5,-158.195 774.5,-158.195 774.5,-155.695 772.25,-158.195 774.5,-153.195 774.5,-153.195" stroke="black"/>
</g>
<!-- 23 -->
<g class="node" id="node25"><title>23</title>
</g>
<!-- 24 -->
<g class="node" id="node26"><title>24</title>
</g>
<!-- 23&#45;&gt;24 -->
<g class="edge" id="edge13"><title>23-&gt;24</title>
<path d="M77.0714,-235.5C91.8772,-235.5 112.712,-235.5 128.734,-235.5" fill="none" stroke="white"/>
<polygon fill="white" points="133.967,-235.5 128.967,-237.75 131.467,-235.5 128.967,-235.5 128.967,-235.5 128.967,-235.5 131.467,-235.5 128.967,-233.25 133.967,-235.5 133.967,-235.5" stroke="white"/>
<text font-family="Courier,monospace" font-size="9.00" text-anchor="start" x="98" y="-241.3">0</text>
</g>
<!-- 25 -->
<g class="node" id="node27"><title>25</title>
</g>
<!-- 24&#45;&gt;25 -->
<g class="edge" id="edge12"><title>24-&gt;25</title>
<path d="M173.486,-235.5C191.851,-235.5 219.746,-235.5 239.611,-235.5" fill="none" stroke="white"/>
<polygon fill="white" points="244.731,-235.5 239.731,-237.75 242.231,-235.5 239.731,-235.5 239.731,-235.5 239.731,-235.5 242.231,-235.5 239.731,-233.25 244.731,-235.5 244.731,-235.5" stroke="white"/>
<text font-family="Courier,monospace" font-size="9.00" text-anchor="start" x="203" y="-241.3">0</text>
</g>
<!-- 26 -->
<g class="node" id="node28"><title>26</title>
</g>
<!-- 25&#45;&gt;26 -->
<g class="edge" id="edge11"><title>25-&gt;26</title>
<path d="M284.141,-235.5C305.219,-235.5 339.592,-235.5 362.619,-235.5" fill="none" stroke="white"/>
<polygon fill="white" points="367.638,-235.5 362.638,-237.75 365.138,-235.5 362.638,-235.5 362.638,-235.5 362.638,-235.5 365.138,-235.5 362.638,-233.25 367.638,-235.5 367.638,-235.5" stroke="white"/>
<text font-family="Courier,monospace" font-size="9.00" text-anchor="start" x="320" y="-241.3">1</text>
</g>
<!-- 27 -->
<g class="node" id="node29"><title>27</title>
</g>
<!-- 26&#45;&gt;27 -->
<g class="edge" id="edge10"><title>26-&gt;27</title>
<path d="M407.239,-235.5C429.656,-235.5 467.216,-235.5 491.674,-235.5" fill="none" stroke="white"/>
<polygon fill="white" points="496.684,-235.5 491.684,-237.75 494.184,-235.5 491.684,-235.5 491.684,-235.5 491.684,-235.5 494.184,-235.5 491.684,-233.25 496.684,-235.5 496.684,-235.5" stroke="white"/>
<text font-family="Courier,monospace" font-size="9.00" text-anchor="start" x="449" y="-241.3">1</text>
</g>
<!-- 28 -->
<g class="node" id="node30"><title>28</title>
</g>
<!-- 27&#45;&gt;28 -->
<g class="edge" id="edge15"><title>27-&gt;28</title>
<path d="M536.239,-235.5C558.656,-235.5 596.216,-235.5 620.674,-235.5" fill="none" stroke="white"/>
<polygon fill="white" points="625.684,-235.5 620.684,-237.75 623.184,-235.5 620.684,-235.5 620.684,-235.5 620.684,-235.5 623.184,-235.5 620.684,-233.25 625.684,-235.5 625.684,-235.5" stroke="white"/>
<text font-family="Courier,monospace" font-size="9.00" text-anchor="start" x="578" y="-241.3">0</text>
</g>
<!-- 29 -->
<g class="node" id="node31"><title>29</title>
</g>
<!-- 28&#45;&gt;29 -->
<g class="edge" id="edge14"><title>28-&gt;29</title>
<path d="M665.239,-235.5C687.656,-235.5 725.216,-235.5 749.674,-235.5" fill="none" stroke="white"/>
<polygon fill="white" points="754.684,-235.5 749.684,-237.75 752.184,-235.5 749.684,-235.5 749.684,-235.5 749.684,-235.5 752.184,-235.5 749.684,-233.25 754.684,-235.5 754.684,-235.5" stroke="white"/>
<text font-family="Courier,monospace" font-size="9.00" text-anchor="start" x="707" y="-241.3">0</text>
</g>
</g>
</svg>