<svg xmlns="http://www.w3.org/2000/svg" xmlns:xlink="http://www.w3.org/1999/xlink" width="464pt" height="37pt" viewBox="0.00 0.00 464.00 36.50">
<g id="graph0" class="graph" transform="scale(1 1) rotate(0) translate(4 32.5)">
<title>%3</title>
<polygon fill="white" stroke="transparent" points="-4,4 -4,-32.5 460,-32.5 460,4 -4,4"/>
<!-- _START -->
<g id="node1" class="node">
<title>_START</title>
</g>
<!-- 0 -->
<g id="node2" class="node">
<title>0</title>
<path fill="none" stroke="black" d="M71.33,-21C71.33,-21 43.67,-21 43.67,-21 40.83,-21 38,-18.17 38,-15.33 38,-15.33 38,-9.67 38,-9.67 38,-6.83 40.83,-4 43.67,-4 43.67,-4 71.33,-4 71.33,-4 74.17,-4 77,-6.83 77,-9.67 77,-9.67 77,-15.33 77,-15.33 77,-18.17 74.17,-21 71.33,-21"/>
<text text-anchor="start" x="42" y="-10" font-family="Courier,monospace" font-size="10.00">start</text>
</g>
<!-- _START&#45;&gt;0 -->
<g id="edge1" class="edge">
<title>_START-&gt;0</title>
<path fill="none" stroke="black" d="M1.16,-12.5C2.89,-12.5 18.46,-12.5 32.64,-12.5"/>
<polygon fill="black" stroke="black" points="37.78,-12.5 32.78,-14.75 35.28,-12.5 32.78,-12.5 32.78,-12.5 32.78,-12.5 35.28,-12.5 32.78,-10.25 37.78,-12.5 37.78,-12.5"/>
</g>
<!-- 1 -->
<g id="node3" class="node">
<title>1</title>
<path fill="none" stroke="black" d="M446.33,-21C446.33,-21 412.67,-21 412.67,-21 409.83,-21 407,-18.17 407,-15.33 407,-15.33 407,-9.67 407,-9.67 407,-6.83 409.83,-4 412.67,-4 412.67,-4 446.33,-4 446.33,-4 449.17,-4 452,-6.83 452,-9.67 452,-9.67 452,-15.33 452,-15.33 452,-18.17 449.17,-21 446.33,-21"/>
<path fill="none" stroke="black" d="M447.67,-25C447.67,-25 411.33,-25 411.33,-25 407.17,-25 403,-20.83 403,-16.67 403,-16.67 403,-8.33 403,-8.33 403,-4.17 407.17,0 411.33,0 411.33,0 447.67,0 447.67,0 451.83,0 456,-4.17 456,-8.33 456,-8.33 456,-16.67 456,-16.67 456,-20.83 451.83,-25 447.67,-25"/>
<text text-anchor="start" x="411" y="-10" font-family="Courier,monospace" font-size="10.00">accept</text>
</g>
<!-- 0&#45;&gt;1 -->
<g id="edge2" class="edge">
<title>0-&gt;1</title>
<path fill="none" stroke="black" d="M77.1,-12.5C136.71,-12.5 323.37,-12.5 397.61,-12.5"/>
<polygon fill="black" stroke="black" points="402.75,-12.5 397.75,-14.75 400.25,-12.5 397.75,-12.5 397.75,-12.5 397.75,-12.5 400.25,-12.5 397.75,-10.25 402.75,-12.5 402.75,-12.5"/>
<text text-anchor="start" x="98" y="-18.3" font-family="Courier,monospace" font-size="9.00">ε ∪ a* a ∪ (ε ∪ a* a) (a b (ε ∪ a* a))* a b (ε ∪ a* a)</text>
</g>
</g>
</svg>