<svg xmlns="http://www.w3.org/2000/svg" xmlns:xlink="http://www.w3.org/1999/xlink" width="531pt" height="186pt" viewBox="0.00 0.00 531.00 185.88">
<g id="graph0" class="graph" transform="scale(1 1) rotate(0) translate(4 181.88)">
<title>%3</title>
<polygon fill="white" stroke="transparent" points="-4,4 -4,-181.88 527,-181.88 527,4 -4,4"/>
<!-- _START -->
<g id="node1" class="node">
<title>_START</title>
</g>
<!-- 0 -->
<g id="node2" class="node">
<title>0</title>
<path fill="none" stroke="black" d="M71.33,-127.38C71.33,-127.38 43.67,-127.38 43.67,-127.38 40.83,-127.38 38,-124.55 38,-121.71 38,-121.71 38,-116.05 38,-116.05 38,-113.21 40.83,-110.38 43.67,-110.38 43.67,-110.38 71.33,-110.38 71.33,-110.38 74.17,-110.38 77,-113.21 77,-116.05 77,-116.05 77,-121.71 77,-121.71 77,-124.55 74.17,-127.38 71.33,-127.38"/>
<text text-anchor="start" x="42" y="-116.38" font-family="Courier,monospace" font-size="10.00">start</text>
</g>
<!-- _START&#45;&gt;0 -->
<g id="edge1" class="edge">
<title>_START-&gt;0</title>
<path fill="none" stroke="black" d="M1.16,-118.88C2.89,-118.88 18.46,-118.88 32.64,-118.88"/>
<polygon fill="black" stroke="black" points="37.78,-118.88 32.78,-121.13 35.28,-118.88 32.78,-118.88 32.78,-118.88 32.78,-118.88 35.28,-118.88 32.78,-116.63 37.78,-118.88 37.78,-118.88"/>
</g>
<!-- 1 -->
<g id="node3" class="node">
<title>1</title>
<path fill="none" stroke="black" d="M513.33,-99.38C513.33,-99.38 479.67,-99.38 479.67,-99.38 476.83,-99.38 474,-96.55 474,-93.71 474,-93.71 474,-88.05 474,-88.05 474,-85.21 476.83,-82.38 479.67,-82.38 479.67,-82.38 513.33,-82.38 513.33,-82.38 516.17,-82.38 519,-85.21 519,-88.05 519,-88.05 519,-93.71 519,-93.71 519,-96.55 516.17,-99.38 513.33,-99.38"/>
<path fill="none" stroke="black" d="M514.67,-103.38C514.67,-103.38 478.33,-103.38 478.33,-103.38 474.17,-103.38 470,-99.21 470,-95.05 470,-95.05 470,-86.71 470,-86.71 470,-82.55 474.17,-78.38 478.33,-78.38 478.33,-78.38 514.67,-78.38 514.67,-78.38 518.83,-78.38 523,-82.55 523,-86.71 523,-86.71 523,-95.05 523,-95.05 523,-99.21 518.83,-103.38 514.67,-103.38"/>
<text text-anchor="start" x="478" y="-88.38" font-family="Courier,monospace" font-size="10.00">accept</text>
</g>
<!-- 0&#45;&gt;1 -->
<g id="edge13" class="edge">
<title>0-&gt;1</title>
<path fill="none" stroke="black" d="M66.96,-127.58C80.14,-140.15 106.91,-161.88 134.5,-161.88 134.5,-161.88 134.5,-161.88 412.5,-161.88 445.61,-161.88 472.16,-128.86 485.7,-107.86"/>
<polygon fill="black" stroke="black" points="488.39,-103.57 487.64,-109 487.06,-105.69 485.73,-107.81 485.73,-107.81 485.73,-107.81 487.06,-105.69 483.82,-106.61 488.39,-103.57 488.39,-103.57"/>
<text text-anchor="start" x="270.5" y="-167.68" font-family="Courier,monospace" font-size="9.00">ε</text>
</g>
<!-- 7 -->
<g id="node9" class="node">
<title>7</title>
<path fill="none" stroke="black" d="M140.33,-85.38C140.33,-85.38 130.67,-85.38 130.67,-85.38 127.83,-85.38 125,-82.55 125,-79.71 125,-79.71 125,-74.05 125,-74.05 125,-71.21 127.83,-68.38 130.67,-68.38 130.67,-68.38 140.33,-68.38 140.33,-68.38 143.17,-68.38 146,-71.21 146,-74.05 146,-74.05 146,-79.71 146,-79.71 146,-82.55 143.17,-85.38 140.33,-85.38"/>
<text text-anchor="start" x="129" y="-74.38" font-family="Courier,monospace" font-size="10.00">q7</text>
</g>
<!-- 0&#45;&gt;7 -->
<g id="edge12" class="edge">
<title>0-&gt;7</title>
<path fill="none" stroke="black" d="M74.25,-110.18C87.72,-102.73 106.96,-92.1 120.05,-84.87"/>
<polygon fill="black" stroke="black" points="124.57,-82.37 121.28,-86.75 122.38,-83.58 120.2,-84.79 120.2,-84.79 120.2,-84.79 122.38,-83.58 119.11,-82.82 124.57,-82.37 124.57,-82.37"/>
<text text-anchor="start" x="98" y="-103.68" font-family="Courier,monospace" font-size="9.00">ε</text>
</g>
<!-- 2 -->
<g id="node4" class="node">
<title>2</title>
<path fill="none" stroke="black" d="M209.33,-81.38C209.33,-81.38 199.67,-81.38 199.67,-81.38 196.83,-81.38 194,-78.55 194,-75.71 194,-75.71 194,-70.05 194,-70.05 194,-67.21 196.83,-64.38 199.67,-64.38 199.67,-64.38 209.33,-64.38 209.33,-64.38 212.17,-64.38 215,-67.21 215,-70.05 215,-70.05 215,-75.71 215,-75.71 215,-78.55 212.17,-81.38 209.33,-81.38"/>
<text text-anchor="start" x="198" y="-70.38" font-family="Courier,monospace" font-size="10.00">q1</text>
</g>
<!-- 3 -->
<g id="node5" class="node">
<title>3</title>
<path fill="none" stroke="black" d="M278.33,-73.38C278.33,-73.38 268.67,-73.38 268.67,-73.38 265.83,-73.38 263,-70.55 263,-67.71 263,-67.71 263,-62.05 263,-62.05 263,-59.21 265.83,-56.38 268.67,-56.38 268.67,-56.38 278.33,-56.38 278.33,-56.38 281.17,-56.38 284,-59.21 284,-62.05 284,-62.05 284,-67.71 284,-67.71 284,-70.55 281.17,-73.38 278.33,-73.38"/>
<text text-anchor="start" x="267" y="-62.38" font-family="Courier,monospace" font-size="10.00">q2</text>
</g>
<!-- 2&#45;&gt;3 -->
<g id="edge2" class="edge">
<title>2-&gt;3</title>
<path fill="none" stroke="black" d="M215.1,-71.73C226.24,-70.4 244.75,-68.19 257.73,-66.64"/>
<polygon fill="black" stroke="black" points="262.92,-66.02 258.22,-68.85 260.44,-66.32 257.95,-66.62 257.95,-66.62 257.95,-66.62 260.44,-66.32 257.69,-64.38 262.92,-66.02 262.92,-66.02"/>
<text text-anchor="start" x="236" y="-75.68" font-family="Courier,monospace" font-size="9.00">a</text>
</g>
<!-- 5 -->
<g id="node7" class="node">
<title>5</title>
<path fill="none" stroke="black" d="M347.33,-79.38C347.33,-79.38 337.67,-79.38 337.67,-79.38 334.83,-79.38 332,-76.55 332,-73.71 332,-73.71 332,-68.05 332,-68.05 332,-65.21 334.83,-62.38 337.67,-62.38 337.67,-62.38 347.33,-62.38 347.33,-62.38 350.17,-62.38 353,-65.21 353,-68.05 353,-68.05 353,-73.71 353,-73.71 353,-76.55 350.17,-79.38 347.33,-79.38"/>
<text text-anchor="start" x="336" y="-68.38" font-family="Courier,monospace" font-size="10.00">q3</text>
</g>
<!-- 3&#45;&gt;5 -->
<g id="edge4" class="edge">
<title>3-&gt;5</title>
<path fill="none" stroke="black" d="M284.1,-65.74C295.24,-66.74 313.75,-68.4 326.73,-69.56"/>
<polygon fill="black" stroke="black" points="331.92,-70.02 326.74,-71.82 329.43,-69.8 326.94,-69.58 326.94,-69.58 326.94,-69.58 329.43,-69.8 327.14,-67.33 331.92,-70.02 331.92,-70.02"/>
<text text-anchor="start" x="305" y="-74.68" font-family="Courier,monospace" font-size="9.00">ε</text>
</g>
<!-- 4 -->
<g id="node6" class="node">
<title>4</title>
<path fill="none" stroke="black" d="M209.33,-46.38C209.33,-46.38 199.67,-46.38 199.67,-46.38 196.83,-46.38 194,-43.55 194,-40.71 194,-40.71 194,-35.05 194,-35.05 194,-32.21 196.83,-29.38 199.67,-29.38 199.67,-29.38 209.33,-29.38 209.33,-29.38 212.17,-29.38 215,-32.21 215,-35.05 215,-35.05 215,-40.71 215,-40.71 215,-43.55 212.17,-46.38 209.33,-46.38"/>
<text text-anchor="start" x="198" y="-35.38" font-family="Courier,monospace" font-size="10.00">q5</text>
</g>
<!-- 8 -->
<g id="node10" class="node">
<title>8</title>
<path fill="none" stroke="black" d="M278.33,-38.38C278.33,-38.38 268.67,-38.38 268.67,-38.38 265.83,-38.38 263,-35.55 263,-32.71 263,-32.71 263,-27.05 263,-27.05 263,-24.21 265.83,-21.38 268.67,-21.38 268.67,-21.38 278.33,-21.38 278.33,-21.38 281.17,-21.38 284,-24.21 284,-27.05 284,-27.05 284,-32.71 284,-32.71 284,-35.55 281.17,-38.38 278.33,-38.38"/>
<text text-anchor="start" x="267" y="-27.38" font-family="Courier,monospace" font-size="10.00">q6</text>
</g>
<!-- 4&#45;&gt;8 -->
<g id="edge5" class="edge">
<title>4-&gt;8</title>
<path fill="none" stroke="black" d="M215.1,-36.73C226.24,-35.4 244.75,-33.19 257.73,-31.64"/>
<polygon fill="black" stroke="black" points="262.92,-31.02 258.22,-33.85 260.44,-31.32 257.95,-31.62 257.95,-31.62 257.95,-31.62 260.44,-31.32 257.69,-29.38 262.92,-31.02 262.92,-31.02"/>
<text text-anchor="start" x="236" y="-40.68" font-family="Courier,monospace" font-size="9.00">a</text>
</g>
<!-- 6 -->
<g id="node8" class="node">
<title>6</title>
<path fill="none" stroke="black" d="M416.33,-99.38C416.33,-99.38 406.67,-99.38 406.67,-99.38 403.83,-99.38 401,-96.55 401,-93.71 401,-93.71 401,-88.05 401,-88.05 401,-85.21 403.83,-82.38 406.67,-82.38 406.67,-82.38 416.33,-82.38 416.33,-82.38 419.17,-82.38 422,-85.21 422,-88.05 422,-88.05 422,-93.71 422,-93.71 422,-96.55 419.17,-99.38 416.33,-99.38"/>
<text text-anchor="start" x="405" y="-88.38" font-family="Courier,monospace" font-size="10.00">q4</text>
</g>
<!-- 5&#45;&gt;6 -->
<g id="edge3" class="edge">
<title>5-&gt;6</title>
<path fill="none" stroke="black" d="M353.03,-72.62C361.1,-74.19 372.93,-76.74 383,-79.88 387.38,-81.24 392.04,-82.99 396.26,-84.69"/>
<polygon fill="black" stroke="black" points="400.96,-86.64 395.48,-86.8 398.65,-85.68 396.34,-84.73 396.34,-84.73 396.34,-84.73 398.65,-85.68 397.2,-82.65 400.96,-86.64 400.96,-86.64"/>
<text text-anchor="start" x="374" y="-85.68" font-family="Courier,monospace" font-size="9.00">b</text>
</g>
<!-- 6&#45;&gt;1 -->
<g id="edge9" class="edge">
<title>6-&gt;1</title>
<path fill="none" stroke="black" d="M422.02,-90.88C432.43,-90.88 449.64,-90.88 464.79,-90.88"/>
<polygon fill="black" stroke="black" points="469.84,-90.88 464.84,-93.13 467.34,-90.88 464.84,-90.88 464.84,-90.88 464.84,-90.88 467.34,-90.88 464.83,-88.63 469.84,-90.88 469.84,-90.88"/>
<text text-anchor="start" x="443" y="-96.68" font-family="Courier,monospace" font-size="9.00">ε</text>
</g>
<!-- 6&#45;&gt;7 -->
<g id="edge8" class="edge">
<title>6-&gt;7</title>
<path fill="none" stroke="black" d="M400.76,-95.48C387.93,-101.1 364.54,-109.88 343.5,-109.88 203.5,-109.88 203.5,-109.88 203.5,-109.88 183.46,-109.88 163.2,-97.86 150.29,-88.32"/>
<polygon fill="black" stroke="black" points="146.2,-85.21 151.54,-86.45 148.19,-86.72 150.18,-88.24 150.18,-88.24 150.18,-88.24 148.19,-86.72 148.82,-90.03 146.2,-85.21 146.2,-85.21"/>
<text text-anchor="start" x="270.5" y="-115.68" font-family="Courier,monospace" font-size="9.00">ε</text>
</g>
<!-- 7&#45;&gt;2 -->
<g id="edge6" class="edge">
<title>7-&gt;2</title>
<path fill="none" stroke="black" d="M146.1,-76.31C157.24,-75.64 175.75,-74.54 188.73,-73.76"/>
<polygon fill="black" stroke="black" points="193.92,-73.45 189.06,-76 191.42,-73.6 188.93,-73.75 188.93,-73.75 188.93,-73.75 191.42,-73.6 188.79,-71.5 193.92,-73.45 193.92,-73.45"/>
<text text-anchor="start" x="167" y="-81.68" font-family="Courier,monospace" font-size="9.00">ε</text>
</g>
<!-- 7&#45;&gt;4 -->
<g id="edge7" class="edge">
<title>7-&gt;4</title>
<path fill="none" stroke="black" d="M145.96,-68.26C151.06,-63.9 157.6,-58.72 164,-54.88 171.8,-50.2 181.13,-46.12 188.76,-43.13"/>
<polygon fill="black" stroke="black" points="193.73,-41.25 189.85,-45.12 191.39,-42.13 189.06,-43.02 189.06,-43.02 189.06,-43.02 191.39,-42.13 188.26,-40.92 193.73,-41.25 193.73,-41.25"/>
<text text-anchor="start" x="167" y="-60.68" font-family="Courier,monospace" font-size="9.00">ε</text>
</g>
<!-- 8&#45;&gt;1 -->
<g id="edge11" class="edge">
<title>8-&gt;1</title>
<path fill="none" stroke="black" d="M284.12,-32.1C303.1,-36.53 346.69,-46.88 383,-56.88 410.8,-64.53 442.19,-74.1 464.73,-81.13"/>
<polygon fill="black" stroke="black" points="469.69,-82.68 464.25,-83.34 467.3,-81.94 464.92,-81.19 464.92,-81.19 464.92,-81.19 467.3,-81.94 465.59,-79.04 469.69,-82.68 469.69,-82.68"/>
<text text-anchor="start" x="374" y="-62.68" font-family="Courier,monospace" font-size="9.00">ε</text>
</g>
<!-- 8&#45;&gt;7 -->
<g id="edge10" class="edge">
<title>8-&gt;7</title>
<path fill="none" stroke="black" d="M262.76,-21.95C247.59,-10.62 217.64,7.59 194,-3.88 168.53,-16.24 150.96,-45.96 142.43,-63.43"/>
<polygon fill="black" stroke="black" points="140.26,-68.01 140.36,-62.53 141.33,-65.75 142.4,-63.49 142.4,-63.49 142.4,-63.49 141.33,-65.75 144.43,-64.45 140.26,-68.01 140.26,-68.01"/>
<text text-anchor="start" x="201.5" y="-9.68" font-family="Courier,monospace" font-size="9.00">ε</text>
</g>
</g>
</svg>