<svg xmlns="http://www.w3.org/2000/svg" xmlns:xlink="http://www.w3.org/1999/xlink" width="607pt" height="223pt" viewBox="0.00 0.00 607.00 222.50">
<g id="graph0" class="graph" transform="scale(1 1) rotate(0) translate(4 218.5)">
<title>%3</title>
<polygon fill="white" stroke="transparent" points="-4,4 -4,-218.5 603,-218.5 603,4 -4,4"/>
<!-- _START -->
<g id="node1" class="node">
<title>_START</title>
</g>
<!-- 0 -->
<g id="node2" class="node">
<title>0</title>
<path fill="none" stroke="black" d="M62.33,-160C62.33,-160 52.67,-160 52.67,-160 49.83,-160 47,-157.17 47,-154.33 47,-154.33 47,-148.67 47,-148.67 47,-145.83 49.83,-143 52.67,-143 52.67,-143 62.33,-143 62.33,-143 65.17,-143 68,-145.83 68,-148.67 68,-148.67 68,-154.33 68,-154.33 68,-157.17 65.17,-160 62.33,-160"/>
<text text-anchor="start" x="51" y="-149" font-family="Courier,monospace" font-size="10.00">q1</text>
</g>
<!-- _START&#45;&gt;0 -->
<g id="edge1" class="edge">
<title>_START-&gt;0</title>
<path fill="none" stroke="black" d="M1.16,-151.5C3.27,-151.5 25.82,-151.5 41.47,-151.5"/>
<polygon fill="black" stroke="black" points="46.88,-151.5 41.88,-153.75 44.38,-151.5 41.88,-151.5 41.88,-151.5 41.88,-151.5 44.38,-151.5 41.88,-149.25 46.88,-151.5 46.88,-151.5"/>
</g>
<!-- 2 -->
<g id="node4" class="node">
<title>2</title>
<path fill="none" stroke="black" d="M149.33,-81C149.33,-81 139.67,-81 139.67,-81 136.83,-81 134,-78.17 134,-75.33 134,-75.33 134,-69.67 134,-69.67 134,-66.83 136.83,-64 139.67,-64 139.67,-64 149.33,-64 149.33,-64 152.17,-64 155,-66.83 155,-69.67 155,-69.67 155,-75.33 155,-75.33 155,-78.17 152.17,-81 149.33,-81"/>
<text text-anchor="start" x="138" y="-70" font-family="Courier,monospace" font-size="10.00">q1</text>
</g>
<!-- 0&#45;&gt;2 -->
<g id="edge3" class="edge">
<title>0-&gt;2</title>
<path fill="none" stroke="black" d="M67.95,-142.65C80.83,-130.6 104.61,-108.37 125,-89.5 126.66,-87.97 128.4,-86.36 130.13,-84.77"/>
<polygon fill="black" stroke="black" points="134.08,-81.14 131.92,-86.18 132.24,-82.83 130.4,-84.52 130.4,-84.52 130.4,-84.52 132.24,-82.83 128.87,-82.86 134.08,-81.14 134.08,-81.14"/>
</g>
<!-- 3 -->
<g id="node5" class="node">
<title>3</title>
<path fill="none" stroke="black" d="M149.33,-169C149.33,-169 139.67,-169 139.67,-169 136.83,-169 134,-166.17 134,-163.33 134,-163.33 134,-157.67 134,-157.67 134,-154.83 136.83,-152 139.67,-152 139.67,-152 149.33,-152 149.33,-152 152.17,-152 155,-154.83 155,-157.67 155,-157.67 155,-163.33 155,-163.33 155,-166.17 152.17,-169 149.33,-169"/>
<text text-anchor="start" x="138" y="-158" font-family="Courier,monospace" font-size="10.00">q2</text>
</g>
<!-- 0&#45;&gt;3 -->
<g id="edge2" class="edge">
<title>0-&gt;3</title>
<path fill="none" stroke="black" d="M68.25,-152.53C83.11,-154.11 111.52,-157.11 128.86,-158.95"/>
<polygon fill="black" stroke="black" points="133.86,-159.48 128.65,-161.19 131.38,-159.22 128.89,-158.95 128.89,-158.95 128.89,-158.95 131.38,-159.22 129.13,-156.72 133.86,-159.48 133.86,-159.48"/>
</g>
<!-- 1 -->
<g id="node3" class="node">
<title>1</title>
<path fill="none" stroke="black" d="M236.33,-169C236.33,-169 226.67,-169 226.67,-169 223.83,-169 221,-166.17 221,-163.33 221,-163.33 221,-157.67 221,-157.67 221,-154.83 223.83,-152 226.67,-152 226.67,-152 236.33,-152 236.33,-152 239.17,-152 242,-154.83 242,-157.67 242,-157.67 242,-163.33 242,-163.33 242,-166.17 239.17,-169 236.33,-169"/>
<text text-anchor="start" x="225" y="-158" font-family="Courier,monospace" font-size="10.00">q3</text>
</g>
<!-- 4 -->
<g id="node6" class="node">
<title>4</title>
<path fill="none" stroke="black" d="M323.33,-169C323.33,-169 313.67,-169 313.67,-169 310.83,-169 308,-166.17 308,-163.33 308,-163.33 308,-157.67 308,-157.67 308,-154.83 310.83,-152 313.67,-152 313.67,-152 323.33,-152 323.33,-152 326.17,-152 329,-154.83 329,-157.67 329,-157.67 329,-163.33 329,-163.33 329,-166.17 326.17,-169 323.33,-169"/>
<text text-anchor="start" x="312" y="-158" font-family="Courier,monospace" font-size="10.00">q4</text>
</g>
<!-- 1&#45;&gt;4 -->
<g id="edge7" class="edge">
<title>1-&gt;4</title>
<path fill="none" stroke="black" d="M242.25,-160.5C256.98,-160.5 285.03,-160.5 302.41,-160.5"/>
<polygon fill="black" stroke="black" points="307.86,-160.5 302.86,-162.75 305.36,-160.5 302.86,-160.5 302.86,-160.5 302.86,-160.5 305.36,-160.5 302.86,-158.25 307.86,-160.5 307.86,-160.5"/>
</g>
<!-- 5 -->
<g id="node7" class="node">
<title>5</title>
<path fill="none" stroke="black" d="M236.33,-81C236.33,-81 226.67,-81 226.67,-81 223.83,-81 221,-78.17 221,-75.33 221,-75.33 221,-69.67 221,-69.67 221,-66.83 223.83,-64 226.67,-64 226.67,-64 236.33,-64 236.33,-64 239.17,-64 242,-66.83 242,-69.67 242,-69.67 242,-75.33 242,-75.33 242,-78.17 239.17,-81 236.33,-81"/>
<text text-anchor="start" x="225" y="-70" font-family="Courier,monospace" font-size="10.00">q1</text>
</g>
<!-- 2&#45;&gt;5 -->
<g id="edge6" class="edge">
<title>2-&gt;5</title>
<path fill="none" stroke="black" d="M155.25,-72.5C169.98,-72.5 198.03,-72.5 215.41,-72.5"/>
<polygon fill="black" stroke="black" points="220.86,-72.5 215.86,-74.75 218.36,-72.5 215.86,-72.5 215.86,-72.5 215.86,-72.5 218.36,-72.5 215.86,-70.25 220.86,-72.5 220.86,-72.5"/>
</g>
<!-- 3&#45;&gt;1 -->
<g id="edge4" class="edge">
<title>3-&gt;1</title>
<path fill="none" stroke="black" d="M155.25,-160.5C169.98,-160.5 198.03,-160.5 215.41,-160.5"/>
<polygon fill="black" stroke="black" points="220.86,-160.5 215.86,-162.75 218.36,-160.5 215.86,-160.5 215.86,-160.5 215.86,-160.5 218.36,-160.5 215.86,-158.25 220.86,-160.5 220.86,-160.5"/>
</g>
<!-- 6 -->
<g id="node8" class="node">
<title>6</title>
<path fill="none" stroke="black" d="M149.33,-116C149.33,-116 139.67,-116 139.67,-116 136.83,-116 134,-113.17 134,-110.33 134,-110.33 134,-104.67 134,-104.67 134,-101.83 136.83,-99 139.67,-99 139.67,-99 149.33,-99 149.33,-99 152.17,-99 155,-101.83 155,-104.67 155,-104.67 155,-110.33 155,-110.33 155,-113.17 152.17,-116 149.33,-116"/>
<text text-anchor="start" x="138" y="-105" font-family="Courier,monospace" font-size="10.00">q3</text>
</g>
<!-- 3&#45;&gt;6 -->
<g id="edge5" class="edge">
<title>3-&gt;6</title>
<path fill="none" stroke="black" d="M144.5,-151.85C144.5,-141.63 144.5,-131.42 144.5,-121.21"/>
<polygon fill="black" stroke="black" points="144.5,-116.2 146.75,-121.2 144.5,-118.7 144.5,-121.2 144.5,-121.2 144.5,-121.2 144.5,-118.7 142.25,-121.2 144.5,-116.2 144.5,-116.2"/>
</g>
<!-- 10 -->
<g id="node12" class="node">
<title>10</title>
<path fill="none" stroke="black" d="M410.33,-168C410.33,-168 400.67,-168 400.67,-168 397.83,-168 395,-165.17 395,-162.33 395,-162.33 395,-156.67 395,-156.67 395,-153.83 397.83,-151 400.67,-151 400.67,-151 410.33,-151 410.33,-151 413.17,-151 416,-153.83 416,-156.67 416,-156.67 416,-162.33 416,-162.33 416,-165.17 413.17,-168 410.33,-168"/>
<text text-anchor="start" x="399" y="-157" font-family="Courier,monospace" font-size="10.00">q4</text>
</g>
<!-- 4&#45;&gt;10 -->
<g id="edge10" class="edge">
<title>4-&gt;10</title>
<path fill="none" stroke="black" d="M329.25,-160.39C344.11,-160.21 372.52,-159.88 389.86,-159.67"/>
<polygon fill="black" stroke="black" points="394.86,-159.61 389.89,-161.92 392.36,-159.64 389.86,-159.67 389.86,-159.67 389.86,-159.67 392.36,-159.64 389.84,-157.42 394.86,-159.61 394.86,-159.61"/>
</g>
<!-- 8 -->
<g id="node10" class="node">
<title>8</title>
<path fill="none" stroke="black" d="M323.33,-64C323.33,-64 313.67,-64 313.67,-64 310.83,-64 308,-61.17 308,-58.33 308,-58.33 308,-52.67 308,-52.67 308,-49.83 310.83,-47 313.67,-47 313.67,-47 323.33,-47 323.33,-47 326.17,-47 329,-49.83 329,-52.67 329,-52.67 329,-58.33 329,-58.33 329,-61.17 326.17,-64 323.33,-64"/>
<text text-anchor="start" x="312" y="-53" font-family="Courier,monospace" font-size="10.00">q2</text>
</g>
<!-- 5&#45;&gt;8 -->
<g id="edge8" class="edge">
<title>5-&gt;8</title>
<path fill="none" stroke="black" d="M242.25,-70.55C257.11,-67.58 285.52,-61.9 302.86,-58.43"/>
<polygon fill="black" stroke="black" points="307.86,-57.43 303.4,-60.61 305.41,-57.92 302.96,-58.41 302.96,-58.41 302.96,-58.41 305.41,-57.92 302.52,-56.2 307.86,-57.43 307.86,-57.43"/>
</g>
<!-- 9 -->
<g id="node11" class="node">
<title>9</title>
<path fill="none" stroke="black" d="M323.33,-99C323.33,-99 313.67,-99 313.67,-99 310.83,-99 308,-96.17 308,-93.33 308,-93.33 308,-87.67 308,-87.67 308,-84.83 310.83,-82 313.67,-82 313.67,-82 323.33,-82 323.33,-82 326.17,-82 329,-84.83 329,-87.67 329,-87.67 329,-93.33 329,-93.33 329,-96.17 326.17,-99 323.33,-99"/>
<text text-anchor="start" x="312" y="-88" font-family="Courier,monospace" font-size="10.00">q1</text>
</g>
<!-- 5&#45;&gt;9 -->
<g id="edge9" class="edge">
<title>5-&gt;9</title>
<path fill="none" stroke="black" d="M242.25,-74.56C257.11,-77.71 285.52,-83.73 302.86,-87.4"/>
<polygon fill="black" stroke="black" points="307.86,-88.46 302.51,-89.62 305.42,-87.94 302.97,-87.42 302.97,-87.42 302.97,-87.42 305.42,-87.94 303.44,-85.22 307.86,-88.46 307.86,-88.46"/>
</g>
<!-- 7 -->
<g id="node9" class="node">
<title>7</title>
</g>
<!-- 15 -->
<g id="node17" class="node">
<title>15</title>
</g>
<!-- 7&#45;&gt;15 -->
<g id="edge24" class="edge">
<title>7-&gt;15</title>
<path fill="none" stroke="white" d="M77.36,-198.5C89.89,-198.5 106.42,-198.5 119.83,-198.5"/>
<polygon fill="white" stroke="white" points="124.98,-198.5 119.98,-200.75 122.48,-198.5 119.98,-198.5 119.98,-198.5 119.98,-198.5 122.48,-198.5 119.98,-196.25 124.98,-198.5 124.98,-198.5"/>
<text text-anchor="start" x="98" y="-204.3" font-family="Courier,monospace" font-size="9.00">1</text>
</g>
<!-- 11 -->
<g id="node13" class="node">
<title>11</title>
<path fill="none" stroke="black" d="M323.33,-134C323.33,-134 313.67,-134 313.67,-134 310.83,-134 308,-131.17 308,-128.33 308,-128.33 308,-122.67 308,-122.67 308,-119.83 310.83,-117 313.67,-117 313.67,-117 323.33,-117 323.33,-117 326.17,-117 329,-119.83 329,-122.67 329,-122.67 329,-128.33 329,-128.33 329,-131.17 326.17,-134 323.33,-134"/>
<text text-anchor="start" x="312" y="-123" font-family="Courier,monospace" font-size="10.00">q3</text>
</g>
<!-- 8&#45;&gt;11 -->
<g id="edge11" class="edge">
<title>8-&gt;11</title>
<path fill="none" stroke="black" d="M307.67,-58.56C297.2,-62.16 281.95,-69.26 275,-81.5 271.27,-88.07 271.33,-91.9 275,-98.5 280.94,-109.18 293.05,-116.18 302.99,-120.37"/>
<polygon fill="black" stroke="black" points="307.65,-122.2 302.18,-122.46 305.33,-121.29 303,-120.37 303,-120.37 303,-120.37 305.33,-121.29 303.82,-118.28 307.65,-122.2 307.65,-122.2"/>
</g>
<!-- 12 -->
<g id="node14" class="node">
<title>12</title>
<path fill="none" stroke="black" d="M410.33,-133C410.33,-133 400.67,-133 400.67,-133 397.83,-133 395,-130.17 395,-127.33 395,-127.33 395,-121.67 395,-121.67 395,-118.83 397.83,-116 400.67,-116 400.67,-116 410.33,-116 410.33,-116 413.17,-116 416,-118.83 416,-121.67 416,-121.67 416,-127.33 416,-127.33 416,-130.17 413.17,-133 410.33,-133"/>
<text text-anchor="start" x="399" y="-122" font-family="Courier,monospace" font-size="10.00">q2</text>
</g>
<!-- 9&#45;&gt;12 -->
<g id="edge12" class="edge">
<title>9-&gt;12</title>
<path fill="none" stroke="black" d="M329.25,-94.4C344.11,-100.34 372.52,-111.71 389.86,-118.65"/>
<polygon fill="black" stroke="black" points="394.86,-120.65 389.39,-120.88 392.54,-119.72 390.22,-118.79 390.22,-118.79 390.22,-118.79 392.54,-119.72 391.06,-116.7 394.86,-120.65 394.86,-120.65"/>
</g>
<!-- 13 -->
<g id="node15" class="node">
<title>13</title>
<path fill="none" stroke="black" d="M410.33,-45C410.33,-45 400.67,-45 400.67,-45 397.83,-45 395,-42.17 395,-39.33 395,-39.33 395,-33.67 395,-33.67 395,-30.83 397.83,-28 400.67,-28 400.67,-28 410.33,-28 410.33,-28 413.17,-28 416,-30.83 416,-33.67 416,-33.67 416,-39.33 416,-39.33 416,-42.17 413.17,-45 410.33,-45"/>
<text text-anchor="start" x="399" y="-34" font-family="Courier,monospace" font-size="10.00">q1</text>
</g>
<!-- 9&#45;&gt;13 -->
<g id="edge13" class="edge">
<title>9-&gt;13</title>
<path fill="none" stroke="black" d="M329.25,-84.31C344.24,-74.78 373.01,-56.5 390.31,-45.52"/>
<polygon fill="black" stroke="black" points="394.86,-42.62 391.85,-47.2 392.75,-43.96 390.64,-45.3 390.64,-45.3 390.64,-45.3 392.75,-43.96 389.44,-43.4 394.86,-42.62 394.86,-42.62"/>
</g>
<!-- 16 -->
<g id="node18" class="node">
<title>16</title>
<path fill="none" stroke="black" d="M497.33,-168C497.33,-168 487.67,-168 487.67,-168 484.83,-168 482,-165.17 482,-162.33 482,-162.33 482,-156.67 482,-156.67 482,-153.83 484.83,-151 487.67,-151 487.67,-151 497.33,-151 497.33,-151 500.17,-151 503,-153.83 503,-156.67 503,-156.67 503,-162.33 503,-162.33 503,-165.17 500.17,-168 497.33,-168"/>
<text text-anchor="start" x="486" y="-157" font-family="Courier,monospace" font-size="10.00">q4</text>
</g>
<!-- 10&#45;&gt;16 -->
<g id="edge14" class="edge">
<title>10-&gt;16</title>
<path fill="none" stroke="black" d="M416.25,-159.5C430.98,-159.5 459.03,-159.5 476.41,-159.5"/>
<polygon fill="black" stroke="black" points="481.86,-159.5 476.86,-161.75 479.36,-159.5 476.86,-159.5 476.86,-159.5 476.86,-159.5 479.36,-159.5 476.86,-157.25 481.86,-159.5 481.86,-159.5"/>
</g>
<!-- 11&#45;&gt;10 -->
<g id="edge15" class="edge">
<title>11-&gt;10</title>
<path fill="none" stroke="black" d="M329.25,-129.4C344.11,-135.34 372.52,-146.71 389.86,-153.65"/>
<polygon fill="black" stroke="black" points="394.86,-155.65 389.39,-155.88 392.54,-154.72 390.22,-153.79 390.22,-153.79 390.22,-153.79 392.54,-154.72 391.06,-151.7 394.86,-155.65 394.86,-155.65"/>
</g>
<!-- 17 -->
<g id="node19" class="node">
<title>17</title>
<path fill="none" stroke="black" d="M497.33,-133C497.33,-133 487.67,-133 487.67,-133 484.83,-133 482,-130.17 482,-127.33 482,-127.33 482,-121.67 482,-121.67 482,-118.83 484.83,-116 487.67,-116 487.67,-116 497.33,-116 497.33,-116 500.17,-116 503,-118.83 503,-121.67 503,-121.67 503,-127.33 503,-127.33 503,-130.17 500.17,-133 497.33,-133"/>
<text text-anchor="start" x="486" y="-122" font-family="Courier,monospace" font-size="10.00">q3</text>
</g>
<!-- 12&#45;&gt;17 -->
<g id="edge16" class="edge">
<title>12-&gt;17</title>
<path fill="none" stroke="black" d="M416.25,-124.5C430.98,-124.5 459.03,-124.5 476.41,-124.5"/>
<polygon fill="black" stroke="black" points="481.86,-124.5 476.86,-126.75 479.36,-124.5 476.86,-124.5 476.86,-124.5 476.86,-124.5 479.36,-124.5 476.86,-122.25 481.86,-124.5 481.86,-124.5"/>
</g>
<!-- 18 -->
<g id="node20" class="node">
<title>18</title>
<path fill="none" stroke="black" d="M410.33,-80C410.33,-80 400.67,-80 400.67,-80 397.83,-80 395,-77.17 395,-74.33 395,-74.33 395,-68.67 395,-68.67 395,-65.83 397.83,-63 400.67,-63 400.67,-63 410.33,-63 410.33,-63 413.17,-63 416,-65.83 416,-68.67 416,-68.67 416,-74.33 416,-74.33 416,-77.17 413.17,-80 410.33,-80"/>
<text text-anchor="start" x="399" y="-69" font-family="Courier,monospace" font-size="10.00">q3</text>
</g>
<!-- 12&#45;&gt;18 -->
<g id="edge17" class="edge">
<title>12-&gt;18</title>
<path fill="none" stroke="black" d="M405.5,-115.85C405.5,-105.63 405.5,-95.42 405.5,-85.21"/>
<polygon fill="black" stroke="black" points="405.5,-80.2 407.75,-85.2 405.5,-82.7 405.5,-85.2 405.5,-85.2 405.5,-85.2 405.5,-82.7 403.25,-85.2 405.5,-80.2 405.5,-80.2"/>
</g>
<!-- 19 -->
<g id="node21" class="node">
<title>19</title>
<path fill="none" stroke="black" d="M497.33,-45C497.33,-45 487.67,-45 487.67,-45 484.83,-45 482,-42.17 482,-39.33 482,-39.33 482,-33.67 482,-33.67 482,-30.83 484.83,-28 487.67,-28 487.67,-28 497.33,-28 497.33,-28 500.17,-28 503,-30.83 503,-33.67 503,-33.67 503,-39.33 503,-39.33 503,-42.17 500.17,-45 497.33,-45"/>
<text text-anchor="start" x="486" y="-34" font-family="Courier,monospace" font-size="10.00">q1</text>
</g>
<!-- 13&#45;&gt;19 -->
<g id="edge18" class="edge">
<title>13-&gt;19</title>
<path fill="none" stroke="black" d="M416.25,-36.5C430.98,-36.5 459.03,-36.5 476.41,-36.5"/>
<polygon fill="black" stroke="black" points="481.86,-36.5 476.86,-38.75 479.36,-36.5 476.86,-36.5 476.86,-36.5 476.86,-36.5 479.36,-36.5 476.86,-34.25 481.86,-36.5 481.86,-36.5"/>
</g>
<!-- 14 -->
<g id="node16" class="node">
<title>14</title>
</g>
<!-- 24 -->
<g id="node26" class="node">
<title>24</title>
</g>
<!-- 14&#45;&gt;24 -->
<g id="edge26" class="edge">
<title>14-&gt;24</title>
<path fill="none" stroke="white" d="M251.36,-198.5C263.89,-198.5 280.42,-198.5 293.83,-198.5"/>
<polygon fill="white" stroke="white" points="298.98,-198.5 293.98,-200.75 296.48,-198.5 293.98,-198.5 293.98,-198.5 293.98,-198.5 296.48,-198.5 293.98,-196.25 298.98,-198.5 298.98,-198.5"/>
<text text-anchor="start" x="272" y="-204.3" font-family="Courier,monospace" font-size="9.00">1</text>
</g>
<!-- 15&#45;&gt;14 -->
<g id="edge25" class="edge">
<title>15-&gt;14</title>
<path fill="none" stroke="white" d="M164.36,-198.5C176.89,-198.5 193.42,-198.5 206.83,-198.5"/>
<polygon fill="white" stroke="white" points="211.98,-198.5 206.98,-200.75 209.48,-198.5 206.98,-198.5 206.98,-198.5 206.98,-198.5 209.48,-198.5 206.98,-196.25 211.98,-198.5 211.98,-198.5"/>
<text text-anchor="start" x="185" y="-204.3" font-family="Courier,monospace" font-size="9.00">0</text>
</g>
<!-- 20 -->
<g id="node22" class="node">
<title>20</title>
<path fill="none" stroke="black" d="M584.33,-165C584.33,-165 574.67,-165 574.67,-165 571.83,-165 569,-162.17 569,-159.33 569,-159.33 569,-153.67 569,-153.67 569,-150.83 571.83,-148 574.67,-148 574.67,-148 584.33,-148 584.33,-148 587.17,-148 590,-150.83 590,-153.67 590,-153.67 590,-159.33 590,-159.33 590,-162.17 587.17,-165 584.33,-165"/>
<path fill="none" stroke="black" d="M585.67,-169C585.67,-169 573.33,-169 573.33,-169 569.17,-169 565,-164.83 565,-160.67 565,-160.67 565,-152.33 565,-152.33 565,-148.17 569.17,-144 573.33,-144 573.33,-144 585.67,-144 585.67,-144 589.83,-144 594,-148.17 594,-152.33 594,-152.33 594,-160.67 594,-160.67 594,-164.83 589.83,-169 585.67,-169"/>
<text text-anchor="start" x="573" y="-154" font-family="Courier,monospace" font-size="10.00">q4</text>
</g>
<!-- 16&#45;&gt;20 -->
<g id="edge19" class="edge">
<title>16-&gt;20</title>
<path fill="none" stroke="black" d="M503.25,-159.16C517,-158.67 542.36,-157.78 559.81,-157.16"/>
<polygon fill="black" stroke="black" points="564.96,-156.98 560.04,-159.4 562.46,-157.07 559.96,-157.15 559.96,-157.15 559.96,-157.15 562.46,-157.07 559.88,-154.91 564.96,-156.98 564.96,-156.98"/>
</g>
<!-- 17&#45;&gt;20 -->
<g id="edge20" class="edge">
<title>17-&gt;20</title>
<path fill="none" stroke="black" d="M503.25,-128.17C517.12,-133.39 542.8,-143.06 560.26,-149.63"/>
<polygon fill="black" stroke="black" points="564.96,-151.4 559.48,-151.74 562.62,-150.52 560.28,-149.64 560.28,-149.64 560.28,-149.64 562.62,-150.52 561.07,-147.53 564.96,-151.4 564.96,-151.4"/>
</g>
<!-- 21 -->
<g id="node23" class="node">
<title>21</title>
<path fill="none" stroke="black" d="M584.33,-105C584.33,-105 574.67,-105 574.67,-105 571.83,-105 569,-102.17 569,-99.33 569,-99.33 569,-93.67 569,-93.67 569,-90.83 571.83,-88 574.67,-88 574.67,-88 584.33,-88 584.33,-88 587.17,-88 590,-90.83 590,-93.67 590,-93.67 590,-99.33 590,-99.33 590,-102.17 587.17,-105 584.33,-105"/>
<text text-anchor="start" x="573" y="-94" font-family="Courier,monospace" font-size="10.00">q2</text>
</g>
<!-- 19&#45;&gt;21 -->
<g id="edge21" class="edge">
<title>19-&gt;21</title>
<path fill="none" stroke="black" d="M503.25,-43.38C518.37,-54.05 547.5,-74.62 564.75,-86.79"/>
<polygon fill="black" stroke="black" points="568.86,-89.7 563.48,-88.65 566.82,-88.26 564.78,-86.81 564.78,-86.81 564.78,-86.81 566.82,-88.26 566.08,-84.98 568.86,-89.7 568.86,-89.7"/>
</g>
<!-- 22 -->
<g id="node24" class="node">
<title>22</title>
<path fill="none" stroke="black" d="M584.33,-17C584.33,-17 574.67,-17 574.67,-17 571.83,-17 569,-14.17 569,-11.33 569,-11.33 569,-5.67 569,-5.67 569,-2.83 571.83,0 574.67,0 574.67,0 584.33,0 584.33,0 587.17,0 590,-2.83 590,-5.67 590,-5.67 590,-11.33 590,-11.33 590,-14.17 587.17,-17 584.33,-17"/>
<text text-anchor="start" x="573" y="-6" font-family="Courier,monospace" font-size="10.00">q1</text>
</g>
<!-- 19&#45;&gt;22 -->
<g id="edge22" class="edge">
<title>19-&gt;22</title>
<path fill="none" stroke="black" d="M503.25,-33.29C518.11,-28.39 546.52,-19.03 563.86,-13.32"/>
<polygon fill="black" stroke="black" points="568.86,-11.67 564.82,-15.38 566.49,-12.46 564.11,-13.24 564.11,-13.24 564.11,-13.24 566.49,-12.46 563.41,-11.1 568.86,-11.67 568.86,-11.67"/>
</g>
<!-- 23 -->
<g id="node25" class="node">
<title>23</title>
<path fill="none" stroke="black" d="M584.33,-52C584.33,-52 574.67,-52 574.67,-52 571.83,-52 569,-49.17 569,-46.33 569,-46.33 569,-40.67 569,-40.67 569,-37.83 571.83,-35 574.67,-35 574.67,-35 584.33,-35 584.33,-35 587.17,-35 590,-37.83 590,-40.67 590,-40.67 590,-46.33 590,-46.33 590,-49.17 587.17,-52 584.33,-52"/>
<text text-anchor="start" x="573" y="-41" font-family="Courier,monospace" font-size="10.00">q3</text>
</g>
<!-- 21&#45;&gt;23 -->
<g id="edge23" class="edge">
<title>21-&gt;23</title>
<path fill="none" stroke="black" d="M579.5,-87.85C579.5,-77.63 579.5,-67.42 579.5,-57.21"/>
<polygon fill="black" stroke="black" points="579.5,-52.2 581.75,-57.2 579.5,-54.7 579.5,-57.2 579.5,-57.2 579.5,-57.2 579.5,-54.7 577.25,-57.2 579.5,-52.2 579.5,-52.2"/>
</g>
<!-- 25 -->
<g id="node27" class="node">
<title>25</title>
</g>
<!-- 24&#45;&gt;25 -->
<g id="edge27" class="edge">
<title>24-&gt;25</title>
<path fill="none" stroke="white" d="M338.36,-198.5C350.89,-198.5 367.42,-198.5 380.83,-198.5"/>
<polygon fill="white" stroke="white" points="385.98,-198.5 380.98,-200.75 383.48,-198.5 380.98,-198.5 380.98,-198.5 380.98,-198.5 383.48,-198.5 380.98,-196.25 385.98,-198.5 385.98,-198.5"/>
<text text-anchor="start" x="359" y="-204.3" font-family="Courier,monospace" font-size="9.00">1</text>
</g>
<!-- 26 -->
<g id="node28" class="node">
<title>26</title>
</g>
<!-- 25&#45;&gt;26 -->
<g id="edge28" class="edge">
<title>25-&gt;26</title>
<path fill="none" stroke="white" d="M425.36,-198.5C437.89,-198.5 454.42,-198.5 467.83,-198.5"/>
<polygon fill="white" stroke="white" points="472.98,-198.5 467.98,-200.75 470.48,-198.5 467.98,-198.5 467.98,-198.5 467.98,-198.5 470.48,-198.5 467.98,-196.25 472.98,-198.5 472.98,-198.5"/>
<text text-anchor="start" x="446" y="-204.3" font-family="Courier,monospace" font-size="9.00">0</text>
</g>
<!-- 27 -->
<g id="node29" class="node">
<title>27</title>
</g>
<!-- 26&#45;&gt;27 -->
<g id="edge29" class="edge">
<title>26-&gt;27</title>
<path fill="none" stroke="white" d="M512.36,-198.5C524.89,-198.5 541.42,-198.5 554.83,-198.5"/>
<polygon fill="white" stroke="white" points="559.98,-198.5 554.98,-200.75 557.48,-198.5 554.98,-198.5 554.98,-198.5 554.98,-198.5 557.48,-198.5 554.98,-196.25 559.98,-198.5 559.98,-198.5"/>
<text text-anchor="start" x="533" y="-204.3" font-family="Courier,monospace" font-size="9.00">1</text>
</g>
</g>
</svg>