<svg xmlns="http://www.w3.org/2000/svg" xmlns:xlink="http://www.w3.org/1999/xlink" width="144pt" height="102pt" viewBox="0.00 0.00 144.00 102.00">
<g id="graph0" class="graph" transform="scale(1 1) rotate(0) translate(4 98)">
<title>%3</title>
<polygon fill="white" stroke="transparent" points="-4,4 -4,-98 140,-98 140,4 -4,4"/>
<!-- _START -->
<g id="node1" class="node">
<title>_START</title>
</g>
<!-- 1 -->
<g id="node3" class="node">
<title>1</title>
<path fill="none" stroke="black" d="M53.33,-40C53.33,-40 43.67,-40 43.67,-40 40.83,-40 38,-37.17 38,-34.33 38,-34.33 38,-28.67 38,-28.67 38,-25.83 40.83,-23 43.67,-23 43.67,-23 53.33,-23 53.33,-23 56.17,-23 59,-25.83 59,-28.67 59,-28.67 59,-34.33 59,-34.33 59,-37.17 56.17,-40 53.33,-40"/>
<text text-anchor="start" x="42" y="-29" font-family="Courier,monospace" font-size="10.00">q1</text>
</g>
<!-- _START&#45;&gt;1 -->
<g id="edge1" class="edge">
<title>_START-&gt;1</title>
<path fill="none" stroke="black" d="M1.13,-31.5C2.79,-31.5 19.6,-31.5 32.5,-31.5"/>
<polygon fill="black" stroke="black" points="37.74,-31.5 32.74,-33.75 35.24,-31.5 32.74,-31.5 32.74,-31.5 32.74,-31.5 35.24,-31.5 32.74,-29.25 37.74,-31.5 37.74,-31.5"/>
</g>
<!-- 0 -->
<g id="node2" class="node">
<title>0</title>
<path fill="none" stroke="black" d="M126.33,-60C126.33,-60 116.67,-60 116.67,-60 113.83,-60 111,-57.17 111,-54.33 111,-54.33 111,-48.67 111,-48.67 111,-45.83 113.83,-43 116.67,-43 116.67,-43 126.33,-43 126.33,-43 129.17,-43 132,-45.83 132,-48.67 132,-48.67 132,-54.33 132,-54.33 132,-57.17 129.17,-60 126.33,-60"/>
<text text-anchor="start" x="115" y="-49" font-family="Courier,monospace" font-size="10.00">q3</text>
</g>
<!-- 0&#45;&gt;0 -->
<g id="edge4" class="edge">
<title>0-&gt;0</title>
<path fill="none" stroke="black" d="M115.84,-60.19C112.71,-68.67 114.6,-78 121.5,-78 127,-78 129.32,-72.08 128.45,-65.38"/>
<polygon fill="black" stroke="black" points="127.16,-60.19 130.55,-64.5 127.76,-62.61 128.36,-65.04 128.36,-65.04 128.36,-65.04 127.76,-62.61 126.18,-65.58 127.16,-60.19 127.16,-60.19"/>
<text text-anchor="start" x="118.5" y="-83.8" font-family="Courier,monospace" font-size="9.00">ε</text>
</g>
<!-- 1&#45;&gt;0 -->
<g id="edge2" class="edge">
<title>1-&gt;0</title>
<path fill="none" stroke="black" d="M59.08,-34.2C71.08,-37.58 91.77,-43.41 105.79,-47.36"/>
<polygon fill="black" stroke="black" points="110.62,-48.72 105.2,-49.53 108.21,-48.04 105.81,-47.36 105.81,-47.36 105.81,-47.36 108.21,-48.04 106.42,-45.2 110.62,-48.72 110.62,-48.72"/>
<text text-anchor="start" x="80" y="-47.3" font-family="Courier,monospace" font-size="9.00">ε</text>
</g>
<!-- 2 -->
<g id="node4" class="node">
<title>2</title>
<path fill="none" stroke="black" d="M126.33,-21C126.33,-21 116.67,-21 116.67,-21 113.83,-21 111,-18.17 111,-15.33 111,-15.33 111,-9.67 111,-9.67 111,-6.83 113.83,-4 116.67,-4 116.67,-4 126.33,-4 126.33,-4 129.17,-4 132,-6.83 132,-9.67 132,-9.67 132,-15.33 132,-15.33 132,-18.17 129.17,-21 126.33,-21"/>
<path fill="none" stroke="black" d="M127.67,-25C127.67,-25 115.33,-25 115.33,-25 111.17,-25 107,-20.83 107,-16.67 107,-16.67 107,-8.33 107,-8.33 107,-4.17 111.17,0 115.33,0 115.33,0 127.67,0 127.67,0 131.83,0 136,-4.17 136,-8.33 136,-8.33 136,-16.67 136,-16.67 136,-20.83 131.83,-25 127.67,-25"/>
<text text-anchor="start" x="115" y="-10" font-family="Courier,monospace" font-size="10.00">q2</text>
</g>
<!-- 1&#45;&gt;2 -->
<g id="edge3" class="edge">
<title>1-&gt;2</title>
<path fill="none" stroke="black" d="M59,-23.38C64.01,-19.61 70.46,-15.53 77,-13.5 84.85,-11.06 93.9,-10.51 101.69,-10.69"/>
<polygon fill="black" stroke="black" points="106.86,-10.92 101.77,-12.95 104.37,-10.81 101.87,-10.7 101.87,-10.7 101.87,-10.7 104.37,-10.81 101.97,-8.45 106.86,-10.92 106.86,-10.92"/>
<text text-anchor="start" x="80" y="-19.3" font-family="Courier,monospace" font-size="9.00">0</text>
</g>
</g>
</svg>