<svg xmlns="http://www.w3.org/2000/svg" xmlns:xlink="http://www.w3.org/1999/xlink" width="544pt" height="203pt" viewBox="0.00 0.00 544.00 202.50">
<g id="graph0" class="graph" transform="scale(1 1) rotate(0) translate(4 198.5)">
<title>%3</title>
<polygon fill="white" stroke="transparent" points="-4,4 -4,-198.5 540,-198.5 540,4 -4,4"/>
<!-- _START -->
<g id="node1" class="node">
<title>_START</title>
</g>
<!-- 3 -->
<g id="node5" class="node">
<title>3</title>
<path fill="none" stroke="black" d="M53.33,-24.5C53.33,-24.5 43.67,-24.5 43.67,-24.5 40.83,-24.5 38,-21.67 38,-18.83 38,-18.83 38,-13.17 38,-13.17 38,-10.33 40.83,-7.5 43.67,-7.5 43.67,-7.5 53.33,-7.5 53.33,-7.5 56.17,-7.5 59,-10.33 59,-13.17 59,-13.17 59,-18.83 59,-18.83 59,-21.67 56.17,-24.5 53.33,-24.5"/>
<text text-anchor="start" x="42" y="-13.5" font-family="Courier,monospace" font-size="10.00">q1</text>
</g>
<!-- _START&#45;&gt;3 -->
<g id="edge1" class="edge">
<title>_START-&gt;3</title>
<path fill="none" stroke="black" d="M1.13,-16C2.79,-16 19.6,-16 32.5,-16"/>
<polygon fill="black" stroke="black" points="37.74,-16 32.74,-18.25 35.24,-16 32.74,-16 32.74,-16 32.74,-16 35.24,-16 32.74,-13.75 37.74,-16 37.74,-16"/>
</g>
<!-- 0 -->
<g id="node2" class="node">
<title>0</title>
<path fill="none" stroke="black" d="M287.33,-190.5C287.33,-190.5 247.67,-190.5 247.67,-190.5 244.83,-190.5 242,-187.67 242,-184.83 242,-184.83 242,-179.17 242,-179.17 242,-176.33 244.83,-173.5 247.67,-173.5 247.67,-173.5 287.33,-173.5 287.33,-173.5 290.17,-173.5 293,-176.33 293,-179.17 293,-179.17 293,-184.83 293,-184.83 293,-187.67 290.17,-190.5 287.33,-190.5"/>
<path fill="none" stroke="black" d="M288.67,-194.5C288.67,-194.5 246.33,-194.5 246.33,-194.5 242.17,-194.5 238,-190.33 238,-186.17 238,-186.17 238,-177.83 238,-177.83 238,-173.67 242.17,-169.5 246.33,-169.5 246.33,-169.5 288.67,-169.5 288.67,-169.5 292.83,-169.5 297,-173.67 297,-177.83 297,-177.83 297,-186.17 297,-186.17 297,-190.33 292.83,-194.5 288.67,-194.5"/>
<text text-anchor="start" x="246" y="-179.5" font-family="Courier,monospace" font-size="10.00">qaccept</text>
</g>
<!-- 1 -->
<g id="node3" class="node">
<title>1</title>
<path fill="none" stroke="black" d="M153.33,-95.5C153.33,-95.5 143.67,-95.5 143.67,-95.5 140.83,-95.5 138,-92.67 138,-89.83 138,-89.83 138,-84.17 138,-84.17 138,-81.33 140.83,-78.5 143.67,-78.5 143.67,-78.5 153.33,-78.5 153.33,-78.5 156.17,-78.5 159,-81.33 159,-84.17 159,-84.17 159,-89.83 159,-89.83 159,-92.67 156.17,-95.5 153.33,-95.5"/>
<text text-anchor="start" x="142" y="-84.5" font-family="Courier,monospace" font-size="10.00">q2</text>
</g>
<!-- 1&#45;&gt;0 -->
<g id="edge6" class="edge">
<title>1-&gt;0</title>
<path fill="none" stroke="black" d="M155.98,-95.67C161.25,-102.41 169.08,-111.81 177,-119 196.97,-137.13 222.32,-154.53 240.94,-166.43"/>
<polygon fill="black" stroke="black" points="245.52,-169.33 240.09,-168.56 243.4,-167.99 241.29,-166.66 241.29,-166.66 241.29,-166.66 243.4,-167.99 242.5,-164.76 245.52,-169.33 245.52,-169.33"/>
<text text-anchor="start" x="180.5" y="-157.8" font-family="Courier,monospace" font-size="9.00">␣ → ␣,R</text>
</g>
<!-- 1&#45;&gt;1 -->
<g id="edge5" class="edge">
<title>1-&gt;1</title>
<path fill="none" stroke="black" d="M141.05,-95.69C136.93,-104.17 139.42,-113.5 148.5,-113.5 155.88,-113.5 158.9,-107.34 157.57,-100.48"/>
<polygon fill="black" stroke="black" points="155.95,-95.69 159.68,-99.7 156.75,-98.05 157.55,-100.42 157.55,-100.42 157.55,-100.42 156.75,-98.05 155.42,-101.14 155.95,-95.69 155.95,-95.69"/>
<text text-anchor="start" x="130.5" y="-119.3" font-family="Courier,monospace" font-size="9.00">x → x,R</text>
</g>
<!-- 4 -->
<g id="node6" class="node">
<title>4</title>
<path fill="none" stroke="black" d="M272.33,-117.5C272.33,-117.5 262.67,-117.5 262.67,-117.5 259.83,-117.5 257,-114.67 257,-111.83 257,-111.83 257,-106.17 257,-106.17 257,-103.33 259.83,-100.5 262.67,-100.5 262.67,-100.5 272.33,-100.5 272.33,-100.5 275.17,-100.5 278,-103.33 278,-106.17 278,-106.17 278,-111.83 278,-111.83 278,-114.67 275.17,-117.5 272.33,-117.5"/>
<text text-anchor="start" x="261" y="-106.5" font-family="Courier,monospace" font-size="10.00">q3</text>
</g>
<!-- 1&#45;&gt;4 -->
<g id="edge4" class="edge">
<title>1-&gt;4</title>
<path fill="none" stroke="black" d="M159.07,-88.8C179.47,-92.64 227.33,-101.63 251.69,-106.22"/>
<polygon fill="black" stroke="black" points="256.79,-107.17 251.46,-108.46 254.34,-106.71 251.88,-106.25 251.88,-106.25 251.88,-106.25 254.34,-106.71 252.3,-104.04 256.79,-107.17 256.79,-107.17"/>
<text text-anchor="start" x="180.5" y="-104.8" font-family="Courier,monospace" font-size="9.00">0 → x,R</text>
</g>
<!-- 2 -->
<g id="node4" class="node">
<title>2</title>
<path fill="none" stroke="black" d="M530.33,-24.5C530.33,-24.5 490.67,-24.5 490.67,-24.5 487.83,-24.5 485,-21.67 485,-18.83 485,-18.83 485,-13.17 485,-13.17 485,-10.33 487.83,-7.5 490.67,-7.5 490.67,-7.5 530.33,-7.5 530.33,-7.5 533.17,-7.5 536,-10.33 536,-13.17 536,-13.17 536,-18.83 536,-18.83 536,-21.67 533.17,-24.5 530.33,-24.5"/>
<text text-anchor="start" x="489" y="-13.5" font-family="Courier,monospace" font-size="10.00">qreject</text>
</g>
<!-- 3&#45;&gt;1 -->
<g id="edge2" class="edge">
<title>3-&gt;1</title>
<path fill="none" stroke="black" d="M59.25,-23.07C76.72,-35.72 113.38,-62.28 133.51,-76.87"/>
<polygon fill="black" stroke="black" points="137.78,-79.96 132.42,-78.85 135.76,-78.49 133.74,-77.03 133.74,-77.03 133.74,-77.03 135.76,-78.49 135.06,-75.21 137.78,-79.96 137.78,-79.96"/>
<text text-anchor="start" x="80.5" y="-71.8" font-family="Courier,monospace" font-size="9.00">0 → ␣,R</text>
</g>
<!-- 3&#45;&gt;2 -->
<g id="edge3" class="edge">
<title>3-&gt;2</title>
<path fill="none" stroke="black" d="M59.15,-13.36C76.63,-8.81 114.75,0 147.5,0 147.5,0 147.5,0 392,0 422.05,0 456.03,-5.2 479.69,-9.67"/>
<polygon fill="black" stroke="black" points="484.88,-10.67 479.54,-11.94 482.42,-10.2 479.97,-9.73 479.97,-9.73 479.97,-9.73 482.42,-10.2 480.39,-7.52 484.88,-10.67 484.88,-10.67"/>
<text text-anchor="start" x="249.5" y="-19.8" font-family="Courier,monospace" font-size="9.00">x → x,R</text>
<text text-anchor="start" x="249.5" y="-5.8" font-family="Courier,monospace" font-size="9.00">␣ → ␣,R</text>
</g>
<!-- 4&#45;&gt;4 -->
<g id="edge8" class="edge">
<title>4-&gt;4</title>
<path fill="none" stroke="black" d="M257.37,-117.69C251.77,-126.17 255.15,-135.5 267.5,-135.5 277.54,-135.5 281.65,-129.34 279.83,-122.48"/>
<polygon fill="black" stroke="black" points="277.63,-117.69 281.76,-121.29 278.68,-119.96 279.72,-122.23 279.72,-122.23 279.72,-122.23 278.68,-119.96 277.67,-123.17 277.63,-117.69 277.63,-117.69"/>
<text text-anchor="start" x="249.5" y="-141.3" font-family="Courier,monospace" font-size="9.00">x → x,R</text>
</g>
<!-- 5 -->
<g id="node7" class="node">
<title>5</title>
<path fill="none" stroke="black" d="M395.83,-157.5C395.83,-157.5 386.17,-157.5 386.17,-157.5 383.33,-157.5 380.5,-154.67 380.5,-151.83 380.5,-151.83 380.5,-146.17 380.5,-146.17 380.5,-143.33 383.33,-140.5 386.17,-140.5 386.17,-140.5 395.83,-140.5 395.83,-140.5 398.67,-140.5 401.5,-143.33 401.5,-146.17 401.5,-146.17 401.5,-151.83 401.5,-151.83 401.5,-154.67 398.67,-157.5 395.83,-157.5"/>
<text text-anchor="start" x="384.5" y="-146.5" font-family="Courier,monospace" font-size="10.00">q4</text>
</g>
<!-- 4&#45;&gt;5 -->
<g id="edge7" class="edge">
<title>4-&gt;5</title>
<path fill="none" stroke="black" d="M274.13,-117.82C281.81,-128.94 296.72,-147.49 315,-155 334.76,-163.12 359.87,-158.42 375.44,-153.96"/>
<polygon fill="black" stroke="black" points="380.33,-152.48 376.2,-156.08 377.94,-153.21 375.55,-153.93 375.55,-153.93 375.55,-153.93 377.94,-153.21 374.9,-151.78 380.33,-152.48 380.33,-152.48"/>
<text text-anchor="start" x="318.5" y="-164.8" font-family="Courier,monospace" font-size="9.00">0 → 0,R</text>
</g>
<!-- 6 -->
<g id="node8" class="node">
<title>6</title>
<path fill="none" stroke="black" d="M395.83,-74.5C395.83,-74.5 386.17,-74.5 386.17,-74.5 383.33,-74.5 380.5,-71.67 380.5,-68.83 380.5,-68.83 380.5,-63.17 380.5,-63.17 380.5,-60.33 383.33,-57.5 386.17,-57.5 386.17,-57.5 395.83,-57.5 395.83,-57.5 398.67,-57.5 401.5,-60.33 401.5,-63.17 401.5,-63.17 401.5,-68.83 401.5,-68.83 401.5,-71.67 398.67,-74.5 395.83,-74.5"/>
<text text-anchor="start" x="384.5" y="-63.5" font-family="Courier,monospace" font-size="10.00">q5</text>
</g>
<!-- 4&#45;&gt;6 -->
<g id="edge9" class="edge">
<title>4-&gt;6</title>
<path fill="none" stroke="black" d="M278.03,-105.63C299.13,-98.16 349.91,-80.19 375.19,-71.24"/>
<polygon fill="black" stroke="black" points="380.17,-69.48 376.21,-73.27 377.82,-70.31 375.46,-71.15 375.46,-71.15 375.46,-71.15 377.82,-70.31 374.71,-69.03 380.17,-69.48 380.17,-69.48"/>
<text text-anchor="start" x="318.5" y="-96.8" font-family="Courier,monospace" font-size="9.00">␣ → ␣,L</text>
</g>
<!-- 5&#45;&gt;2 -->
<g id="edge12" class="edge">
<title>5-&gt;2</title>
<path fill="none" stroke="black" d="M399.71,-140.27C419.97,-117.34 474.76,-55.32 498.4,-28.57"/>
<polygon fill="black" stroke="black" points="501.91,-24.59 500.29,-29.82 500.26,-26.46 498.6,-28.33 498.6,-28.33 498.6,-28.33 500.26,-26.46 496.92,-26.84 501.91,-24.59 501.91,-24.59"/>
<text text-anchor="start" x="427.5" y="-114.8" font-family="Courier,monospace" font-size="9.00">␣ → ␣,R</text>
</g>
<!-- 5&#45;&gt;4 -->
<g id="edge10" class="edge">
<title>5-&gt;4</title>
<path fill="none" stroke="black" d="M380.33,-144.38C374.05,-141.47 365.64,-137.77 358,-135 332.08,-125.61 301.02,-117.2 283.14,-112.63"/>
<polygon fill="black" stroke="black" points="278.04,-111.34 283.44,-110.38 280.46,-111.95 282.88,-112.56 282.88,-112.56 282.88,-112.56 280.46,-111.95 282.33,-114.74 278.04,-111.34 278.04,-111.34"/>
<text text-anchor="start" x="318.5" y="-140.8" font-family="Courier,monospace" font-size="9.00">0 → x,R</text>
</g>
<!-- 5&#45;&gt;5 -->
<g id="edge11" class="edge">
<title>5-&gt;5</title>
<path fill="none" stroke="black" d="M382.95,-157.69C378.51,-166.17 381.19,-175.5 391,-175.5 398.97,-175.5 402.23,-169.34 400.79,-162.48"/>
<polygon fill="black" stroke="black" points="399.05,-157.69 402.87,-161.61 399.9,-160.03 400.76,-162.38 400.76,-162.38 400.76,-162.38 399.9,-160.03 398.64,-163.15 399.05,-157.69 399.05,-157.69"/>
<text text-anchor="start" x="373" y="-181.3" font-family="Courier,monospace" font-size="9.00">x → x,R</text>
</g>
<!-- 6&#45;&gt;1 -->
<g id="edge14" class="edge">
<title>6-&gt;1</title>
<path fill="none" stroke="black" d="M380.38,-66.44C356.34,-67.58 291.71,-70.9 238,-76 211.88,-78.48 181.56,-82.5 164.05,-84.93"/>
<polygon fill="black" stroke="black" points="159.04,-85.63 163.68,-82.71 161.52,-85.28 163.99,-84.94 163.99,-84.94 163.99,-84.94 161.52,-85.28 164.3,-87.17 159.04,-85.63 159.04,-85.63"/>
<text text-anchor="start" x="249.5" y="-81.8" font-family="Courier,monospace" font-size="9.00">␣ → ␣,R</text>
</g>
<!-- 6&#45;&gt;6 -->
<g id="edge13" class="edge">
<title>6-&gt;6</title>
<path fill="none" stroke="black" d="M382.95,-74.69C378.51,-83.17 381.19,-92.5 391,-92.5 398.97,-92.5 402.23,-86.34 400.79,-79.48"/>
<polygon fill="black" stroke="black" points="399.05,-74.69 402.87,-78.61 399.9,-77.03 400.76,-79.38 400.76,-79.38 400.76,-79.38 399.9,-77.03 398.64,-80.15 399.05,-74.69 399.05,-74.69"/>
<text text-anchor="start" x="373" y="-112.3" font-family="Courier,monospace" font-size="9.00">0 → 0,L</text>
<text text-anchor="start" x="373" y="-98.3" font-family="Courier,monospace" font-size="9.00">x → x,L</text>
</g>
</g>
</svg>