<svg xmlns="http://www.w3.org/2000/svg" xmlns:xlink="http://www.w3.org/1999/xlink" width="375pt" height="63pt" viewBox="0.00 0.00 375.00 63.00">
<g id="graph0" class="graph" transform="scale(1 1) rotate(0) translate(4 59)">
<title>%3</title>
<polygon fill="white" stroke="transparent" points="-4,4 -4,-59 371,-59 371,4 -4,4"/>
<!-- _START -->
<g id="node1" class="node">
<title>_START</title>
</g>
<!-- 0 -->
<g id="node2" class="node">
<title>0</title>
<path fill="none" stroke="black" d="M53.33,-21C53.33,-21 43.67,-21 43.67,-21 40.83,-21 38,-18.17 38,-15.33 38,-15.33 38,-9.67 38,-9.67 38,-6.83 40.83,-4 43.67,-4 43.67,-4 53.33,-4 53.33,-4 56.17,-4 59,-6.83 59,-9.67 59,-9.67 59,-15.33 59,-15.33 59,-18.17 56.17,-21 53.33,-21"/>
<text text-anchor="start" x="42" y="-10" font-family="Courier,monospace" font-size="10.00">q1</text>
</g>
<!-- _START&#45;&gt;0 -->
<g id="edge1" class="edge">
<title>_START-&gt;0</title>
<path fill="none" stroke="black" d="M1.13,-12.5C2.79,-12.5 19.6,-12.5 32.5,-12.5"/>
<polygon fill="black" stroke="black" points="37.74,-12.5 32.74,-14.75 35.24,-12.5 32.74,-12.5 32.74,-12.5 32.74,-12.5 35.24,-12.5 32.74,-10.25 37.74,-12.5 37.74,-12.5"/>
</g>
<!-- 2 -->
<g id="node4" class="node">
<title>2</title>
<path fill="none" stroke="black" d="M153.33,-21C153.33,-21 143.67,-21 143.67,-21 140.83,-21 138,-18.17 138,-15.33 138,-15.33 138,-9.67 138,-9.67 138,-6.83 140.83,-4 143.67,-4 143.67,-4 153.33,-4 153.33,-4 156.17,-4 159,-6.83 159,-9.67 159,-9.67 159,-15.33 159,-15.33 159,-18.17 156.17,-21 153.33,-21"/>
<text text-anchor="start" x="142" y="-10" font-family="Courier,monospace" font-size="10.00">q2</text>
</g>
<!-- 0&#45;&gt;2 -->
<g id="edge2" class="edge">
<title>0-&gt;2</title>
<path fill="none" stroke="black" d="M59.25,-12.5C76.5,-12.5 112.46,-12.5 132.75,-12.5"/>
<polygon fill="black" stroke="black" points="137.78,-12.5 132.78,-14.75 135.28,-12.5 132.78,-12.5 132.78,-12.5 132.78,-12.5 135.28,-12.5 132.78,-10.25 137.78,-12.5 137.78,-12.5"/>
<text text-anchor="start" x="80.5" y="-18.3" font-family="Courier,monospace" font-size="9.00">ε,ε → $</text>
</g>
<!-- 1 -->
<g id="node3" class="node">
<title>1</title>
<path fill="none" stroke="black" d="M357.33,-21C357.33,-21 347.67,-21 347.67,-21 344.83,-21 342,-18.17 342,-15.33 342,-15.33 342,-9.67 342,-9.67 342,-6.83 344.83,-4 347.67,-4 347.67,-4 357.33,-4 357.33,-4 360.17,-4 363,-6.83 363,-9.67 363,-9.67 363,-15.33 363,-15.33 363,-18.17 360.17,-21 357.33,-21"/>
<path fill="none" stroke="black" d="M358.67,-25C358.67,-25 346.33,-25 346.33,-25 342.17,-25 338,-20.83 338,-16.67 338,-16.67 338,-8.33 338,-8.33 338,-4.17 342.17,0 346.33,0 346.33,0 358.67,0 358.67,0 362.83,0 367,-4.17 367,-8.33 367,-8.33 367,-16.67 367,-16.67 367,-20.83 362.83,-25 358.67,-25"/>
<text text-anchor="start" x="346" y="-10" font-family="Courier,monospace" font-size="10.00">q4</text>
</g>
<!-- 2&#45;&gt;2 -->
<g id="edge3" class="edge">
<title>2-&gt;2</title>
<path fill="none" stroke="black" d="M141.05,-21.19C136.93,-29.67 139.42,-39 148.5,-39 155.88,-39 158.9,-32.84 157.57,-25.98"/>
<polygon fill="black" stroke="black" points="155.95,-21.19 159.68,-25.2 156.75,-23.55 157.55,-25.92 157.55,-25.92 157.55,-25.92 156.75,-23.55 155.42,-26.64 155.95,-21.19 155.95,-21.19"/>
<text text-anchor="start" x="130.5" y="-44.8" font-family="Courier,monospace" font-size="9.00">0,ε → 0</text>
</g>
<!-- 3 -->
<g id="node5" class="node">
<title>3</title>
<path fill="none" stroke="black" d="M253.33,-21C253.33,-21 243.67,-21 243.67,-21 240.83,-21 238,-18.17 238,-15.33 238,-15.33 238,-9.67 238,-9.67 238,-6.83 240.83,-4 243.67,-4 243.67,-4 253.33,-4 253.33,-4 256.17,-4 259,-6.83 259,-9.67 259,-9.67 259,-15.33 259,-15.33 259,-18.17 256.17,-21 253.33,-21"/>
<text text-anchor="start" x="242" y="-10" font-family="Courier,monospace" font-size="10.00">q3</text>
</g>
<!-- 2&#45;&gt;3 -->
<g id="edge4" class="edge">
<title>2-&gt;3</title>
<path fill="none" stroke="black" d="M159.25,-12.5C176.5,-12.5 212.46,-12.5 232.75,-12.5"/>
<polygon fill="black" stroke="black" points="237.78,-12.5 232.78,-14.75 235.28,-12.5 232.78,-12.5 232.78,-12.5 232.78,-12.5 235.28,-12.5 232.78,-10.25 237.78,-12.5 237.78,-12.5"/>
<text text-anchor="start" x="180.5" y="-18.3" font-family="Courier,monospace" font-size="9.00">1,0 → ε</text>
</g>
<!-- 3&#45;&gt;1 -->
<g id="edge6" class="edge">
<title>3-&gt;1</title>
<path fill="none" stroke="black" d="M259.28,-12.5C276.1,-12.5 310.8,-12.5 332.51,-12.5"/>
<polygon fill="black" stroke="black" points="337.73,-12.5 332.73,-14.75 335.23,-12.5 332.73,-12.5 332.73,-12.5 332.73,-12.5 335.23,-12.5 332.73,-10.25 337.73,-12.5 337.73,-12.5"/>
<text text-anchor="start" x="280.5" y="-18.3" font-family="Courier,monospace" font-size="9.00">ε,$ → ε</text>
</g>
<!-- 3&#45;&gt;3 -->
<g id="edge5" class="edge">
<title>3-&gt;3</title>
<path fill="none" stroke="black" d="M241.05,-21.19C236.93,-29.67 239.42,-39 248.5,-39 255.88,-39 258.9,-32.84 257.57,-25.98"/>
<polygon fill="black" stroke="black" points="255.95,-21.19 259.68,-25.2 256.75,-23.55 257.55,-25.92 257.55,-25.92 257.55,-25.92 256.75,-23.55 255.42,-26.64 255.95,-21.19 255.95,-21.19"/>
<text text-anchor="start" x="230.5" y="-44.8" font-family="Courier,monospace" font-size="9.00">1,0 → ε</text>
</g>
</g>
</svg>