<svg xmlns="http://www.w3.org/2000/svg" xmlns:xlink="http://www.w3.org/1999/xlink" width="558pt" height="622pt" viewBox="0.00 0.00 558.00 621.50">
<g id="graph0" class="graph" transform="scale(1 1) rotate(0) translate(4 617.5)">
<title>%3</title>
<polygon fill="white" stroke="transparent" points="-4,4 -4,-617.5 554,-617.5 554,4 -4,4"/>
<!-- _START -->
<g id="node1" class="node">
<title>_START</title>
</g>
<!-- 0 -->
<g id="node2" class="node">
<title>0</title>
<path fill="none" stroke="black" d="M104.33,-571C104.33,-571 64.67,-571 64.67,-571 61.83,-571 59,-568.17 59,-565.33 59,-565.33 59,-559.67 59,-559.67 59,-556.83 61.83,-554 64.67,-554 64.67,-554 104.33,-554 104.33,-554 107.17,-554 110,-556.83 110,-559.67 110,-559.67 110,-565.33 110,-565.33 110,-568.17 107.17,-571 104.33,-571"/>
<text text-anchor="start" x="63" y="-560" font-family="Courier,monospace" font-size="10.00">start,ε</text>
</g>
<!-- _START&#45;&gt;0 -->
<g id="edge1" class="edge">
<title>_START-&gt;0</title>
<path fill="none" stroke="black" d="M1.06,-562.5C2.53,-562.5 30.8,-562.5 53.84,-562.5"/>
<polygon fill="black" stroke="black" points="58.96,-562.5 53.96,-564.75 56.46,-562.5 53.96,-562.5 53.96,-562.5 53.96,-562.5 56.46,-562.5 53.96,-560.25 58.96,-562.5 58.96,-562.5"/>
</g>
<!-- 23 -->
<g id="node25" class="node">
<title>23</title>
<path fill="none" stroke="black" d="M113.33,-518C113.33,-518 55.67,-518 55.67,-518 52.83,-518 50,-515.17 50,-512.33 50,-512.33 50,-506.67 50,-506.67 50,-503.83 52.83,-501 55.67,-501 55.67,-501 113.33,-501 113.33,-501 116.17,-501 119,-503.83 119,-506.67 119,-506.67 119,-512.33 119,-512.33 119,-515.17 116.17,-518 113.33,-518"/>
<text text-anchor="start" x="54" y="-507" font-family="Courier,monospace" font-size="10.00">loop,[S] $</text>
</g>
<!-- 0&#45;&gt;23 -->
<g id="edge5" class="edge">
<title>0-&gt;23</title>
<path fill="none" stroke="black" d="M84.5,-553.85C84.5,-543.63 84.5,-533.42 84.5,-523.21"/>
<polygon fill="black" stroke="black" points="84.5,-518.2 86.75,-523.2 84.5,-520.7 84.5,-523.2 84.5,-523.2 84.5,-523.2 84.5,-520.7 82.25,-523.2 84.5,-518.2 84.5,-518.2"/>
</g>
<!-- 1 -->
<g id="node3" class="node">
<title>1</title>
</g>
<!-- 2 -->
<g id="node4" class="node">
<title>2</title>
</g>
<!-- 1&#45;&gt;2 -->
<g id="edge2" class="edge">
<title>1-&gt;2</title>
<path fill="none" stroke="white" d="M104.16,-597.5C130.37,-597.5 178.09,-597.5 206.78,-597.5"/>
<polygon fill="white" stroke="white" points="211.91,-597.5 206.91,-599.75 209.41,-597.5 206.91,-597.5 206.91,-597.5 206.91,-597.5 209.41,-597.5 206.91,-595.25 211.91,-597.5 211.91,-597.5"/>
<text text-anchor="start" x="152" y="-603.3" font-family="Courier,monospace" font-size="9.00">a</text>
</g>
<!-- 3 -->
<g id="node5" class="node">
<title>3</title>
</g>
<!-- 2&#45;&gt;3 -->
<g id="edge3" class="edge">
<title>2-&gt;3</title>
<path fill="none" stroke="white" d="M251.02,-597.5C278.41,-597.5 329.74,-597.5 359.83,-597.5"/>
<polygon fill="white" stroke="white" points="364.83,-597.5 359.83,-599.75 362.33,-597.5 359.83,-597.5 359.83,-597.5 359.83,-597.5 362.33,-597.5 359.83,-595.25 364.83,-597.5 364.83,-597.5"/>
<text text-anchor="start" x="305" y="-603.3" font-family="Courier,monospace" font-size="9.00">a</text>
</g>
<!-- 4 -->
<g id="node6" class="node">
<title>4</title>
</g>
<!-- 3&#45;&gt;4 -->
<g id="edge4" class="edge">
<title>3-&gt;4</title>
<path fill="none" stroke="white" d="M404.27,-597.5C427.52,-597.5 467.16,-597.5 492.57,-597.5"/>
<polygon fill="white" stroke="white" points="497.77,-597.5 492.77,-599.75 495.27,-597.5 492.77,-597.5 492.77,-597.5 492.77,-597.5 495.27,-597.5 492.77,-595.25 497.77,-597.5 497.77,-597.5"/>
<text text-anchor="start" x="458" y="-603.3" font-family="Courier,monospace" font-size="9.00">b</text>
</g>
<!-- 5 -->
<g id="node7" class="node">
<title>5</title>
<path fill="none" stroke="black" d="M125.33,-430C125.33,-430 43.67,-430 43.67,-430 40.83,-430 38,-427.17 38,-424.33 38,-424.33 38,-418.67 38,-418.67 38,-415.83 40.83,-413 43.67,-413 43.67,-413 125.33,-413 125.33,-413 128.17,-413 131,-415.83 131,-418.67 131,-418.67 131,-424.33 131,-424.33 131,-427.17 128.17,-430 125.33,-430"/>
<text text-anchor="start" x="42" y="-419" font-family="Courier,monospace" font-size="10.00">loop,[a] T b $</text>
</g>
<!-- 7 -->
<g id="node9" class="node">
<title>7</title>
<path fill="none" stroke="black" d="M266.33,-430C266.33,-430 196.67,-430 196.67,-430 193.83,-430 191,-427.17 191,-424.33 191,-424.33 191,-418.67 191,-418.67 191,-415.83 193.83,-413 196.67,-413 196.67,-413 266.33,-413 266.33,-413 269.17,-413 272,-415.83 272,-418.67 272,-418.67 272,-424.33 272,-424.33 272,-427.17 269.17,-430 266.33,-430"/>
<text text-anchor="start" x="195" y="-419" font-family="Courier,monospace" font-size="10.00">loop,[T] b $</text>
</g>
<!-- 5&#45;&gt;7 -->
<g id="edge8" class="edge">
<title>5-&gt;7</title>
<path fill="none" stroke="black" d="M131.38,-421.5C148.67,-421.5 168.31,-421.5 185.52,-421.5"/>
<polygon fill="black" stroke="black" points="190.78,-421.5 185.78,-423.75 188.28,-421.5 185.78,-421.5 185.78,-421.5 185.78,-421.5 188.28,-421.5 185.78,-419.25 190.78,-421.5 190.78,-421.5"/>
</g>
<!-- 6 -->
<g id="node8" class="node">
<title>6</title>
<path fill="none" stroke="black" d="M113.33,-465C113.33,-465 55.67,-465 55.67,-465 52.83,-465 50,-462.17 50,-459.33 50,-459.33 50,-453.67 50,-453.67 50,-450.83 52.83,-448 55.67,-448 55.67,-448 113.33,-448 113.33,-448 116.17,-448 119,-450.83 119,-453.67 119,-453.67 119,-459.33 119,-459.33 119,-462.17 116.17,-465 113.33,-465"/>
<text text-anchor="start" x="54" y="-454" font-family="Courier,monospace" font-size="10.00">loop,[b] $</text>
</g>
<!-- 8 -->
<g id="node10" class="node">
<title>8</title>
<path fill="none" stroke="black" d="M272.33,-377C272.33,-377 190.67,-377 190.67,-377 187.83,-377 185,-374.17 185,-371.33 185,-371.33 185,-365.67 185,-365.67 185,-362.83 187.83,-360 190.67,-360 190.67,-360 272.33,-360 272.33,-360 275.17,-360 278,-362.83 278,-365.67 278,-365.67 278,-371.33 278,-371.33 278,-374.17 275.17,-377 272.33,-377"/>
<text text-anchor="start" x="189" y="-366" font-family="Courier,monospace" font-size="10.00">loop,[T] a b $</text>
</g>
<!-- 7&#45;&gt;8 -->
<g id="edge9" class="edge">
<title>7-&gt;8</title>
<path fill="none" stroke="black" d="M231.5,-412.85C231.5,-402.63 231.5,-392.42 231.5,-382.21"/>
<polygon fill="black" stroke="black" points="231.5,-377.2 233.75,-382.2 231.5,-379.7 231.5,-382.2 231.5,-382.2 231.5,-382.2 231.5,-379.7 229.25,-382.2 231.5,-377.2 231.5,-377.2"/>
</g>
<!-- 9 -->
<g id="node11" class="node">
<title>9</title>
<path fill="none" stroke="black" d="M260.33,-342C260.33,-342 202.67,-342 202.67,-342 199.83,-342 197,-339.17 197,-336.33 197,-336.33 197,-330.67 197,-330.67 197,-327.83 199.83,-325 202.67,-325 202.67,-325 260.33,-325 260.33,-325 263.17,-325 266,-327.83 266,-330.67 266,-330.67 266,-336.33 266,-336.33 266,-339.17 263.17,-342 260.33,-342"/>
<text text-anchor="start" x="201" y="-331" font-family="Courier,monospace" font-size="10.00">loop,[b] $</text>
</g>
<!-- 7&#45;&gt;9 -->
<g id="edge10" class="edge">
<title>7-&gt;9</title>
<path fill="none" stroke="black" d="M204.8,-412.93C176.7,-402.43 138.64,-383.11 155,-359.5 163.4,-347.38 177.79,-340.83 191.85,-337.32"/>
<polygon fill="black" stroke="black" points="197,-336.16 192.61,-339.45 194.56,-336.71 192.12,-337.26 192.12,-337.26 192.12,-337.26 194.56,-336.71 191.62,-335.06 197,-336.16 197,-336.16"/>
</g>
<!-- 10 -->
<g id="node12" class="node">
<title>10</title>
<path fill="none" stroke="black" d="M266.33,-78C266.33,-78 196.67,-78 196.67,-78 193.83,-78 191,-75.17 191,-72.33 191,-72.33 191,-66.67 191,-66.67 191,-63.83 193.83,-61 196.67,-61 196.67,-61 266.33,-61 266.33,-61 269.17,-61 272,-63.83 272,-66.67 272,-66.67 272,-72.33 272,-72.33 272,-75.17 269.17,-78 266.33,-78"/>
<text text-anchor="start" x="195" y="-67" font-family="Courier,monospace" font-size="10.00">loop,[a] b $</text>
</g>
<!-- 8&#45;&gt;10 -->
<g id="edge11" class="edge">
<title>8-&gt;10</title>
<path fill="none" stroke="black" d="M184.63,-361.9C173.05,-357.92 161.98,-351.57 155,-341.5 123.86,-296.57 123.86,-140.43 155,-95.5 162.13,-85.21 173.59,-78.93 185.49,-75.13"/>
<polygon fill="black" stroke="black" points="190.6,-73.64 186.43,-77.19 188.2,-74.34 185.8,-75.03 185.8,-75.03 185.8,-75.03 188.2,-74.34 185.17,-72.87 190.6,-73.64 190.6,-73.64"/>
</g>
<!-- 11 -->
<g id="node13" class="node">
<title>11</title>
<path fill="none" stroke="black" d="M278.33,-307C278.33,-307 184.67,-307 184.67,-307 181.83,-307 179,-304.17 179,-301.33 179,-301.33 179,-295.67 179,-295.67 179,-292.83 181.83,-290 184.67,-290 184.67,-290 278.33,-290 278.33,-290 281.17,-290 284,-292.83 284,-295.67 284,-295.67 284,-301.33 284,-301.33 284,-304.17 281.17,-307 278.33,-307"/>
<text text-anchor="start" x="183" y="-296" font-family="Courier,monospace" font-size="10.00">loop,[T] a a b …</text>
</g>
<!-- 8&#45;&gt;11 -->
<g id="edge12" class="edge">
<title>8-&gt;11</title>
<path fill="none" stroke="black" d="M189.27,-359.92C165.63,-353.06 143.09,-341.69 155,-324.5 159.76,-317.63 166.46,-312.54 173.93,-308.79"/>
<polygon fill="black" stroke="black" points="178.67,-306.62 175.06,-310.75 176.39,-307.66 174.12,-308.7 174.12,-308.7 174.12,-308.7 176.39,-307.66 173.18,-306.66 178.67,-306.62 178.67,-306.62"/>
</g>
<!-- 12 -->
<g id="node14" class="node">
<title>12</title>
<path fill="none" stroke="black" d="M413.33,-78C413.33,-78 355.67,-78 355.67,-78 352.83,-78 350,-75.17 350,-72.33 350,-72.33 350,-66.67 350,-66.67 350,-63.83 352.83,-61 355.67,-61 355.67,-61 413.33,-61 413.33,-61 416.17,-61 419,-63.83 419,-66.67 419,-66.67 419,-72.33 419,-72.33 419,-75.17 416.17,-78 413.33,-78"/>
<text text-anchor="start" x="354" y="-67" font-family="Courier,monospace" font-size="10.00">loop,[b] $</text>
</g>
<!-- 10&#45;&gt;12 -->
<g id="edge13" class="edge">
<title>10-&gt;12</title>
<path fill="none" stroke="black" d="M272.17,-69.5C294.5,-69.5 322.27,-69.5 344.49,-69.5"/>
<polygon fill="black" stroke="black" points="349.72,-69.5 344.72,-71.75 347.22,-69.5 344.72,-69.5 344.72,-69.5 344.72,-69.5 347.22,-69.5 344.72,-67.25 349.72,-69.5 349.72,-69.5"/>
</g>
<!-- 14 -->
<g id="node16" class="node">
<title>14</title>
<path fill="none" stroke="black" d="M278.33,-201C278.33,-201 184.67,-201 184.67,-201 181.83,-201 179,-198.17 179,-195.33 179,-195.33 179,-189.67 179,-189.67 179,-186.83 181.83,-184 184.67,-184 184.67,-184 278.33,-184 278.33,-184 281.17,-184 284,-186.83 284,-189.67 284,-189.67 284,-195.33 284,-195.33 284,-198.17 281.17,-201 278.33,-201"/>
<text text-anchor="start" x="183" y="-190" font-family="Courier,monospace" font-size="10.00">loop,[T] a a a …</text>
</g>
<!-- 11&#45;&gt;14 -->
<g id="edge15" class="edge">
<title>11-&gt;14</title>
<path fill="none" stroke="black" d="M204.02,-289.82C176.74,-279.61 140.88,-260.92 155,-236.5 164.18,-220.63 181.48,-209.99 197.31,-203.15"/>
<polygon fill="black" stroke="black" points="202.17,-201.15 198.41,-205.13 199.86,-202.1 197.55,-203.05 197.55,-203.05 197.55,-203.05 199.86,-202.1 196.69,-200.97 202.17,-201.15 202.17,-201.15"/>
</g>
<!-- 15 -->
<g id="node17" class="node">
<title>15</title>
<path fill="none" stroke="black" d="M272.33,-254C272.33,-254 190.67,-254 190.67,-254 187.83,-254 185,-251.17 185,-248.33 185,-248.33 185,-242.67 185,-242.67 185,-239.83 187.83,-237 190.67,-237 190.67,-237 272.33,-237 272.33,-237 275.17,-237 278,-239.83 278,-242.67 278,-242.67 278,-248.33 278,-248.33 278,-251.17 275.17,-254 272.33,-254"/>
<text text-anchor="start" x="189" y="-243" font-family="Courier,monospace" font-size="10.00">loop,[a] a b $</text>
</g>
<!-- 11&#45;&gt;15 -->
<g id="edge16" class="edge">
<title>11-&gt;15</title>
<path fill="none" stroke="black" d="M231.5,-289.85C231.5,-279.63 231.5,-269.42 231.5,-259.21"/>
<polygon fill="black" stroke="black" points="231.5,-254.2 233.75,-259.2 231.5,-256.7 231.5,-259.2 231.5,-259.2 231.5,-259.2 231.5,-256.7 229.25,-259.2 231.5,-254.2 231.5,-254.2"/>
</g>
<!-- 13 -->
<g id="node15" class="node">
<title>13</title>
<path fill="none" stroke="black" d="M534.33,-78C534.33,-78 500.67,-78 500.67,-78 497.83,-78 495,-75.17 495,-72.33 495,-72.33 495,-66.67 495,-66.67 495,-63.83 497.83,-61 500.67,-61 500.67,-61 534.33,-61 534.33,-61 537.17,-61 540,-63.83 540,-66.67 540,-66.67 540,-72.33 540,-72.33 540,-75.17 537.17,-78 534.33,-78"/>
<text text-anchor="start" x="499" y="-67" font-family="Courier,monospace" font-size="10.00">loop,$</text>
</g>
<!-- 12&#45;&gt;13 -->
<g id="edge14" class="edge">
<title>12-&gt;13</title>
<path fill="none" stroke="black" d="M419.24,-69.5C441.18,-69.5 469.4,-69.5 489.79,-69.5"/>
<polygon fill="black" stroke="black" points="494.79,-69.5 489.79,-71.75 492.29,-69.5 489.79,-69.5 489.79,-69.5 489.79,-69.5 492.29,-69.5 489.79,-67.25 494.79,-69.5 494.79,-69.5"/>
</g>
<!-- 16 -->
<g id="node18" class="node">
<title>16</title>
<path fill="none" stroke="black" d="M540.33,-21C540.33,-21 494.67,-21 494.67,-21 491.83,-21 489,-18.17 489,-15.33 489,-15.33 489,-9.67 489,-9.67 489,-6.83 491.83,-4 494.67,-4 494.67,-4 540.33,-4 540.33,-4 543.17,-4 546,-6.83 546,-9.67 546,-9.67 546,-15.33 546,-15.33 546,-18.17 543.17,-21 540.33,-21"/>
<path fill="none" stroke="black" d="M541.67,-25C541.67,-25 493.33,-25 493.33,-25 489.17,-25 485,-20.83 485,-16.67 485,-16.67 485,-8.33 485,-8.33 485,-4.17 489.17,0 493.33,0 493.33,0 541.67,0 541.67,0 545.83,0 550,-4.17 550,-8.33 550,-8.33 550,-16.67 550,-16.67 550,-20.83 545.83,-25 541.67,-25"/>
<text text-anchor="start" x="493" y="-10" font-family="Courier,monospace" font-size="10.00">accept,ε</text>
</g>
<!-- 13&#45;&gt;16 -->
<g id="edge20" class="edge">
<title>13-&gt;16</title>
<path fill="none" stroke="black" d="M517.5,-60.89C517.5,-50.82 517.5,-40.75 517.5,-30.68"/>
<polygon fill="black" stroke="black" points="517.5,-25.41 519.75,-30.41 517.5,-27.91 517.5,-30.41 517.5,-30.41 517.5,-30.41 517.5,-27.91 515.25,-30.41 517.5,-25.41 517.5,-25.41"/>
</g>
<!-- 14&#45;&gt;14 -->
<g id="edge17" class="edge">
<title>14-&gt;14</title>
<path fill="none" stroke="black" d="M220.18,-201.19C213.92,-209.67 217.7,-219 231.5,-219 242.72,-219 247.31,-212.84 245.28,-205.98"/>
<polygon fill="black" stroke="black" points="242.82,-201.19 247.11,-204.61 243.97,-203.41 245.11,-205.63 245.11,-205.63 245.11,-205.63 243.97,-203.41 243.1,-206.66 242.82,-201.19 242.82,-201.19"/>
</g>
<!-- 18 -->
<g id="node20" class="node">
<title>18</title>
<path fill="none" stroke="black" d="M278.33,-113C278.33,-113 184.67,-113 184.67,-113 181.83,-113 179,-110.17 179,-107.33 179,-107.33 179,-101.67 179,-101.67 179,-98.83 181.83,-96 184.67,-96 184.67,-96 278.33,-96 278.33,-96 281.17,-96 284,-98.83 284,-101.67 284,-101.67 284,-107.33 284,-107.33 284,-110.17 281.17,-113 278.33,-113"/>
<text text-anchor="start" x="183" y="-102" font-family="Courier,monospace" font-size="10.00">loop,[a] a a b …</text>
</g>
<!-- 14&#45;&gt;18 -->
<g id="edge18" class="edge">
<title>14-&gt;18</title>
<path fill="none" stroke="black" d="M204.8,-183.93C176.7,-173.43 138.64,-154.11 155,-130.5 159.76,-123.63 166.46,-118.54 173.93,-114.79"/>
<polygon fill="black" stroke="black" points="178.67,-112.62 175.06,-116.75 176.39,-113.66 174.12,-114.7 174.12,-114.7 174.12,-114.7 176.39,-113.66 173.18,-112.66 178.67,-112.62 178.67,-112.62"/>
</g>
<!-- 19 -->
<g id="node21" class="node">
<title>19</title>
<path fill="none" stroke="black" d="M278.33,-148C278.33,-148 184.67,-148 184.67,-148 181.83,-148 179,-145.17 179,-142.33 179,-142.33 179,-136.67 179,-136.67 179,-133.83 181.83,-131 184.67,-131 184.67,-131 278.33,-131 278.33,-131 281.17,-131 284,-133.83 284,-136.67 284,-136.67 284,-142.33 284,-142.33 284,-145.17 281.17,-148 278.33,-148"/>
<text text-anchor="start" x="183" y="-137" font-family="Courier,monospace" font-size="10.00">loop,[a] a a a …</text>
</g>
<!-- 14&#45;&gt;19 -->
<g id="edge19" class="edge">
<title>14-&gt;19</title>
<path fill="none" stroke="black" d="M231.5,-183.85C231.5,-173.63 231.5,-163.42 231.5,-153.21"/>
<polygon fill="black" stroke="black" points="231.5,-148.2 233.75,-153.2 231.5,-150.7 231.5,-153.2 231.5,-153.2 231.5,-153.2 231.5,-150.7 229.25,-153.2 231.5,-148.2 231.5,-148.2"/>
</g>
<!-- 17 -->
<g id="node19" class="node">
<title>17</title>
<path fill="none" stroke="black" d="M419.33,-254C419.33,-254 349.67,-254 349.67,-254 346.83,-254 344,-251.17 344,-248.33 344,-248.33 344,-242.67 344,-242.67 344,-239.83 346.83,-237 349.67,-237 349.67,-237 419.33,-237 419.33,-237 422.17,-237 425,-239.83 425,-242.67 425,-242.67 425,-248.33 425,-248.33 425,-251.17 422.17,-254 419.33,-254"/>
<text text-anchor="start" x="348" y="-243" font-family="Courier,monospace" font-size="10.00">loop,[a] b $</text>
</g>
<!-- 15&#45;&gt;17 -->
<g id="edge21" class="edge">
<title>15-&gt;17</title>
<path fill="none" stroke="black" d="M278.21,-245.5C297.26,-245.5 319.31,-245.5 338.3,-245.5"/>
<polygon fill="black" stroke="black" points="343.57,-245.5 338.57,-247.75 341.07,-245.5 338.57,-245.5 338.57,-245.5 338.57,-245.5 341.07,-245.5 338.57,-243.25 343.57,-245.5 343.57,-245.5"/>
</g>
<!-- 20 -->
<g id="node22" class="node">
<title>20</title>
<path fill="none" stroke="black" d="M425.33,-113C425.33,-113 343.67,-113 343.67,-113 340.83,-113 338,-110.17 338,-107.33 338,-107.33 338,-101.67 338,-101.67 338,-98.83 340.83,-96 343.67,-96 343.67,-96 425.33,-96 425.33,-96 428.17,-96 431,-98.83 431,-101.67 431,-101.67 431,-107.33 431,-107.33 431,-110.17 428.17,-113 425.33,-113"/>
<text text-anchor="start" x="342" y="-102" font-family="Courier,monospace" font-size="10.00">loop,[a] a b $</text>
</g>
<!-- 18&#45;&gt;20 -->
<g id="edge22" class="edge">
<title>18-&gt;20</title>
<path fill="none" stroke="black" d="M284.04,-104.5C299.7,-104.5 316.89,-104.5 332.52,-104.5"/>
<polygon fill="black" stroke="black" points="337.75,-104.5 332.75,-106.75 335.25,-104.5 332.75,-104.5 332.75,-104.5 332.75,-104.5 335.25,-104.5 332.75,-102.25 337.75,-104.5 337.75,-104.5"/>
</g>
<!-- 21 -->
<g id="node23" class="node">
<title>21</title>
<path fill="none" stroke="black" d="M431.33,-183C431.33,-183 337.67,-183 337.67,-183 334.83,-183 332,-180.17 332,-177.33 332,-177.33 332,-171.67 332,-171.67 332,-168.83 334.83,-166 337.67,-166 337.67,-166 431.33,-166 431.33,-166 434.17,-166 437,-168.83 437,-171.67 437,-171.67 437,-177.33 437,-177.33 437,-180.17 434.17,-183 431.33,-183"/>
<text text-anchor="start" x="336" y="-172" font-family="Courier,monospace" font-size="10.00">loop,[a] a a a …</text>
</g>
<!-- 19&#45;&gt;21 -->
<g id="edge23" class="edge">
<title>19-&gt;21</title>
<path fill="none" stroke="black" d="M269.44,-148.06C291.27,-153.12 318.99,-159.55 341.64,-164.8"/>
<polygon fill="black" stroke="black" points="346.68,-165.97 341.3,-167.03 344.25,-165.4 341.81,-164.84 341.81,-164.84 341.81,-164.84 344.25,-165.4 342.32,-162.64 346.68,-165.97 346.68,-165.97"/>
</g>
<!-- 22 -->
<g id="node24" class="node">
<title>22</title>
<path fill="none" stroke="black" d="M431.33,-148C431.33,-148 337.67,-148 337.67,-148 334.83,-148 332,-145.17 332,-142.33 332,-142.33 332,-136.67 332,-136.67 332,-133.83 334.83,-131 337.67,-131 337.67,-131 431.33,-131 431.33,-131 434.17,-131 437,-133.83 437,-136.67 437,-136.67 437,-142.33 437,-142.33 437,-145.17 434.17,-148 431.33,-148"/>
<text text-anchor="start" x="336" y="-137" font-family="Courier,monospace" font-size="10.00">loop,[a] a a b …</text>
</g>
<!-- 19&#45;&gt;22 -->
<g id="edge24" class="edge">
<title>19-&gt;22</title>
<path fill="none" stroke="black" d="M284.04,-139.5C297.82,-139.5 312.78,-139.5 326.81,-139.5"/>
<polygon fill="black" stroke="black" points="331.93,-139.5 326.93,-141.75 329.43,-139.5 326.93,-139.5 326.93,-139.5 326.93,-139.5 329.43,-139.5 326.93,-137.25 331.93,-139.5 331.93,-139.5"/>
</g>
<!-- 23&#45;&gt;5 -->
<g id="edge6" class="edge">
<title>23-&gt;5</title>
<path fill="none" stroke="black" d="M62.66,-500.82C38.72,-489.94 5.44,-469.98 19.5,-447.5 23.59,-440.97 29.63,-436.08 36.42,-432.42"/>
<polygon fill="black" stroke="black" points="41.22,-430.07 37.71,-434.29 38.97,-431.17 36.72,-432.27 36.72,-432.27 36.72,-432.27 38.97,-431.17 35.74,-430.25 41.22,-430.07 41.22,-430.07"/>
</g>
<!-- 23&#45;&gt;6 -->
<g id="edge7" class="edge">
<title>23-&gt;6</title>
<path fill="none" stroke="black" d="M84.5,-500.85C84.5,-490.63 84.5,-480.42 84.5,-470.21"/>
<polygon fill="black" stroke="black" points="84.5,-465.2 86.75,-470.2 84.5,-467.7 84.5,-470.2 84.5,-470.2 84.5,-470.2 84.5,-467.7 82.25,-470.2 84.5,-465.2 84.5,-465.2"/>
</g>
</g>
</svg>