<svg xmlns="http://www.w3.org/2000/svg" xmlns:xlink="http://www.w3.org/1999/xlink" width="256pt" height="319pt" viewBox="0.00 0.00 256.00 318.50">
<g id="graph0" class="graph" transform="scale(1 1) rotate(0) translate(4 314.5)">
<title>%3</title>
<polygon fill="white" stroke="transparent" points="-4,4 -4,-314.5 252,-314.5 252,4 -4,4"/>
<!-- _START -->
<g id="node1" class="node">
<title>_START</title>
</g>
<!-- 7 -->
<g id="node9" class="node">
<title>7</title>
<path fill="none" stroke="black" d="M89.33,-268C89.33,-268 67.67,-268 67.67,-268 64.83,-268 62,-265.17 62,-262.33 62,-262.33 62,-256.67 62,-256.67 62,-253.83 64.83,-251 67.67,-251 67.67,-251 89.33,-251 89.33,-251 92.17,-251 95,-253.83 95,-256.67 95,-256.67 95,-262.33 95,-262.33 95,-265.17 92.17,-268 89.33,-268"/>
<text text-anchor="start" x="66" y="-257" font-family="Courier,monospace" font-size="10.00">q1,ε</text>
</g>
<!-- _START&#45;&gt;7 -->
<g id="edge1" class="edge">
<title>_START-&gt;7</title>
<path fill="none" stroke="black" d="M1.06,-259.5C2.56,-259.5 34.5,-259.5 56.61,-259.5"/>
<polygon fill="black" stroke="black" points="61.72,-259.5 56.72,-261.75 59.22,-259.5 56.72,-259.5 56.72,-259.5 56.72,-259.5 59.22,-259.5 56.72,-257.25 61.72,-259.5 61.72,-259.5"/>
</g>
<!-- 0 -->
<g id="node2" class="node">
<title>0</title>
</g>
<!-- 1 -->
<g id="node3" class="node">
<title>1</title>
</g>
<!-- 1&#45;&gt;0 -->
<g id="edge2" class="edge">
<title>1-&gt;0</title>
<path fill="none" stroke="white" d="M98.24,-294.5C120.66,-294.5 158.22,-294.5 182.67,-294.5"/>
<polygon fill="white" stroke="white" points="187.68,-294.5 182.68,-296.75 185.18,-294.5 182.68,-294.5 182.68,-294.5 182.68,-294.5 185.18,-294.5 182.68,-292.25 187.68,-294.5 187.68,-294.5"/>
<text text-anchor="start" x="140" y="-300.3" font-family="Courier,monospace" font-size="9.00">0</text>
</g>
<!-- 2 -->
<g id="node4" class="node">
<title>2</title>
<path fill="none" stroke="black" d="M218.33,-180C218.33,-180 196.67,-180 196.67,-180 193.83,-180 191,-177.17 191,-174.33 191,-174.33 191,-168.67 191,-168.67 191,-165.83 193.83,-163 196.67,-163 196.67,-163 218.33,-163 218.33,-163 221.17,-163 224,-165.83 224,-168.67 224,-168.67 224,-174.33 224,-174.33 224,-177.17 221.17,-180 218.33,-180"/>
<path fill="none" stroke="black" d="M219.67,-184C219.67,-184 195.33,-184 195.33,-184 191.17,-184 187,-179.83 187,-175.67 187,-175.67 187,-167.33 187,-167.33 187,-163.17 191.17,-159 195.33,-159 195.33,-159 219.67,-159 219.67,-159 223.83,-159 228,-163.17 228,-167.33 228,-167.33 228,-175.67 228,-175.67 228,-179.83 223.83,-184 219.67,-184"/>
<text text-anchor="start" x="195" y="-169" font-family="Courier,monospace" font-size="10.00">q4,ε</text>
</g>
<!-- 3 -->
<g id="node5" class="node">
<title>3</title>
<path fill="none" stroke="black" d="M113.33,-17C113.33,-17 43.67,-17 43.67,-17 40.83,-17 38,-14.17 38,-11.33 38,-11.33 38,-5.67 38,-5.67 38,-2.83 40.83,0 43.67,0 43.67,0 113.33,0 113.33,0 116.17,0 119,-2.83 119,-5.67 119,-5.67 119,-11.33 119,-11.33 119,-14.17 116.17,-17 113.33,-17"/>
<text text-anchor="start" x="42" y="-6" font-family="Courier,monospace" font-size="10.00">q2,[#] # # …</text>
</g>
<!-- 3&#45;&gt;3 -->
<g id="edge15" class="edge">
<title>3-&gt;3</title>
<path fill="none" stroke="black" d="M69.86,-17.19C65.08,-25.67 67.96,-35 78.5,-35 87.06,-35 90.57,-28.84 89.02,-21.98"/>
<polygon fill="black" stroke="black" points="87.14,-17.19 91.06,-21.02 88.05,-19.51 88.97,-21.84 88.97,-21.84 88.97,-21.84 88.05,-19.51 86.87,-22.66 87.14,-17.19 87.14,-17.19"/>
</g>
<!-- 5 -->
<g id="node7" class="node">
<title>5</title>
<path fill="none" stroke="black" d="M242.33,-17C242.33,-17 172.67,-17 172.67,-17 169.83,-17 167,-14.17 167,-11.33 167,-11.33 167,-5.67 167,-5.67 167,-2.83 169.83,0 172.67,0 172.67,0 242.33,0 242.33,0 245.17,0 248,-2.83 248,-5.67 248,-5.67 248,-11.33 248,-11.33 248,-14.17 245.17,-17 242.33,-17"/>
<text text-anchor="start" x="171" y="-6" font-family="Courier,monospace" font-size="10.00">q3,[#] # # …</text>
</g>
<!-- 3&#45;&gt;5 -->
<g id="edge16" class="edge">
<title>3-&gt;5</title>
<path fill="none" stroke="black" d="M119.34,-8.5C132.81,-8.5 147.95,-8.5 161.78,-8.5"/>
<polygon fill="black" stroke="black" points="166.81,-8.5 161.81,-10.75 164.31,-8.5 161.81,-8.5 161.81,-8.5 161.81,-8.5 164.31,-8.5 161.81,-6.25 166.81,-8.5 166.81,-8.5"/>
</g>
<!-- 4 -->
<g id="node6" class="node">
<title>4</title>
<path fill="none" stroke="black" d="M236.33,-88C236.33,-88 178.67,-88 178.67,-88 175.83,-88 173,-85.17 173,-82.33 173,-82.33 173,-76.67 173,-76.67 173,-73.83 175.83,-71 178.67,-71 178.67,-71 236.33,-71 236.33,-71 239.17,-71 242,-73.83 242,-76.67 242,-76.67 242,-82.33 242,-82.33 242,-85.17 239.17,-88 236.33,-88"/>
<text text-anchor="start" x="177" y="-77" font-family="Courier,monospace" font-size="10.00">q3,[#] # $</text>
</g>
<!-- 11 -->
<g id="node13" class="node">
<title>11</title>
<path fill="none" stroke="black" d="M230.33,-141C230.33,-141 184.67,-141 184.67,-141 181.83,-141 179,-138.17 179,-135.33 179,-135.33 179,-129.67 179,-129.67 179,-126.83 181.83,-124 184.67,-124 184.67,-124 230.33,-124 230.33,-124 233.17,-124 236,-126.83 236,-129.67 236,-129.67 236,-135.33 236,-135.33 236,-138.17 233.17,-141 230.33,-141"/>
<text text-anchor="start" x="183" y="-130" font-family="Courier,monospace" font-size="10.00">q3,[#] $</text>
</g>
<!-- 4&#45;&gt;11 -->
<g id="edge9" class="edge">
<title>4-&gt;11</title>
<path fill="none" stroke="black" d="M207.5,-88.2C207.5,-98.41 207.5,-108.62 207.5,-118.83"/>
<polygon fill="black" stroke="black" points="207.5,-123.85 205.25,-118.85 207.5,-121.35 207.5,-118.85 207.5,-118.85 207.5,-118.85 207.5,-121.35 209.75,-118.85 207.5,-123.85 207.5,-123.85"/>
</g>
<!-- 5&#45;&gt;4 -->
<g id="edge11" class="edge">
<title>5-&gt;4</title>
<path fill="none" stroke="black" d="M207.5,-17.1C207.5,-33.3 207.5,-49.5 207.5,-65.7"/>
<polygon fill="black" stroke="black" points="207.5,-70.72 205.25,-65.72 207.5,-68.22 207.5,-65.72 207.5,-65.72 207.5,-65.72 207.5,-68.22 209.75,-65.72 207.5,-70.72 207.5,-70.72"/>
</g>
<!-- 5&#45;&gt;5 -->
<g id="edge12" class="edge">
<title>5-&gt;5</title>
<path fill="none" stroke="black" d="M197.96,-17.19C192.7,-25.67 195.88,-35 207.5,-35 216.95,-35 220.81,-28.84 219.11,-21.98"/>
<polygon fill="black" stroke="black" points="217.04,-17.19 221.08,-20.88 218.03,-19.48 219.02,-21.78 219.02,-21.78 219.02,-21.78 218.03,-19.48 216.95,-22.67 217.04,-17.19 217.04,-17.19"/>
</g>
<!-- 6 -->
<g id="node8" class="node">
<title>6</title>
<path fill="none" stroke="black" d="M89.33,-215C89.33,-215 67.67,-215 67.67,-215 64.83,-215 62,-212.17 62,-209.33 62,-209.33 62,-203.67 62,-203.67 62,-200.83 64.83,-198 67.67,-198 67.67,-198 89.33,-198 89.33,-198 92.17,-198 95,-200.83 95,-203.67 95,-203.67 95,-209.33 95,-209.33 95,-212.17 92.17,-215 89.33,-215"/>
<text text-anchor="start" x="66" y="-204" font-family="Courier,monospace" font-size="10.00">q2,$</text>
</g>
<!-- 8 -->
<g id="node10" class="node">
<title>8</title>
<path fill="none" stroke="black" d="M101.33,-141C101.33,-141 55.67,-141 55.67,-141 52.83,-141 50,-138.17 50,-135.33 50,-135.33 50,-129.67 50,-129.67 50,-126.83 52.83,-124 55.67,-124 55.67,-124 101.33,-124 101.33,-124 104.17,-124 107,-126.83 107,-129.67 107,-129.67 107,-135.33 107,-135.33 107,-138.17 104.17,-141 101.33,-141"/>
<text text-anchor="start" x="54" y="-130" font-family="Courier,monospace" font-size="10.00">q2,[#] $</text>
</g>
<!-- 6&#45;&gt;8 -->
<g id="edge4" class="edge">
<title>6-&gt;8</title>
<path fill="none" stroke="black" d="M78.5,-197.82C78.5,-180.71 78.5,-163.6 78.5,-146.48"/>
<polygon fill="black" stroke="black" points="78.5,-141.17 80.75,-146.17 78.5,-143.67 78.5,-146.17 78.5,-146.17 78.5,-146.17 78.5,-143.67 76.25,-146.17 78.5,-141.17 78.5,-141.17"/>
</g>
<!-- 9 -->
<g id="node11" class="node">
<title>9</title>
<path fill="none" stroke="black" d="M218.33,-237C218.33,-237 196.67,-237 196.67,-237 193.83,-237 191,-234.17 191,-231.33 191,-231.33 191,-225.67 191,-225.67 191,-222.83 193.83,-220 196.67,-220 196.67,-220 218.33,-220 218.33,-220 221.17,-220 224,-222.83 224,-225.67 224,-225.67 224,-231.33 224,-231.33 224,-234.17 221.17,-237 218.33,-237"/>
<text text-anchor="start" x="195" y="-226" font-family="Courier,monospace" font-size="10.00">q3,$</text>
</g>
<!-- 6&#45;&gt;9 -->
<g id="edge5" class="edge">
<title>6-&gt;9</title>
<path fill="none" stroke="black" d="M95.07,-209.2C117.83,-213.14 160.22,-220.48 185.64,-224.89"/>
<polygon fill="black" stroke="black" points="190.8,-225.78 185.49,-227.14 188.34,-225.35 185.87,-224.93 185.87,-224.93 185.87,-224.93 188.34,-225.35 186.26,-222.71 190.8,-225.78 190.8,-225.78"/>
</g>
<!-- 7&#45;&gt;6 -->
<g id="edge3" class="edge">
<title>7-&gt;6</title>
<path fill="none" stroke="black" d="M78.5,-250.85C78.5,-240.63 78.5,-230.42 78.5,-220.21"/>
<polygon fill="black" stroke="black" points="78.5,-215.2 80.75,-220.2 78.5,-217.7 78.5,-220.2 78.5,-220.2 78.5,-220.2 78.5,-217.7 76.25,-220.2 78.5,-215.2 78.5,-215.2"/>
</g>
<!-- 10 -->
<g id="node12" class="node">
<title>10</title>
<path fill="none" stroke="black" d="M107.33,-88C107.33,-88 49.67,-88 49.67,-88 46.83,-88 44,-85.17 44,-82.33 44,-82.33 44,-76.67 44,-76.67 44,-73.83 46.83,-71 49.67,-71 49.67,-71 107.33,-71 107.33,-71 110.17,-71 113,-73.83 113,-76.67 113,-76.67 113,-82.33 113,-82.33 113,-85.17 110.17,-88 107.33,-88"/>
<text text-anchor="start" x="48" y="-77" font-family="Courier,monospace" font-size="10.00">q2,[#] # $</text>
</g>
<!-- 8&#45;&gt;10 -->
<g id="edge7" class="edge">
<title>8-&gt;10</title>
<path fill="none" stroke="black" d="M78.5,-123.85C78.5,-113.63 78.5,-103.42 78.5,-93.21"/>
<polygon fill="black" stroke="black" points="78.5,-88.2 80.75,-93.2 78.5,-90.7 78.5,-93.2 78.5,-93.2 78.5,-93.2 78.5,-90.7 76.25,-93.2 78.5,-88.2 78.5,-88.2"/>
</g>
<!-- 8&#45;&gt;11 -->
<g id="edge8" class="edge">
<title>8-&gt;11</title>
<path fill="none" stroke="black" d="M107.06,-132.5C126.7,-132.5 153.17,-132.5 173.87,-132.5"/>
<polygon fill="black" stroke="black" points="179,-132.5 174,-134.75 176.5,-132.5 174,-132.5 174,-132.5 174,-132.5 176.5,-132.5 174,-130.25 179,-132.5 179,-132.5"/>
</g>
<!-- 9&#45;&gt;2 -->
<g id="edge10" class="edge">
<title>9-&gt;2</title>
<path fill="none" stroke="black" d="M207.5,-219.89C207.5,-209.82 207.5,-199.75 207.5,-189.68"/>
<polygon fill="black" stroke="black" points="207.5,-184.41 209.75,-189.41 207.5,-186.91 207.5,-189.41 207.5,-189.41 207.5,-189.41 207.5,-186.91 205.25,-189.41 207.5,-184.41 207.5,-184.41"/>
</g>
<!-- 10&#45;&gt;3 -->
<g id="edge14" class="edge">
<title>10-&gt;3</title>
<path fill="none" stroke="black" d="M78.5,-70.72C78.5,-54.52 78.5,-38.33 78.5,-22.13"/>
<polygon fill="black" stroke="black" points="78.5,-17.1 80.75,-22.1 78.5,-19.6 78.5,-22.1 78.5,-22.1 78.5,-22.1 78.5,-19.6 76.25,-22.1 78.5,-17.1 78.5,-17.1"/>
</g>
<!-- 10&#45;&gt;4 -->
<g id="edge13" class="edge">
<title>10-&gt;4</title>
<path fill="none" stroke="black" d="M113.2,-79.5C129.85,-79.5 150.03,-79.5 167.36,-79.5"/>
<polygon fill="black" stroke="black" points="172.64,-79.5 167.64,-81.75 170.14,-79.5 167.64,-79.5 167.64,-79.5 167.64,-79.5 170.14,-79.5 167.64,-77.25 172.64,-79.5 172.64,-79.5"/>
</g>
<!-- 11&#45;&gt;9 -->
<g id="edge6" class="edge">
<title>11-&gt;9</title>
<path fill="none" stroke="black" d="M178.76,-136.64C165.54,-140.14 151.04,-146.59 143,-158.5 127.14,-182 161.5,-205.44 185.9,-218.35"/>
<polygon fill="black" stroke="black" points="190.63,-220.78 185.15,-220.49 188.41,-219.64 186.19,-218.49 186.19,-218.49 186.19,-218.49 188.41,-219.64 187.22,-216.49 190.63,-220.78 190.63,-220.78"/>
</g>
</g>
</svg>