<svg xmlns="http://www.w3.org/2000/svg" xmlns:xlink="http://www.w3.org/1999/xlink" width="537pt" height="109pt" viewBox="0.00 0.00 537.00 109.16">
<g id="graph0" class="graph" transform="scale(1 1) rotate(0) translate(4 105.16)">
<title>%3</title>
<polygon fill="white" stroke="transparent" points="-4,4 -4,-105.16 533,-105.16 533,4 -4,4"/>
<!-- _START -->
<g id="node1" class="node">
<title>_START</title>
</g>
<!-- 0 -->
<g id="node2" class="node">
<title>0</title>
<path fill="none" stroke="black" d="M71.33,-70.66C71.33,-70.66 43.67,-70.66 43.67,-70.66 40.83,-70.66 38,-67.82 38,-64.99 38,-64.99 38,-59.32 38,-59.32 38,-56.49 40.83,-53.66 43.67,-53.66 43.67,-53.66 71.33,-53.66 71.33,-53.66 74.17,-53.66 77,-56.49 77,-59.32 77,-59.32 77,-64.99 77,-64.99 77,-67.82 74.17,-70.66 71.33,-70.66"/>
<text text-anchor="start" x="42" y="-59.66" font-family="Courier,monospace" font-size="10.00">start</text>
</g>
<!-- _START&#45;&gt;0 -->
<g id="edge1" class="edge">
<title>_START-&gt;0</title>
<path fill="none" stroke="black" d="M1.16,-62.16C2.89,-62.16 18.46,-62.16 32.64,-62.16"/>
<polygon fill="black" stroke="black" points="37.78,-62.16 32.78,-64.41 35.28,-62.16 32.78,-62.16 32.78,-62.16 32.78,-62.16 35.28,-62.16 32.78,-59.91 37.78,-62.16 37.78,-62.16"/>
</g>
<!-- 1 -->
<g id="node3" class="node">
<title>1</title>
<path fill="none" stroke="black" d="M519.33,-70.66C519.33,-70.66 485.67,-70.66 485.67,-70.66 482.83,-70.66 480,-67.82 480,-64.99 480,-64.99 480,-59.32 480,-59.32 480,-56.49 482.83,-53.66 485.67,-53.66 485.67,-53.66 519.33,-53.66 519.33,-53.66 522.17,-53.66 525,-56.49 525,-59.32 525,-59.32 525,-64.99 525,-64.99 525,-67.82 522.17,-70.66 519.33,-70.66"/>
<path fill="none" stroke="black" d="M520.67,-74.66C520.67,-74.66 484.33,-74.66 484.33,-74.66 480.17,-74.66 476,-70.49 476,-66.32 476,-66.32 476,-57.99 476,-57.99 476,-53.82 480.17,-49.66 484.33,-49.66 484.33,-49.66 520.67,-49.66 520.67,-49.66 524.83,-49.66 529,-53.82 529,-57.99 529,-57.99 529,-66.32 529,-66.32 529,-70.49 524.83,-74.66 520.67,-74.66"/>
<text text-anchor="start" x="484" y="-59.66" font-family="Courier,monospace" font-size="10.00">accept</text>
</g>
<!-- 0&#45;&gt;1 -->
<g id="edge6" class="edge">
<title>0-&gt;1</title>
<path fill="none" stroke="black" d="M77.06,-68.32C99.26,-75.13 137.67,-85.16 171.5,-85.16 171.5,-85.16 171.5,-85.16 360.5,-85.16 398.91,-85.16 442.45,-76.74 470.85,-70.09"/>
<polygon fill="black" stroke="black" points="475.97,-68.87 471.63,-72.22 473.54,-69.45 471.11,-70.03 471.11,-70.03 471.11,-70.03 473.54,-69.45 470.59,-67.84 475.97,-68.87 475.97,-68.87"/>
<text text-anchor="start" x="245" y="-90.96" font-family="Courier,monospace" font-size="9.00">ε ∪ a* a</text>
</g>
<!-- 2 -->
<g id="node4" class="node">
<title>2</title>
<path fill="none" stroke="black" d="M177.33,-48.66C177.33,-48.66 167.67,-48.66 167.67,-48.66 164.83,-48.66 162,-45.82 162,-42.99 162,-42.99 162,-37.32 162,-37.32 162,-34.49 164.83,-31.66 167.67,-31.66 167.67,-31.66 177.33,-31.66 177.33,-31.66 180.17,-31.66 183,-34.49 183,-37.32 183,-37.32 183,-42.99 183,-42.99 183,-45.82 180.17,-48.66 177.33,-48.66"/>
<text text-anchor="start" x="166" y="-37.66" font-family="Courier,monospace" font-size="10.00">q1</text>
</g>
<!-- 0&#45;&gt;2 -->
<g id="edge7" class="edge">
<title>0-&gt;2</title>
<path fill="none" stroke="black" d="M77.16,-58.52C99.49,-54.18 136.4,-46.99 156.81,-43.02"/>
<polygon fill="black" stroke="black" points="161.86,-42.03 157.38,-45.2 159.41,-42.51 156.95,-42.99 156.95,-42.99 156.95,-42.99 159.41,-42.51 156.52,-40.78 161.86,-42.03 161.86,-42.03"/>
<text text-anchor="start" x="98.5" y="-60.96" font-family="Courier,monospace" font-size="9.00">ε ∪ a* a</text>
</g>
<!-- 3 -->
<g id="node5" class="node">
<title>3</title>
<path fill="none" stroke="black" d="M270.83,-48.66C270.83,-48.66 261.17,-48.66 261.17,-48.66 258.33,-48.66 255.5,-45.82 255.5,-42.99 255.5,-42.99 255.5,-37.32 255.5,-37.32 255.5,-34.49 258.33,-31.66 261.17,-31.66 261.17,-31.66 270.83,-31.66 270.83,-31.66 273.67,-31.66 276.5,-34.49 276.5,-37.32 276.5,-37.32 276.5,-42.99 276.5,-42.99 276.5,-45.82 273.67,-48.66 270.83,-48.66"/>
<text text-anchor="start" x="259.5" y="-37.66" font-family="Courier,monospace" font-size="10.00">q2</text>
</g>
<!-- 2&#45;&gt;3 -->
<g id="edge2" class="edge">
<title>2-&gt;3</title>
<path fill="none" stroke="black" d="M183.29,-40.16C199.25,-40.16 230.98,-40.16 249.86,-40.16"/>
<polygon fill="black" stroke="black" points="255.28,-40.16 250.28,-42.41 252.78,-40.16 250.28,-40.16 250.28,-40.16 250.28,-40.16 252.78,-40.16 250.28,-37.91 255.28,-40.16 255.28,-40.16"/>
<text text-anchor="start" x="204" y="-45.96" font-family="Courier,monospace" font-size="9.00">a</text>
</g>
<!-- 4 -->
<g id="node6" class="node">
<title>4</title>
<path fill="none" stroke="black" d="M364.33,-48.66C364.33,-48.66 354.67,-48.66 354.67,-48.66 351.83,-48.66 349,-45.82 349,-42.99 349,-42.99 349,-37.32 349,-37.32 349,-34.49 351.83,-31.66 354.67,-31.66 354.67,-31.66 364.33,-31.66 364.33,-31.66 367.17,-31.66 370,-34.49 370,-37.32 370,-37.32 370,-42.99 370,-42.99 370,-45.82 367.17,-48.66 364.33,-48.66"/>
<text text-anchor="start" x="353" y="-37.66" font-family="Courier,monospace" font-size="10.00">q3</text>
</g>
<!-- 3&#45;&gt;4 -->
<g id="edge5" class="edge">
<title>3-&gt;4</title>
<path fill="none" stroke="black" d="M276.79,-40.16C292.75,-40.16 324.48,-40.16 343.36,-40.16"/>
<polygon fill="black" stroke="black" points="348.78,-40.16 343.78,-42.41 346.28,-40.16 343.78,-40.16 343.78,-40.16 343.78,-40.16 346.28,-40.16 343.78,-37.91 348.78,-40.16 348.78,-40.16"/>
<text text-anchor="start" x="322" y="-45.96" font-family="Courier,monospace" font-size="9.00">ε</text>
</g>
<!-- 4&#45;&gt;1 -->
<g id="edge4" class="edge">
<title>4-&gt;1</title>
<path fill="none" stroke="black" d="M370.19,-41.62C387.72,-44.29 425.86,-50.1 458,-55.16 462.13,-55.81 466.47,-56.5 470.76,-57.18"/>
<polygon fill="black" stroke="black" points="475.74,-57.98 470.45,-59.41 473.27,-57.59 470.81,-57.19 470.81,-57.19 470.81,-57.19 473.27,-57.59 471.16,-54.97 475.74,-57.98 475.74,-57.98"/>
<text text-anchor="start" x="391" y="-60.96" font-family="Courier,monospace" font-size="9.00">b (ε ∪ a* a)</text>
</g>
<!-- 4&#45;&gt;2 -->
<g id="edge3" class="edge">
<title>4-&gt;2</title>
<path fill="none" stroke="black" d="M348.67,-32.08C337.78,-23.72 319.35,-11.17 301,-6.16 270.99,2.05 261.01,2.05 231,-6.16 214.8,-10.59 198.54,-20.88 187.46,-28.99"/>
<polygon fill="black" stroke="black" points="183.33,-32.08 185.98,-27.28 185.33,-30.58 187.33,-29.08 187.33,-29.08 187.33,-29.08 185.33,-30.58 188.68,-30.88 183.33,-32.08 183.33,-32.08"/>
<text text-anchor="start" x="234" y="-11.96" font-family="Courier,monospace" font-size="9.00">b (ε ∪ a* a)</text>
</g>
</g>
</svg>