<svg xmlns="http://www.w3.org/2000/svg" xmlns:xlink="http://www.w3.org/1999/xlink" width="477pt" height="83pt" viewBox="0.00 0.00 477.00 83.22">
<g id="graph0" class="graph" transform="scale(1 1) rotate(0) translate(4 79.22)">
<title>%3</title>
<polygon fill="white" stroke="transparent" points="-4,4 -4,-79.22 473,-79.22 473,4 -4,4"/>
<!-- _START -->
<g id="node1" class="node">
<title>_START</title>
</g>
<!-- 0 -->
<g id="node2" class="node">
<title>0</title>
<path fill="none" stroke="black" d="M71.33,-54.72C71.33,-54.72 43.67,-54.72 43.67,-54.72 40.83,-54.72 38,-51.88 38,-49.05 38,-49.05 38,-43.38 38,-43.38 38,-40.55 40.83,-37.72 43.67,-37.72 43.67,-37.72 71.33,-37.72 71.33,-37.72 74.17,-37.72 77,-40.55 77,-43.38 77,-43.38 77,-49.05 77,-49.05 77,-51.88 74.17,-54.72 71.33,-54.72"/>
<text text-anchor="start" x="42" y="-43.72" font-family="Courier,monospace" font-size="10.00">start</text>
</g>
<!-- _START&#45;&gt;0 -->
<g id="edge1" class="edge">
<title>_START-&gt;0</title>
<path fill="none" stroke="black" d="M1.16,-46.22C2.89,-46.22 18.46,-46.22 32.64,-46.22"/>
<polygon fill="black" stroke="black" points="37.78,-46.22 32.78,-48.47 35.28,-46.22 32.78,-46.22 32.78,-46.22 32.78,-46.22 35.28,-46.22 32.78,-43.97 37.78,-46.22 37.78,-46.22"/>
</g>
<!-- 1 -->
<g id="node3" class="node">
<title>1</title>
<path fill="none" stroke="black" d="M459.33,-54.72C459.33,-54.72 425.67,-54.72 425.67,-54.72 422.83,-54.72 420,-51.88 420,-49.05 420,-49.05 420,-43.38 420,-43.38 420,-40.55 422.83,-37.72 425.67,-37.72 425.67,-37.72 459.33,-37.72 459.33,-37.72 462.17,-37.72 465,-40.55 465,-43.38 465,-43.38 465,-49.05 465,-49.05 465,-51.88 462.17,-54.72 459.33,-54.72"/>
<path fill="none" stroke="black" d="M460.67,-58.72C460.67,-58.72 424.33,-58.72 424.33,-58.72 420.17,-58.72 416,-54.55 416,-50.38 416,-50.38 416,-42.05 416,-42.05 416,-37.88 420.17,-33.72 424.33,-33.72 424.33,-33.72 460.67,-33.72 460.67,-33.72 464.83,-33.72 469,-37.88 469,-42.05 469,-42.05 469,-50.38 469,-50.38 469,-54.55 464.83,-58.72 460.67,-58.72"/>
<text text-anchor="start" x="424" y="-43.72" font-family="Courier,monospace" font-size="10.00">accept</text>
</g>
<!-- 0&#45;&gt;1 -->
<g id="edge5" class="edge">
<title>0-&gt;1</title>
<path fill="none" stroke="black" d="M77.37,-49.92C83.02,-50.86 89.24,-51.75 95,-52.22 229.22,-63.17 263.65,-61.44 398,-52.22 402.15,-51.93 406.52,-51.49 410.81,-50.98"/>
<polygon fill="black" stroke="black" points="415.8,-50.35 411.12,-53.21 413.32,-50.67 410.84,-50.98 410.84,-50.98 410.84,-50.98 413.32,-50.67 410.56,-48.75 415.8,-50.35 415.8,-50.35"/>
<text text-anchor="start" x="215" y="-65.02" font-family="Courier,monospace" font-size="9.00">ε ∪ a* a</text>
</g>
<!-- 2 -->
<g id="node4" class="node">
<title>2</title>
<path fill="none" stroke="black" d="M177.33,-35.72C177.33,-35.72 167.67,-35.72 167.67,-35.72 164.83,-35.72 162,-32.88 162,-30.05 162,-30.05 162,-24.38 162,-24.38 162,-21.55 164.83,-18.72 167.67,-18.72 167.67,-18.72 177.33,-18.72 177.33,-18.72 180.17,-18.72 183,-21.55 183,-24.38 183,-24.38 183,-30.05 183,-30.05 183,-32.88 180.17,-35.72 177.33,-35.72"/>
<text text-anchor="start" x="166" y="-24.72" font-family="Courier,monospace" font-size="10.00">q1</text>
</g>
<!-- 0&#45;&gt;2 -->
<g id="edge6" class="edge">
<title>0-&gt;2</title>
<path fill="none" stroke="black" d="M77.32,-40.48C82.96,-38.92 89.2,-37.35 95,-36.22 116.04,-32.12 140.73,-29.62 156.25,-28.33"/>
<polygon fill="black" stroke="black" points="161.52,-27.91 156.72,-30.55 159.03,-28.11 156.54,-28.31 156.54,-28.31 156.54,-28.31 159.03,-28.11 156.36,-26.06 161.52,-27.91 161.52,-27.91"/>
<text text-anchor="start" x="98.5" y="-42.02" font-family="Courier,monospace" font-size="9.00">ε ∪ a* a</text>
</g>
<!-- 3 -->
<g id="node5" class="node">
<title>3</title>
<path fill="none" stroke="black" d="M304.33,-35.72C304.33,-35.72 294.67,-35.72 294.67,-35.72 291.83,-35.72 289,-32.88 289,-30.05 289,-30.05 289,-24.38 289,-24.38 289,-21.55 291.83,-18.72 294.67,-18.72 294.67,-18.72 304.33,-18.72 304.33,-18.72 307.17,-18.72 310,-21.55 310,-24.38 310,-24.38 310,-30.05 310,-30.05 310,-32.88 307.17,-35.72 304.33,-35.72"/>
<text text-anchor="start" x="293" y="-24.72" font-family="Courier,monospace" font-size="10.00">q2</text>
</g>
<!-- 2&#45;&gt;3 -->
<g id="edge2" class="edge">
<title>2-&gt;3</title>
<path fill="none" stroke="black" d="M183.31,-27.22C205.12,-27.22 257.77,-27.22 283.64,-27.22"/>
<polygon fill="black" stroke="black" points="288.74,-27.22 283.74,-29.47 286.24,-27.22 283.74,-27.22 283.74,-27.22 283.74,-27.22 286.24,-27.22 283.74,-24.97 288.74,-27.22 288.74,-27.22"/>
<text text-anchor="start" x="233" y="-33.02" font-family="Courier,monospace" font-size="9.00">a</text>
</g>
<!-- 3&#45;&gt;1 -->
<g id="edge4" class="edge">
<title>3-&gt;1</title>
<path fill="none" stroke="black" d="M310.24,-27.68C327.85,-28.62 366.11,-31.1 398,-36.22 402.18,-36.89 406.56,-37.73 410.86,-38.63"/>
<polygon fill="black" stroke="black" points="415.85,-39.72 410.49,-40.85 413.41,-39.19 410.96,-38.66 410.96,-38.66 410.96,-38.66 413.41,-39.19 411.44,-36.46 415.85,-39.72 415.85,-39.72"/>
<text text-anchor="start" x="331" y="-42.02" font-family="Courier,monospace" font-size="9.00">b (ε ∪ a* a)</text>
</g>
<!-- 3&#45;&gt;2 -->
<g id="edge3" class="edge">
<title>3-&gt;2</title>
<path fill="none" stroke="black" d="M289.66,-18.55C284.63,-14.24 277.96,-9.48 271,-7.22 241.41,2.41 230.59,2.41 201,-7.22 195.78,-8.91 190.72,-12.02 186.4,-15.28"/>
<polygon fill="black" stroke="black" points="182.34,-18.55 184.82,-13.66 184.29,-16.98 186.23,-15.41 186.23,-15.41 186.23,-15.41 184.29,-16.98 187.65,-17.17 182.34,-18.55 182.34,-18.55"/>
<text text-anchor="start" x="204" y="-13.02" font-family="Courier,monospace" font-size="9.00">b (ε ∪ a* a)</text>
</g>
</g>
</svg>