<svg xmlns="http://www.w3.org/2000/svg" xmlns:xlink="http://www.w3.org/1999/xlink" width="607pt" height="221pt" viewBox="0.00 0.00 607.00 220.50">
<g id="graph0" class="graph" transform="scale(1 1) rotate(0) translate(4 216.5)">
<title>%3</title>
<polygon fill="white" stroke="transparent" points="-4,4 -4,-216.5 603,-216.5 603,4 -4,4"/>
<!-- _START -->
<g id="node1" class="node">
<title>_START</title>
</g>
<!-- 0 -->
<g id="node2" class="node">
<title>0</title>
<path fill="none" stroke="black" d="M62.33,-158C62.33,-158 52.67,-158 52.67,-158 49.83,-158 47,-155.17 47,-152.33 47,-152.33 47,-146.67 47,-146.67 47,-143.83 49.83,-141 52.67,-141 52.67,-141 62.33,-141 62.33,-141 65.17,-141 68,-143.83 68,-146.67 68,-146.67 68,-152.33 68,-152.33 68,-155.17 65.17,-158 62.33,-158"/>
<text text-anchor="start" x="51" y="-147" font-family="Courier,monospace" font-size="10.00">q1</text>
</g>
<!-- _START&#45;&gt;0 -->
<g id="edge1" class="edge">
<title>_START-&gt;0</title>
<path fill="none" stroke="black" d="M1.16,-149.5C3.27,-149.5 25.82,-149.5 41.47,-149.5"/>
<polygon fill="black" stroke="black" points="46.88,-149.5 41.88,-151.75 44.38,-149.5 41.88,-149.5 41.88,-149.5 41.88,-149.5 44.38,-149.5 41.88,-147.25 46.88,-149.5 46.88,-149.5"/>
</g>
<!-- 8 -->
<g id="node10" class="node">
<title>8</title>
<path fill="none" stroke="black" d="M149.33,-158C149.33,-158 139.67,-158 139.67,-158 136.83,-158 134,-155.17 134,-152.33 134,-152.33 134,-146.67 134,-146.67 134,-143.83 136.83,-141 139.67,-141 139.67,-141 149.33,-141 149.33,-141 152.17,-141 155,-143.83 155,-146.67 155,-146.67 155,-152.33 155,-152.33 155,-155.17 152.17,-158 149.33,-158"/>
<text text-anchor="start" x="138" y="-147" font-family="Courier,monospace" font-size="10.00">q1</text>
</g>
<!-- 0&#45;&gt;8 -->
<g id="edge2" class="edge">
<title>0-&gt;8</title>
<path fill="none" stroke="black" d="M68.25,-149.5C82.98,-149.5 111.03,-149.5 128.41,-149.5"/>
<polygon fill="black" stroke="black" points="133.86,-149.5 128.86,-151.75 131.36,-149.5 128.86,-149.5 128.86,-149.5 128.86,-149.5 131.36,-149.5 128.86,-147.25 133.86,-149.5 133.86,-149.5"/>
</g>
<!-- 1 -->
<g id="node3" class="node">
<title>1</title>
</g>
<!-- 2 -->
<g id="node4" class="node">
<title>2</title>
</g>
<!-- 1&#45;&gt;2 -->
<g id="edge14" class="edge">
<title>1-&gt;2</title>
<path fill="none" stroke="white" d="M77.36,-196.5C89.89,-196.5 106.42,-196.5 119.83,-196.5"/>
<polygon fill="white" stroke="white" points="124.98,-196.5 119.98,-198.75 122.48,-196.5 119.98,-196.5 119.98,-196.5 119.98,-196.5 122.48,-196.5 119.98,-194.25 124.98,-196.5 124.98,-196.5"/>
<text text-anchor="start" x="98" y="-202.3" font-family="Courier,monospace" font-size="9.00">0</text>
</g>
<!-- 3 -->
<g id="node5" class="node">
<title>3</title>
</g>
<!-- 2&#45;&gt;3 -->
<g id="edge15" class="edge">
<title>2-&gt;3</title>
<path fill="none" stroke="white" d="M164.36,-196.5C176.89,-196.5 193.42,-196.5 206.83,-196.5"/>
<polygon fill="white" stroke="white" points="211.98,-196.5 206.98,-198.75 209.48,-196.5 206.98,-196.5 206.98,-196.5 206.98,-196.5 209.48,-196.5 206.98,-194.25 211.98,-196.5 211.98,-196.5"/>
<text text-anchor="start" x="185" y="-202.3" font-family="Courier,monospace" font-size="9.00">1</text>
</g>
<!-- 4 -->
<g id="node6" class="node">
<title>4</title>
</g>
<!-- 3&#45;&gt;4 -->
<g id="edge16" class="edge">
<title>3-&gt;4</title>
<path fill="none" stroke="white" d="M251.36,-196.5C263.89,-196.5 280.42,-196.5 293.83,-196.5"/>
<polygon fill="white" stroke="white" points="298.98,-196.5 293.98,-198.75 296.48,-196.5 293.98,-196.5 293.98,-196.5 293.98,-196.5 296.48,-196.5 293.98,-194.25 298.98,-196.5 298.98,-196.5"/>
<text text-anchor="start" x="272" y="-202.3" font-family="Courier,monospace" font-size="9.00">0</text>
</g>
<!-- 5 -->
<g id="node7" class="node">
<title>5</title>
</g>
<!-- 4&#45;&gt;5 -->
<g id="edge17" class="edge">
<title>4-&gt;5</title>
<path fill="none" stroke="white" d="M338.36,-196.5C350.89,-196.5 367.42,-196.5 380.83,-196.5"/>
<polygon fill="white" stroke="white" points="385.98,-196.5 380.98,-198.75 383.48,-196.5 380.98,-196.5 380.98,-196.5 380.98,-196.5 383.48,-196.5 380.98,-194.25 385.98,-196.5 385.98,-196.5"/>
<text text-anchor="start" x="359" y="-202.3" font-family="Courier,monospace" font-size="9.00">0</text>
</g>
<!-- 6 -->
<g id="node8" class="node">
<title>6</title>
</g>
<!-- 5&#45;&gt;6 -->
<g id="edge18" class="edge">
<title>5-&gt;6</title>
<path fill="none" stroke="white" d="M425.36,-196.5C437.89,-196.5 454.42,-196.5 467.83,-196.5"/>
<polygon fill="white" stroke="white" points="472.98,-196.5 467.98,-198.75 470.48,-196.5 467.98,-196.5 467.98,-196.5 467.98,-196.5 470.48,-196.5 467.98,-194.25 472.98,-196.5 472.98,-196.5"/>
<text text-anchor="start" x="446" y="-202.3" font-family="Courier,monospace" font-size="9.00">1</text>
</g>
<!-- 7 -->
<g id="node9" class="node">
<title>7</title>
</g>
<!-- 6&#45;&gt;7 -->
<g id="edge19" class="edge">
<title>6-&gt;7</title>
<path fill="none" stroke="white" d="M512.36,-196.5C524.89,-196.5 541.42,-196.5 554.83,-196.5"/>
<polygon fill="white" stroke="white" points="559.98,-196.5 554.98,-198.75 557.48,-196.5 554.98,-196.5 554.98,-196.5 554.98,-196.5 557.48,-196.5 554.98,-194.25 559.98,-196.5 559.98,-196.5"/>
<text text-anchor="start" x="533" y="-202.3" font-family="Courier,monospace" font-size="9.00">0</text>
</g>
<!-- 9 -->
<g id="node11" class="node">
<title>9</title>
<path fill="none" stroke="black" d="M236.33,-164C236.33,-164 226.67,-164 226.67,-164 223.83,-164 221,-161.17 221,-158.33 221,-158.33 221,-152.67 221,-152.67 221,-149.83 223.83,-147 226.67,-147 226.67,-147 236.33,-147 236.33,-147 239.17,-147 242,-149.83 242,-152.67 242,-152.67 242,-158.33 242,-158.33 242,-161.17 239.17,-164 236.33,-164"/>
<text text-anchor="start" x="225" y="-153" font-family="Courier,monospace" font-size="10.00">q2</text>
</g>
<!-- 8&#45;&gt;9 -->
<g id="edge3" class="edge">
<title>8-&gt;9</title>
<path fill="none" stroke="black" d="M155.25,-150.19C170.11,-151.24 198.52,-153.24 215.86,-154.47"/>
<polygon fill="black" stroke="black" points="220.86,-154.82 215.72,-156.71 218.37,-154.64 215.88,-154.47 215.88,-154.47 215.88,-154.47 218.37,-154.64 216.03,-152.22 220.86,-154.82 220.86,-154.82"/>
</g>
<!-- 10 -->
<g id="node12" class="node">
<title>10</title>
<path fill="none" stroke="black" d="M236.33,-76C236.33,-76 226.67,-76 226.67,-76 223.83,-76 221,-73.17 221,-70.33 221,-70.33 221,-64.67 221,-64.67 221,-61.83 223.83,-59 226.67,-59 226.67,-59 236.33,-59 236.33,-59 239.17,-59 242,-61.83 242,-64.67 242,-64.67 242,-70.33 242,-70.33 242,-73.17 239.17,-76 236.33,-76"/>
<text text-anchor="start" x="225" y="-65" font-family="Courier,monospace" font-size="10.00">q1</text>
</g>
<!-- 8&#45;&gt;10 -->
<g id="edge4" class="edge">
<title>8-&gt;10</title>
<path fill="none" stroke="black" d="M154.45,-140.58C167.14,-127.97 191.14,-104.27 212,-84.5 213.64,-82.95 215.37,-81.33 217.09,-79.73"/>
<polygon fill="black" stroke="black" points="221.04,-76.09 218.89,-81.14 219.2,-77.79 217.36,-79.48 217.36,-79.48 217.36,-79.48 219.2,-77.79 215.84,-77.83 221.04,-76.09 221.04,-76.09"/>
</g>
<!-- 11 -->
<g id="node13" class="node">
<title>11</title>
<path fill="none" stroke="black" d="M323.33,-164C323.33,-164 313.67,-164 313.67,-164 310.83,-164 308,-161.17 308,-158.33 308,-158.33 308,-152.67 308,-152.67 308,-149.83 310.83,-147 313.67,-147 313.67,-147 323.33,-147 323.33,-147 326.17,-147 329,-149.83 329,-152.67 329,-152.67 329,-158.33 329,-158.33 329,-161.17 326.17,-164 323.33,-164"/>
<text text-anchor="start" x="312" y="-153" font-family="Courier,monospace" font-size="10.00">q3</text>
</g>
<!-- 9&#45;&gt;11 -->
<g id="edge5" class="edge">
<title>9-&gt;11</title>
<path fill="none" stroke="black" d="M242.25,-155.5C256.98,-155.5 285.03,-155.5 302.41,-155.5"/>
<polygon fill="black" stroke="black" points="307.86,-155.5 302.86,-157.75 305.36,-155.5 302.86,-155.5 302.86,-155.5 302.86,-155.5 305.36,-155.5 302.86,-153.25 307.86,-155.5 307.86,-155.5"/>
</g>
<!-- 12 -->
<g id="node14" class="node">
<title>12</title>
<path fill="none" stroke="black" d="M236.33,-111C236.33,-111 226.67,-111 226.67,-111 223.83,-111 221,-108.17 221,-105.33 221,-105.33 221,-99.67 221,-99.67 221,-96.83 223.83,-94 226.67,-94 226.67,-94 236.33,-94 236.33,-94 239.17,-94 242,-96.83 242,-99.67 242,-99.67 242,-105.33 242,-105.33 242,-108.17 239.17,-111 236.33,-111"/>
<text text-anchor="start" x="225" y="-100" font-family="Courier,monospace" font-size="10.00">q3</text>
</g>
<!-- 9&#45;&gt;12 -->
<g id="edge6" class="edge">
<title>9-&gt;12</title>
<path fill="none" stroke="black" d="M231.5,-146.85C231.5,-136.63 231.5,-126.42 231.5,-116.21"/>
<polygon fill="black" stroke="black" points="231.5,-111.2 233.75,-116.2 231.5,-113.7 231.5,-116.2 231.5,-116.2 231.5,-116.2 231.5,-113.7 229.25,-116.2 231.5,-111.2 231.5,-111.2"/>
</g>
<!-- 13 -->
<g id="node15" class="node">
<title>13</title>
<path fill="none" stroke="black" d="M323.33,-76C323.33,-76 313.67,-76 313.67,-76 310.83,-76 308,-73.17 308,-70.33 308,-70.33 308,-64.67 308,-64.67 308,-61.83 310.83,-59 313.67,-59 313.67,-59 323.33,-59 323.33,-59 326.17,-59 329,-61.83 329,-64.67 329,-64.67 329,-70.33 329,-70.33 329,-73.17 326.17,-76 323.33,-76"/>
<text text-anchor="start" x="312" y="-65" font-family="Courier,monospace" font-size="10.00">q1</text>
</g>
<!-- 10&#45;&gt;13 -->
<g id="edge7" class="edge">
<title>10-&gt;13</title>
<path fill="none" stroke="black" d="M242.25,-67.5C256.98,-67.5 285.03,-67.5 302.41,-67.5"/>
<polygon fill="black" stroke="black" points="307.86,-67.5 302.86,-69.75 305.36,-67.5 302.86,-67.5 302.86,-67.5 302.86,-67.5 305.36,-67.5 302.86,-65.25 307.86,-67.5 307.86,-67.5"/>
</g>
<!-- 14 -->
<g id="node16" class="node">
<title>14</title>
<path fill="none" stroke="black" d="M410.33,-76C410.33,-76 400.67,-76 400.67,-76 397.83,-76 395,-73.17 395,-70.33 395,-70.33 395,-64.67 395,-64.67 395,-61.83 397.83,-59 400.67,-59 400.67,-59 410.33,-59 410.33,-59 413.17,-59 416,-61.83 416,-64.67 416,-64.67 416,-70.33 416,-70.33 416,-73.17 413.17,-76 410.33,-76"/>
<text text-anchor="start" x="399" y="-65" font-family="Courier,monospace" font-size="10.00">q1</text>
</g>
<!-- 13&#45;&gt;14 -->
<g id="edge8" class="edge">
<title>13-&gt;14</title>
<path fill="none" stroke="black" d="M329.25,-67.5C343.98,-67.5 372.03,-67.5 389.41,-67.5"/>
<polygon fill="black" stroke="black" points="394.86,-67.5 389.86,-69.75 392.36,-67.5 389.86,-67.5 389.86,-67.5 389.86,-67.5 392.36,-67.5 389.86,-65.25 394.86,-67.5 394.86,-67.5"/>
</g>
<!-- 15 -->
<g id="node17" class="node">
<title>15</title>
<path fill="none" stroke="black" d="M497.33,-105C497.33,-105 487.67,-105 487.67,-105 484.83,-105 482,-102.17 482,-99.33 482,-99.33 482,-93.67 482,-93.67 482,-90.83 484.83,-88 487.67,-88 487.67,-88 497.33,-88 497.33,-88 500.17,-88 503,-90.83 503,-93.67 503,-93.67 503,-99.33 503,-99.33 503,-102.17 500.17,-105 497.33,-105"/>
<text text-anchor="start" x="486" y="-94" font-family="Courier,monospace" font-size="10.00">q2</text>
</g>
<!-- 14&#45;&gt;15 -->
<g id="edge9" class="edge">
<title>14-&gt;15</title>
<path fill="none" stroke="black" d="M416.25,-70.83C431.11,-75.9 459.52,-85.59 476.86,-91.51"/>
<polygon fill="black" stroke="black" points="481.86,-93.21 476.4,-93.73 479.5,-92.4 477.13,-91.6 477.13,-91.6 477.13,-91.6 479.5,-92.4 477.86,-89.47 481.86,-93.21 481.86,-93.21"/>
</g>
<!-- 16 -->
<g id="node18" class="node">
<title>16</title>
<path fill="none" stroke="black" d="M497.33,-17C497.33,-17 487.67,-17 487.67,-17 484.83,-17 482,-14.17 482,-11.33 482,-11.33 482,-5.67 482,-5.67 482,-2.83 484.83,0 487.67,0 487.67,0 497.33,0 497.33,0 500.17,0 503,-2.83 503,-5.67 503,-5.67 503,-11.33 503,-11.33 503,-14.17 500.17,-17 497.33,-17"/>
<text text-anchor="start" x="486" y="-6" font-family="Courier,monospace" font-size="10.00">q1</text>
</g>
<!-- 14&#45;&gt;16 -->
<g id="edge10" class="edge">
<title>14-&gt;16</title>
<path fill="none" stroke="black" d="M416.25,-60.73C431.37,-50.24 460.5,-30.01 477.75,-18.04"/>
<polygon fill="black" stroke="black" points="481.86,-15.19 479.04,-19.89 479.81,-16.61 477.76,-18.04 477.76,-18.04 477.76,-18.04 479.81,-16.61 476.47,-16.19 481.86,-15.19 481.86,-15.19"/>
</g>
<!-- 17 -->
<g id="node19" class="node">
<title>17</title>
<path fill="none" stroke="black" d="M584.33,-105C584.33,-105 574.67,-105 574.67,-105 571.83,-105 569,-102.17 569,-99.33 569,-99.33 569,-93.67 569,-93.67 569,-90.83 571.83,-88 574.67,-88 574.67,-88 584.33,-88 584.33,-88 587.17,-88 590,-90.83 590,-93.67 590,-93.67 590,-99.33 590,-99.33 590,-102.17 587.17,-105 584.33,-105"/>
<text text-anchor="start" x="573" y="-94" font-family="Courier,monospace" font-size="10.00">q3</text>
</g>
<!-- 15&#45;&gt;17 -->
<g id="edge11" class="edge">
<title>15-&gt;17</title>
<path fill="none" stroke="black" d="M503.25,-96.5C517.98,-96.5 546.03,-96.5 563.41,-96.5"/>
<polygon fill="black" stroke="black" points="568.86,-96.5 563.86,-98.75 566.36,-96.5 563.86,-96.5 563.86,-96.5 563.86,-96.5 566.36,-96.5 563.86,-94.25 568.86,-96.5 568.86,-96.5"/>
</g>
<!-- 18 -->
<g id="node20" class="node">
<title>18</title>
<path fill="none" stroke="black" d="M497.33,-52C497.33,-52 487.67,-52 487.67,-52 484.83,-52 482,-49.17 482,-46.33 482,-46.33 482,-40.67 482,-40.67 482,-37.83 484.83,-35 487.67,-35 487.67,-35 497.33,-35 497.33,-35 500.17,-35 503,-37.83 503,-40.67 503,-40.67 503,-46.33 503,-46.33 503,-49.17 500.17,-52 497.33,-52"/>
<text text-anchor="start" x="486" y="-41" font-family="Courier,monospace" font-size="10.00">q3</text>
</g>
<!-- 15&#45;&gt;18 -->
<g id="edge12" class="edge">
<title>15-&gt;18</title>
<path fill="none" stroke="black" d="M492.5,-87.85C492.5,-77.63 492.5,-67.42 492.5,-57.21"/>
<polygon fill="black" stroke="black" points="492.5,-52.2 494.75,-57.2 492.5,-54.7 492.5,-57.2 492.5,-57.2 492.5,-57.2 492.5,-54.7 490.25,-57.2 492.5,-52.2 492.5,-52.2"/>
</g>
<!-- 19 -->
<g id="node21" class="node">
<title>19</title>
<path fill="none" stroke="black" d="M584.33,-17C584.33,-17 574.67,-17 574.67,-17 571.83,-17 569,-14.17 569,-11.33 569,-11.33 569,-5.67 569,-5.67 569,-2.83 571.83,0 574.67,0 574.67,0 584.33,0 584.33,0 587.17,0 590,-2.83 590,-5.67 590,-5.67 590,-11.33 590,-11.33 590,-14.17 587.17,-17 584.33,-17"/>
<text text-anchor="start" x="573" y="-6" font-family="Courier,monospace" font-size="10.00">q1</text>
</g>
<!-- 16&#45;&gt;19 -->
<g id="edge13" class="edge">
<title>16-&gt;19</title>
<path fill="none" stroke="black" d="M503.25,-8.5C517.98,-8.5 546.03,-8.5 563.41,-8.5"/>
<polygon fill="black" stroke="black" points="568.86,-8.5 563.86,-10.75 566.36,-8.5 563.86,-8.5 563.86,-8.5 563.86,-8.5 566.36,-8.5 563.86,-6.25 568.86,-8.5 568.86,-8.5"/>
</g>
</g>
</svg>