<svg xmlns="http://www.w3.org/2000/svg" xmlns:xlink="http://www.w3.org/1999/xlink" width="359pt" height="76pt" viewBox="0.00 0.00 359.00 75.50">
<g id="graph0" class="graph" transform="scale(1 1) rotate(0) translate(4 71.5)">
<title>%3</title>
<polygon fill="white" stroke="transparent" points="-4,4 -4,-71.5 355,-71.5 355,4 -4,4"/>
<!-- _START -->
<g id="node1" class="node">
<title>_START</title>
</g>
<!-- 4 -->
<g id="node6" class="node">
<title>4</title>
<path fill="none" stroke="black" d="M53.33,-40C53.33,-40 43.67,-40 43.67,-40 40.83,-40 38,-37.17 38,-34.33 38,-34.33 38,-28.67 38,-28.67 38,-25.83 40.83,-23 43.67,-23 43.67,-23 53.33,-23 53.33,-23 56.17,-23 59,-25.83 59,-28.67 59,-28.67 59,-34.33 59,-34.33 59,-37.17 56.17,-40 53.33,-40"/>
<text text-anchor="start" x="42" y="-29" font-family="Courier,monospace" font-size="10.00">q7</text>
</g>
<!-- _START&#45;&gt;4 -->
<g id="edge1" class="edge">
<title>_START-&gt;4</title>
<path fill="none" stroke="black" d="M1.13,-31.5C2.79,-31.5 19.6,-31.5 32.5,-31.5"/>
<polygon fill="black" stroke="black" points="37.74,-31.5 32.74,-33.75 35.24,-31.5 32.74,-31.5 32.74,-31.5 32.74,-31.5 35.24,-31.5 32.74,-29.25 37.74,-31.5 37.74,-31.5"/>
</g>
<!-- 0 -->
<g id="node2" class="node">
<title>0</title>
<path fill="none" stroke="black" d="M122.33,-60C122.33,-60 112.67,-60 112.67,-60 109.83,-60 107,-57.17 107,-54.33 107,-54.33 107,-48.67 107,-48.67 107,-45.83 109.83,-43 112.67,-43 112.67,-43 122.33,-43 122.33,-43 125.17,-43 128,-45.83 128,-48.67 128,-48.67 128,-54.33 128,-54.33 128,-57.17 125.17,-60 122.33,-60"/>
<text text-anchor="start" x="111" y="-49" font-family="Courier,monospace" font-size="10.00">q1</text>
</g>
<!-- 1 -->
<g id="node3" class="node">
<title>1</title>
<path fill="none" stroke="black" d="M195.33,-60C195.33,-60 185.67,-60 185.67,-60 182.83,-60 180,-57.17 180,-54.33 180,-54.33 180,-48.67 180,-48.67 180,-45.83 182.83,-43 185.67,-43 185.67,-43 195.33,-43 195.33,-43 198.17,-43 201,-45.83 201,-48.67 201,-48.67 201,-54.33 201,-54.33 201,-57.17 198.17,-60 195.33,-60"/>
<text text-anchor="start" x="184" y="-49" font-family="Courier,monospace" font-size="10.00">q2</text>
</g>
<!-- 0&#45;&gt;1 -->
<g id="edge2" class="edge">
<title>0-&gt;1</title>
<path fill="none" stroke="black" d="M128.08,-51.5C139.97,-51.5 160.41,-51.5 174.42,-51.5"/>
<polygon fill="black" stroke="black" points="179.62,-51.5 174.62,-53.75 177.12,-51.5 174.62,-51.5 174.62,-51.5 174.62,-51.5 177.12,-51.5 174.62,-49.25 179.62,-51.5 179.62,-51.5"/>
<text text-anchor="start" x="149" y="-57.3" font-family="Courier,monospace" font-size="9.00">a</text>
</g>
<!-- 2 -->
<g id="node4" class="node">
<title>2</title>
<path fill="none" stroke="black" d="M268.33,-60C268.33,-60 258.67,-60 258.67,-60 255.83,-60 253,-57.17 253,-54.33 253,-54.33 253,-48.67 253,-48.67 253,-45.83 255.83,-43 258.67,-43 258.67,-43 268.33,-43 268.33,-43 271.17,-43 274,-45.83 274,-48.67 274,-48.67 274,-54.33 274,-54.33 274,-57.17 271.17,-60 268.33,-60"/>
<text text-anchor="start" x="257" y="-49" font-family="Courier,monospace" font-size="10.00">q3</text>
</g>
<!-- 1&#45;&gt;2 -->
<g id="edge4" class="edge">
<title>1-&gt;2</title>
<path fill="none" stroke="black" d="M201.08,-51.5C212.97,-51.5 233.41,-51.5 247.42,-51.5"/>
<polygon fill="black" stroke="black" points="252.62,-51.5 247.62,-53.75 250.12,-51.5 247.62,-51.5 247.62,-51.5 247.62,-51.5 250.12,-51.5 247.62,-49.25 252.62,-51.5 252.62,-51.5"/>
<text text-anchor="start" x="226" y="-57.3" font-family="Courier,monospace" font-size="9.00">ε</text>
</g>
<!-- 5 -->
<g id="node7" class="node">
<title>5</title>
<path fill="none" stroke="black" d="M341.33,-60C341.33,-60 331.67,-60 331.67,-60 328.83,-60 326,-57.17 326,-54.33 326,-54.33 326,-48.67 326,-48.67 326,-45.83 328.83,-43 331.67,-43 331.67,-43 341.33,-43 341.33,-43 344.17,-43 347,-45.83 347,-48.67 347,-48.67 347,-54.33 347,-54.33 347,-57.17 344.17,-60 341.33,-60"/>
<path fill="none" stroke="black" d="M342.67,-64C342.67,-64 330.33,-64 330.33,-64 326.17,-64 322,-59.83 322,-55.67 322,-55.67 322,-47.33 322,-47.33 322,-43.17 326.17,-39 330.33,-39 330.33,-39 342.67,-39 342.67,-39 346.83,-39 351,-43.17 351,-47.33 351,-47.33 351,-55.67 351,-55.67 351,-59.83 346.83,-64 342.67,-64"/>
<text text-anchor="start" x="330" y="-49" font-family="Courier,monospace" font-size="10.00">q4</text>
</g>
<!-- 2&#45;&gt;5 -->
<g id="edge3" class="edge">
<title>2-&gt;5</title>
<path fill="none" stroke="black" d="M274.08,-51.5C284.97,-51.5 303.02,-51.5 316.75,-51.5"/>
<polygon fill="black" stroke="black" points="321.96,-51.5 316.96,-53.75 319.46,-51.5 316.96,-51.5 316.96,-51.5 316.96,-51.5 319.46,-51.5 316.96,-49.25 321.96,-51.5 321.96,-51.5"/>
<text text-anchor="start" x="295" y="-57.3" font-family="Courier,monospace" font-size="9.00">b</text>
</g>
<!-- 3 -->
<g id="node5" class="node">
<title>3</title>
<path fill="none" stroke="black" d="M122.33,-21C122.33,-21 112.67,-21 112.67,-21 109.83,-21 107,-18.17 107,-15.33 107,-15.33 107,-9.67 107,-9.67 107,-6.83 109.83,-4 112.67,-4 112.67,-4 122.33,-4 122.33,-4 125.17,-4 128,-6.83 128,-9.67 128,-9.67 128,-15.33 128,-15.33 128,-18.17 125.17,-21 122.33,-21"/>
<text text-anchor="start" x="111" y="-10" font-family="Courier,monospace" font-size="10.00">q5</text>
</g>
<!-- 6 -->
<g id="node8" class="node">
<title>6</title>
<path fill="none" stroke="black" d="M195.33,-21C195.33,-21 185.67,-21 185.67,-21 182.83,-21 180,-18.17 180,-15.33 180,-15.33 180,-9.67 180,-9.67 180,-6.83 182.83,-4 185.67,-4 185.67,-4 195.33,-4 195.33,-4 198.17,-4 201,-6.83 201,-9.67 201,-9.67 201,-15.33 201,-15.33 201,-18.17 198.17,-21 195.33,-21"/>
<path fill="none" stroke="black" d="M196.67,-25C196.67,-25 184.33,-25 184.33,-25 180.17,-25 176,-20.83 176,-16.67 176,-16.67 176,-8.33 176,-8.33 176,-4.17 180.17,0 184.33,0 184.33,0 196.67,0 196.67,0 200.83,0 205,-4.17 205,-8.33 205,-8.33 205,-16.67 205,-16.67 205,-20.83 200.83,-25 196.67,-25"/>
<text text-anchor="start" x="184" y="-10" font-family="Courier,monospace" font-size="10.00">q6</text>
</g>
<!-- 3&#45;&gt;6 -->
<g id="edge5" class="edge">
<title>3-&gt;6</title>
<path fill="none" stroke="black" d="M128.08,-12.5C138.97,-12.5 157.02,-12.5 170.75,-12.5"/>
<polygon fill="black" stroke="black" points="175.96,-12.5 170.96,-14.75 173.46,-12.5 170.96,-12.5 170.96,-12.5 170.96,-12.5 173.46,-12.5 170.96,-10.25 175.96,-12.5 175.96,-12.5"/>
<text text-anchor="start" x="149" y="-18.3" font-family="Courier,monospace" font-size="9.00">a</text>
</g>
<!-- 4&#45;&gt;0 -->
<g id="edge6" class="edge">
<title>4-&gt;0</title>
<path fill="none" stroke="black" d="M59.1,-34.37C70.34,-37.72 89.08,-43.32 102.08,-47.19"/>
<polygon fill="black" stroke="black" points="106.92,-48.64 101.48,-49.37 104.52,-47.92 102.13,-47.21 102.13,-47.21 102.13,-47.21 104.52,-47.92 102.77,-45.05 106.92,-48.64 106.92,-48.64"/>
<text text-anchor="start" x="80" y="-49.3" font-family="Courier,monospace" font-size="9.00">ε</text>
</g>
<!-- 4&#45;&gt;3 -->
<g id="edge7" class="edge">
<title>4-&gt;3</title>
<path fill="none" stroke="black" d="M59,-23.38C64.01,-19.62 70.46,-15.54 77,-13.5 84.83,-11.06 93.96,-10.68 101.47,-10.97"/>
<polygon fill="black" stroke="black" points="106.84,-11.3 101.72,-13.24 104.35,-11.14 101.85,-10.99 101.85,-10.99 101.85,-10.99 104.35,-11.14 101.99,-8.75 106.84,-11.3 106.84,-11.3"/>
<text text-anchor="start" x="80" y="-19.3" font-family="Courier,monospace" font-size="9.00">ε</text>
</g>
</g>
</svg>