<svg xmlns="http://www.w3.org/2000/svg" xmlns:xlink="http://www.w3.org/1999/xlink" width="600pt" height="25pt" viewBox="0.00 0.00 600.00 25.00">
<g id="graph0" class="graph" transform="scale(1 1) rotate(0) translate(4 21)">
<title>%3</title>
<polygon fill="white" stroke="transparent" points="-4,4 -4,-21 596,-21 596,4 -4,4"/>
<!-- _START -->
<g id="node1" class="node">
<title>_START</title>
</g>
<!-- 1 -->
<g id="node3" class="node">
<title>1</title>
<path fill="none" stroke="black" d="M100.33,-17C100.33,-17 42.67,-17 42.67,-17 39.83,-17 37,-14.17 37,-11.33 37,-11.33 37,-5.67 37,-5.67 37,-2.83 39.83,0 42.67,0 42.67,0 100.33,0 100.33,0 103.17,0 106,-2.83 106,-5.67 106,-5.67 106,-11.33 106,-11.33 106,-14.17 103.17,-17 100.33,-17"/>
<text text-anchor="start" x="41" y="-6" font-family="Courier,monospace" font-size="10.00">q1,[0] 0 0</text>
</g>
<!-- _START&#45;&gt;1 -->
<g id="edge1" class="edge">
<title>_START-&gt;1</title>
<path fill="none" stroke="black" d="M1.05,-8.5C2,-8.5 16.33,-8.5 31.72,-8.5"/>
<polygon fill="black" stroke="black" points="36.97,-8.5 31.97,-10.75 34.47,-8.5 31.97,-8.5 31.97,-8.5 31.97,-8.5 34.47,-8.5 31.97,-6.25 36.97,-8.5 36.97,-8.5"/>
</g>
<!-- 0 -->
<g id="node2" class="node">
<title>0</title>
<path fill="none" stroke="black" d="M586.33,-17C586.33,-17 474.67,-17 474.67,-17 471.83,-17 469,-14.17 469,-11.33 469,-11.33 469,-5.67 469,-5.67 469,-2.83 471.83,0 474.67,0 474.67,0 586.33,0 586.33,0 589.17,0 592,-2.83 592,-5.67 592,-5.67 592,-11.33 592,-11.33 592,-14.17 589.17,-17 586.33,-17"/>
<text text-anchor="start" x="473" y="-6" font-family="Courier,monospace" font-size="10.00">qreject,␣ x 0 ␣ [␣]</text>
</g>
<!-- 2 -->
<g id="node4" class="node">
<title>2</title>
<path fill="none" stroke="black" d="M205.33,-17C205.33,-17 147.67,-17 147.67,-17 144.83,-17 142,-14.17 142,-11.33 142,-11.33 142,-5.67 142,-5.67 142,-2.83 144.83,0 147.67,0 147.67,0 205.33,0 205.33,0 208.17,0 211,-2.83 211,-5.67 211,-5.67 211,-11.33 211,-11.33 211,-14.17 208.17,-17 205.33,-17"/>
<text text-anchor="start" x="146" y="-6" font-family="Courier,monospace" font-size="10.00">q2,␣ [0] 0</text>
</g>
<!-- 1&#45;&gt;2 -->
<g id="edge2" class="edge">
<title>1-&gt;2</title>
<path fill="none" stroke="black" d="M106.23,-8.5C115.92,-8.5 126.57,-8.5 136.55,-8.5"/>
<polygon fill="black" stroke="black" points="141.7,-8.5 136.7,-10.75 139.2,-8.5 136.7,-8.5 136.7,-8.5 136.7,-8.5 139.2,-8.5 136.7,-6.25 141.7,-8.5 141.7,-8.5"/>
</g>
<!-- 3 -->
<g id="node5" class="node">
<title>3</title>
<path fill="none" stroke="black" d="M310.33,-17C310.33,-17 252.67,-17 252.67,-17 249.83,-17 247,-14.17 247,-11.33 247,-11.33 247,-5.67 247,-5.67 247,-2.83 249.83,0 252.67,0 252.67,0 310.33,0 310.33,0 313.17,0 316,-2.83 316,-5.67 316,-5.67 316,-11.33 316,-11.33 316,-14.17 313.17,-17 310.33,-17"/>
<text text-anchor="start" x="251" y="-6" font-family="Courier,monospace" font-size="10.00">q3,␣ x [0]</text>
</g>
<!-- 2&#45;&gt;3 -->
<g id="edge3" class="edge">
<title>2-&gt;3</title>
<path fill="none" stroke="black" d="M211.23,-8.5C220.92,-8.5 231.57,-8.5 241.55,-8.5"/>
<polygon fill="black" stroke="black" points="246.7,-8.5 241.7,-10.75 244.2,-8.5 241.7,-8.5 241.7,-8.5 241.7,-8.5 244.2,-8.5 241.7,-6.25 246.7,-8.5 246.7,-8.5"/>
</g>
<!-- 4 -->
<g id="node6" class="node">
<title>4</title>
<path fill="none" stroke="black" d="M427.33,-17C427.33,-17 357.67,-17 357.67,-17 354.83,-17 352,-14.17 352,-11.33 352,-11.33 352,-5.67 352,-5.67 352,-2.83 354.83,0 357.67,0 357.67,0 427.33,0 427.33,0 430.17,0 433,-2.83 433,-5.67 433,-5.67 433,-11.33 433,-11.33 433,-14.17 430.17,-17 427.33,-17"/>
<text text-anchor="start" x="356" y="-6" font-family="Courier,monospace" font-size="10.00">q4,␣ x 0 [␣]</text>
</g>
<!-- 3&#45;&gt;4 -->
<g id="edge4" class="edge">
<title>3-&gt;4</title>
<path fill="none" stroke="black" d="M316.09,-8.5C325.68,-8.5 336.29,-8.5 346.44,-8.5"/>
<polygon fill="black" stroke="black" points="351.7,-8.5 346.7,-10.75 349.2,-8.5 346.7,-8.5 346.7,-8.5 346.7,-8.5 349.2,-8.5 346.7,-6.25 351.7,-8.5 351.7,-8.5"/>
</g>
<!-- 4&#45;&gt;0 -->
<g id="edge5" class="edge">
<title>4-&gt;0</title>
<path fill="none" stroke="black" d="M433.2,-8.5C442.77,-8.5 453.25,-8.5 463.66,-8.5"/>
<polygon fill="black" stroke="black" points="468.76,-8.5 463.76,-10.75 466.26,-8.5 463.76,-8.5 463.76,-8.5 463.76,-8.5 466.26,-8.5 463.76,-6.25 468.76,-8.5 468.76,-8.5"/>
</g>
</g>
</svg>