<svg xmlns="http://www.w3.org/2000/svg" xmlns:xlink="http://www.w3.org/1999/xlink" width="607pt" height="172pt" viewBox="0.00 0.00 607.00 171.50">
<g id="graph0" class="graph" transform="scale(1 1) rotate(0) translate(4 167.5)">
<title>%3</title>
<polygon fill="white" stroke="transparent" points="-4,4 -4,-167.5 603,-167.5 603,4 -4,4"/>
<!-- _START -->
<g id="node1" class="node">
<title>_START</title>
</g>
<!-- 18 -->
<g id="node20" class="node">
<title>18</title>
<path fill="none" stroke="black" d="M62.33,-70C62.33,-70 52.67,-70 52.67,-70 49.83,-70 47,-67.17 47,-64.33 47,-64.33 47,-58.67 47,-58.67 47,-55.83 49.83,-53 52.67,-53 52.67,-53 62.33,-53 62.33,-53 65.17,-53 68,-55.83 68,-58.67 68,-58.67 68,-64.33 68,-64.33 68,-67.17 65.17,-70 62.33,-70"/>
<text text-anchor="start" x="51" y="-59" font-family="Courier,monospace" font-size="10.00">q1</text>
</g>
<!-- _START&#45;&gt;18 -->
<g id="edge1" class="edge">
<title>_START-&gt;18</title>
<path fill="none" stroke="black" d="M1.16,-61.5C3.27,-61.5 25.82,-61.5 41.47,-61.5"/>
<polygon fill="black" stroke="black" points="46.88,-61.5 41.88,-63.75 44.38,-61.5 41.88,-61.5 41.88,-61.5 41.88,-61.5 44.38,-61.5 41.88,-59.25 46.88,-61.5 46.88,-61.5"/>
</g>
<!-- 0 -->
<g id="node2" class="node">
<title>0</title>
<path fill="none" stroke="black" d="M236.33,-68C236.33,-68 226.67,-68 226.67,-68 223.83,-68 221,-65.17 221,-62.33 221,-62.33 221,-56.67 221,-56.67 221,-53.83 223.83,-51 226.67,-51 226.67,-51 236.33,-51 236.33,-51 239.17,-51 242,-53.83 242,-56.67 242,-56.67 242,-62.33 242,-62.33 242,-65.17 239.17,-68 236.33,-68"/>
<text text-anchor="start" x="225" y="-57" font-family="Courier,monospace" font-size="10.00">q3</text>
</g>
<!-- 1 -->
<g id="node3" class="node">
<title>1</title>
<path fill="none" stroke="black" d="M584.33,-105C584.33,-105 574.67,-105 574.67,-105 571.83,-105 569,-102.17 569,-99.33 569,-99.33 569,-93.67 569,-93.67 569,-90.83 571.83,-88 574.67,-88 574.67,-88 584.33,-88 584.33,-88 587.17,-88 590,-90.83 590,-93.67 590,-93.67 590,-99.33 590,-99.33 590,-102.17 587.17,-105 584.33,-105"/>
<text text-anchor="start" x="573" y="-94" font-family="Courier,monospace" font-size="10.00">q3</text>
</g>
<!-- 2 -->
<g id="node4" class="node">
<title>2</title>
<path fill="none" stroke="black" d="M497.33,-105C497.33,-105 487.67,-105 487.67,-105 484.83,-105 482,-102.17 482,-99.33 482,-99.33 482,-93.67 482,-93.67 482,-90.83 484.83,-88 487.67,-88 487.67,-88 497.33,-88 497.33,-88 500.17,-88 503,-90.83 503,-93.67 503,-93.67 503,-99.33 503,-99.33 503,-102.17 500.17,-105 497.33,-105"/>
<text text-anchor="start" x="486" y="-94" font-family="Courier,monospace" font-size="10.00">q2</text>
</g>
<!-- 2&#45;&gt;1 -->
<g id="edge12" class="edge">
<title>2-&gt;1</title>
<path fill="none" stroke="black" d="M503.25,-96.5C517.98,-96.5 546.03,-96.5 563.41,-96.5"/>
<polygon fill="black" stroke="black" points="568.86,-96.5 563.86,-98.75 566.36,-96.5 563.86,-96.5 563.86,-96.5 563.86,-96.5 566.36,-96.5 563.86,-94.25 568.86,-96.5 568.86,-96.5"/>
</g>
<!-- 19 -->
<g id="node21" class="node">
<title>19</title>
<path fill="none" stroke="black" d="M497.33,-52C497.33,-52 487.67,-52 487.67,-52 484.83,-52 482,-49.17 482,-46.33 482,-46.33 482,-40.67 482,-40.67 482,-37.83 484.83,-35 487.67,-35 487.67,-35 497.33,-35 497.33,-35 500.17,-35 503,-37.83 503,-40.67 503,-40.67 503,-46.33 503,-46.33 503,-49.17 500.17,-52 497.33,-52"/>
<text text-anchor="start" x="486" y="-41" font-family="Courier,monospace" font-size="10.00">q3</text>
</g>
<!-- 2&#45;&gt;19 -->
<g id="edge13" class="edge">
<title>2-&gt;19</title>
<path fill="none" stroke="black" d="M492.5,-87.85C492.5,-77.63 492.5,-67.42 492.5,-57.21"/>
<polygon fill="black" stroke="black" points="492.5,-52.2 494.75,-57.2 492.5,-54.7 492.5,-57.2 492.5,-57.2 492.5,-57.2 492.5,-54.7 490.25,-57.2 492.5,-52.2 492.5,-52.2"/>
</g>
<!-- 3 -->
<g id="node5" class="node">
<title>3</title>
<path fill="none" stroke="black" d="M584.33,-17C584.33,-17 574.67,-17 574.67,-17 571.83,-17 569,-14.17 569,-11.33 569,-11.33 569,-5.67 569,-5.67 569,-2.83 571.83,0 574.67,0 574.67,0 584.33,0 584.33,0 587.17,0 590,-2.83 590,-5.67 590,-5.67 590,-11.33 590,-11.33 590,-14.17 587.17,-17 584.33,-17"/>
<text text-anchor="start" x="573" y="-6" font-family="Courier,monospace" font-size="10.00">q1</text>
</g>
<!-- 4 -->
<g id="node6" class="node">
<title>4</title>
<path fill="none" stroke="black" d="M497.33,-17C497.33,-17 487.67,-17 487.67,-17 484.83,-17 482,-14.17 482,-11.33 482,-11.33 482,-5.67 482,-5.67 482,-2.83 484.83,0 487.67,0 487.67,0 497.33,0 497.33,0 500.17,0 503,-2.83 503,-5.67 503,-5.67 503,-11.33 503,-11.33 503,-14.17 500.17,-17 497.33,-17"/>
<text text-anchor="start" x="486" y="-6" font-family="Courier,monospace" font-size="10.00">q1</text>
</g>
<!-- 4&#45;&gt;3 -->
<g id="edge11" class="edge">
<title>4-&gt;3</title>
<path fill="none" stroke="black" d="M503.25,-8.5C517.98,-8.5 546.03,-8.5 563.41,-8.5"/>
<polygon fill="black" stroke="black" points="568.86,-8.5 563.86,-10.75 566.36,-8.5 563.86,-8.5 563.86,-8.5 563.86,-8.5 566.36,-8.5 563.86,-6.25 568.86,-8.5 568.86,-8.5"/>
</g>
<!-- 5 -->
<g id="node7" class="node">
<title>5</title>
<path fill="none" stroke="black" d="M410.33,-33C410.33,-33 400.67,-33 400.67,-33 397.83,-33 395,-30.17 395,-27.33 395,-27.33 395,-21.67 395,-21.67 395,-18.83 397.83,-16 400.67,-16 400.67,-16 410.33,-16 410.33,-16 413.17,-16 416,-18.83 416,-21.67 416,-21.67 416,-27.33 416,-27.33 416,-30.17 413.17,-33 410.33,-33"/>
<text text-anchor="start" x="399" y="-22" font-family="Courier,monospace" font-size="10.00">q1</text>
</g>
<!-- 5&#45;&gt;2 -->
<g id="edge10" class="edge">
<title>5-&gt;2</title>
<path fill="none" stroke="black" d="M416.25,-32.76C431.37,-45.56 460.5,-70.24 477.75,-84.85"/>
<polygon fill="black" stroke="black" points="481.86,-88.34 476.59,-86.82 479.96,-86.72 478.05,-85.11 478.05,-85.11 478.05,-85.11 479.96,-86.72 479.5,-83.39 481.86,-88.34 481.86,-88.34"/>
</g>
<!-- 5&#45;&gt;4 -->
<g id="edge9" class="edge">
<title>5-&gt;4</title>
<path fill="none" stroke="black" d="M416.25,-22.66C431.11,-19.87 459.52,-14.52 476.86,-11.26"/>
<polygon fill="black" stroke="black" points="481.86,-10.31 477.37,-13.45 479.41,-10.78 476.95,-11.24 476.95,-11.24 476.95,-11.24 479.41,-10.78 476.53,-9.03 481.86,-10.31 481.86,-10.31"/>
</g>
<!-- 6 -->
<g id="node8" class="node">
<title>6</title>
</g>
<!-- 10 -->
<g id="node12" class="node">
<title>10</title>
</g>
<!-- 6&#45;&gt;10 -->
<g id="edge15" class="edge">
<title>6-&gt;10</title>
<path fill="none" stroke="white" d="M164.36,-147.5C176.89,-147.5 193.42,-147.5 206.83,-147.5"/>
<polygon fill="white" stroke="white" points="211.98,-147.5 206.98,-149.75 209.48,-147.5 206.98,-147.5 206.98,-147.5 206.98,-147.5 209.48,-147.5 206.98,-145.25 211.98,-147.5 211.98,-147.5"/>
<text text-anchor="start" x="185" y="-153.3" font-family="Courier,monospace" font-size="9.00">1</text>
</g>
<!-- 7 -->
<g id="node9" class="node">
<title>7</title>
</g>
<!-- 7&#45;&gt;6 -->
<g id="edge14" class="edge">
<title>7-&gt;6</title>
<path fill="none" stroke="white" d="M77.36,-147.5C89.89,-147.5 106.42,-147.5 119.83,-147.5"/>
<polygon fill="white" stroke="white" points="124.98,-147.5 119.98,-149.75 122.48,-147.5 119.98,-147.5 119.98,-147.5 119.98,-147.5 122.48,-147.5 119.98,-145.25 124.98,-147.5 124.98,-147.5"/>
<text text-anchor="start" x="98" y="-153.3" font-family="Courier,monospace" font-size="9.00">0</text>
</g>
<!-- 8 -->
<g id="node10" class="node">
<title>8</title>
</g>
<!-- 11 -->
<g id="node13" class="node">
<title>11</title>
</g>
<!-- 8&#45;&gt;11 -->
<g id="edge18" class="edge">
<title>8-&gt;11</title>
<path fill="none" stroke="white" d="M425.36,-147.5C437.89,-147.5 454.42,-147.5 467.83,-147.5"/>
<polygon fill="white" stroke="white" points="472.98,-147.5 467.98,-149.75 470.48,-147.5 467.98,-147.5 467.98,-147.5 467.98,-147.5 470.48,-147.5 467.98,-145.25 472.98,-147.5 472.98,-147.5"/>
<text text-anchor="start" x="446" y="-153.3" font-family="Courier,monospace" font-size="9.00">1</text>
</g>
<!-- 9 -->
<g id="node11" class="node">
<title>9</title>
</g>
<!-- 9&#45;&gt;8 -->
<g id="edge17" class="edge">
<title>9-&gt;8</title>
<path fill="none" stroke="white" d="M338.36,-147.5C350.89,-147.5 367.42,-147.5 380.83,-147.5"/>
<polygon fill="white" stroke="white" points="385.98,-147.5 380.98,-149.75 383.48,-147.5 380.98,-147.5 380.98,-147.5 380.98,-147.5 383.48,-147.5 380.98,-145.25 385.98,-147.5 385.98,-147.5"/>
<text text-anchor="start" x="359" y="-153.3" font-family="Courier,monospace" font-size="9.00">0</text>
</g>
<!-- 10&#45;&gt;9 -->
<g id="edge16" class="edge">
<title>10-&gt;9</title>
<path fill="none" stroke="white" d="M251.36,-147.5C263.89,-147.5 280.42,-147.5 293.83,-147.5"/>
<polygon fill="white" stroke="white" points="298.98,-147.5 293.98,-149.75 296.48,-147.5 293.98,-147.5 293.98,-147.5 293.98,-147.5 296.48,-147.5 293.98,-145.25 298.98,-147.5 298.98,-147.5"/>
<text text-anchor="start" x="272" y="-153.3" font-family="Courier,monospace" font-size="9.00">0</text>
</g>
<!-- 12 -->
<g id="node14" class="node">
<title>12</title>
</g>
<!-- 11&#45;&gt;12 -->
<g id="edge19" class="edge">
<title>11-&gt;12</title>
<path fill="none" stroke="white" d="M512.36,-147.5C524.89,-147.5 541.42,-147.5 554.83,-147.5"/>
<polygon fill="white" stroke="white" points="559.98,-147.5 554.98,-149.75 557.48,-147.5 554.98,-147.5 554.98,-147.5 554.98,-147.5 557.48,-147.5 554.98,-145.25 559.98,-147.5 559.98,-147.5"/>
<text text-anchor="start" x="533" y="-153.3" font-family="Courier,monospace" font-size="9.00">0</text>
</g>
<!-- 13 -->
<g id="node15" class="node">
<title>13</title>
<path fill="none" stroke="black" d="M323.33,-33C323.33,-33 313.67,-33 313.67,-33 310.83,-33 308,-30.17 308,-27.33 308,-27.33 308,-21.67 308,-21.67 308,-18.83 310.83,-16 313.67,-16 313.67,-16 323.33,-16 323.33,-16 326.17,-16 329,-18.83 329,-21.67 329,-21.67 329,-27.33 329,-27.33 329,-30.17 326.17,-33 323.33,-33"/>
<text text-anchor="start" x="312" y="-22" font-family="Courier,monospace" font-size="10.00">q1</text>
</g>
<!-- 13&#45;&gt;5 -->
<g id="edge8" class="edge">
<title>13-&gt;5</title>
<path fill="none" stroke="black" d="M329.25,-24.5C343.98,-24.5 372.03,-24.5 389.41,-24.5"/>
<polygon fill="black" stroke="black" points="394.86,-24.5 389.86,-26.75 392.36,-24.5 389.86,-24.5 389.86,-24.5 389.86,-24.5 392.36,-24.5 389.86,-22.25 394.86,-24.5 394.86,-24.5"/>
</g>
<!-- 14 -->
<g id="node16" class="node">
<title>14</title>
<path fill="none" stroke="black" d="M149.33,-70C149.33,-70 139.67,-70 139.67,-70 136.83,-70 134,-67.17 134,-64.33 134,-64.33 134,-58.67 134,-58.67 134,-55.83 136.83,-53 139.67,-53 139.67,-53 149.33,-53 149.33,-53 152.17,-53 155,-55.83 155,-58.67 155,-58.67 155,-64.33 155,-64.33 155,-67.17 152.17,-70 149.33,-70"/>
<text text-anchor="start" x="138" y="-59" font-family="Courier,monospace" font-size="10.00">q1</text>
</g>
<!-- 16 -->
<g id="node18" class="node">
<title>16</title>
<path fill="none" stroke="black" d="M236.33,-121C236.33,-121 226.67,-121 226.67,-121 223.83,-121 221,-118.17 221,-115.33 221,-115.33 221,-109.67 221,-109.67 221,-106.83 223.83,-104 226.67,-104 226.67,-104 236.33,-104 236.33,-104 239.17,-104 242,-106.83 242,-109.67 242,-109.67 242,-115.33 242,-115.33 242,-118.17 239.17,-121 236.33,-121"/>
<text text-anchor="start" x="225" y="-110" font-family="Courier,monospace" font-size="10.00">q2</text>
</g>
<!-- 14&#45;&gt;16 -->
<g id="edge4" class="edge">
<title>14-&gt;16</title>
<path fill="none" stroke="black" d="M155.25,-67.35C170.24,-76.34 199.01,-93.61 216.31,-103.99"/>
<polygon fill="black" stroke="black" points="220.86,-106.72 215.42,-106.07 218.72,-105.43 216.58,-104.15 216.58,-104.15 216.58,-104.15 218.72,-105.43 217.73,-102.22 220.86,-106.72 220.86,-106.72"/>
</g>
<!-- 17 -->
<g id="node19" class="node">
<title>17</title>
<path fill="none" stroke="black" d="M236.33,-33C236.33,-33 226.67,-33 226.67,-33 223.83,-33 221,-30.17 221,-27.33 221,-27.33 221,-21.67 221,-21.67 221,-18.83 223.83,-16 226.67,-16 226.67,-16 236.33,-16 236.33,-16 239.17,-16 242,-18.83 242,-21.67 242,-21.67 242,-27.33 242,-27.33 242,-30.17 239.17,-33 236.33,-33"/>
<text text-anchor="start" x="225" y="-22" font-family="Courier,monospace" font-size="10.00">q1</text>
</g>
<!-- 14&#45;&gt;17 -->
<g id="edge3" class="edge">
<title>14-&gt;17</title>
<path fill="none" stroke="black" d="M155.25,-57.26C170.11,-50.79 198.52,-38.42 215.86,-30.87"/>
<polygon fill="black" stroke="black" points="220.86,-28.69 217.18,-32.75 218.57,-29.69 216.28,-30.69 216.28,-30.69 216.28,-30.69 218.57,-29.69 215.38,-28.63 220.86,-28.69 220.86,-28.69"/>
</g>
<!-- 15 -->
<g id="node17" class="node">
<title>15</title>
<path fill="none" stroke="black" d="M323.33,-121C323.33,-121 313.67,-121 313.67,-121 310.83,-121 308,-118.17 308,-115.33 308,-115.33 308,-109.67 308,-109.67 308,-106.83 310.83,-104 313.67,-104 313.67,-104 323.33,-104 323.33,-104 326.17,-104 329,-106.83 329,-109.67 329,-109.67 329,-115.33 329,-115.33 329,-118.17 326.17,-121 323.33,-121"/>
<text text-anchor="start" x="312" y="-110" font-family="Courier,monospace" font-size="10.00">q3</text>
</g>
<!-- 16&#45;&gt;0 -->
<g id="edge7" class="edge">
<title>16-&gt;0</title>
<path fill="none" stroke="black" d="M231.5,-103.85C231.5,-93.63 231.5,-83.42 231.5,-73.21"/>
<polygon fill="black" stroke="black" points="231.5,-68.2 233.75,-73.2 231.5,-70.7 231.5,-73.2 231.5,-73.2 231.5,-73.2 231.5,-70.7 229.25,-73.2 231.5,-68.2 231.5,-68.2"/>
</g>
<!-- 16&#45;&gt;15 -->
<g id="edge6" class="edge">
<title>16-&gt;15</title>
<path fill="none" stroke="black" d="M242.25,-112.5C256.98,-112.5 285.03,-112.5 302.41,-112.5"/>
<polygon fill="black" stroke="black" points="307.86,-112.5 302.86,-114.75 305.36,-112.5 302.86,-112.5 302.86,-112.5 302.86,-112.5 305.36,-112.5 302.86,-110.25 307.86,-112.5 307.86,-112.5"/>
</g>
<!-- 17&#45;&gt;13 -->
<g id="edge5" class="edge">
<title>17-&gt;13</title>
<path fill="none" stroke="black" d="M242.25,-24.5C256.98,-24.5 285.03,-24.5 302.41,-24.5"/>
<polygon fill="black" stroke="black" points="307.86,-24.5 302.86,-26.75 305.36,-24.5 302.86,-24.5 302.86,-24.5 302.86,-24.5 305.36,-24.5 302.86,-22.25 307.86,-24.5 307.86,-24.5"/>
</g>
<!-- 18&#45;&gt;14 -->
<g id="edge2" class="edge">
<title>18-&gt;14</title>
<path fill="none" stroke="black" d="M68.25,-61.5C82.98,-61.5 111.03,-61.5 128.41,-61.5"/>
<polygon fill="black" stroke="black" points="133.86,-61.5 128.86,-63.75 131.36,-61.5 128.86,-61.5 128.86,-61.5 128.86,-61.5 131.36,-61.5 128.86,-59.25 133.86,-61.5 133.86,-61.5"/>
</g>
</g>
</svg>