<svg xmlns="http://www.w3.org/2000/svg" xmlns:xlink="http://www.w3.org/1999/xlink" width="544pt" height="203pt" viewBox="0.00 0.00 544.00 202.50">
<g id="graph0" class="graph" transform="scale(1 1) rotate(0) translate(4 198.5)">
<title>%3</title>
<polygon fill="white" stroke="transparent" points="-4,4 -4,-198.5 540,-198.5 540,4 -4,4"/>
<!-- _START -->
<g id="node1" class="node">
<title>_START</title>
</g>
<!-- 5 -->
<g id="node7" class="node">
<title>5</title>
<path fill="none" stroke="black" d="M53.33,-24.5C53.33,-24.5 43.67,-24.5 43.67,-24.5 40.83,-24.5 38,-21.67 38,-18.83 38,-18.83 38,-13.17 38,-13.17 38,-10.33 40.83,-7.5 43.67,-7.5 43.67,-7.5 53.33,-7.5 53.33,-7.5 56.17,-7.5 59,-10.33 59,-13.17 59,-13.17 59,-18.83 59,-18.83 59,-21.67 56.17,-24.5 53.33,-24.5"/>
<text text-anchor="start" x="42" y="-13.5" font-family="Courier,monospace" font-size="10.00">q1</text>
</g>
<!-- _START&#45;&gt;5 -->
<g id="edge1" class="edge">
<title>_START-&gt;5</title>
<path fill="none" stroke="black" d="M1.13,-16C2.79,-16 19.6,-16 32.5,-16"/>
<polygon fill="black" stroke="black" points="37.74,-16 32.74,-18.25 35.24,-16 32.74,-16 32.74,-16 32.74,-16 35.24,-16 32.74,-13.75 37.74,-16 37.74,-16"/>
</g>
<!-- 0 -->
<g id="node2" class="node">
<title>0</title>
<path fill="none" stroke="black" d="M153.33,-97.5C153.33,-97.5 143.67,-97.5 143.67,-97.5 140.83,-97.5 138,-94.67 138,-91.83 138,-91.83 138,-86.17 138,-86.17 138,-83.33 140.83,-80.5 143.67,-80.5 143.67,-80.5 153.33,-80.5 153.33,-80.5 156.17,-80.5 159,-83.33 159,-86.17 159,-86.17 159,-91.83 159,-91.83 159,-94.67 156.17,-97.5 153.33,-97.5"/>
<text text-anchor="start" x="142" y="-86.5" font-family="Courier,monospace" font-size="10.00">q2</text>
</g>
<!-- 0&#45;&gt;0 -->
<g id="edge5" class="edge">
<title>0-&gt;0</title>
<path fill="none" stroke="black" d="M141.05,-97.69C136.93,-106.17 139.42,-115.5 148.5,-115.5 155.88,-115.5 158.9,-109.34 157.57,-102.48"/>
<polygon fill="black" stroke="black" points="155.95,-97.69 159.68,-101.7 156.75,-100.05 157.55,-102.42 157.55,-102.42 157.55,-102.42 156.75,-100.05 155.42,-103.14 155.95,-97.69 155.95,-97.69"/>
<text text-anchor="start" x="130.5" y="-121.3" font-family="Courier,monospace" font-size="9.00">x → x,R</text>
</g>
<!-- 2 -->
<g id="node4" class="node">
<title>2</title>
<path fill="none" stroke="black" d="M272.33,-160.5C272.33,-160.5 262.67,-160.5 262.67,-160.5 259.83,-160.5 257,-157.67 257,-154.83 257,-154.83 257,-149.17 257,-149.17 257,-146.33 259.83,-143.5 262.67,-143.5 262.67,-143.5 272.33,-143.5 272.33,-143.5 275.17,-143.5 278,-146.33 278,-149.17 278,-149.17 278,-154.83 278,-154.83 278,-157.67 275.17,-160.5 272.33,-160.5"/>
<text text-anchor="start" x="261" y="-149.5" font-family="Courier,monospace" font-size="10.00">q3</text>
</g>
<!-- 0&#45;&gt;2 -->
<g id="edge4" class="edge">
<title>0-&gt;2</title>
<path fill="none" stroke="black" d="M154.53,-97.74C159.37,-105.42 167.36,-116.38 177,-123 200.18,-138.93 232.67,-146.55 251.46,-149.83"/>
<polygon fill="black" stroke="black" points="256.82,-150.72 251.52,-152.12 254.35,-150.31 251.89,-149.9 251.89,-149.9 251.89,-149.9 254.35,-150.31 252.25,-147.68 256.82,-150.72 256.82,-150.72"/>
<text text-anchor="start" x="180.5" y="-147.8" font-family="Courier,monospace" font-size="9.00">0 → x,R</text>
</g>
<!-- 6 -->
<g id="node8" class="node">
<title>6</title>
<path fill="none" stroke="black" d="M287.33,-121.5C287.33,-121.5 247.67,-121.5 247.67,-121.5 244.83,-121.5 242,-118.67 242,-115.83 242,-115.83 242,-110.17 242,-110.17 242,-107.33 244.83,-104.5 247.67,-104.5 247.67,-104.5 287.33,-104.5 287.33,-104.5 290.17,-104.5 293,-107.33 293,-110.17 293,-110.17 293,-115.83 293,-115.83 293,-118.67 290.17,-121.5 287.33,-121.5"/>
<path fill="none" stroke="black" d="M288.67,-125.5C288.67,-125.5 246.33,-125.5 246.33,-125.5 242.17,-125.5 238,-121.33 238,-117.17 238,-117.17 238,-108.83 238,-108.83 238,-104.67 242.17,-100.5 246.33,-100.5 246.33,-100.5 288.67,-100.5 288.67,-100.5 292.83,-100.5 297,-104.67 297,-108.83 297,-108.83 297,-117.17 297,-117.17 297,-121.33 292.83,-125.5 288.67,-125.5"/>
<text text-anchor="start" x="246" y="-110.5" font-family="Courier,monospace" font-size="10.00">qaccept</text>
</g>
<!-- 0&#45;&gt;6 -->
<g id="edge6" class="edge">
<title>0-&gt;6</title>
<path fill="none" stroke="black" d="M159.07,-90.96C175.04,-94.24 207.82,-100.96 233,-106.13"/>
<polygon fill="black" stroke="black" points="237.93,-107.14 232.58,-108.34 235.48,-106.64 233.03,-106.13 233.03,-106.13 233.03,-106.13 235.48,-106.64 233.48,-103.93 237.93,-107.14 237.93,-107.14"/>
<text text-anchor="start" x="180.5" y="-108.8" font-family="Courier,monospace" font-size="9.00">␣ → ␣,R</text>
</g>
<!-- 1 -->
<g id="node3" class="node">
<title>1</title>
<path fill="none" stroke="black" d="M530.33,-24.5C530.33,-24.5 490.67,-24.5 490.67,-24.5 487.83,-24.5 485,-21.67 485,-18.83 485,-18.83 485,-13.17 485,-13.17 485,-10.33 487.83,-7.5 490.67,-7.5 490.67,-7.5 530.33,-7.5 530.33,-7.5 533.17,-7.5 536,-10.33 536,-13.17 536,-13.17 536,-18.83 536,-18.83 536,-21.67 533.17,-24.5 530.33,-24.5"/>
<text text-anchor="start" x="489" y="-13.5" font-family="Courier,monospace" font-size="10.00">qreject</text>
</g>
<!-- 2&#45;&gt;2 -->
<g id="edge8" class="edge">
<title>2-&gt;2</title>
<path fill="none" stroke="black" d="M257.37,-160.69C251.77,-169.17 255.15,-178.5 267.5,-178.5 277.54,-178.5 281.65,-172.34 279.83,-165.48"/>
<polygon fill="black" stroke="black" points="277.63,-160.69 281.76,-164.29 278.68,-162.96 279.72,-165.23 279.72,-165.23 279.72,-165.23 278.68,-162.96 277.67,-166.17 277.63,-160.69 277.63,-160.69"/>
<text text-anchor="start" x="249.5" y="-184.3" font-family="Courier,monospace" font-size="9.00">x → x,R</text>
</g>
<!-- 3 -->
<g id="node5" class="node">
<title>3</title>
<path fill="none" stroke="black" d="M395.83,-157.5C395.83,-157.5 386.17,-157.5 386.17,-157.5 383.33,-157.5 380.5,-154.67 380.5,-151.83 380.5,-151.83 380.5,-146.17 380.5,-146.17 380.5,-143.33 383.33,-140.5 386.17,-140.5 386.17,-140.5 395.83,-140.5 395.83,-140.5 398.67,-140.5 401.5,-143.33 401.5,-146.17 401.5,-146.17 401.5,-151.83 401.5,-151.83 401.5,-154.67 398.67,-157.5 395.83,-157.5"/>
<text text-anchor="start" x="384.5" y="-146.5" font-family="Courier,monospace" font-size="10.00">q4</text>
</g>
<!-- 2&#45;&gt;3 -->
<g id="edge7" class="edge">
<title>2-&gt;3</title>
<path fill="none" stroke="black" d="M278.26,-155.27C294.8,-160.36 329.35,-168.99 358,-163 364,-161.75 370.25,-159.3 375.62,-156.8"/>
<polygon fill="black" stroke="black" points="380.26,-154.52 376.77,-158.74 378.02,-155.62 375.78,-156.72 375.78,-156.72 375.78,-156.72 378.02,-155.62 374.78,-154.7 380.26,-154.52 380.26,-154.52"/>
<text text-anchor="start" x="318.5" y="-170.8" font-family="Courier,monospace" font-size="9.00">0 → 0,R</text>
</g>
<!-- 4 -->
<g id="node6" class="node">
<title>4</title>
<path fill="none" stroke="black" d="M395.83,-74.5C395.83,-74.5 386.17,-74.5 386.17,-74.5 383.33,-74.5 380.5,-71.67 380.5,-68.83 380.5,-68.83 380.5,-63.17 380.5,-63.17 380.5,-60.33 383.33,-57.5 386.17,-57.5 386.17,-57.5 395.83,-57.5 395.83,-57.5 398.67,-57.5 401.5,-60.33 401.5,-63.17 401.5,-63.17 401.5,-68.83 401.5,-68.83 401.5,-71.67 398.67,-74.5 395.83,-74.5"/>
<text text-anchor="start" x="384.5" y="-63.5" font-family="Courier,monospace" font-size="10.00">q5</text>
</g>
<!-- 2&#45;&gt;4 -->
<g id="edge9" class="edge">
<title>2-&gt;4</title>
<path fill="none" stroke="black" d="M278.18,-146.62C283.79,-143.41 290.91,-139.16 297,-135 305.37,-129.28 306.91,-127.11 315,-121 336.02,-105.12 360.7,-87.15 375.85,-76.2"/>
<polygon fill="black" stroke="black" points="380.23,-73.03 377.49,-77.78 378.2,-74.5 376.17,-75.96 376.17,-75.96 376.17,-75.96 378.2,-74.5 374.86,-74.14 380.23,-73.03 380.23,-73.03"/>
<text text-anchor="start" x="318.5" y="-126.8" font-family="Courier,monospace" font-size="9.00">␣ → ␣,L</text>
</g>
<!-- 3&#45;&gt;1 -->
<g id="edge12" class="edge">
<title>3-&gt;1</title>
<path fill="none" stroke="black" d="M399.71,-140.27C419.97,-117.34 474.76,-55.32 498.4,-28.57"/>
<polygon fill="black" stroke="black" points="501.91,-24.59 500.29,-29.82 500.26,-26.46 498.6,-28.33 498.6,-28.33 498.6,-28.33 500.26,-26.46 496.92,-26.84 501.91,-24.59 501.91,-24.59"/>
<text text-anchor="start" x="427.5" y="-114.8" font-family="Courier,monospace" font-size="9.00">␣ → ␣,R</text>
</g>
<!-- 3&#45;&gt;2 -->
<g id="edge10" class="edge">
<title>3-&gt;2</title>
<path fill="none" stroke="black" d="M380.26,-146.69C373.96,-145.31 365.54,-143.7 358,-143 338.97,-141.23 334.02,-141.18 315,-143 304.19,-144.04 292.16,-146.4 283.04,-148.44"/>
<polygon fill="black" stroke="black" points="278.04,-149.6 282.41,-146.28 280.48,-149.04 282.91,-148.47 282.91,-148.47 282.91,-148.47 280.48,-149.04 283.42,-150.67 278.04,-149.6 278.04,-149.6"/>
<text text-anchor="start" x="318.5" y="-148.8" font-family="Courier,monospace" font-size="9.00">0 → x,R</text>
</g>
<!-- 3&#45;&gt;3 -->
<g id="edge11" class="edge">
<title>3-&gt;3</title>
<path fill="none" stroke="black" d="M382.95,-157.69C378.51,-166.17 381.19,-175.5 391,-175.5 398.97,-175.5 402.23,-169.34 400.79,-162.48"/>
<polygon fill="black" stroke="black" points="399.05,-157.69 402.87,-161.61 399.9,-160.03 400.76,-162.38 400.76,-162.38 400.76,-162.38 399.9,-160.03 398.64,-163.15 399.05,-157.69 399.05,-157.69"/>
<text text-anchor="start" x="373" y="-181.3" font-family="Courier,monospace" font-size="9.00">x → x,R</text>
</g>
<!-- 4&#45;&gt;0 -->
<g id="edge14" class="edge">
<title>4-&gt;0</title>
<path fill="none" stroke="black" d="M380.37,-66.37C356.32,-67.34 291.65,-70.3 238,-76 211.83,-78.78 181.52,-83.58 164.03,-86.5"/>
<polygon fill="black" stroke="black" points="159.03,-87.34 163.58,-84.29 161.49,-86.93 163.96,-86.51 163.96,-86.51 163.96,-86.51 161.49,-86.93 164.33,-88.73 159.03,-87.34 159.03,-87.34"/>
<text text-anchor="start" x="249.5" y="-81.8" font-family="Courier,monospace" font-size="9.00">␣ → ␣,R</text>
</g>
<!-- 4&#45;&gt;4 -->
<g id="edge13" class="edge">
<title>4-&gt;4</title>
<path fill="none" stroke="black" d="M382.95,-74.69C378.51,-83.17 381.19,-92.5 391,-92.5 398.97,-92.5 402.23,-86.34 400.79,-79.48"/>
<polygon fill="black" stroke="black" points="399.05,-74.69 402.87,-78.61 399.9,-77.03 400.76,-79.38 400.76,-79.38 400.76,-79.38 399.9,-77.03 398.64,-80.15 399.05,-74.69 399.05,-74.69"/>
<text text-anchor="start" x="373" y="-112.3" font-family="Courier,monospace" font-size="9.00">0 → 0,L</text>
<text text-anchor="start" x="373" y="-98.3" font-family="Courier,monospace" font-size="9.00">x → x,L</text>
</g>
<!-- 5&#45;&gt;0 -->
<g id="edge2" class="edge">
<title>5-&gt;0</title>
<path fill="none" stroke="black" d="M59.25,-23.27C76.79,-36.33 113.68,-63.81 133.77,-78.77"/>
<polygon fill="black" stroke="black" points="137.78,-81.76 132.43,-80.58 135.78,-80.27 133.77,-78.78 133.77,-78.78 133.77,-78.78 135.78,-80.27 135.12,-76.97 137.78,-81.76 137.78,-81.76"/>
<text text-anchor="start" x="80.5" y="-73.8" font-family="Courier,monospace" font-size="9.00">0 → ␣,R</text>
</g>
<!-- 5&#45;&gt;1 -->
<g id="edge3" class="edge">
<title>5-&gt;1</title>
<path fill="none" stroke="black" d="M59.15,-13.36C76.63,-8.81 114.75,0 147.5,0 147.5,0 147.5,0 392,0 422.05,0 456.03,-5.2 479.69,-9.67"/>
<polygon fill="black" stroke="black" points="484.88,-10.67 479.54,-11.94 482.42,-10.2 479.97,-9.73 479.97,-9.73 479.97,-9.73 482.42,-10.2 480.39,-7.52 484.88,-10.67 484.88,-10.67"/>
<text text-anchor="start" x="249.5" y="-19.8" font-family="Courier,monospace" font-size="9.00">x → x,R</text>
<text text-anchor="start" x="249.5" y="-5.8" font-family="Courier,monospace" font-size="9.00">␣ → ␣,R</text>
</g>
</g>
</svg>