<svg xmlns="http://www.w3.org/2000/svg" xmlns:xlink="http://www.w3.org/1999/xlink" width="476pt" height="183pt" viewBox="0.00 0.00 476.00 183.00">
<g id="graph0" class="graph" transform="scale(1 1) rotate(0) translate(4 179)">
<title>%3</title>
<polygon fill="white" stroke="transparent" points="-4,4 -4,-179 472,-179 472,4 -4,4"/>
<!-- _START -->
<g id="node1" class="node">
<title>_START</title>
</g>
<!-- 1 -->
<g id="node3" class="node">
<title>1</title>
<path fill="none" stroke="black" d="M71.33,-99C71.33,-99 43.67,-99 43.67,-99 40.83,-99 38,-96.17 38,-93.33 38,-93.33 38,-87.67 38,-87.67 38,-84.83 40.83,-82 43.67,-82 43.67,-82 71.33,-82 71.33,-82 74.17,-82 77,-84.83 77,-87.67 77,-87.67 77,-93.33 77,-93.33 77,-96.17 74.17,-99 71.33,-99"/>
<text text-anchor="start" x="42" y="-88" font-family="Courier,monospace" font-size="10.00">start</text>
</g>
<!-- _START&#45;&gt;1 -->
<g id="edge1" class="edge">
<title>_START-&gt;1</title>
<path fill="none" stroke="black" d="M1.16,-90.5C2.89,-90.5 18.46,-90.5 32.64,-90.5"/>
<polygon fill="black" stroke="black" points="37.78,-90.5 32.78,-92.75 35.28,-90.5 32.78,-90.5 32.78,-90.5 32.78,-90.5 35.28,-90.5 32.78,-88.25 37.78,-90.5 37.78,-90.5"/>
</g>
<!-- 0 -->
<g id="node2" class="node">
<title>0</title>
<path fill="none" stroke="black" d="M322.33,-62C322.33,-62 306.67,-62 306.67,-62 303.83,-62 301,-59.17 301,-56.33 301,-56.33 301,-50.67 301,-50.67 301,-47.83 303.83,-45 306.67,-45 306.67,-45 322.33,-45 322.33,-45 325.17,-45 328,-47.83 328,-50.67 328,-50.67 328,-56.33 328,-56.33 328,-59.17 325.17,-62 322.33,-62"/>
<text text-anchor="start" x="305" y="-51" font-family="Courier,monospace" font-size="10.00">1.2</text>
</g>
<!-- 4 -->
<g id="node6" class="node">
<title>4</title>
<path fill="none" stroke="black" d="M449.33,-62C449.33,-62 433.67,-62 433.67,-62 430.83,-62 428,-59.17 428,-56.33 428,-56.33 428,-50.67 428,-50.67 428,-47.83 430.83,-45 433.67,-45 433.67,-45 449.33,-45 449.33,-45 452.17,-45 455,-47.83 455,-50.67 455,-50.67 455,-56.33 455,-56.33 455,-59.17 452.17,-62 449.33,-62"/>
<text text-anchor="start" x="432" y="-51" font-family="Courier,monospace" font-size="10.00">1.1</text>
</g>
<!-- 0&#45;&gt;4 -->
<g id="edge7" class="edge">
<title>0-&gt;4</title>
<path fill="none" stroke="black" d="M328.41,-53.5C350.89,-53.5 397.25,-53.5 422.74,-53.5"/>
<polygon fill="black" stroke="black" points="427.85,-53.5 422.85,-55.75 425.35,-53.5 422.85,-53.5 422.85,-53.5 422.85,-53.5 425.35,-53.5 422.85,-51.25 427.85,-53.5 427.85,-53.5"/>
<text text-anchor="start" x="357.5" y="-59.3" font-family="Courier,monospace" font-size="9.00">ε,T → ε</text>
</g>
<!-- 2 -->
<g id="node4" class="node">
<title>2</title>
<path fill="none" stroke="black" d="M195.83,-99C195.83,-99 174.17,-99 174.17,-99 171.33,-99 168.5,-96.17 168.5,-93.33 168.5,-93.33 168.5,-87.67 168.5,-87.67 168.5,-84.83 171.33,-82 174.17,-82 174.17,-82 195.83,-82 195.83,-82 198.67,-82 201.5,-84.83 201.5,-87.67 201.5,-87.67 201.5,-93.33 201.5,-93.33 201.5,-96.17 198.67,-99 195.83,-99"/>
<text text-anchor="start" x="172.5" y="-88" font-family="Courier,monospace" font-size="10.00">loop</text>
</g>
<!-- 1&#45;&gt;2 -->
<g id="edge2" class="edge">
<title>1-&gt;2</title>
<path fill="none" stroke="black" d="M77.02,-90.5C99.96,-90.5 138.97,-90.5 163.01,-90.5"/>
<polygon fill="black" stroke="black" points="168.19,-90.5 163.19,-92.75 165.69,-90.5 163.19,-90.5 163.19,-90.5 163.19,-90.5 165.69,-90.5 163.19,-88.25 168.19,-90.5 168.19,-90.5"/>
<text text-anchor="start" x="98.5" y="-96.3" font-family="Courier,monospace" font-size="9.00">ε,ε → $</text>
</g>
<!-- 2&#45;&gt;0 -->
<g id="edge3" class="edge">
<title>2-&gt;0</title>
<path fill="none" stroke="black" d="M198.28,-81.84C207.21,-75.98 219.83,-68.59 232,-64.5 253.03,-57.43 278.57,-54.89 295.39,-53.99"/>
<polygon fill="black" stroke="black" points="300.74,-53.74 295.85,-56.22 298.24,-53.85 295.74,-53.97 295.74,-53.97 295.74,-53.97 298.24,-53.85 295.64,-51.72 300.74,-53.74 300.74,-53.74"/>
<text text-anchor="start" x="235.5" y="-70.3" font-family="Courier,monospace" font-size="9.00">ε,b → ε</text>
</g>
<!-- 2&#45;&gt;2 -->
<g id="edge4" class="edge">
<title>2-&gt;2</title>
<path fill="none" stroke="black" d="M174.87,-99.19C169.27,-107.67 172.65,-117 185,-117 195.04,-117 199.15,-110.84 197.33,-103.98"/>
<polygon fill="black" stroke="black" points="195.13,-99.19 199.26,-102.79 196.18,-101.46 197.22,-103.73 197.22,-103.73 197.22,-103.73 196.18,-101.46 195.17,-104.67 195.13,-99.19 195.13,-99.19"/>
<text text-anchor="start" x="167" y="-164.8" font-family="Courier,monospace" font-size="9.00">ε,b → S</text>
<text text-anchor="start" x="167" y="-150.8" font-family="Courier,monospace" font-size="9.00">ε,ε → T</text>
<text text-anchor="start" x="167" y="-136.8" font-family="Courier,monospace" font-size="9.00">a,ε → a</text>
<text text-anchor="start" x="167" y="-122.8" font-family="Courier,monospace" font-size="9.00">b,ε → b</text>
</g>
<!-- 5 -->
<g id="node7" class="node">
<title>5</title>
<path fill="none" stroke="black" d="M322.33,-111C322.33,-111 306.67,-111 306.67,-111 303.83,-111 301,-108.17 301,-105.33 301,-105.33 301,-99.67 301,-99.67 301,-96.83 303.83,-94 306.67,-94 306.67,-94 322.33,-94 322.33,-94 325.17,-94 328,-96.83 328,-99.67 328,-99.67 328,-105.33 328,-105.33 328,-108.17 325.17,-111 322.33,-111"/>
<text text-anchor="start" x="305" y="-100" font-family="Courier,monospace" font-size="10.00">3.1</text>
</g>
<!-- 2&#45;&gt;5 -->
<g id="edge5" class="edge">
<title>2-&gt;5</title>
<path fill="none" stroke="black" d="M201.79,-97.92C210.49,-101.59 221.61,-105.64 232,-107.5 253.69,-111.38 279.08,-108.71 295.69,-106"/>
<polygon fill="black" stroke="black" points="300.97,-105.1 296.42,-108.16 298.5,-105.52 296.04,-105.95 296.04,-105.95 296.04,-105.95 298.5,-105.52 295.66,-103.73 300.97,-105.1 300.97,-105.1"/>
<text text-anchor="start" x="235.5" y="-114.3" font-family="Courier,monospace" font-size="9.00">ε,a → ε</text>
</g>
<!-- 6 -->
<g id="node8" class="node">
<title>6</title>
<path fill="none" stroke="black" d="M322.33,-21C322.33,-21 306.67,-21 306.67,-21 303.83,-21 301,-18.17 301,-15.33 301,-15.33 301,-9.67 301,-9.67 301,-6.83 303.83,-4 306.67,-4 306.67,-4 322.33,-4 322.33,-4 325.17,-4 328,-6.83 328,-9.67 328,-9.67 328,-15.33 328,-15.33 328,-18.17 325.17,-21 322.33,-21"/>
<text text-anchor="start" x="305" y="-10" font-family="Courier,monospace" font-size="10.00">0.1</text>
</g>
<!-- 2&#45;&gt;6 -->
<g id="edge6" class="edge">
<title>2-&gt;6</title>
<path fill="none" stroke="black" d="M191.09,-81.84C198.56,-69.88 213.61,-48.44 232,-36.5 251.73,-23.69 278.51,-17.53 295.9,-14.7"/>
<polygon fill="black" stroke="black" points="300.98,-13.93 296.37,-16.9 298.51,-14.3 296.03,-14.68 296.03,-14.68 296.03,-14.68 298.51,-14.3 295.69,-12.45 300.98,-13.93 300.98,-13.93"/>
<text text-anchor="start" x="235.5" y="-42.3" font-family="Courier,monospace" font-size="9.00">ε,S → ε</text>
</g>
<!-- 3 -->
<g id="node5" class="node">
<title>3</title>
<path fill="none" stroke="black" d="M458.33,-21C458.33,-21 424.67,-21 424.67,-21 421.83,-21 419,-18.17 419,-15.33 419,-15.33 419,-9.67 419,-9.67 419,-6.83 421.83,-4 424.67,-4 424.67,-4 458.33,-4 458.33,-4 461.17,-4 464,-6.83 464,-9.67 464,-9.67 464,-15.33 464,-15.33 464,-18.17 461.17,-21 458.33,-21"/>
<path fill="none" stroke="black" d="M459.67,-25C459.67,-25 423.33,-25 423.33,-25 419.17,-25 415,-20.83 415,-16.67 415,-16.67 415,-8.33 415,-8.33 415,-4.17 419.17,0 423.33,0 423.33,0 459.67,0 459.67,0 463.83,0 468,-4.17 468,-8.33 468,-8.33 468,-16.67 468,-16.67 468,-20.83 463.83,-25 459.67,-25"/>
<text text-anchor="start" x="423" y="-10" font-family="Courier,monospace" font-size="10.00">accept</text>
</g>
<!-- 4&#45;&gt;2 -->
<g id="edge8" class="edge">
<title>4-&gt;2</title>
<path fill="none" stroke="black" d="M430.35,-62.23C412.57,-76.98 374.06,-106.6 336,-120.5 292.46,-136.41 275.62,-144.19 232,-128.5 217.84,-123.41 204.94,-111.86 196.43,-102.82"/>
<polygon fill="black" stroke="black" points="193.06,-99.13 198.09,-101.31 194.74,-100.98 196.43,-102.82 196.43,-102.82 196.43,-102.82 194.74,-100.98 194.77,-104.34 193.06,-99.13 193.06,-99.13"/>
<text text-anchor="start" x="296.5" y="-140.3" font-family="Courier,monospace" font-size="9.00">ε,a → S</text>
</g>
<!-- 5&#45;&gt;2 -->
<g id="edge9" class="edge">
<title>5-&gt;2</title>
<path fill="none" stroke="black" d="M300.67,-96.12C293.35,-92.83 283.88,-89.17 275,-87.5 252,-83.18 225.09,-85.02 206.93,-87.24"/>
<polygon fill="black" stroke="black" points="201.59,-87.94 206.26,-85.06 204.07,-87.61 206.55,-87.29 206.55,-87.29 206.55,-87.29 204.07,-87.61 206.84,-89.52 201.59,-87.94 201.59,-87.94"/>
<text text-anchor="start" x="235.5" y="-93.3" font-family="Courier,monospace" font-size="9.00">ε,T → T</text>
</g>
<!-- 6&#45;&gt;3 -->
<g id="edge10" class="edge">
<title>6-&gt;3</title>
<path fill="none" stroke="black" d="M328.41,-12.5C347.47,-12.5 383.72,-12.5 409.84,-12.5"/>
<polygon fill="black" stroke="black" points="414.92,-12.5 409.92,-14.75 412.42,-12.5 409.92,-12.5 409.92,-12.5 409.92,-12.5 412.42,-12.5 409.92,-10.25 414.92,-12.5 414.92,-12.5"/>
<text text-anchor="start" x="357.5" y="-18.3" font-family="Courier,monospace" font-size="9.00">ε,$ → ε</text>
</g>
</g>
</svg>