<svg xmlns="http://www.w3.org/2000/svg" xmlns:xlink="http://www.w3.org/1999/xlink" width="531pt" height="196pt" viewBox="0.00 0.00 531.00 196.00">
<g id="graph0" class="graph" transform="scale(1 1) rotate(0) translate(4 192)">
<title>%3</title>
<polygon fill="white" stroke="transparent" points="-4,4 -4,-192 527,-192 527,4 -4,4"/>
<!-- _START -->
<g id="node1" class="node">
<title>_START</title>
</g>
<!-- 0 -->
<g id="node2" class="node">
<title>0</title>
<path fill="none" stroke="black" d="M71.33,-98.5C71.33,-98.5 43.67,-98.5 43.67,-98.5 40.83,-98.5 38,-95.67 38,-92.83 38,-92.83 38,-87.17 38,-87.17 38,-84.33 40.83,-81.5 43.67,-81.5 43.67,-81.5 71.33,-81.5 71.33,-81.5 74.17,-81.5 77,-84.33 77,-87.17 77,-87.17 77,-92.83 77,-92.83 77,-95.67 74.17,-98.5 71.33,-98.5"/>
<text text-anchor="start" x="42" y="-87.5" font-family="Courier,monospace" font-size="10.00">start</text>
</g>
<!-- _START&#45;&gt;0 -->
<g id="edge1" class="edge">
<title>_START-&gt;0</title>
<path fill="none" stroke="black" d="M1.16,-90C2.89,-90 18.46,-90 32.64,-90"/>
<polygon fill="black" stroke="black" points="37.78,-90 32.78,-92.25 35.28,-90 32.78,-90 32.78,-90 32.78,-90 35.28,-90 32.78,-87.75 37.78,-90 37.78,-90"/>
</g>
<!-- 1 -->
<g id="node3" class="node">
<title>1</title>
<path fill="none" stroke="black" d="M513.33,-133.5C513.33,-133.5 479.67,-133.5 479.67,-133.5 476.83,-133.5 474,-130.67 474,-127.83 474,-127.83 474,-122.17 474,-122.17 474,-119.33 476.83,-116.5 479.67,-116.5 479.67,-116.5 513.33,-116.5 513.33,-116.5 516.17,-116.5 519,-119.33 519,-122.17 519,-122.17 519,-127.83 519,-127.83 519,-130.67 516.17,-133.5 513.33,-133.5"/>
<path fill="none" stroke="black" d="M514.67,-137.5C514.67,-137.5 478.33,-137.5 478.33,-137.5 474.17,-137.5 470,-133.33 470,-129.17 470,-129.17 470,-120.83 470,-120.83 470,-116.67 474.17,-112.5 478.33,-112.5 478.33,-112.5 514.67,-112.5 514.67,-112.5 518.83,-112.5 523,-116.67 523,-120.83 523,-120.83 523,-129.17 523,-129.17 523,-133.33 518.83,-137.5 514.67,-137.5"/>
<text text-anchor="start" x="478" y="-122.5" font-family="Courier,monospace" font-size="10.00">accept</text>
</g>
<!-- 0&#45;&gt;1 -->
<g id="edge11" class="edge">
<title>0-&gt;1</title>
<path fill="none" stroke="black" d="M61.73,-98.78C70.15,-119.93 94.9,-172 134.5,-172 134.5,-172 134.5,-172 412.5,-172 438.3,-172 463.44,-154.59 479.16,-140.97"/>
<polygon fill="black" stroke="black" points="482.95,-137.6 480.71,-142.6 481.09,-139.26 479.22,-140.92 479.22,-140.92 479.22,-140.92 481.09,-139.26 477.72,-139.24 482.95,-137.6 482.95,-137.6"/>
<text text-anchor="start" x="270.5" y="-177.8" font-family="Courier,monospace" font-size="9.00">ε</text>
</g>
<!-- 2 -->
<g id="node4" class="node">
<title>2</title>
<path fill="none" stroke="black" d="M140.33,-98.5C140.33,-98.5 130.67,-98.5 130.67,-98.5 127.83,-98.5 125,-95.67 125,-92.83 125,-92.83 125,-87.17 125,-87.17 125,-84.33 127.83,-81.5 130.67,-81.5 130.67,-81.5 140.33,-81.5 140.33,-81.5 143.17,-81.5 146,-84.33 146,-87.17 146,-87.17 146,-92.83 146,-92.83 146,-95.67 143.17,-98.5 140.33,-98.5"/>
<text text-anchor="start" x="129" y="-87.5" font-family="Courier,monospace" font-size="10.00">q1</text>
</g>
<!-- 0&#45;&gt;2 -->
<g id="edge12" class="edge">
<title>0-&gt;2</title>
<path fill="none" stroke="black" d="M77.29,-90C90.4,-90 107.65,-90 119.77,-90"/>
<polygon fill="black" stroke="black" points="124.95,-90 119.95,-92.25 122.45,-90 119.95,-90 119.95,-90 119.95,-90 122.45,-90 119.95,-87.75 124.95,-90 124.95,-90"/>
<text text-anchor="start" x="98" y="-95.8" font-family="Courier,monospace" font-size="9.00">ε</text>
</g>
<!-- 5 -->
<g id="node7" class="node">
<title>5</title>
<path fill="none" stroke="black" d="M416.33,-54.5C416.33,-54.5 406.67,-54.5 406.67,-54.5 403.83,-54.5 401,-51.67 401,-48.83 401,-48.83 401,-43.17 401,-43.17 401,-40.33 403.83,-37.5 406.67,-37.5 406.67,-37.5 416.33,-37.5 416.33,-37.5 419.17,-37.5 422,-40.33 422,-43.17 422,-43.17 422,-48.83 422,-48.83 422,-51.67 419.17,-54.5 416.33,-54.5"/>
<text text-anchor="start" x="405" y="-43.5" font-family="Courier,monospace" font-size="10.00">q5</text>
</g>
<!-- 0&#45;&gt;5 -->
<g id="edge13" class="edge">
<title>0-&gt;5</title>
<path fill="none" stroke="black" d="M61.13,-81.37C68.6,-58.84 92.17,0 134.5,0 134.5,0 134.5,0 343.5,0 367.03,0 388.33,-19.52 400.33,-33.13"/>
<polygon fill="black" stroke="black" points="403.74,-37.13 398.79,-34.79 402.12,-35.23 400.5,-33.33 400.5,-33.33 400.5,-33.33 402.12,-35.23 402.21,-31.87 403.74,-37.13 403.74,-37.13"/>
<text text-anchor="start" x="236" y="-5.8" font-family="Courier,monospace" font-size="9.00">ε</text>
</g>
<!-- 3 -->
<g id="node5" class="node">
<title>3</title>
<path fill="none" stroke="black" d="M209.33,-136.5C209.33,-136.5 199.67,-136.5 199.67,-136.5 196.83,-136.5 194,-133.67 194,-130.83 194,-130.83 194,-125.17 194,-125.17 194,-122.33 196.83,-119.5 199.67,-119.5 199.67,-119.5 209.33,-119.5 209.33,-119.5 212.17,-119.5 215,-122.33 215,-125.17 215,-125.17 215,-130.83 215,-130.83 215,-133.67 212.17,-136.5 209.33,-136.5"/>
<text text-anchor="start" x="198" y="-125.5" font-family="Courier,monospace" font-size="10.00">q2</text>
</g>
<!-- 2&#45;&gt;3 -->
<g id="edge2" class="edge">
<title>2-&gt;3</title>
<path fill="none" stroke="black" d="M146.1,-95.44C157.44,-101.88 176.42,-112.64 189.42,-120.02"/>
<polygon fill="black" stroke="black" points="193.92,-122.57 188.46,-122.06 191.74,-121.33 189.57,-120.1 189.57,-120.1 189.57,-120.1 191.74,-121.33 190.68,-118.14 193.92,-122.57 193.92,-122.57"/>
<text text-anchor="start" x="167" y="-116.8" font-family="Courier,monospace" font-size="9.00">a</text>
</g>
<!-- 4 -->
<g id="node6" class="node">
<title>4</title>
<path fill="none" stroke="black" d="M278.33,-135.5C278.33,-135.5 268.67,-135.5 268.67,-135.5 265.83,-135.5 263,-132.67 263,-129.83 263,-129.83 263,-124.17 263,-124.17 263,-121.33 265.83,-118.5 268.67,-118.5 268.67,-118.5 278.33,-118.5 278.33,-118.5 281.17,-118.5 284,-121.33 284,-124.17 284,-124.17 284,-129.83 284,-129.83 284,-132.67 281.17,-135.5 278.33,-135.5"/>
<text text-anchor="start" x="267" y="-124.5" font-family="Courier,monospace" font-size="10.00">q3</text>
</g>
<!-- 3&#45;&gt;4 -->
<g id="edge4" class="edge">
<title>3-&gt;4</title>
<path fill="none" stroke="black" d="M215.1,-127.86C226.24,-127.69 244.75,-127.41 257.73,-127.22"/>
<polygon fill="black" stroke="black" points="262.92,-127.14 257.95,-129.47 260.42,-127.18 257.92,-127.22 257.92,-127.22 257.92,-127.22 260.42,-127.18 257.89,-124.97 262.92,-127.14 262.92,-127.14"/>
<text text-anchor="start" x="236" y="-132.8" font-family="Courier,monospace" font-size="9.00">ε</text>
</g>
<!-- 6 -->
<g id="node8" class="node">
<title>6</title>
<path fill="none" stroke="black" d="M347.33,-118.5C347.33,-118.5 337.67,-118.5 337.67,-118.5 334.83,-118.5 332,-115.67 332,-112.83 332,-112.83 332,-107.17 332,-107.17 332,-104.33 334.83,-101.5 337.67,-101.5 337.67,-101.5 347.33,-101.5 347.33,-101.5 350.17,-101.5 353,-104.33 353,-107.17 353,-107.17 353,-112.83 353,-112.83 353,-115.67 350.17,-118.5 347.33,-118.5"/>
<text text-anchor="start" x="336" y="-107.5" font-family="Courier,monospace" font-size="10.00">q4</text>
</g>
<!-- 4&#45;&gt;6 -->
<g id="edge3" class="edge">
<title>4-&gt;6</title>
<path fill="none" stroke="black" d="M284.1,-124.56C295.24,-121.74 313.75,-117.04 326.73,-113.75"/>
<polygon fill="black" stroke="black" points="331.92,-112.43 327.63,-115.84 329.5,-113.05 327.07,-113.66 327.07,-113.66 327.07,-113.66 329.5,-113.05 326.52,-111.48 331.92,-112.43 331.92,-112.43"/>
<text text-anchor="start" x="305" y="-124.8" font-family="Courier,monospace" font-size="9.00">b</text>
</g>
<!-- 5&#45;&gt;1 -->
<g id="edge7" class="edge">
<title>5-&gt;1</title>
<path fill="none" stroke="black" d="M421.7,-54.76C435.35,-67.75 461.22,-92.37 478.41,-108.74"/>
<polygon fill="black" stroke="black" points="482.16,-112.3 476.98,-110.48 480.35,-110.58 478.53,-108.85 478.53,-108.85 478.53,-108.85 480.35,-110.58 480.09,-107.22 482.16,-112.3 482.16,-112.3"/>
<text text-anchor="start" x="443" y="-89.8" font-family="Courier,monospace" font-size="9.00">a</text>
</g>
<!-- 5&#45;&gt;2 -->
<g id="edge5" class="edge">
<title>5-&gt;2</title>
<path fill="none" stroke="black" d="M400.96,-46C387.96,-46 363.97,-46 343.5,-46 203.5,-46 203.5,-46 203.5,-46 180.55,-46 159.36,-64.26 147.19,-77.26"/>
<polygon fill="black" stroke="black" points="143.71,-81.1 145.4,-75.88 145.39,-79.24 147.07,-77.39 147.07,-77.39 147.07,-77.39 145.39,-79.24 148.74,-78.9 143.71,-81.1 143.71,-81.1"/>
<text text-anchor="start" x="270.5" y="-51.8" font-family="Courier,monospace" font-size="9.00">a</text>
</g>
<!-- 5&#45;&gt;5 -->
<g id="edge6" class="edge">
<title>5-&gt;5</title>
<path fill="none" stroke="black" d="M406.43,-54.69C403.64,-63.17 405.32,-72.5 411.5,-72.5 416.42,-72.5 418.49,-66.58 417.72,-59.88"/>
<polygon fill="black" stroke="black" points="416.57,-54.69 419.84,-59.08 417.11,-57.13 417.65,-59.57 417.65,-59.57 417.65,-59.57 417.11,-57.13 415.45,-60.05 416.57,-54.69 416.57,-54.69"/>
<text text-anchor="start" x="408.5" y="-78.3" font-family="Courier,monospace" font-size="9.00">a</text>
</g>
<!-- 6&#45;&gt;1 -->
<g id="edge8" class="edge">
<title>6-&gt;1</title>
<path fill="none" stroke="black" d="M353.01,-110.94C374.94,-113.1 429.84,-118.52 464.74,-121.96"/>
<polygon fill="black" stroke="black" points="469.74,-122.46 464.54,-124.21 467.25,-122.21 464.76,-121.97 464.76,-121.97 464.76,-121.97 467.25,-122.21 464.98,-119.73 469.74,-122.46 469.74,-122.46"/>
<text text-anchor="start" x="408.5" y="-122.8" font-family="Courier,monospace" font-size="9.00">ε</text>
</g>
<!-- 6&#45;&gt;2 -->
<g id="edge9" class="edge">
<title>6-&gt;2</title>
<path fill="none" stroke="black" d="M331.67,-109.04C298.6,-105.81 191.21,-95.34 151.47,-91.46"/>
<polygon fill="black" stroke="black" points="146.11,-90.94 151.31,-89.18 148.6,-91.18 151.09,-91.42 151.09,-91.42 151.09,-91.42 148.6,-91.18 150.87,-93.66 146.11,-90.94 146.11,-90.94"/>
<text text-anchor="start" x="236" y="-106.8" font-family="Courier,monospace" font-size="9.00">ε</text>
</g>
<!-- 6&#45;&gt;5 -->
<g id="edge10" class="edge">
<title>6-&gt;5</title>
<path fill="none" stroke="black" d="M352.54,-101.37C364.06,-90.36 384.08,-71.24 397.31,-58.6"/>
<polygon fill="black" stroke="black" points="401.18,-54.91 399.12,-59.99 399.37,-56.63 397.56,-58.36 397.56,-58.36 397.56,-58.36 399.37,-56.63 396.01,-56.73 401.18,-54.91 401.18,-54.91"/>
<text text-anchor="start" x="374" y="-87.8" font-family="Courier,monospace" font-size="9.00">ε</text>
</g>
</g>
</svg>