<svg xmlns="http://www.w3.org/2000/svg" xmlns:xlink="http://www.w3.org/1999/xlink" width="600pt" height="185pt" viewBox="0.00 0.00 600.00 185.00">
<g id="graph0" class="graph" transform="scale(1 1) rotate(0) translate(4 181)">
<title>%3</title>
<polygon fill="white" stroke="transparent" points="-4,4 -4,-181 596,-181 596,4 -4,4"/>
<!-- _START -->
<g id="node1" class="node">
<title>_START</title>
</g>
<!-- 0 -->
<g id="node2" class="node">
<title>0</title>
<path fill="none" stroke="black" d="M71.33,-126.5C71.33,-126.5 43.67,-126.5 43.67,-126.5 40.83,-126.5 38,-123.67 38,-120.83 38,-120.83 38,-115.17 38,-115.17 38,-112.33 40.83,-109.5 43.67,-109.5 43.67,-109.5 71.33,-109.5 71.33,-109.5 74.17,-109.5 77,-112.33 77,-115.17 77,-115.17 77,-120.83 77,-120.83 77,-123.67 74.17,-126.5 71.33,-126.5"/>
<text text-anchor="start" x="42" y="-115.5" font-family="Courier,monospace" font-size="10.00">start</text>
</g>
<!-- _START&#45;&gt;0 -->
<g id="edge1" class="edge">
<title>_START-&gt;0</title>
<path fill="none" stroke="black" d="M1.16,-118C2.89,-118 18.46,-118 32.64,-118"/>
<polygon fill="black" stroke="black" points="37.78,-118 32.78,-120.25 35.28,-118 32.78,-118 32.78,-118 32.78,-118 35.28,-118 32.78,-115.75 37.78,-118 37.78,-118"/>
</g>
<!-- 2 -->
<g id="node4" class="node">
<title>2</title>
<path fill="none" stroke="black" d="M140.33,-126.5C140.33,-126.5 130.67,-126.5 130.67,-126.5 127.83,-126.5 125,-123.67 125,-120.83 125,-120.83 125,-115.17 125,-115.17 125,-112.33 127.83,-109.5 130.67,-109.5 130.67,-109.5 140.33,-109.5 140.33,-109.5 143.17,-109.5 146,-112.33 146,-115.17 146,-115.17 146,-120.83 146,-120.83 146,-123.67 143.17,-126.5 140.33,-126.5"/>
<text text-anchor="start" x="129" y="-115.5" font-family="Courier,monospace" font-size="10.00">q8</text>
</g>
<!-- 0&#45;&gt;2 -->
<g id="edge14" class="edge">
<title>0-&gt;2</title>
<path fill="none" stroke="black" d="M77.29,-118C90.4,-118 107.65,-118 119.77,-118"/>
<polygon fill="black" stroke="black" points="124.95,-118 119.95,-120.25 122.45,-118 119.95,-118 119.95,-118 119.95,-118 122.45,-118 119.95,-115.75 124.95,-118 124.95,-118"/>
<text text-anchor="start" x="98" y="-123.8" font-family="Courier,monospace" font-size="9.00">ε</text>
</g>
<!-- 1 -->
<g id="node3" class="node">
<title>1</title>
<path fill="none" stroke="black" d="M582.33,-114.5C582.33,-114.5 548.67,-114.5 548.67,-114.5 545.83,-114.5 543,-111.67 543,-108.83 543,-108.83 543,-103.17 543,-103.17 543,-100.33 545.83,-97.5 548.67,-97.5 548.67,-97.5 582.33,-97.5 582.33,-97.5 585.17,-97.5 588,-100.33 588,-103.17 588,-103.17 588,-108.83 588,-108.83 588,-111.67 585.17,-114.5 582.33,-114.5"/>
<path fill="none" stroke="black" d="M583.67,-118.5C583.67,-118.5 547.33,-118.5 547.33,-118.5 543.17,-118.5 539,-114.33 539,-110.17 539,-110.17 539,-101.83 539,-101.83 539,-97.67 543.17,-93.5 547.33,-93.5 547.33,-93.5 583.67,-93.5 583.67,-93.5 587.83,-93.5 592,-97.67 592,-101.83 592,-101.83 592,-110.17 592,-110.17 592,-114.33 587.83,-118.5 583.67,-118.5"/>
<text text-anchor="start" x="547" y="-103.5" font-family="Courier,monospace" font-size="10.00">accept</text>
</g>
<!-- 2&#45;&gt;1 -->
<g id="edge9" class="edge">
<title>2-&gt;1</title>
<path fill="none" stroke="black" d="M143.75,-126.7C155.09,-139.27 178.34,-161 203.5,-161 203.5,-161 203.5,-161 481.5,-161 509.55,-161 535.38,-138.91 550.54,-122.73"/>
<polygon fill="black" stroke="black" points="554.16,-118.76 552.46,-123.97 552.48,-120.6 550.79,-122.45 550.79,-122.45 550.79,-122.45 552.48,-120.6 549.13,-120.94 554.16,-118.76 554.16,-118.76"/>
<text text-anchor="start" x="339.5" y="-166.8" font-family="Courier,monospace" font-size="9.00">ε</text>
</g>
<!-- 9 -->
<g id="node11" class="node">
<title>9</title>
<path fill="none" stroke="black" d="M209.33,-84.5C209.33,-84.5 199.67,-84.5 199.67,-84.5 196.83,-84.5 194,-81.67 194,-78.83 194,-78.83 194,-73.17 194,-73.17 194,-70.33 196.83,-67.5 199.67,-67.5 199.67,-67.5 209.33,-67.5 209.33,-67.5 212.17,-67.5 215,-70.33 215,-73.17 215,-73.17 215,-78.83 215,-78.83 215,-81.67 212.17,-84.5 209.33,-84.5"/>
<text text-anchor="start" x="198" y="-73.5" font-family="Courier,monospace" font-size="10.00">q7</text>
</g>
<!-- 2&#45;&gt;9 -->
<g id="edge8" class="edge">
<title>2-&gt;9</title>
<path fill="none" stroke="black" d="M146.1,-111.98C157.44,-104.87 176.42,-92.98 189.42,-84.83"/>
<polygon fill="black" stroke="black" points="193.92,-82.01 190.88,-86.57 191.8,-83.33 189.68,-84.66 189.68,-84.66 189.68,-84.66 191.8,-83.33 188.49,-82.76 193.92,-82.01 193.92,-82.01"/>
<text text-anchor="start" x="167" y="-105.8" font-family="Courier,monospace" font-size="9.00">ε</text>
</g>
<!-- 3 -->
<g id="node5" class="node">
<title>3</title>
<path fill="none" stroke="black" d="M278.33,-45.5C278.33,-45.5 268.67,-45.5 268.67,-45.5 265.83,-45.5 263,-42.67 263,-39.83 263,-39.83 263,-34.17 263,-34.17 263,-31.33 265.83,-28.5 268.67,-28.5 268.67,-28.5 278.33,-28.5 278.33,-28.5 281.17,-28.5 284,-31.33 284,-34.17 284,-34.17 284,-39.83 284,-39.83 284,-42.67 281.17,-45.5 278.33,-45.5"/>
<text text-anchor="start" x="267" y="-34.5" font-family="Courier,monospace" font-size="10.00">q1</text>
</g>
<!-- 4 -->
<g id="node6" class="node">
<title>4</title>
<path fill="none" stroke="black" d="M347.33,-51.5C347.33,-51.5 337.67,-51.5 337.67,-51.5 334.83,-51.5 332,-48.67 332,-45.83 332,-45.83 332,-40.17 332,-40.17 332,-37.33 334.83,-34.5 337.67,-34.5 337.67,-34.5 347.33,-34.5 347.33,-34.5 350.17,-34.5 353,-37.33 353,-40.17 353,-40.17 353,-45.83 353,-45.83 353,-48.67 350.17,-51.5 347.33,-51.5"/>
<text text-anchor="start" x="336" y="-40.5" font-family="Courier,monospace" font-size="10.00">q2</text>
</g>
<!-- 3&#45;&gt;4 -->
<g id="edge2" class="edge">
<title>3-&gt;4</title>
<path fill="none" stroke="black" d="M284.1,-37.86C295.24,-38.86 313.75,-40.52 326.73,-41.68"/>
<polygon fill="black" stroke="black" points="331.92,-42.14 326.74,-43.94 329.43,-41.92 326.94,-41.7 326.94,-41.7 326.94,-41.7 329.43,-41.92 327.14,-39.45 331.92,-42.14 331.92,-42.14"/>
<text text-anchor="start" x="305" y="-46.8" font-family="Courier,monospace" font-size="9.00">a</text>
</g>
<!-- 5 -->
<g id="node7" class="node">
<title>5</title>
<path fill="none" stroke="black" d="M416.33,-51.5C416.33,-51.5 406.67,-51.5 406.67,-51.5 403.83,-51.5 401,-48.67 401,-45.83 401,-45.83 401,-40.17 401,-40.17 401,-37.33 403.83,-34.5 406.67,-34.5 406.67,-34.5 416.33,-34.5 416.33,-34.5 419.17,-34.5 422,-37.33 422,-40.17 422,-40.17 422,-45.83 422,-45.83 422,-48.67 419.17,-51.5 416.33,-51.5"/>
<text text-anchor="start" x="405" y="-40.5" font-family="Courier,monospace" font-size="10.00">q3</text>
</g>
<!-- 4&#45;&gt;5 -->
<g id="edge4" class="edge">
<title>4-&gt;5</title>
<path fill="none" stroke="black" d="M353.1,-43C364.24,-43 382.75,-43 395.73,-43"/>
<polygon fill="black" stroke="black" points="400.92,-43 395.92,-45.25 398.42,-43 395.92,-43 395.92,-43 395.92,-43 398.42,-43 395.92,-40.75 400.92,-43 400.92,-43"/>
<text text-anchor="start" x="374" y="-48.8" font-family="Courier,monospace" font-size="9.00">ε</text>
</g>
<!-- 7 -->
<g id="node9" class="node">
<title>7</title>
<path fill="none" stroke="black" d="M485.33,-51.5C485.33,-51.5 475.67,-51.5 475.67,-51.5 472.83,-51.5 470,-48.67 470,-45.83 470,-45.83 470,-40.17 470,-40.17 470,-37.33 472.83,-34.5 475.67,-34.5 475.67,-34.5 485.33,-34.5 485.33,-34.5 488.17,-34.5 491,-37.33 491,-40.17 491,-40.17 491,-45.83 491,-45.83 491,-48.67 488.17,-51.5 485.33,-51.5"/>
<text text-anchor="start" x="474" y="-40.5" font-family="Courier,monospace" font-size="10.00">q4</text>
</g>
<!-- 5&#45;&gt;7 -->
<g id="edge3" class="edge">
<title>5-&gt;7</title>
<path fill="none" stroke="black" d="M422.1,-43C433.24,-43 451.75,-43 464.73,-43"/>
<polygon fill="black" stroke="black" points="469.92,-43 464.92,-45.25 467.42,-43 464.92,-43 464.92,-43 464.92,-43 467.42,-43 464.92,-40.75 469.92,-43 469.92,-43"/>
<text text-anchor="start" x="443" y="-48.8" font-family="Courier,monospace" font-size="9.00">b</text>
</g>
<!-- 6 -->
<g id="node8" class="node">
<title>6</title>
<path fill="none" stroke="black" d="M278.33,-80.5C278.33,-80.5 268.67,-80.5 268.67,-80.5 265.83,-80.5 263,-77.67 263,-74.83 263,-74.83 263,-69.17 263,-69.17 263,-66.33 265.83,-63.5 268.67,-63.5 268.67,-63.5 278.33,-63.5 278.33,-63.5 281.17,-63.5 284,-66.33 284,-69.17 284,-69.17 284,-74.83 284,-74.83 284,-77.67 281.17,-80.5 278.33,-80.5"/>
<text text-anchor="start" x="267" y="-69.5" font-family="Courier,monospace" font-size="10.00">q5</text>
</g>
<!-- 8 -->
<g id="node10" class="node">
<title>8</title>
<path fill="none" stroke="black" d="M347.33,-114.5C347.33,-114.5 337.67,-114.5 337.67,-114.5 334.83,-114.5 332,-111.67 332,-108.83 332,-108.83 332,-103.17 332,-103.17 332,-100.33 334.83,-97.5 337.67,-97.5 337.67,-97.5 347.33,-97.5 347.33,-97.5 350.17,-97.5 353,-100.33 353,-103.17 353,-103.17 353,-108.83 353,-108.83 353,-111.67 350.17,-114.5 347.33,-114.5"/>
<text text-anchor="start" x="336" y="-103.5" font-family="Courier,monospace" font-size="10.00">q6</text>
</g>
<!-- 6&#45;&gt;8 -->
<g id="edge5" class="edge">
<title>6-&gt;8</title>
<path fill="none" stroke="black" d="M284.2,-74.95C292.37,-77.61 304.26,-81.88 314,-87 318.7,-89.47 323.55,-92.6 327.85,-95.61"/>
<polygon fill="black" stroke="black" points="331.94,-98.54 326.56,-97.45 329.9,-97.08 327.87,-95.62 327.87,-95.62 327.87,-95.62 329.9,-97.08 329.19,-93.8 331.94,-98.54 331.94,-98.54"/>
<text text-anchor="start" x="305" y="-92.8" font-family="Courier,monospace" font-size="9.00">a</text>
</g>
<!-- 7&#45;&gt;1 -->
<g id="edge13" class="edge">
<title>7-&gt;1</title>
<path fill="none" stroke="black" d="M491.02,-50.23C503.82,-59.94 526.91,-77.47 543.8,-90.29"/>
<polygon fill="black" stroke="black" points="547.95,-93.44 542.61,-92.21 545.96,-91.93 543.97,-90.41 543.97,-90.41 543.97,-90.41 545.96,-91.93 545.33,-88.62 547.95,-93.44 547.95,-93.44"/>
<text text-anchor="start" x="512" y="-78.8" font-family="Courier,monospace" font-size="9.00">ε</text>
</g>
<!-- 7&#45;&gt;9 -->
<g id="edge12" class="edge">
<title>7-&gt;9</title>
<path fill="none" stroke="black" d="M472.25,-34.3C460.91,-21.73 437.66,0 412.5,0 272.5,0 272.5,0 272.5,0 239.61,0 219.02,-40.56 210.31,-62.42"/>
<polygon fill="black" stroke="black" points="208.44,-67.28 208.13,-61.81 209.34,-64.95 210.23,-62.61 210.23,-62.61 210.23,-62.61 209.34,-64.95 212.33,-63.42 208.44,-67.28 208.44,-67.28"/>
<text text-anchor="start" x="339.5" y="-5.8" font-family="Courier,monospace" font-size="9.00">ε</text>
</g>
<!-- 8&#45;&gt;1 -->
<g id="edge11" class="edge">
<title>8-&gt;1</title>
<path fill="none" stroke="black" d="M353.28,-106C384.54,-106 482.9,-106 533.61,-106"/>
<polygon fill="black" stroke="black" points="538.66,-106 533.66,-108.25 536.16,-106 533.66,-106 533.66,-106 533.66,-106 536.16,-106 533.66,-103.75 538.66,-106 538.66,-106"/>
<text text-anchor="start" x="443" y="-111.8" font-family="Courier,monospace" font-size="9.00">ε</text>
</g>
<!-- 8&#45;&gt;9 -->
<g id="edge10" class="edge">
<title>8-&gt;9</title>
<path fill="none" stroke="black" d="M331.84,-106.64C312.42,-107.58 267.55,-108.01 233,-95 228.21,-93.2 223.46,-90.39 219.29,-87.47"/>
<polygon fill="black" stroke="black" points="215.02,-84.31 220.38,-85.48 217.03,-85.8 219.04,-87.28 219.04,-87.28 219.04,-87.28 217.03,-85.8 217.7,-89.09 215.02,-84.31 215.02,-84.31"/>
<text text-anchor="start" x="270.5" y="-111.8" font-family="Courier,monospace" font-size="9.00">ε</text>
</g>
<!-- 9&#45;&gt;3 -->
<g id="edge6" class="edge">
<title>9-&gt;3</title>
<path fill="none" stroke="black" d="M214.96,-67.38C220.06,-63.02 226.6,-57.84 233,-54 240.8,-49.32 250.13,-45.24 257.76,-42.25"/>
<polygon fill="black" stroke="black" points="262.73,-40.37 258.85,-44.24 260.39,-41.25 258.06,-42.14 258.06,-42.14 258.06,-42.14 260.39,-41.25 257.26,-40.04 262.73,-40.37 262.73,-40.37"/>
<text text-anchor="start" x="236" y="-59.8" font-family="Courier,monospace" font-size="9.00">ε</text>
</g>
<!-- 9&#45;&gt;6 -->
<g id="edge7" class="edge">
<title>9-&gt;6</title>
<path fill="none" stroke="black" d="M215.1,-75.43C226.24,-74.76 244.75,-73.66 257.73,-72.88"/>
<polygon fill="black" stroke="black" points="262.92,-72.57 258.06,-75.12 260.42,-72.72 257.93,-72.87 257.93,-72.87 257.93,-72.87 260.42,-72.72 257.79,-70.62 262.92,-72.57 262.92,-72.57"/>
<text text-anchor="start" x="236" y="-80.8" font-family="Courier,monospace" font-size="9.00">ε</text>
</g>
</g>
</svg>