<svg xmlns="http://www.w3.org/2000/svg" xmlns:xlink="http://www.w3.org/1999/xlink" width="823pt" height="261pt" viewBox="0.00 0.00 823.00 260.50">
<g id="graph0" class="graph" transform="scale(1 1) rotate(0) translate(4 256.5)">
<title>%3</title>
<polygon fill="white" stroke="transparent" points="-4,4 -4,-256.5 819,-256.5 819,4 -4,4"/>
<!-- _START -->
<g id="node1" class="node">
<title>_START</title>
</g>
<!-- 0 -->
<g id="node2" class="node">
<title>0</title>
<path fill="none" stroke="black" d="M68.33,-206C68.33,-206 46.67,-206 46.67,-206 43.83,-206 41,-203.17 41,-200.33 41,-200.33 41,-194.67 41,-194.67 41,-191.83 43.83,-189 46.67,-189 46.67,-189 68.33,-189 68.33,-189 71.17,-189 74,-191.83 74,-194.67 74,-194.67 74,-200.33 74,-200.33 74,-203.17 71.17,-206 68.33,-206"/>
<text text-anchor="start" x="45" y="-195" font-family="Courier,monospace" font-size="10.00">q1,ε</text>
</g>
<!-- _START&#45;&gt;0 -->
<g id="edge1" class="edge">
<title>_START-&gt;0</title>
<path fill="none" stroke="black" d="M1.16,-197.5C3.01,-197.5 20.55,-197.5 35.4,-197.5"/>
<polygon fill="black" stroke="black" points="40.72,-197.5 35.72,-199.75 38.22,-197.5 35.72,-197.5 35.72,-197.5 35.72,-197.5 38.22,-197.5 35.72,-195.25 40.72,-197.5 40.72,-197.5"/>
</g>
<!-- 1 -->
<g id="node3" class="node">
<title>1</title>
<path fill="none" stroke="black" d="M68.33,-153C68.33,-153 46.67,-153 46.67,-153 43.83,-153 41,-150.17 41,-147.33 41,-147.33 41,-141.67 41,-141.67 41,-138.83 43.83,-136 46.67,-136 46.67,-136 68.33,-136 68.33,-136 71.17,-136 74,-138.83 74,-141.67 74,-141.67 74,-147.33 74,-147.33 74,-150.17 71.17,-153 68.33,-153"/>
<text text-anchor="start" x="45" y="-142" font-family="Courier,monospace" font-size="10.00">q2,$</text>
</g>
<!-- 0&#45;&gt;1 -->
<g id="edge8" class="edge">
<title>0-&gt;1</title>
<path fill="none" stroke="black" d="M57.5,-188.85C57.5,-178.63 57.5,-168.42 57.5,-158.21"/>
<polygon fill="black" stroke="black" points="57.5,-153.2 59.75,-158.2 57.5,-155.7 57.5,-158.2 57.5,-158.2 57.5,-158.2 57.5,-155.7 55.25,-158.2 57.5,-153.2 57.5,-153.2"/>
</g>
<!-- 9 -->
<g id="node11" class="node">
<title>9</title>
<path fill="none" stroke="black" d="M176.33,-153C176.33,-153 130.67,-153 130.67,-153 127.83,-153 125,-150.17 125,-147.33 125,-147.33 125,-141.67 125,-141.67 125,-138.83 127.83,-136 130.67,-136 130.67,-136 176.33,-136 176.33,-136 179.17,-136 182,-138.83 182,-141.67 182,-141.67 182,-147.33 182,-147.33 182,-150.17 179.17,-153 176.33,-153"/>
<text text-anchor="start" x="129" y="-142" font-family="Courier,monospace" font-size="10.00">q2,[0] $</text>
</g>
<!-- 1&#45;&gt;9 -->
<g id="edge9" class="edge">
<title>1-&gt;9</title>
<path fill="none" stroke="black" d="M74.02,-144.5C86.39,-144.5 104.14,-144.5 119.63,-144.5"/>
<polygon fill="black" stroke="black" points="124.79,-144.5 119.79,-146.75 122.29,-144.5 119.79,-144.5 119.79,-144.5 119.79,-144.5 122.29,-144.5 119.79,-142.25 124.79,-144.5 124.79,-144.5"/>
</g>
<!-- 10 -->
<g id="node12" class="node">
<title>10</title>
<path fill="none" stroke="black" d="M68.33,-100C68.33,-100 46.67,-100 46.67,-100 43.83,-100 41,-97.17 41,-94.33 41,-94.33 41,-88.67 41,-88.67 41,-85.83 43.83,-83 46.67,-83 46.67,-83 68.33,-83 68.33,-83 71.17,-83 74,-85.83 74,-88.67 74,-88.67 74,-94.33 74,-94.33 74,-97.17 71.17,-100 68.33,-100"/>
<text text-anchor="start" x="45" y="-89" font-family="Courier,monospace" font-size="10.00">q3,$</text>
</g>
<!-- 1&#45;&gt;10 -->
<g id="edge10" class="edge">
<title>1-&gt;10</title>
<path fill="none" stroke="black" d="M57.5,-135.85C57.5,-125.63 57.5,-115.42 57.5,-105.21"/>
<polygon fill="black" stroke="black" points="57.5,-100.2 59.75,-105.2 57.5,-102.7 57.5,-105.2 57.5,-105.2 57.5,-105.2 57.5,-102.7 55.25,-105.2 57.5,-100.2 57.5,-100.2"/>
</g>
<!-- 2 -->
<g id="node4" class="node">
<title>2</title>
</g>
<!-- 4 -->
<g id="node6" class="node">
<title>4</title>
</g>
<!-- 2&#45;&gt;4 -->
<g id="edge2" class="edge">
<title>2-&gt;4</title>
<path fill="none" stroke="white" d="M77.07,-236.5C91.88,-236.5 112.71,-236.5 128.73,-236.5"/>
<polygon fill="white" stroke="white" points="133.97,-236.5 128.97,-238.75 131.47,-236.5 128.97,-236.5 128.97,-236.5 128.97,-236.5 131.47,-236.5 128.97,-234.25 133.97,-236.5 133.97,-236.5"/>
<text text-anchor="start" x="98" y="-242.3" font-family="Courier,monospace" font-size="9.00">0</text>
</g>
<!-- 3 -->
<g id="node5" class="node">
<title>3</title>
</g>
<!-- 7 -->
<g id="node9" class="node">
<title>7</title>
</g>
<!-- 3&#45;&gt;7 -->
<g id="edge6" class="edge">
<title>3-&gt;7</title>
<path fill="none" stroke="white" d="M536.24,-236.5C558.66,-236.5 596.22,-236.5 620.67,-236.5"/>
<polygon fill="white" stroke="white" points="625.68,-236.5 620.68,-238.75 623.18,-236.5 620.68,-236.5 620.68,-236.5 620.68,-236.5 623.18,-236.5 620.68,-234.25 625.68,-236.5 625.68,-236.5"/>
<text text-anchor="start" x="578" y="-242.3" font-family="Courier,monospace" font-size="9.00">0</text>
</g>
<!-- 5 -->
<g id="node7" class="node">
<title>5</title>
</g>
<!-- 4&#45;&gt;5 -->
<g id="edge3" class="edge">
<title>4-&gt;5</title>
<path fill="none" stroke="white" d="M173.49,-236.5C191.85,-236.5 219.75,-236.5 239.61,-236.5"/>
<polygon fill="white" stroke="white" points="244.73,-236.5 239.73,-238.75 242.23,-236.5 239.73,-236.5 239.73,-236.5 239.73,-236.5 242.23,-236.5 239.73,-234.25 244.73,-236.5 244.73,-236.5"/>
<text text-anchor="start" x="203" y="-242.3" font-family="Courier,monospace" font-size="9.00">0</text>
</g>
<!-- 6 -->
<g id="node8" class="node">
<title>6</title>
</g>
<!-- 5&#45;&gt;6 -->
<g id="edge4" class="edge">
<title>5-&gt;6</title>
<path fill="none" stroke="white" d="M284.14,-236.5C305.22,-236.5 339.59,-236.5 362.62,-236.5"/>
<polygon fill="white" stroke="white" points="367.64,-236.5 362.64,-238.75 365.14,-236.5 362.64,-236.5 362.64,-236.5 362.64,-236.5 365.14,-236.5 362.64,-234.25 367.64,-236.5 367.64,-236.5"/>
<text text-anchor="start" x="320" y="-242.3" font-family="Courier,monospace" font-size="9.00">1</text>
</g>
<!-- 6&#45;&gt;3 -->
<g id="edge5" class="edge">
<title>6-&gt;3</title>
<path fill="none" stroke="white" d="M407.24,-236.5C429.66,-236.5 467.22,-236.5 491.67,-236.5"/>
<polygon fill="white" stroke="white" points="496.68,-236.5 491.68,-238.75 494.18,-236.5 491.68,-236.5 491.68,-236.5 491.68,-236.5 494.18,-236.5 491.68,-234.25 496.68,-236.5 496.68,-236.5"/>
<text text-anchor="start" x="449" y="-242.3" font-family="Courier,monospace" font-size="9.00">1</text>
</g>
<!-- 8 -->
<g id="node10" class="node">
<title>8</title>
</g>
<!-- 7&#45;&gt;8 -->
<g id="edge7" class="edge">
<title>7-&gt;8</title>
<path fill="none" stroke="white" d="M665.24,-236.5C687.66,-236.5 725.22,-236.5 749.67,-236.5"/>
<polygon fill="white" stroke="white" points="754.68,-236.5 749.68,-238.75 752.18,-236.5 749.68,-236.5 749.68,-236.5 749.68,-236.5 752.18,-236.5 749.68,-234.25 754.68,-236.5 754.68,-236.5"/>
<text text-anchor="start" x="707" y="-242.3" font-family="Courier,monospace" font-size="9.00">0</text>
</g>
<!-- 11 -->
<g id="node13" class="node">
<title>11</title>
<path fill="none" stroke="black" d="M293.33,-159C293.33,-159 235.67,-159 235.67,-159 232.83,-159 230,-156.17 230,-153.33 230,-153.33 230,-147.67 230,-147.67 230,-144.83 232.83,-142 235.67,-142 235.67,-142 293.33,-142 293.33,-142 296.17,-142 299,-144.83 299,-147.67 299,-147.67 299,-153.33 299,-153.33 299,-156.17 296.17,-159 293.33,-159"/>
<text text-anchor="start" x="234" y="-148" font-family="Courier,monospace" font-size="10.00">q2,[0] 0 $</text>
</g>
<!-- 9&#45;&gt;11 -->
<g id="edge11" class="edge">
<title>9-&gt;11</title>
<path fill="none" stroke="black" d="M182.01,-146.01C194.92,-146.73 210.55,-147.59 224.65,-148.36"/>
<polygon fill="black" stroke="black" points="229.77,-148.64 224.65,-150.61 227.27,-148.51 224.78,-148.37 224.78,-148.37 224.78,-148.37 227.27,-148.51 224.9,-146.12 229.77,-148.64 229.77,-148.64"/>
</g>
<!-- 12 -->
<g id="node14" class="node">
<title>12</title>
<path fill="none" stroke="black" d="M176.33,-91C176.33,-91 130.67,-91 130.67,-91 127.83,-91 125,-88.17 125,-85.33 125,-85.33 125,-79.67 125,-79.67 125,-76.83 127.83,-74 130.67,-74 130.67,-74 176.33,-74 176.33,-74 179.17,-74 182,-76.83 182,-79.67 182,-79.67 182,-85.33 182,-85.33 182,-88.17 179.17,-91 176.33,-91"/>
<text text-anchor="start" x="129" y="-80" font-family="Courier,monospace" font-size="10.00">q3,[0] $</text>
</g>
<!-- 9&#45;&gt;12 -->
<g id="edge12" class="edge">
<title>9-&gt;12</title>
<path fill="none" stroke="black" d="M153.5,-135.76C153.5,-122.65 153.5,-109.55 153.5,-96.44"/>
<polygon fill="black" stroke="black" points="153.5,-91.22 155.75,-96.22 153.5,-93.72 153.5,-96.22 153.5,-96.22 153.5,-96.22 153.5,-93.72 151.25,-96.22 153.5,-91.22 153.5,-91.22"/>
</g>
<!-- 13 -->
<g id="node15" class="node">
<title>13</title>
<path fill="none" stroke="black" d="M68.33,-47C68.33,-47 46.67,-47 46.67,-47 43.83,-47 41,-44.17 41,-41.33 41,-41.33 41,-35.67 41,-35.67 41,-32.83 43.83,-30 46.67,-30 46.67,-30 68.33,-30 68.33,-30 71.17,-30 74,-32.83 74,-35.67 74,-35.67 74,-41.33 74,-41.33 74,-44.17 71.17,-47 68.33,-47"/>
<text text-anchor="start" x="45" y="-36" font-family="Courier,monospace" font-size="10.00">q4,ε</text>
</g>
<!-- 10&#45;&gt;13 -->
<g id="edge13" class="edge">
<title>10-&gt;13</title>
<path fill="none" stroke="black" d="M57.5,-82.85C57.5,-72.63 57.5,-62.42 57.5,-52.21"/>
<polygon fill="black" stroke="black" points="57.5,-47.2 59.75,-52.2 57.5,-49.7 57.5,-52.2 57.5,-52.2 57.5,-52.2 57.5,-49.7 55.25,-52.2 57.5,-47.2 57.5,-47.2"/>
</g>
<!-- 14 -->
<g id="node16" class="node">
<title>14</title>
<path fill="none" stroke="black" d="M293.33,-106C293.33,-106 235.67,-106 235.67,-106 232.83,-106 230,-103.17 230,-100.33 230,-100.33 230,-94.67 230,-94.67 230,-91.83 232.83,-89 235.67,-89 235.67,-89 293.33,-89 293.33,-89 296.17,-89 299,-91.83 299,-94.67 299,-94.67 299,-100.33 299,-100.33 299,-103.17 296.17,-106 293.33,-106"/>
<text text-anchor="start" x="234" y="-95" font-family="Courier,monospace" font-size="10.00">q3,[0] 0 $</text>
</g>
<!-- 11&#45;&gt;14 -->
<g id="edge14" class="edge">
<title>11-&gt;14</title>
<path fill="none" stroke="black" d="M264.5,-141.85C264.5,-131.63 264.5,-121.42 264.5,-111.21"/>
<polygon fill="black" stroke="black" points="264.5,-106.2 266.75,-111.2 264.5,-108.7 264.5,-111.2 264.5,-111.2 264.5,-111.2 264.5,-108.7 262.25,-111.2 264.5,-106.2 264.5,-106.2"/>
</g>
<!-- 16 -->
<g id="node18" class="node">
<title>16</title>
<path fill="none" stroke="black" d="M422.33,-159C422.33,-159 352.67,-159 352.67,-159 349.83,-159 347,-156.17 347,-153.33 347,-153.33 347,-147.67 347,-147.67 347,-144.83 349.83,-142 352.67,-142 352.67,-142 422.33,-142 422.33,-142 425.17,-142 428,-144.83 428,-147.67 428,-147.67 428,-153.33 428,-153.33 428,-156.17 425.17,-159 422.33,-159"/>
<text text-anchor="start" x="351" y="-148" font-family="Courier,monospace" font-size="10.00">q2,[1] 0 0 …</text>
</g>
<!-- 11&#45;&gt;16 -->
<g id="edge15" class="edge">
<title>11-&gt;16</title>
<path fill="none" stroke="black" d="M299.21,-150.5C312.41,-150.5 327.75,-150.5 341.85,-150.5"/>
<polygon fill="black" stroke="black" points="346.98,-150.5 341.98,-152.75 344.48,-150.5 341.98,-150.5 341.98,-150.5 341.98,-150.5 344.48,-150.5 341.98,-148.25 346.98,-150.5 346.98,-150.5"/>
</g>
<!-- 15 -->
<g id="node17" class="node">
<title>15</title>
<path fill="none" stroke="black" d="M275.33,-71C275.33,-71 253.67,-71 253.67,-71 250.83,-71 248,-68.17 248,-65.33 248,-65.33 248,-59.67 248,-59.67 248,-56.83 250.83,-54 253.67,-54 253.67,-54 275.33,-54 275.33,-54 278.17,-54 281,-56.83 281,-59.67 281,-59.67 281,-65.33 281,-65.33 281,-68.17 278.17,-71 275.33,-71"/>
<text text-anchor="start" x="252" y="-60" font-family="Courier,monospace" font-size="10.00">q3,$</text>
</g>
<!-- 12&#45;&gt;15 -->
<g id="edge16" class="edge">
<title>12-&gt;15</title>
<path fill="none" stroke="black" d="M182.01,-77.45C200.87,-73.99 225.5,-69.47 242.72,-66.31"/>
<polygon fill="black" stroke="black" points="247.82,-65.38 243.31,-68.49 245.36,-65.83 242.9,-66.28 242.9,-66.28 242.9,-66.28 245.36,-65.83 242.49,-64.07 247.82,-65.38 247.82,-65.38"/>
</g>
<!-- 17 -->
<g id="node19" class="node">
<title>17</title>
<path fill="none" stroke="black" d="M275.33,-18C275.33,-18 253.67,-18 253.67,-18 250.83,-18 248,-15.17 248,-12.33 248,-12.33 248,-6.67 248,-6.67 248,-3.83 250.83,-1 253.67,-1 253.67,-1 275.33,-1 275.33,-1 278.17,-1 281,-3.83 281,-6.67 281,-6.67 281,-12.33 281,-12.33 281,-15.17 278.17,-18 275.33,-18"/>
<text text-anchor="start" x="252" y="-7" font-family="Courier,monospace" font-size="10.00">q4,ε</text>
</g>
<!-- 15&#45;&gt;17 -->
<g id="edge17" class="edge">
<title>15-&gt;17</title>
<path fill="none" stroke="black" d="M264.5,-53.85C264.5,-43.63 264.5,-33.42 264.5,-23.21"/>
<polygon fill="black" stroke="black" points="264.5,-18.2 266.75,-23.2 264.5,-20.7 264.5,-23.2 264.5,-23.2 264.5,-23.2 264.5,-20.7 262.25,-23.2 264.5,-18.2 264.5,-18.2"/>
</g>
<!-- 18 -->
<g id="node20" class="node">
<title>18</title>
<path fill="none" stroke="black" d="M422.33,-102C422.33,-102 352.67,-102 352.67,-102 349.83,-102 347,-99.17 347,-96.33 347,-96.33 347,-90.67 347,-90.67 347,-87.83 349.83,-85 352.67,-85 352.67,-85 422.33,-85 422.33,-85 425.17,-85 428,-87.83 428,-90.67 428,-90.67 428,-96.33 428,-96.33 428,-99.17 425.17,-102 422.33,-102"/>
<text text-anchor="start" x="351" y="-91" font-family="Courier,monospace" font-size="10.00">q3,[1] 0 0 …</text>
</g>
<!-- 16&#45;&gt;18 -->
<g id="edge18" class="edge">
<title>16-&gt;18</title>
<path fill="none" stroke="black" d="M387.5,-141.86C387.5,-130.45 387.5,-119.05 387.5,-107.65"/>
<polygon fill="black" stroke="black" points="387.5,-102.41 389.75,-107.41 387.5,-104.91 387.5,-107.41 387.5,-107.41 387.5,-107.41 387.5,-104.91 385.25,-107.41 387.5,-102.41 387.5,-102.41"/>
</g>
<!-- 19 -->
<g id="node21" class="node">
<title>19</title>
<path fill="none" stroke="black" d="M551.33,-166C551.33,-166 481.67,-166 481.67,-166 478.83,-166 476,-163.17 476,-160.33 476,-160.33 476,-154.67 476,-154.67 476,-151.83 478.83,-149 481.67,-149 481.67,-149 551.33,-149 551.33,-149 554.17,-149 557,-151.83 557,-154.67 557,-154.67 557,-160.33 557,-160.33 557,-163.17 554.17,-166 551.33,-166"/>
<text text-anchor="start" x="480" y="-155" font-family="Courier,monospace" font-size="10.00">q2,[1] 1 0 …</text>
</g>
<!-- 16&#45;&gt;19 -->
<g id="edge19" class="edge">
<title>16-&gt;19</title>
<path fill="none" stroke="black" d="M428.34,-152.7C441.81,-153.44 456.95,-154.27 470.78,-155.03"/>
<polygon fill="black" stroke="black" points="475.81,-155.31 470.69,-157.28 473.31,-155.17 470.81,-155.04 470.81,-155.04 470.81,-155.04 473.31,-155.17 470.94,-152.79 475.81,-155.31 475.81,-155.31"/>
</g>
<!-- 21 -->
<g id="node23" class="node">
<title>21</title>
<path fill="none" stroke="black" d="M545.33,-78C545.33,-78 487.67,-78 487.67,-78 484.83,-78 482,-75.17 482,-72.33 482,-72.33 482,-66.67 482,-66.67 482,-63.83 484.83,-61 487.67,-61 487.67,-61 545.33,-61 545.33,-61 548.17,-61 551,-63.83 551,-66.67 551,-66.67 551,-72.33 551,-72.33 551,-75.17 548.17,-78 545.33,-78"/>
<text text-anchor="start" x="486" y="-67" font-family="Courier,monospace" font-size="10.00">q3,[0] 0 $</text>
</g>
<!-- 18&#45;&gt;21 -->
<g id="edge22" class="edge">
<title>18-&gt;21</title>
<path fill="none" stroke="black" d="M428.34,-85.97C443.76,-83.06 461.36,-79.73 476.68,-76.84"/>
<polygon fill="black" stroke="black" points="481.79,-75.87 477.29,-79.01 479.33,-76.34 476.87,-76.8 476.87,-76.8 476.87,-76.8 479.33,-76.34 476.46,-74.59 481.79,-75.87 481.79,-75.87"/>
</g>
<!-- 20 -->
<g id="node22" class="node">
<title>20</title>
<path fill="none" stroke="black" d="M551.33,-113C551.33,-113 481.67,-113 481.67,-113 478.83,-113 476,-110.17 476,-107.33 476,-107.33 476,-101.67 476,-101.67 476,-98.83 478.83,-96 481.67,-96 481.67,-96 551.33,-96 551.33,-96 554.17,-96 557,-98.83 557,-101.67 557,-101.67 557,-107.33 557,-107.33 557,-110.17 554.17,-113 551.33,-113"/>
<text text-anchor="start" x="480" y="-102" font-family="Courier,monospace" font-size="10.00">q3,[1] 1 0 …</text>
</g>
<!-- 19&#45;&gt;20 -->
<g id="edge20" class="edge">
<title>19-&gt;20</title>
<path fill="none" stroke="black" d="M516.5,-148.85C516.5,-138.63 516.5,-128.42 516.5,-118.21"/>
<polygon fill="black" stroke="black" points="516.5,-113.2 518.75,-118.2 516.5,-115.7 516.5,-118.2 516.5,-118.2 516.5,-118.2 516.5,-115.7 514.25,-118.2 516.5,-113.2 516.5,-113.2"/>
</g>
<!-- 22 -->
<g id="node24" class="node">
<title>22</title>
<path fill="none" stroke="black" d="M680.33,-166C680.33,-166 610.67,-166 610.67,-166 607.83,-166 605,-163.17 605,-160.33 605,-160.33 605,-154.67 605,-154.67 605,-151.83 607.83,-149 610.67,-149 610.67,-149 680.33,-149 680.33,-149 683.17,-149 686,-151.83 686,-154.67 686,-154.67 686,-160.33 686,-160.33 686,-163.17 683.17,-166 680.33,-166"/>
<text text-anchor="start" x="609" y="-155" font-family="Courier,monospace" font-size="10.00">q2,[0] 1 1 …</text>
</g>
<!-- 19&#45;&gt;22 -->
<g id="edge21" class="edge">
<title>19-&gt;22</title>
<path fill="none" stroke="black" d="M557.34,-157.5C570.81,-157.5 585.95,-157.5 599.78,-157.5"/>
<polygon fill="black" stroke="black" points="604.81,-157.5 599.81,-159.75 602.31,-157.5 599.81,-157.5 599.81,-157.5 599.81,-157.5 602.31,-157.5 599.81,-155.25 604.81,-157.5 604.81,-157.5"/>
</g>
<!-- 23 -->
<g id="node25" class="node">
<title>23</title>
<path fill="none" stroke="black" d="M668.33,-78C668.33,-78 622.67,-78 622.67,-78 619.83,-78 617,-75.17 617,-72.33 617,-72.33 617,-66.67 617,-66.67 617,-63.83 619.83,-61 622.67,-61 622.67,-61 668.33,-61 668.33,-61 671.17,-61 674,-63.83 674,-66.67 674,-66.67 674,-72.33 674,-72.33 674,-75.17 671.17,-78 668.33,-78"/>
<text text-anchor="start" x="621" y="-67" font-family="Courier,monospace" font-size="10.00">q3,[0] $</text>
</g>
<!-- 21&#45;&gt;23 -->
<g id="edge23" class="edge">
<title>21-&gt;23</title>
<path fill="none" stroke="black" d="M551.2,-69.5C569.87,-69.5 592.99,-69.5 611.55,-69.5"/>
<polygon fill="black" stroke="black" points="616.65,-69.5 611.65,-71.75 614.15,-69.5 611.65,-69.5 611.65,-69.5 611.65,-69.5 614.15,-69.5 611.65,-67.25 616.65,-69.5 616.65,-69.5"/>
</g>
<!-- 24 -->
<g id="node26" class="node">
<title>24</title>
<path fill="none" stroke="black" d="M680.33,-113C680.33,-113 610.67,-113 610.67,-113 607.83,-113 605,-110.17 605,-107.33 605,-107.33 605,-101.67 605,-101.67 605,-98.83 607.83,-96 610.67,-96 610.67,-96 680.33,-96 680.33,-96 683.17,-96 686,-98.83 686,-101.67 686,-101.67 686,-107.33 686,-107.33 686,-110.17 683.17,-113 680.33,-113"/>
<text text-anchor="start" x="609" y="-102" font-family="Courier,monospace" font-size="10.00">q3,[0] 1 1 …</text>
</g>
<!-- 22&#45;&gt;24 -->
<g id="edge24" class="edge">
<title>22-&gt;24</title>
<path fill="none" stroke="black" d="M645.5,-148.85C645.5,-138.63 645.5,-128.42 645.5,-118.21"/>
<polygon fill="black" stroke="black" points="645.5,-113.2 647.75,-118.2 645.5,-115.7 645.5,-118.2 645.5,-118.2 645.5,-118.2 645.5,-115.7 643.25,-118.2 645.5,-113.2 645.5,-113.2"/>
</g>
<!-- 26 -->
<g id="node28" class="node">
<title>26</title>
<path fill="none" stroke="black" d="M809.33,-201C809.33,-201 739.67,-201 739.67,-201 736.83,-201 734,-198.17 734,-195.33 734,-195.33 734,-189.67 734,-189.67 734,-186.83 736.83,-184 739.67,-184 739.67,-184 809.33,-184 809.33,-184 812.17,-184 815,-186.83 815,-189.67 815,-189.67 815,-195.33 815,-195.33 815,-198.17 812.17,-201 809.33,-201"/>
<text text-anchor="start" x="738" y="-190" font-family="Courier,monospace" font-size="10.00">q2,[0] 0 1 …</text>
</g>
<!-- 22&#45;&gt;26 -->
<g id="edge25" class="edge">
<title>22-&gt;26</title>
<path fill="none" stroke="black" d="M677.57,-166.06C695.56,-171.02 718.29,-177.29 737.11,-182.47"/>
<polygon fill="black" stroke="black" points="742.31,-183.91 736.89,-184.75 739.9,-183.24 737.49,-182.58 737.49,-182.58 737.49,-182.58 739.9,-183.24 738.09,-180.41 742.31,-183.91 742.31,-183.91"/>
</g>
<!-- 25 -->
<g id="node27" class="node">
<title>25</title>
<path fill="none" stroke="black" d="M785.33,-78C785.33,-78 763.67,-78 763.67,-78 760.83,-78 758,-75.17 758,-72.33 758,-72.33 758,-66.67 758,-66.67 758,-63.83 760.83,-61 763.67,-61 763.67,-61 785.33,-61 785.33,-61 788.17,-61 791,-63.83 791,-66.67 791,-66.67 791,-72.33 791,-72.33 791,-75.17 788.17,-78 785.33,-78"/>
<text text-anchor="start" x="762" y="-67" font-family="Courier,monospace" font-size="10.00">q3,$</text>
</g>
<!-- 23&#45;&gt;25 -->
<g id="edge26" class="edge">
<title>23-&gt;25</title>
<path fill="none" stroke="black" d="M674.06,-69.5C697.73,-69.5 731.34,-69.5 752.78,-69.5"/>
<polygon fill="black" stroke="black" points="757.96,-69.5 752.96,-71.75 755.46,-69.5 752.96,-69.5 752.96,-69.5 752.96,-69.5 755.46,-69.5 752.96,-67.25 757.96,-69.5 757.96,-69.5"/>
</g>
<!-- 29 -->
<g id="node31" class="node">
<title>29</title>
<path fill="none" stroke="black" d="M809.33,-113C809.33,-113 739.67,-113 739.67,-113 736.83,-113 734,-110.17 734,-107.33 734,-107.33 734,-101.67 734,-101.67 734,-98.83 736.83,-96 739.67,-96 739.67,-96 809.33,-96 809.33,-96 812.17,-96 815,-98.83 815,-101.67 815,-101.67 815,-107.33 815,-107.33 815,-110.17 812.17,-113 809.33,-113"/>
<text text-anchor="start" x="738" y="-102" font-family="Courier,monospace" font-size="10.00">q3,[1] 1 0 …</text>
</g>
<!-- 24&#45;&gt;29 -->
<g id="edge29" class="edge">
<title>24-&gt;29</title>
<path fill="none" stroke="black" d="M686.34,-104.5C699.81,-104.5 714.95,-104.5 728.78,-104.5"/>
<polygon fill="black" stroke="black" points="733.81,-104.5 728.81,-106.75 731.31,-104.5 728.81,-104.5 728.81,-104.5 728.81,-104.5 731.31,-104.5 728.81,-102.25 733.81,-104.5 733.81,-104.5"/>
</g>
<!-- 27 -->
<g id="node29" class="node">
<title>27</title>
<path fill="none" stroke="black" d="M785.33,-21C785.33,-21 763.67,-21 763.67,-21 760.83,-21 758,-18.17 758,-15.33 758,-15.33 758,-9.67 758,-9.67 758,-6.83 760.83,-4 763.67,-4 763.67,-4 785.33,-4 785.33,-4 788.17,-4 791,-6.83 791,-9.67 791,-9.67 791,-15.33 791,-15.33 791,-18.17 788.17,-21 785.33,-21"/>
<path fill="none" stroke="black" d="M786.67,-25C786.67,-25 762.33,-25 762.33,-25 758.17,-25 754,-20.83 754,-16.67 754,-16.67 754,-8.33 754,-8.33 754,-4.17 758.17,0 762.33,0 762.33,0 786.67,0 786.67,0 790.83,0 795,-4.17 795,-8.33 795,-8.33 795,-16.67 795,-16.67 795,-20.83 790.83,-25 786.67,-25"/>
<text text-anchor="start" x="762" y="-10" font-family="Courier,monospace" font-size="10.00">q4,ε</text>
</g>
<!-- 25&#45;&gt;27 -->
<g id="edge27" class="edge">
<title>25-&gt;27</title>
<path fill="none" stroke="black" d="M774.5,-60.89C774.5,-50.82 774.5,-40.75 774.5,-30.68"/>
<polygon fill="black" stroke="black" points="774.5,-25.41 776.75,-30.41 774.5,-27.91 774.5,-30.41 774.5,-30.41 774.5,-30.41 774.5,-27.91 772.25,-30.41 774.5,-25.41 774.5,-25.41"/>
</g>
<!-- 28 -->
<g id="node30" class="node">
<title>28</title>
<path fill="none" stroke="black" d="M809.33,-148C809.33,-148 739.67,-148 739.67,-148 736.83,-148 734,-145.17 734,-142.33 734,-142.33 734,-136.67 734,-136.67 734,-133.83 736.83,-131 739.67,-131 739.67,-131 809.33,-131 809.33,-131 812.17,-131 815,-133.83 815,-136.67 815,-136.67 815,-142.33 815,-142.33 815,-145.17 812.17,-148 809.33,-148"/>
<text text-anchor="start" x="738" y="-137" font-family="Courier,monospace" font-size="10.00">q3,[0] 0 1 …</text>
</g>
<!-- 26&#45;&gt;28 -->
<g id="edge28" class="edge">
<title>26-&gt;28</title>
<path fill="none" stroke="black" d="M774.5,-183.85C774.5,-173.63 774.5,-163.42 774.5,-153.21"/>
<polygon fill="black" stroke="black" points="774.5,-148.2 776.75,-153.2 774.5,-150.7 774.5,-153.2 774.5,-153.2 774.5,-153.2 774.5,-150.7 772.25,-153.2 774.5,-148.2 774.5,-148.2"/>
</g>
</g>
</svg>