<svg xmlns="http://www.w3.org/2000/svg" xmlns:xlink="http://www.w3.org/1999/xlink" width="534pt" height="808pt" viewBox="0.00 0.00 534.00 807.50">
<g id="graph0" class="graph" transform="scale(1 1) rotate(0) translate(4 803.5)">
<title>%3</title>
<polygon fill="white" stroke="transparent" points="-4,4 -4,-803.5 530,-803.5 530,4 -4,4"/>
<!-- _START -->
<g id="node1" class="node">
<title>_START</title>
</g>
<!-- 0 -->
<g id="node2" class="node">
<title>0</title>
<path fill="none" stroke="black" d="M104.33,-757C104.33,-757 64.67,-757 64.67,-757 61.83,-757 59,-754.17 59,-751.33 59,-751.33 59,-745.67 59,-745.67 59,-742.83 61.83,-740 64.67,-740 64.67,-740 104.33,-740 104.33,-740 107.17,-740 110,-742.83 110,-745.67 110,-745.67 110,-751.33 110,-751.33 110,-754.17 107.17,-757 104.33,-757"/>
<text text-anchor="start" x="63" y="-746" font-family="Courier,monospace" font-size="10.00">start,ε</text>
</g>
<!-- _START&#45;&gt;0 -->
<g id="edge1" class="edge">
<title>_START-&gt;0</title>
<path fill="none" stroke="black" d="M1.06,-748.5C2.53,-748.5 30.8,-748.5 53.84,-748.5"/>
<polygon fill="black" stroke="black" points="58.96,-748.5 53.96,-750.75 56.46,-748.5 53.96,-748.5 53.96,-748.5 53.96,-748.5 56.46,-748.5 53.96,-746.25 58.96,-748.5 58.96,-748.5"/>
</g>
<!-- 1 -->
<g id="node3" class="node">
<title>1</title>
<path fill="none" stroke="black" d="M98.33,-704C98.33,-704 70.67,-704 70.67,-704 67.83,-704 65,-701.17 65,-698.33 65,-698.33 65,-692.67 65,-692.67 65,-689.83 67.83,-687 70.67,-687 70.67,-687 98.33,-687 98.33,-687 101.17,-687 104,-689.83 104,-692.67 104,-692.67 104,-698.33 104,-698.33 104,-701.17 101.17,-704 98.33,-704"/>
<text text-anchor="start" x="69" y="-693" font-family="Courier,monospace" font-size="10.00">0.1,$</text>
</g>
<!-- 0&#45;&gt;1 -->
<g id="edge5" class="edge">
<title>0-&gt;1</title>
<path fill="none" stroke="black" d="M84.5,-739.85C84.5,-729.63 84.5,-719.42 84.5,-709.21"/>
<polygon fill="black" stroke="black" points="84.5,-704.2 86.75,-709.2 84.5,-706.7 84.5,-709.2 84.5,-709.2 84.5,-709.2 84.5,-706.7 82.25,-709.2 84.5,-704.2 84.5,-704.2"/>
</g>
<!-- 2 -->
<g id="node4" class="node">
<title>2</title>
<path fill="none" stroke="black" d="M113.33,-651C113.33,-651 55.67,-651 55.67,-651 52.83,-651 50,-648.17 50,-645.33 50,-645.33 50,-639.67 50,-639.67 50,-636.83 52.83,-634 55.67,-634 55.67,-634 113.33,-634 113.33,-634 116.17,-634 119,-636.83 119,-639.67 119,-639.67 119,-645.33 119,-645.33 119,-648.17 116.17,-651 113.33,-651"/>
<text text-anchor="start" x="54" y="-640" font-family="Courier,monospace" font-size="10.00">loop,[S] $</text>
</g>
<!-- 1&#45;&gt;2 -->
<g id="edge6" class="edge">
<title>1-&gt;2</title>
<path fill="none" stroke="black" d="M84.5,-686.85C84.5,-676.63 84.5,-666.42 84.5,-656.21"/>
<polygon fill="black" stroke="black" points="84.5,-651.2 86.75,-656.2 84.5,-653.7 84.5,-656.2 84.5,-656.2 84.5,-656.2 84.5,-653.7 82.25,-656.2 84.5,-651.2 84.5,-651.2"/>
</g>
<!-- 7 -->
<g id="node9" class="node">
<title>7</title>
<path fill="none" stroke="black" d="M110.33,-563C110.33,-563 58.67,-563 58.67,-563 55.83,-563 53,-560.17 53,-557.33 53,-557.33 53,-551.67 53,-551.67 53,-548.83 55.83,-546 58.67,-546 58.67,-546 110.33,-546 110.33,-546 113.17,-546 116,-548.83 116,-551.67 116,-551.67 116,-557.33 116,-557.33 116,-560.17 113.17,-563 110.33,-563"/>
<text text-anchor="start" x="57" y="-552" font-family="Courier,monospace" font-size="10.00">1.2,[b] $</text>
</g>
<!-- 2&#45;&gt;7 -->
<g id="edge7" class="edge">
<title>2-&gt;7</title>
<path fill="none" stroke="black" d="M62.66,-633.82C38.72,-622.94 5.44,-602.98 19.5,-580.5 25.82,-570.4 36.82,-564.23 48,-560.45"/>
<polygon fill="black" stroke="black" points="52.79,-558.97 48.68,-562.59 50.4,-559.71 48.01,-560.44 48.01,-560.44 48.01,-560.44 50.4,-559.71 47.35,-558.29 52.79,-558.97 52.79,-558.97"/>
</g>
<!-- 8 -->
<g id="node10" class="node">
<title>8</title>
<path fill="none" stroke="black" d="M113.33,-598C113.33,-598 55.67,-598 55.67,-598 52.83,-598 50,-595.17 50,-592.33 50,-592.33 50,-586.67 50,-586.67 50,-583.83 52.83,-581 55.67,-581 55.67,-581 113.33,-581 113.33,-581 116.17,-581 119,-583.83 119,-586.67 119,-586.67 119,-592.33 119,-592.33 119,-595.17 116.17,-598 113.33,-598"/>
<text text-anchor="start" x="54" y="-587" font-family="Courier,monospace" font-size="10.00">loop,[b] $</text>
</g>
<!-- 2&#45;&gt;8 -->
<g id="edge8" class="edge">
<title>2-&gt;8</title>
<path fill="none" stroke="black" d="M84.5,-633.85C84.5,-623.63 84.5,-613.42 84.5,-603.21"/>
<polygon fill="black" stroke="black" points="84.5,-598.2 86.75,-603.2 84.5,-600.7 84.5,-603.2 84.5,-603.2 84.5,-603.2 84.5,-600.7 82.25,-603.2 84.5,-598.2 84.5,-598.2"/>
</g>
<!-- 3 -->
<g id="node5" class="node">
<title>3</title>
</g>
<!-- 4 -->
<g id="node6" class="node">
<title>4</title>
</g>
<!-- 3&#45;&gt;4 -->
<g id="edge2" class="edge">
<title>3-&gt;4</title>
<path fill="none" stroke="white" d="M104.25,-783.5C129.12,-783.5 173.05,-783.5 200.38,-783.5"/>
<polygon fill="white" stroke="white" points="205.61,-783.5 200.61,-785.75 203.11,-783.5 200.61,-783.5 200.61,-783.5 200.61,-783.5 203.11,-783.5 200.61,-781.25 205.61,-783.5 205.61,-783.5"/>
<text text-anchor="start" x="152" y="-789.3" font-family="Courier,monospace" font-size="9.00">a</text>
</g>
<!-- 5 -->
<g id="node7" class="node">
<title>5</title>
</g>
<!-- 4&#45;&gt;5 -->
<g id="edge3" class="edge">
<title>4-&gt;5</title>
<path fill="none" stroke="white" d="M245.25,-783.5C270.12,-783.5 314.05,-783.5 341.38,-783.5"/>
<polygon fill="white" stroke="white" points="346.61,-783.5 341.61,-785.75 344.11,-783.5 341.61,-783.5 341.61,-783.5 341.61,-783.5 344.11,-783.5 341.61,-781.25 346.61,-783.5 346.61,-783.5"/>
<text text-anchor="start" x="293" y="-789.3" font-family="Courier,monospace" font-size="9.00">a</text>
</g>
<!-- 6 -->
<g id="node8" class="node">
<title>6</title>
</g>
<!-- 5&#45;&gt;6 -->
<g id="edge4" class="edge">
<title>5-&gt;6</title>
<path fill="none" stroke="white" d="M386.21,-783.5C408.12,-783.5 444.45,-783.5 468.44,-783.5"/>
<polygon fill="white" stroke="white" points="473.66,-783.5 468.66,-785.75 471.16,-783.5 468.66,-783.5 468.66,-783.5 468.66,-783.5 471.16,-783.5 468.66,-781.25 473.66,-783.5 473.66,-783.5"/>
<text text-anchor="start" x="434" y="-789.3" font-family="Courier,monospace" font-size="9.00">b</text>
</g>
<!-- 9 -->
<g id="node11" class="node">
<title>9</title>
<path fill="none" stroke="black" d="M116.33,-510C116.33,-510 52.67,-510 52.67,-510 49.83,-510 47,-507.17 47,-504.33 47,-504.33 47,-498.67 47,-498.67 47,-495.83 49.83,-493 52.67,-493 52.67,-493 116.33,-493 116.33,-493 119.17,-493 122,-495.83 122,-498.67 122,-498.67 122,-504.33 122,-504.33 122,-507.17 119.17,-510 116.33,-510"/>
<text text-anchor="start" x="51" y="-499" font-family="Courier,monospace" font-size="10.00">1.1,[T] b $</text>
</g>
<!-- 7&#45;&gt;9 -->
<g id="edge9" class="edge">
<title>7-&gt;9</title>
<path fill="none" stroke="black" d="M84.5,-545.85C84.5,-535.63 84.5,-525.42 84.5,-515.21"/>
<polygon fill="black" stroke="black" points="84.5,-510.2 86.75,-515.2 84.5,-512.7 84.5,-515.2 84.5,-515.2 84.5,-515.2 84.5,-512.7 82.25,-515.2 84.5,-510.2 84.5,-510.2"/>
</g>
<!-- 10 -->
<g id="node12" class="node">
<title>10</title>
<path fill="none" stroke="black" d="M125.33,-457C125.33,-457 43.67,-457 43.67,-457 40.83,-457 38,-454.17 38,-451.33 38,-451.33 38,-445.67 38,-445.67 38,-442.83 40.83,-440 43.67,-440 43.67,-440 125.33,-440 125.33,-440 128.17,-440 131,-442.83 131,-445.67 131,-445.67 131,-451.33 131,-451.33 131,-454.17 128.17,-457 125.33,-457"/>
<text text-anchor="start" x="42" y="-446" font-family="Courier,monospace" font-size="10.00">loop,[a] T b …</text>
</g>
<!-- 9&#45;&gt;10 -->
<g id="edge10" class="edge">
<title>9-&gt;10</title>
<path fill="none" stroke="black" d="M84.5,-492.85C84.5,-482.63 84.5,-472.42 84.5,-462.21"/>
<polygon fill="black" stroke="black" points="84.5,-457.2 86.75,-462.2 84.5,-459.7 84.5,-462.2 84.5,-462.2 84.5,-462.2 84.5,-459.7 82.25,-462.2 84.5,-457.2 84.5,-457.2"/>
</g>
<!-- 11 -->
<g id="node13" class="node">
<title>11</title>
<path fill="none" stroke="black" d="M260.33,-457C260.33,-457 190.67,-457 190.67,-457 187.83,-457 185,-454.17 185,-451.33 185,-451.33 185,-445.67 185,-445.67 185,-442.83 187.83,-440 190.67,-440 190.67,-440 260.33,-440 260.33,-440 263.17,-440 266,-442.83 266,-445.67 266,-445.67 266,-451.33 266,-451.33 266,-454.17 263.17,-457 260.33,-457"/>
<text text-anchor="start" x="189" y="-446" font-family="Courier,monospace" font-size="10.00">loop,[T] b $</text>
</g>
<!-- 10&#45;&gt;11 -->
<g id="edge11" class="edge">
<title>10-&gt;11</title>
<path fill="none" stroke="black" d="M131.01,-448.5C146.66,-448.5 164.16,-448.5 179.75,-448.5"/>
<polygon fill="black" stroke="black" points="184.96,-448.5 179.96,-450.75 182.46,-448.5 179.96,-448.5 179.96,-448.5 179.96,-448.5 182.46,-448.5 179.96,-446.25 184.96,-448.5 184.96,-448.5"/>
</g>
<!-- 12 -->
<g id="node14" class="node">
<title>12</title>
<path fill="none" stroke="black" d="M257.33,-369C257.33,-369 193.67,-369 193.67,-369 190.83,-369 188,-366.17 188,-363.33 188,-363.33 188,-357.67 188,-357.67 188,-354.83 190.83,-352 193.67,-352 193.67,-352 257.33,-352 257.33,-352 260.17,-352 263,-354.83 263,-357.67 263,-357.67 263,-363.33 263,-363.33 263,-366.17 260.17,-369 257.33,-369"/>
<text text-anchor="start" x="192" y="-358" font-family="Courier,monospace" font-size="10.00">3.1,[a] b $</text>
</g>
<!-- 11&#45;&gt;12 -->
<g id="edge12" class="edge">
<title>11-&gt;12</title>
<path fill="none" stroke="black" d="M201.63,-439.92C175.48,-429.14 139.22,-409.27 155,-386.5 161.57,-377.02 172.02,-370.98 182.88,-367.15"/>
<polygon fill="black" stroke="black" points="187.89,-365.53 183.82,-369.21 185.51,-366.3 183.13,-367.07 183.13,-367.07 183.13,-367.07 185.51,-366.3 182.44,-364.92 187.89,-365.53 187.89,-365.53"/>
</g>
<!-- 13 -->
<g id="node15" class="node">
<title>13</title>
<path fill="none" stroke="black" d="M254.33,-404C254.33,-404 196.67,-404 196.67,-404 193.83,-404 191,-401.17 191,-398.33 191,-398.33 191,-392.67 191,-392.67 191,-389.83 193.83,-387 196.67,-387 196.67,-387 254.33,-387 254.33,-387 257.17,-387 260,-389.83 260,-392.67 260,-392.67 260,-398.33 260,-398.33 260,-401.17 257.17,-404 254.33,-404"/>
<text text-anchor="start" x="195" y="-393" font-family="Courier,monospace" font-size="10.00">loop,[b] $</text>
</g>
<!-- 11&#45;&gt;13 -->
<g id="edge13" class="edge">
<title>11-&gt;13</title>
<path fill="none" stroke="black" d="M225.5,-439.85C225.5,-429.63 225.5,-419.42 225.5,-409.21"/>
<polygon fill="black" stroke="black" points="225.5,-404.2 227.75,-409.2 225.5,-406.7 225.5,-409.2 225.5,-409.2 225.5,-409.2 225.5,-406.7 223.25,-409.2 225.5,-404.2 225.5,-404.2"/>
</g>
<!-- 14 -->
<g id="node16" class="node">
<title>14</title>
<path fill="none" stroke="black" d="M266.33,-316C266.33,-316 184.67,-316 184.67,-316 181.83,-316 179,-313.17 179,-310.33 179,-310.33 179,-304.67 179,-304.67 179,-301.83 181.83,-299 184.67,-299 184.67,-299 266.33,-299 266.33,-299 269.17,-299 272,-301.83 272,-304.67 272,-304.67 272,-310.33 272,-310.33 272,-313.17 269.17,-316 266.33,-316"/>
<text text-anchor="start" x="183" y="-305" font-family="Courier,monospace" font-size="10.00">loop,[T] a b …</text>
</g>
<!-- 12&#45;&gt;14 -->
<g id="edge14" class="edge">
<title>12-&gt;14</title>
<path fill="none" stroke="black" d="M225.5,-351.85C225.5,-341.63 225.5,-331.42 225.5,-321.21"/>
<polygon fill="black" stroke="black" points="225.5,-316.2 227.75,-321.2 225.5,-318.7 225.5,-321.2 225.5,-321.2 225.5,-321.2 225.5,-318.7 223.25,-321.2 225.5,-316.2 225.5,-316.2"/>
</g>
<!-- 15 -->
<g id="node17" class="node">
<title>15</title>
<path fill="none" stroke="black" d="M263.33,-228C263.33,-228 187.67,-228 187.67,-228 184.83,-228 182,-225.17 182,-222.33 182,-222.33 182,-216.67 182,-216.67 182,-213.83 184.83,-211 187.67,-211 187.67,-211 263.33,-211 263.33,-211 266.17,-211 269,-213.83 269,-216.67 269,-216.67 269,-222.33 269,-222.33 269,-225.17 266.17,-228 263.33,-228"/>
<text text-anchor="start" x="186" y="-217" font-family="Courier,monospace" font-size="10.00">3.1,[a] a b …</text>
</g>
<!-- 14&#45;&gt;15 -->
<g id="edge15" class="edge">
<title>14-&gt;15</title>
<path fill="none" stroke="black" d="M201.63,-298.92C175.48,-288.14 139.22,-268.27 155,-245.5 160.39,-237.72 168.39,-232.26 177.09,-228.43"/>
<polygon fill="black" stroke="black" points="181.98,-226.47 178.18,-230.42 179.66,-227.4 177.34,-228.33 177.34,-228.33 177.34,-228.33 179.66,-227.4 176.5,-226.24 181.98,-226.47 181.98,-226.47"/>
</g>
<!-- 16 -->
<g id="node18" class="node">
<title>16</title>
<path fill="none" stroke="black" d="M260.33,-263C260.33,-263 190.67,-263 190.67,-263 187.83,-263 185,-260.17 185,-257.33 185,-257.33 185,-251.67 185,-251.67 185,-248.83 187.83,-246 190.67,-246 190.67,-246 260.33,-246 260.33,-246 263.17,-246 266,-248.83 266,-251.67 266,-251.67 266,-257.33 266,-257.33 266,-260.17 263.17,-263 260.33,-263"/>
<text text-anchor="start" x="189" y="-252" font-family="Courier,monospace" font-size="10.00">loop,[a] b $</text>
</g>
<!-- 14&#45;&gt;16 -->
<g id="edge16" class="edge">
<title>14-&gt;16</title>
<path fill="none" stroke="black" d="M225.5,-298.85C225.5,-288.63 225.5,-278.42 225.5,-268.21"/>
<polygon fill="black" stroke="black" points="225.5,-263.2 227.75,-268.2 225.5,-265.7 225.5,-268.2 225.5,-268.2 225.5,-268.2 225.5,-265.7 223.25,-268.2 225.5,-263.2 225.5,-263.2"/>
</g>
<!-- 17 -->
<g id="node19" class="node">
<title>17</title>
<path fill="none" stroke="black" d="M266.33,-140C266.33,-140 184.67,-140 184.67,-140 181.83,-140 179,-137.17 179,-134.33 179,-134.33 179,-128.67 179,-128.67 179,-125.83 181.83,-123 184.67,-123 184.67,-123 266.33,-123 266.33,-123 269.17,-123 272,-125.83 272,-128.67 272,-128.67 272,-134.33 272,-134.33 272,-137.17 269.17,-140 266.33,-140"/>
<text text-anchor="start" x="183" y="-129" font-family="Courier,monospace" font-size="10.00">loop,[T] a a …</text>
</g>
<!-- 15&#45;&gt;17 -->
<g id="edge19" class="edge">
<title>15-&gt;17</title>
<path fill="none" stroke="black" d="M181.97,-211.88C171.44,-207.88 161.39,-201.79 155,-192.5 140.41,-171.28 171.18,-152.88 196.57,-141.98"/>
<polygon fill="black" stroke="black" points="201.24,-140.04 197.49,-144.04 198.93,-141 196.62,-141.96 196.62,-141.96 196.62,-141.96 198.93,-141 195.76,-139.89 201.24,-140.04 201.24,-140.04"/>
</g>
<!-- 18 -->
<g id="node20" class="node">
<title>18</title>
<path fill="none" stroke="black" d="M395.33,-263C395.33,-263 337.67,-263 337.67,-263 334.83,-263 332,-260.17 332,-257.33 332,-257.33 332,-251.67 332,-251.67 332,-248.83 334.83,-246 337.67,-246 337.67,-246 395.33,-246 395.33,-246 398.17,-246 401,-248.83 401,-251.67 401,-251.67 401,-257.33 401,-257.33 401,-260.17 398.17,-263 395.33,-263"/>
<text text-anchor="start" x="336" y="-252" font-family="Courier,monospace" font-size="10.00">loop,[b] $</text>
</g>
<!-- 16&#45;&gt;18 -->
<g id="edge20" class="edge">
<title>16-&gt;18</title>
<path fill="none" stroke="black" d="M266.33,-254.5C285.25,-254.5 307.78,-254.5 326.58,-254.5"/>
<polygon fill="black" stroke="black" points="331.78,-254.5 326.78,-256.75 329.28,-254.5 326.78,-254.5 326.78,-254.5 326.78,-254.5 329.28,-254.5 326.78,-252.25 331.78,-254.5 331.78,-254.5"/>
</g>
<!-- 19 -->
<g id="node21" class="node">
<title>19</title>
<path fill="none" stroke="black" d="M263.33,-193C263.33,-193 187.67,-193 187.67,-193 184.83,-193 182,-190.17 182,-187.33 182,-187.33 182,-181.67 182,-181.67 182,-178.83 184.83,-176 187.67,-176 187.67,-176 263.33,-176 263.33,-176 266.17,-176 269,-178.83 269,-181.67 269,-181.67 269,-187.33 269,-187.33 269,-190.17 266.17,-193 263.33,-193"/>
<text text-anchor="start" x="186" y="-182" font-family="Courier,monospace" font-size="10.00">3.1,[a] a a …</text>
</g>
<!-- 17&#45;&gt;19 -->
<g id="edge21" class="edge">
<title>17-&gt;19</title>
<path fill="none" stroke="black" d="M206.37,-140.2C186.99,-151.15 185.5,-162.11 201.89,-173.06"/>
<polygon fill="black" stroke="black" points="206.44,-175.85 201,-175.16 204.31,-174.54 202.18,-173.24 202.18,-173.24 202.18,-173.24 204.31,-174.54 203.35,-171.32 206.44,-175.85 206.44,-175.85"/>
</g>
<!-- 21 -->
<g id="node23" class="node">
<title>21</title>
<path fill="none" stroke="black" d="M266.33,-87C266.33,-87 184.67,-87 184.67,-87 181.83,-87 179,-84.17 179,-81.33 179,-81.33 179,-75.67 179,-75.67 179,-72.83 181.83,-70 184.67,-70 184.67,-70 266.33,-70 266.33,-70 269.17,-70 272,-72.83 272,-75.67 272,-75.67 272,-81.33 272,-81.33 272,-84.17 269.17,-87 266.33,-87"/>
<text text-anchor="start" x="183" y="-76" font-family="Courier,monospace" font-size="10.00">loop,[a] a b …</text>
</g>
<!-- 17&#45;&gt;21 -->
<g id="edge22" class="edge">
<title>17-&gt;21</title>
<path fill="none" stroke="black" d="M225.5,-122.85C225.5,-112.63 225.5,-102.42 225.5,-92.21"/>
<polygon fill="black" stroke="black" points="225.5,-87.2 227.75,-92.2 225.5,-89.7 225.5,-92.2 225.5,-92.2 225.5,-92.2 225.5,-89.7 223.25,-92.2 225.5,-87.2 225.5,-87.2"/>
</g>
<!-- 24 -->
<g id="node26" class="node">
<title>24</title>
<path fill="none" stroke="black" d="M266.33,-52C266.33,-52 184.67,-52 184.67,-52 181.83,-52 179,-49.17 179,-46.33 179,-46.33 179,-40.67 179,-40.67 179,-37.83 181.83,-35 184.67,-35 184.67,-35 266.33,-35 266.33,-35 269.17,-35 272,-37.83 272,-40.67 272,-40.67 272,-46.33 272,-46.33 272,-49.17 269.17,-52 266.33,-52"/>
<text text-anchor="start" x="183" y="-41" font-family="Courier,monospace" font-size="10.00">loop,[a] a a …</text>
</g>
<!-- 17&#45;&gt;24 -->
<g id="edge23" class="edge">
<title>17-&gt;24</title>
<path fill="none" stroke="black" d="M201.63,-122.92C175.48,-112.14 139.22,-92.27 155,-69.5 159.74,-62.66 166.49,-57.62 173.96,-53.9"/>
<polygon fill="black" stroke="black" points="178.69,-51.75 175.07,-55.87 176.41,-52.78 174.14,-53.82 174.14,-53.82 174.14,-53.82 176.41,-52.78 173.21,-51.77 178.69,-51.75 178.69,-51.75"/>
</g>
<!-- 20 -->
<g id="node22" class="node">
<title>20</title>
<path fill="none" stroke="black" d="M510.33,-263C510.33,-263 476.67,-263 476.67,-263 473.83,-263 471,-260.17 471,-257.33 471,-257.33 471,-251.67 471,-251.67 471,-248.83 473.83,-246 476.67,-246 476.67,-246 510.33,-246 510.33,-246 513.17,-246 516,-248.83 516,-251.67 516,-251.67 516,-257.33 516,-257.33 516,-260.17 513.17,-263 510.33,-263"/>
<text text-anchor="start" x="475" y="-252" font-family="Courier,monospace" font-size="10.00">loop,$</text>
</g>
<!-- 18&#45;&gt;20 -->
<g id="edge24" class="edge">
<title>18-&gt;20</title>
<path fill="none" stroke="black" d="M401.33,-254.5C421.55,-254.5 446.89,-254.5 465.72,-254.5"/>
<polygon fill="black" stroke="black" points="470.84,-254.5 465.84,-256.75 468.34,-254.5 465.84,-254.5 465.84,-254.5 465.84,-254.5 468.34,-254.5 465.84,-252.25 470.84,-254.5 470.84,-254.5"/>
</g>
<!-- 19&#45;&gt;17 -->
<g id="edge17" class="edge">
<title>19-&gt;17</title>
<path fill="none" stroke="black" d="M244.56,-175.85C263.98,-164.89 265.52,-153.94 249.17,-142.98"/>
<polygon fill="black" stroke="black" points="244.63,-140.2 250.07,-140.89 246.76,-141.5 248.89,-142.81 248.89,-142.81 248.89,-142.81 246.76,-141.5 247.72,-144.73 244.63,-140.2 244.63,-140.2"/>
</g>
<!-- 19&#45;&gt;24 -->
<g id="edge18" class="edge">
<title>19-&gt;24</title>
<path fill="none" stroke="black" d="M200.86,-175.98C184.65,-168.95 164.7,-157.2 155,-139.5 140.05,-112.22 137.28,-95.07 155,-69.5 159.74,-62.66 166.49,-57.62 173.96,-53.9"/>
<polygon fill="black" stroke="black" points="178.69,-51.75 175.07,-55.87 176.41,-52.78 174.14,-53.82 174.14,-53.82 174.14,-53.82 176.41,-52.78 173.21,-51.77 178.69,-51.75 178.69,-51.75"/>
</g>
<!-- 22 -->
<g id="node24" class="node">
<title>22</title>
<path fill="none" stroke="black" d="M516.33,-206C516.33,-206 470.67,-206 470.67,-206 467.83,-206 465,-203.17 465,-200.33 465,-200.33 465,-194.67 465,-194.67 465,-191.83 467.83,-189 470.67,-189 470.67,-189 516.33,-189 516.33,-189 519.17,-189 522,-191.83 522,-194.67 522,-194.67 522,-200.33 522,-200.33 522,-203.17 519.17,-206 516.33,-206"/>
<path fill="none" stroke="black" d="M517.67,-210C517.67,-210 469.33,-210 469.33,-210 465.17,-210 461,-205.83 461,-201.67 461,-201.67 461,-193.33 461,-193.33 461,-189.17 465.17,-185 469.33,-185 469.33,-185 517.67,-185 517.67,-185 521.83,-185 526,-189.17 526,-193.33 526,-193.33 526,-201.67 526,-201.67 526,-205.83 521.83,-210 517.67,-210"/>
<text text-anchor="start" x="469" y="-195" font-family="Courier,monospace" font-size="10.00">accept,ε</text>
</g>
<!-- 20&#45;&gt;22 -->
<g id="edge25" class="edge">
<title>20-&gt;22</title>
<path fill="none" stroke="black" d="M493.5,-245.89C493.5,-235.82 493.5,-225.75 493.5,-215.68"/>
<polygon fill="black" stroke="black" points="493.5,-210.41 495.75,-215.41 493.5,-212.91 493.5,-215.41 493.5,-215.41 493.5,-215.41 493.5,-212.91 491.25,-215.41 493.5,-210.41 493.5,-210.41"/>
</g>
<!-- 23 -->
<g id="node25" class="node">
<title>23</title>
<path fill="none" stroke="black" d="M401.33,-87C401.33,-87 331.67,-87 331.67,-87 328.83,-87 326,-84.17 326,-81.33 326,-81.33 326,-75.67 326,-75.67 326,-72.83 328.83,-70 331.67,-70 331.67,-70 401.33,-70 401.33,-70 404.17,-70 407,-72.83 407,-75.67 407,-75.67 407,-81.33 407,-81.33 407,-84.17 404.17,-87 401.33,-87"/>
<text text-anchor="start" x="330" y="-76" font-family="Courier,monospace" font-size="10.00">loop,[a] b $</text>
</g>
<!-- 21&#45;&gt;23 -->
<g id="edge26" class="edge">
<title>21-&gt;23</title>
<path fill="none" stroke="black" d="M272.01,-78.5C287.66,-78.5 305.16,-78.5 320.75,-78.5"/>
<polygon fill="black" stroke="black" points="325.96,-78.5 320.96,-80.75 323.46,-78.5 320.96,-78.5 320.96,-78.5 320.96,-78.5 323.46,-78.5 320.96,-76.25 325.96,-78.5 325.96,-78.5"/>
</g>
<!-- 25 -->
<g id="node27" class="node">
<title>25</title>
<path fill="none" stroke="black" d="M407.33,-52C407.33,-52 325.67,-52 325.67,-52 322.83,-52 320,-49.17 320,-46.33 320,-46.33 320,-40.67 320,-40.67 320,-37.83 322.83,-35 325.67,-35 325.67,-35 407.33,-35 407.33,-35 410.17,-35 413,-37.83 413,-40.67 413,-40.67 413,-46.33 413,-46.33 413,-49.17 410.17,-52 407.33,-52"/>
<text text-anchor="start" x="324" y="-41" font-family="Courier,monospace" font-size="10.00">loop,[a] a b …</text>
</g>
<!-- 24&#45;&gt;25 -->
<g id="edge27" class="edge">
<title>24-&gt;25</title>
<path fill="none" stroke="black" d="M272.01,-43.5C285.69,-43.5 300.79,-43.5 314.78,-43.5"/>
<polygon fill="black" stroke="black" points="319.88,-43.5 314.88,-45.75 317.38,-43.5 314.88,-43.5 314.88,-43.5 314.88,-43.5 317.38,-43.5 314.88,-41.25 319.88,-43.5 319.88,-43.5"/>
</g>
<!-- 26 -->
<g id="node28" class="node">
<title>26</title>
<path fill="none" stroke="black" d="M407.33,-17C407.33,-17 325.67,-17 325.67,-17 322.83,-17 320,-14.17 320,-11.33 320,-11.33 320,-5.67 320,-5.67 320,-2.83 322.83,0 325.67,0 325.67,0 407.33,0 407.33,0 410.17,0 413,-2.83 413,-5.67 413,-5.67 413,-11.33 413,-11.33 413,-14.17 410.17,-17 407.33,-17"/>
<text text-anchor="start" x="324" y="-6" font-family="Courier,monospace" font-size="10.00">loop,[a] a a …</text>
</g>
<!-- 24&#45;&gt;26 -->
<g id="edge28" class="edge">
<title>24-&gt;26</title>
<path fill="none" stroke="black" d="M260.5,-34.94C280.44,-29.92 305.72,-23.55 326.47,-18.33"/>
<polygon fill="black" stroke="black" points="331.37,-17.09 327.07,-20.5 328.94,-17.71 326.52,-18.32 326.52,-18.32 326.52,-18.32 328.94,-17.71 325.97,-16.13 331.37,-17.09 331.37,-17.09"/>
</g>
</g>
</svg>