<svg xmlns="http://www.w3.org/2000/svg" xmlns:xlink="http://www.w3.org/1999/xlink" width="436pt" height="142pt" viewBox="0.00 0.00 436.00 142.00">
<g id="graph0" class="graph" transform="scale(1 1) rotate(0) translate(4 138)">
<title>%3</title>
<polygon fill="white" stroke="transparent" points="-4,4 -4,-138 432,-138 432,4 -4,4"/>
<!-- _START -->
<g id="node1" class="node">
<title>_START</title>
</g>
<!-- 2 -->
<g id="node4" class="node">
<title>2</title>
<path fill="none" stroke="black" d="M57.33,-70.5C57.33,-70.5 47.67,-70.5 47.67,-70.5 44.83,-70.5 42,-67.67 42,-64.83 42,-64.83 42,-59.17 42,-59.17 42,-56.33 44.83,-53.5 47.67,-53.5 47.67,-53.5 57.33,-53.5 57.33,-53.5 60.17,-53.5 63,-56.33 63,-59.17 63,-59.17 63,-64.83 63,-64.83 63,-67.67 60.17,-70.5 57.33,-70.5"/>
<path fill="none" stroke="black" d="M58.67,-74.5C58.67,-74.5 46.33,-74.5 46.33,-74.5 42.17,-74.5 38,-70.33 38,-66.17 38,-66.17 38,-57.83 38,-57.83 38,-53.67 42.17,-49.5 46.33,-49.5 46.33,-49.5 58.67,-49.5 58.67,-49.5 62.83,-49.5 67,-53.67 67,-57.83 67,-57.83 67,-66.17 67,-66.17 67,-70.33 62.83,-74.5 58.67,-74.5"/>
<text text-anchor="start" x="46" y="-59.5" font-family="Courier,monospace" font-size="10.00">q8</text>
</g>
<!-- _START&#45;&gt;2 -->
<g id="edge1" class="edge">
<title>_START-&gt;2</title>
<path fill="none" stroke="black" d="M1.14,-62C2.84,-62 19.1,-62 32.69,-62"/>
<polygon fill="black" stroke="black" points="37.92,-62 32.92,-64.25 35.42,-62 32.92,-62 32.92,-62 32.92,-62 35.42,-62 32.92,-59.75 37.92,-62 37.92,-62"/>
</g>
<!-- 0 -->
<g id="node2" class="node">
<title>0</title>
<path fill="none" stroke="black" d="M199.33,-132.5C199.33,-132.5 189.67,-132.5 189.67,-132.5 186.83,-132.5 184,-129.67 184,-126.83 184,-126.83 184,-121.17 184,-121.17 184,-118.33 186.83,-115.5 189.67,-115.5 189.67,-115.5 199.33,-115.5 199.33,-115.5 202.17,-115.5 205,-118.33 205,-121.17 205,-121.17 205,-126.83 205,-126.83 205,-129.67 202.17,-132.5 199.33,-132.5"/>
<text text-anchor="start" x="188" y="-121.5" font-family="Courier,monospace" font-size="10.00">q1</text>
</g>
<!-- 1 -->
<g id="node3" class="node">
<title>1</title>
<path fill="none" stroke="black" d="M272.33,-118.5C272.33,-118.5 262.67,-118.5 262.67,-118.5 259.83,-118.5 257,-115.67 257,-112.83 257,-112.83 257,-107.17 257,-107.17 257,-104.33 259.83,-101.5 262.67,-101.5 262.67,-101.5 272.33,-101.5 272.33,-101.5 275.17,-101.5 278,-104.33 278,-107.17 278,-107.17 278,-112.83 278,-112.83 278,-115.67 275.17,-118.5 272.33,-118.5"/>
<text text-anchor="start" x="261" y="-107.5" font-family="Courier,monospace" font-size="10.00">q2</text>
</g>
<!-- 0&#45;&gt;1 -->
<g id="edge2" class="edge">
<title>0-&gt;1</title>
<path fill="none" stroke="black" d="M205.08,-122.11C216.97,-119.77 237.41,-115.74 251.42,-112.97"/>
<polygon fill="black" stroke="black" points="256.62,-111.95 252.15,-115.12 254.17,-112.43 251.72,-112.92 251.72,-112.92 251.72,-112.92 254.17,-112.43 251.28,-110.71 256.62,-111.95 256.62,-111.95"/>
<text text-anchor="start" x="226" y="-123.8" font-family="Courier,monospace" font-size="9.00">a</text>
</g>
<!-- 4 -->
<g id="node6" class="node">
<title>4</title>
<path fill="none" stroke="black" d="M345.33,-69.5C345.33,-69.5 335.67,-69.5 335.67,-69.5 332.83,-69.5 330,-66.67 330,-63.83 330,-63.83 330,-58.17 330,-58.17 330,-55.33 332.83,-52.5 335.67,-52.5 335.67,-52.5 345.33,-52.5 345.33,-52.5 348.17,-52.5 351,-55.33 351,-58.17 351,-58.17 351,-63.83 351,-63.83 351,-66.67 348.17,-69.5 345.33,-69.5"/>
<text text-anchor="start" x="334" y="-58.5" font-family="Courier,monospace" font-size="10.00">q3</text>
</g>
<!-- 1&#45;&gt;4 -->
<g id="edge4" class="edge">
<title>1-&gt;4</title>
<path fill="none" stroke="black" d="M278.08,-103.39C290.18,-95.04 311.13,-80.58 325.15,-70.9"/>
<polygon fill="black" stroke="black" points="329.62,-67.82 326.78,-72.51 327.56,-69.24 325.51,-70.66 325.51,-70.66 325.51,-70.66 327.56,-69.24 324.23,-68.81 329.62,-67.82 329.62,-67.82"/>
<text text-anchor="start" x="303" y="-91.8" font-family="Courier,monospace" font-size="9.00">ε</text>
</g>
<!-- 5 -->
<g id="node7" class="node">
<title>5</title>
<path fill="none" stroke="black" d="M130.33,-70.5C130.33,-70.5 120.67,-70.5 120.67,-70.5 117.83,-70.5 115,-67.67 115,-64.83 115,-64.83 115,-59.17 115,-59.17 115,-56.33 117.83,-53.5 120.67,-53.5 120.67,-53.5 130.33,-53.5 130.33,-53.5 133.17,-53.5 136,-56.33 136,-59.17 136,-59.17 136,-64.83 136,-64.83 136,-67.67 133.17,-70.5 130.33,-70.5"/>
<text text-anchor="start" x="119" y="-59.5" font-family="Courier,monospace" font-size="10.00">q7</text>
</g>
<!-- 2&#45;&gt;5 -->
<g id="edge8" class="edge">
<title>2-&gt;5</title>
<path fill="none" stroke="black" d="M67.19,-62C79.46,-62 97.41,-62 109.94,-62"/>
<polygon fill="black" stroke="black" points="114.94,-62 109.94,-64.25 112.44,-62 109.94,-62 109.94,-62 109.94,-62 112.44,-62 109.94,-59.75 114.94,-62 114.94,-62"/>
<text text-anchor="start" x="88" y="-67.8" font-family="Courier,monospace" font-size="9.00">ε</text>
</g>
<!-- 3 -->
<g id="node5" class="node">
<title>3</title>
<path fill="none" stroke="black" d="M199.33,-97.5C199.33,-97.5 189.67,-97.5 189.67,-97.5 186.83,-97.5 184,-94.67 184,-91.83 184,-91.83 184,-86.17 184,-86.17 184,-83.33 186.83,-80.5 189.67,-80.5 189.67,-80.5 199.33,-80.5 199.33,-80.5 202.17,-80.5 205,-83.33 205,-86.17 205,-86.17 205,-91.83 205,-91.83 205,-94.67 202.17,-97.5 199.33,-97.5"/>
<text text-anchor="start" x="188" y="-86.5" font-family="Courier,monospace" font-size="10.00">q5</text>
</g>
<!-- 6 -->
<g id="node8" class="node">
<title>6</title>
<path fill="none" stroke="black" d="M272.33,-71.5C272.33,-71.5 262.67,-71.5 262.67,-71.5 259.83,-71.5 257,-68.67 257,-65.83 257,-65.83 257,-60.17 257,-60.17 257,-57.33 259.83,-54.5 262.67,-54.5 262.67,-54.5 272.33,-54.5 272.33,-54.5 275.17,-54.5 278,-57.33 278,-60.17 278,-60.17 278,-65.83 278,-65.83 278,-68.67 275.17,-71.5 272.33,-71.5"/>
<path fill="none" stroke="black" d="M273.67,-75.5C273.67,-75.5 261.33,-75.5 261.33,-75.5 257.17,-75.5 253,-71.33 253,-67.17 253,-67.17 253,-58.83 253,-58.83 253,-54.67 257.17,-50.5 261.33,-50.5 261.33,-50.5 273.67,-50.5 273.67,-50.5 277.83,-50.5 282,-54.67 282,-58.83 282,-58.83 282,-67.17 282,-67.17 282,-71.33 277.83,-75.5 273.67,-75.5"/>
<text text-anchor="start" x="261" y="-60.5" font-family="Courier,monospace" font-size="10.00">q6</text>
</g>
<!-- 3&#45;&gt;6 -->
<g id="edge5" class="edge">
<title>3-&gt;6</title>
<path fill="none" stroke="black" d="M205.08,-85.49C216.07,-81.47 234.34,-74.78 248.11,-69.73"/>
<polygon fill="black" stroke="black" points="252.96,-67.96 249.03,-71.79 250.61,-68.82 248.26,-69.68 248.26,-69.68 248.26,-69.68 250.61,-68.82 247.49,-67.57 252.96,-67.96 252.96,-67.96"/>
<text text-anchor="start" x="226" y="-83.8" font-family="Courier,monospace" font-size="9.00">a</text>
</g>
<!-- 7 -->
<g id="node9" class="node">
<title>7</title>
<path fill="none" stroke="black" d="M418.33,-24.5C418.33,-24.5 408.67,-24.5 408.67,-24.5 405.83,-24.5 403,-21.67 403,-18.83 403,-18.83 403,-13.17 403,-13.17 403,-10.33 405.83,-7.5 408.67,-7.5 408.67,-7.5 418.33,-7.5 418.33,-7.5 421.17,-7.5 424,-10.33 424,-13.17 424,-13.17 424,-18.83 424,-18.83 424,-21.67 421.17,-24.5 418.33,-24.5"/>
<path fill="none" stroke="black" d="M419.67,-28.5C419.67,-28.5 407.33,-28.5 407.33,-28.5 403.17,-28.5 399,-24.33 399,-20.17 399,-20.17 399,-11.83 399,-11.83 399,-7.67 403.17,-3.5 407.33,-3.5 407.33,-3.5 419.67,-3.5 419.67,-3.5 423.83,-3.5 428,-7.67 428,-11.83 428,-11.83 428,-20.17 428,-20.17 428,-24.33 423.83,-28.5 419.67,-28.5"/>
<text text-anchor="start" x="407" y="-13.5" font-family="Courier,monospace" font-size="10.00">q4</text>
</g>
<!-- 4&#45;&gt;7 -->
<g id="edge3" class="edge">
<title>4-&gt;7</title>
<path fill="none" stroke="black" d="M351.08,-54.93C362.16,-47.9 380.66,-36.18 394.47,-27.43"/>
<polygon fill="black" stroke="black" points="398.96,-24.58 395.94,-29.16 396.84,-25.92 394.73,-27.26 394.73,-27.26 394.73,-27.26 396.84,-25.92 393.53,-25.36 398.96,-24.58 398.96,-24.58"/>
<text text-anchor="start" x="372" y="-48.8" font-family="Courier,monospace" font-size="9.00">b</text>
</g>
<!-- 5&#45;&gt;0 -->
<g id="edge6" class="edge">
<title>5-&gt;0</title>
<path fill="none" stroke="black" d="M132.18,-70.66C137.34,-78.14 145.42,-88.97 154,-97 161.63,-104.14 171.31,-110.79 179.18,-115.7"/>
<polygon fill="black" stroke="black" points="183.8,-118.52 178.36,-117.84 181.67,-117.22 179.54,-115.92 179.54,-115.92 179.54,-115.92 181.67,-117.22 180.71,-114 183.8,-118.52 183.8,-118.52"/>
<text text-anchor="start" x="157" y="-111.8" font-family="Courier,monospace" font-size="9.00">ε</text>
</g>
<!-- 5&#45;&gt;3 -->
<g id="edge7" class="edge">
<title>5-&gt;3</title>
<path fill="none" stroke="black" d="M136.1,-65.87C147.34,-70.4 166.08,-77.95 179.08,-83.19"/>
<polygon fill="black" stroke="black" points="183.92,-85.14 178.44,-85.36 181.6,-84.2 179.28,-83.27 179.28,-83.27 179.28,-83.27 181.6,-84.2 180.12,-81.18 183.92,-85.14 183.92,-85.14"/>
<text text-anchor="start" x="157" y="-82.8" font-family="Courier,monospace" font-size="9.00">ε</text>
</g>
<!-- 6&#45;&gt;5 -->
<g id="edge9" class="edge">
<title>6-&gt;5</title>
<path fill="none" stroke="black" d="M252.8,-60.69C236.44,-58.19 208.26,-54.74 184,-56 169.53,-56.75 153.09,-58.56 141.51,-60"/>
<polygon fill="black" stroke="black" points="136.24,-60.67 140.92,-57.81 138.72,-60.36 141.2,-60.04 141.2,-60.04 141.2,-60.04 138.72,-60.36 141.49,-62.27 136.24,-60.67 136.24,-60.67"/>
<text text-anchor="start" x="191.5" y="-61.8" font-family="Courier,monospace" font-size="9.00">ε</text>
</g>
<!-- 7&#45;&gt;5 -->
<g id="edge10" class="edge">
<title>7-&gt;5</title>
<path fill="none" stroke="black" d="M398.83,-11.03C384.68,-6.33 361.84,0 341.5,0 193.5,0 193.5,0 193.5,0 165.11,0 143.64,-30.37 133.31,-48.59"/>
<polygon fill="black" stroke="black" points="130.7,-53.38 131.12,-47.91 131.9,-51.19 133.09,-48.99 133.09,-48.99 133.09,-48.99 131.9,-51.19 135.07,-50.07 130.7,-53.38 130.7,-53.38"/>
<text text-anchor="start" x="264.5" y="-5.8" font-family="Courier,monospace" font-size="9.00">ε</text>
</g>
</g>
</svg>