<svg xmlns="http://www.w3.org/2000/svg" xmlns:xlink="http://www.w3.org/1999/xlink" width="566pt" height="168pt" viewBox="0.00 0.00 566.00 168.38">
<g id="graph0" class="graph" transform="scale(1 1) rotate(0) translate(4 164.38)">
<title>%3</title>
<polygon fill="white" stroke="transparent" points="-4,4 -4,-164.38 562,-164.38 562,4 -4,4"/>
<!-- _START -->
<g id="node1" class="node">
<title>_START</title>
</g>
<!-- 0 -->
<g id="node2" class="node">
<title>0</title>
<path fill="none" stroke="black" d="M71.33,-84.38C71.33,-84.38 43.67,-84.38 43.67,-84.38 40.83,-84.38 38,-81.54 38,-78.71 38,-78.71 38,-73.04 38,-73.04 38,-70.21 40.83,-67.38 43.67,-67.38 43.67,-67.38 71.33,-67.38 71.33,-67.38 74.17,-67.38 77,-70.21 77,-73.04 77,-73.04 77,-78.71 77,-78.71 77,-81.54 74.17,-84.38 71.33,-84.38"/>
<text text-anchor="start" x="42" y="-73.38" font-family="Courier,monospace" font-size="10.00">start</text>
</g>
<!-- _START&#45;&gt;0 -->
<g id="edge1" class="edge">
<title>_START-&gt;0</title>
<path fill="none" stroke="black" d="M1.16,-75.88C2.89,-75.88 18.46,-75.88 32.64,-75.88"/>
<polygon fill="black" stroke="black" points="37.78,-75.88 32.78,-78.13 35.28,-75.88 32.78,-75.88 32.78,-75.88 32.78,-75.88 35.28,-75.88 32.78,-73.63 37.78,-75.88 37.78,-75.88"/>
</g>
<!-- 1 -->
<g id="node3" class="node">
<title>1</title>
<path fill="none" stroke="black" d="M177.33,-84.38C177.33,-84.38 161.67,-84.38 161.67,-84.38 158.83,-84.38 156,-81.54 156,-78.71 156,-78.71 156,-73.04 156,-73.04 156,-70.21 158.83,-67.38 161.67,-67.38 161.67,-67.38 177.33,-67.38 177.33,-67.38 180.17,-67.38 183,-70.21 183,-73.04 183,-73.04 183,-78.71 183,-78.71 183,-81.54 180.17,-84.38 177.33,-84.38"/>
<text text-anchor="start" x="160" y="-73.38" font-family="Courier,monospace" font-size="10.00">0.1</text>
</g>
<!-- 0&#45;&gt;1 -->
<g id="edge2" class="edge">
<title>0-&gt;1</title>
<path fill="none" stroke="black" d="M77.16,-75.88C97.75,-75.88 130.65,-75.88 150.84,-75.88"/>
<polygon fill="black" stroke="black" points="155.93,-75.88 150.93,-78.13 153.43,-75.88 150.93,-75.88 150.93,-75.88 150.93,-75.88 153.43,-75.88 150.93,-73.63 155.93,-75.88 155.93,-75.88"/>
<text text-anchor="start" x="98.5" y="-81.68" font-family="Courier,monospace" font-size="9.00">ε,ε → $</text>
</g>
<!-- 2 -->
<g id="node4" class="node">
<title>2</title>
<path fill="none" stroke="black" d="M301.83,-84.38C301.83,-84.38 280.17,-84.38 280.17,-84.38 277.33,-84.38 274.5,-81.54 274.5,-78.71 274.5,-78.71 274.5,-73.04 274.5,-73.04 274.5,-70.21 277.33,-67.38 280.17,-67.38 280.17,-67.38 301.83,-67.38 301.83,-67.38 304.67,-67.38 307.5,-70.21 307.5,-73.04 307.5,-73.04 307.5,-78.71 307.5,-78.71 307.5,-81.54 304.67,-84.38 301.83,-84.38"/>
<text text-anchor="start" x="278.5" y="-73.38" font-family="Courier,monospace" font-size="10.00">loop</text>
</g>
<!-- 1&#45;&gt;2 -->
<g id="edge3" class="edge">
<title>1-&gt;2</title>
<path fill="none" stroke="black" d="M183.29,-75.88C203.86,-75.88 244.5,-75.88 269.26,-75.88"/>
<polygon fill="black" stroke="black" points="274.29,-75.88 269.29,-78.13 271.79,-75.88 269.29,-75.88 269.29,-75.88 269.29,-75.88 271.79,-75.88 269.29,-73.63 274.29,-75.88 274.29,-75.88"/>
<text text-anchor="start" x="204.5" y="-81.68" font-family="Courier,monospace" font-size="9.00">ε,ε → S</text>
</g>
<!-- 2&#45;&gt;2 -->
<g id="edge5" class="edge">
<title>2-&gt;2</title>
<path fill="none" stroke="black" d="M280.87,-84.56C275.27,-93.05 278.65,-102.38 291,-102.38 301.04,-102.38 305.15,-96.22 303.33,-89.36"/>
<polygon fill="black" stroke="black" points="301.13,-84.56 305.26,-88.17 302.18,-86.83 303.22,-89.11 303.22,-89.11 303.22,-89.11 302.18,-86.83 301.17,-90.04 301.13,-84.56 301.13,-84.56"/>
<text text-anchor="start" x="273" y="-150.18" font-family="Courier,monospace" font-size="9.00">ε,S → b</text>
<text text-anchor="start" x="273" y="-136.18" font-family="Courier,monospace" font-size="9.00">ε,T → ε</text>
<text text-anchor="start" x="273" y="-122.18" font-family="Courier,monospace" font-size="9.00">a,a → ε</text>
<text text-anchor="start" x="273" y="-108.18" font-family="Courier,monospace" font-size="9.00">b,b → ε</text>
</g>
<!-- 3 -->
<g id="node5" class="node">
<title>3</title>
<path fill="none" stroke="black" d="M433.33,-152.38C433.33,-152.38 417.67,-152.38 417.67,-152.38 414.83,-152.38 412,-149.54 412,-146.71 412,-146.71 412,-141.04 412,-141.04 412,-138.21 414.83,-135.38 417.67,-135.38 417.67,-135.38 433.33,-135.38 433.33,-135.38 436.17,-135.38 439,-138.21 439,-141.04 439,-141.04 439,-146.71 439,-146.71 439,-149.54 436.17,-152.38 433.33,-152.38"/>
<text text-anchor="start" x="416" y="-141.38" font-family="Courier,monospace" font-size="10.00">1.2</text>
</g>
<!-- 2&#45;&gt;3 -->
<g id="edge4" class="edge">
<title>2-&gt;3</title>
<path fill="none" stroke="black" d="M299.27,-84.51C307.68,-93.99 322.39,-109.02 338,-117.88 359.88,-130.29 388.3,-137.35 406.48,-140.9"/>
<polygon fill="black" stroke="black" points="411.77,-141.89 406.44,-143.18 409.31,-141.43 406.85,-140.97 406.85,-140.97 406.85,-140.97 409.31,-141.43 407.27,-138.76 411.77,-141.89 411.77,-141.89"/>
<text text-anchor="start" x="341.5" y="-139.68" font-family="Courier,monospace" font-size="9.00">ε,S → b</text>
</g>
<!-- 5 -->
<g id="node7" class="node">
<title>5</title>
<path fill="none" stroke="black" d="M433.33,-107.38C433.33,-107.38 417.67,-107.38 417.67,-107.38 414.83,-107.38 412,-104.54 412,-101.71 412,-101.71 412,-96.04 412,-96.04 412,-93.21 414.83,-90.38 417.67,-90.38 417.67,-90.38 433.33,-90.38 433.33,-90.38 436.17,-90.38 439,-93.21 439,-96.04 439,-96.04 439,-101.71 439,-101.71 439,-104.54 436.17,-107.38 433.33,-107.38"/>
<text text-anchor="start" x="416" y="-96.38" font-family="Courier,monospace" font-size="10.00">3.1</text>
</g>
<!-- 2&#45;&gt;5 -->
<g id="edge6" class="edge">
<title>2-&gt;5</title>
<path fill="none" stroke="black" d="M307.84,-83C316.56,-86.6 327.68,-90.66 338,-92.88 361.34,-97.89 388.96,-98.99 406.6,-99.11"/>
<polygon fill="black" stroke="black" points="411.74,-99.12 406.73,-101.36 409.24,-99.11 406.74,-99.11 406.74,-99.11 406.74,-99.11 409.24,-99.11 406.74,-96.86 411.74,-99.12 411.74,-99.12"/>
<text text-anchor="start" x="341.5" y="-103.68" font-family="Courier,monospace" font-size="9.00">ε,T → a</text>
</g>
<!-- 6 -->
<g id="node8" class="node">
<title>6</title>
<path fill="none" stroke="black" d="M442.33,-52.38C442.33,-52.38 408.67,-52.38 408.67,-52.38 405.83,-52.38 403,-49.54 403,-46.71 403,-46.71 403,-41.04 403,-41.04 403,-38.21 405.83,-35.38 408.67,-35.38 408.67,-35.38 442.33,-35.38 442.33,-35.38 445.17,-35.38 448,-38.21 448,-41.04 448,-41.04 448,-46.71 448,-46.71 448,-49.54 445.17,-52.38 442.33,-52.38"/>
<path fill="none" stroke="black" d="M443.67,-56.38C443.67,-56.38 407.33,-56.38 407.33,-56.38 403.17,-56.38 399,-52.21 399,-48.04 399,-48.04 399,-39.71 399,-39.71 399,-35.54 403.17,-31.38 407.33,-31.38 407.33,-31.38 443.67,-31.38 443.67,-31.38 447.83,-31.38 452,-35.54 452,-39.71 452,-39.71 452,-48.04 452,-48.04 452,-52.21 447.83,-56.38 443.67,-56.38"/>
<text text-anchor="start" x="407" y="-41.38" font-family="Courier,monospace" font-size="10.00">accept</text>
</g>
<!-- 2&#45;&gt;6 -->
<g id="edge7" class="edge">
<title>2-&gt;6</title>
<path fill="none" stroke="black" d="M303.38,-67.11C312.28,-60.8 325.24,-52.74 338,-48.88 356,-43.42 377.06,-42.1 393.89,-42.18"/>
<polygon fill="black" stroke="black" points="398.97,-42.25 393.94,-44.43 396.47,-42.21 393.97,-42.18 393.97,-42.18 393.97,-42.18 396.47,-42.21 394,-39.93 398.97,-42.25 398.97,-42.25"/>
<text text-anchor="start" x="341.5" y="-54.68" font-family="Courier,monospace" font-size="9.00">ε,$ → ε</text>
</g>
<!-- 4 -->
<g id="node6" class="node">
<title>4</title>
<path fill="none" stroke="black" d="M552.33,-21.38C552.33,-21.38 536.67,-21.38 536.67,-21.38 533.83,-21.38 531,-18.54 531,-15.71 531,-15.71 531,-10.04 531,-10.04 531,-7.21 533.83,-4.38 536.67,-4.38 536.67,-4.38 552.33,-4.38 552.33,-4.38 555.17,-4.38 558,-7.21 558,-10.04 558,-10.04 558,-15.71 558,-15.71 558,-18.54 555.17,-21.38 552.33,-21.38"/>
<text text-anchor="start" x="535" y="-10.38" font-family="Courier,monospace" font-size="10.00">1.1</text>
</g>
<!-- 3&#45;&gt;4 -->
<g id="edge8" class="edge">
<title>3-&gt;4</title>
<path fill="none" stroke="black" d="M435.08,-134.95C440.07,-129.72 446.44,-122.97 452,-116.88 481.65,-84.35 515.66,-45.19 532.65,-25.49"/>
<polygon fill="black" stroke="black" points="536.01,-21.6 534.45,-26.85 534.38,-23.49 532.75,-25.38 532.75,-25.38 532.75,-25.38 534.38,-23.49 531.04,-23.91 536.01,-21.6 536.01,-21.6"/>
<text text-anchor="start" x="473.5" y="-99.68" font-family="Courier,monospace" font-size="9.00">ε,ε → T</text>
</g>
<!-- 4&#45;&gt;2 -->
<g id="edge9" class="edge">
<title>4-&gt;2</title>
<path fill="none" stroke="black" d="M530.88,-9.83C505.47,-4.21 446.48,6.14 399,-5.88 360.39,-15.65 323.34,-46.11 304.63,-63.46"/>
<polygon fill="black" stroke="black" points="300.71,-67.15 302.8,-62.09 302.52,-65.44 304.34,-63.73 304.34,-63.73 304.34,-63.73 302.52,-65.44 305.89,-65.36 300.71,-67.15 300.71,-67.15"/>
<text text-anchor="start" x="407.5" y="-11.68" font-family="Courier,monospace" font-size="9.00">ε,ε → a</text>
</g>
<!-- 5&#45;&gt;2 -->
<g id="edge10" class="edge">
<title>5-&gt;2</title>
<path fill="none" stroke="black" d="M413.82,-90.24C405.45,-84.05 393.21,-76.25 381,-72.88 358.45,-66.65 331.45,-68.83 313.15,-71.66"/>
<polygon fill="black" stroke="black" points="307.77,-72.55 312.33,-69.51 310.23,-72.14 312.7,-71.73 312.7,-71.73 312.7,-71.73 310.23,-72.14 313.07,-73.95 307.77,-72.55 307.77,-72.55"/>
<text text-anchor="start" x="341.5" y="-78.68" font-family="Courier,monospace" font-size="9.00">ε,ε → T</text>
</g>
</g>
</svg>