<svg xmlns="http://www.w3.org/2000/svg" xmlns:xlink="http://www.w3.org/1999/xlink" width="436pt" height="163pt" viewBox="0.00 0.00 436.00 162.50">
<g id="graph0" class="graph" transform="scale(1 1) rotate(0) translate(4 158.5)">
<title>%3</title>
<polygon fill="white" stroke="transparent" points="-4,4 -4,-158.5 432,-158.5 432,4 -4,4"/>
<!-- _START -->
<g id="node1" class="node">
<title>_START</title>
</g>
<!-- 2 -->
<g id="node4" class="node">
<title>2</title>
<path fill="none" stroke="black" d="M57.33,-84C57.33,-84 47.67,-84 47.67,-84 44.83,-84 42,-81.17 42,-78.33 42,-78.33 42,-72.67 42,-72.67 42,-69.83 44.83,-67 47.67,-67 47.67,-67 57.33,-67 57.33,-67 60.17,-67 63,-69.83 63,-72.67 63,-72.67 63,-78.33 63,-78.33 63,-81.17 60.17,-84 57.33,-84"/>
<path fill="none" stroke="black" d="M58.67,-88C58.67,-88 46.33,-88 46.33,-88 42.17,-88 38,-83.83 38,-79.67 38,-79.67 38,-71.33 38,-71.33 38,-67.17 42.17,-63 46.33,-63 46.33,-63 58.67,-63 58.67,-63 62.83,-63 67,-67.17 67,-71.33 67,-71.33 67,-79.67 67,-79.67 67,-83.83 62.83,-88 58.67,-88"/>
<text text-anchor="start" x="46" y="-73" font-family="Courier,monospace" font-size="10.00">q8</text>
</g>
<!-- _START&#45;&gt;2 -->
<g id="edge1" class="edge">
<title>_START-&gt;2</title>
<path fill="none" stroke="black" d="M1.14,-75.5C2.84,-75.5 19.1,-75.5 32.69,-75.5"/>
<polygon fill="black" stroke="black" points="37.92,-75.5 32.92,-77.75 35.42,-75.5 32.92,-75.5 32.92,-75.5 32.92,-75.5 35.42,-75.5 32.92,-73.25 37.92,-75.5 37.92,-75.5"/>
</g>
<!-- 0 -->
<g id="node2" class="node">
<title>0</title>
<path fill="none" stroke="black" d="M199.33,-146C199.33,-146 189.67,-146 189.67,-146 186.83,-146 184,-143.17 184,-140.33 184,-140.33 184,-134.67 184,-134.67 184,-131.83 186.83,-129 189.67,-129 189.67,-129 199.33,-129 199.33,-129 202.17,-129 205,-131.83 205,-134.67 205,-134.67 205,-140.33 205,-140.33 205,-143.17 202.17,-146 199.33,-146"/>
<text text-anchor="start" x="188" y="-135" font-family="Courier,monospace" font-size="10.00">q1</text>
</g>
<!-- 1 -->
<g id="node3" class="node">
<title>1</title>
<path fill="none" stroke="black" d="M272.33,-149C272.33,-149 262.67,-149 262.67,-149 259.83,-149 257,-146.17 257,-143.33 257,-143.33 257,-137.67 257,-137.67 257,-134.83 259.83,-132 262.67,-132 262.67,-132 272.33,-132 272.33,-132 275.17,-132 278,-134.83 278,-137.67 278,-137.67 278,-143.33 278,-143.33 278,-146.17 275.17,-149 272.33,-149"/>
<text text-anchor="start" x="261" y="-138" font-family="Courier,monospace" font-size="10.00">q2</text>
</g>
<!-- 0&#45;&gt;1 -->
<g id="edge2" class="edge">
<title>0-&gt;1</title>
<path fill="none" stroke="black" d="M205.08,-137.9C216.97,-138.41 237.41,-139.27 251.42,-139.86"/>
<polygon fill="black" stroke="black" points="256.62,-140.08 251.53,-142.12 254.12,-139.98 251.63,-139.87 251.63,-139.87 251.63,-139.87 254.12,-139.98 251.72,-137.62 256.62,-140.08 256.62,-140.08"/>
<text text-anchor="start" x="226" y="-144.3" font-family="Courier,monospace" font-size="9.00">a</text>
</g>
<!-- 4 -->
<g id="node6" class="node">
<title>4</title>
<path fill="none" stroke="black" d="M345.33,-146C345.33,-146 335.67,-146 335.67,-146 332.83,-146 330,-143.17 330,-140.33 330,-140.33 330,-134.67 330,-134.67 330,-131.83 332.83,-129 335.67,-129 335.67,-129 345.33,-129 345.33,-129 348.17,-129 351,-131.83 351,-134.67 351,-134.67 351,-140.33 351,-140.33 351,-143.17 348.17,-146 345.33,-146"/>
<text text-anchor="start" x="334" y="-135" font-family="Courier,monospace" font-size="10.00">q3</text>
</g>
<!-- 1&#45;&gt;4 -->
<g id="edge4" class="edge">
<title>1-&gt;4</title>
<path fill="none" stroke="black" d="M278.08,-140.1C289.97,-139.59 310.41,-138.73 324.42,-138.14"/>
<polygon fill="black" stroke="black" points="329.62,-137.92 324.72,-140.38 327.12,-138.02 324.63,-138.13 324.63,-138.13 324.63,-138.13 327.12,-138.02 324.53,-135.88 329.62,-137.92 329.62,-137.92"/>
<text text-anchor="start" x="303" y="-144.3" font-family="Courier,monospace" font-size="9.00">ε</text>
</g>
<!-- 5 -->
<g id="node7" class="node">
<title>5</title>
<path fill="none" stroke="black" d="M130.33,-84C130.33,-84 120.67,-84 120.67,-84 117.83,-84 115,-81.17 115,-78.33 115,-78.33 115,-72.67 115,-72.67 115,-69.83 117.83,-67 120.67,-67 120.67,-67 130.33,-67 130.33,-67 133.17,-67 136,-69.83 136,-72.67 136,-72.67 136,-78.33 136,-78.33 136,-81.17 133.17,-84 130.33,-84"/>
<text text-anchor="start" x="119" y="-73" font-family="Courier,monospace" font-size="10.00">q7</text>
</g>
<!-- 2&#45;&gt;5 -->
<g id="edge8" class="edge">
<title>2-&gt;5</title>
<path fill="none" stroke="black" d="M67.19,-75.5C79.46,-75.5 97.41,-75.5 109.94,-75.5"/>
<polygon fill="black" stroke="black" points="114.94,-75.5 109.94,-77.75 112.44,-75.5 109.94,-75.5 109.94,-75.5 109.94,-75.5 112.44,-75.5 109.94,-73.25 114.94,-75.5 114.94,-75.5"/>
<text text-anchor="start" x="88" y="-81.3" font-family="Courier,monospace" font-size="9.00">ε</text>
</g>
<!-- 3 -->
<g id="node5" class="node">
<title>3</title>
<path fill="none" stroke="black" d="M199.33,-17C199.33,-17 189.67,-17 189.67,-17 186.83,-17 184,-14.17 184,-11.33 184,-11.33 184,-5.67 184,-5.67 184,-2.83 186.83,0 189.67,0 189.67,0 199.33,0 199.33,0 202.17,0 205,-2.83 205,-5.67 205,-5.67 205,-11.33 205,-11.33 205,-14.17 202.17,-17 199.33,-17"/>
<text text-anchor="start" x="188" y="-6" font-family="Courier,monospace" font-size="10.00">q5</text>
</g>
<!-- 7 -->
<g id="node9" class="node">
<title>7</title>
<path fill="none" stroke="black" d="M272.33,-41C272.33,-41 262.67,-41 262.67,-41 259.83,-41 257,-38.17 257,-35.33 257,-35.33 257,-29.67 257,-29.67 257,-26.83 259.83,-24 262.67,-24 262.67,-24 272.33,-24 272.33,-24 275.17,-24 278,-26.83 278,-29.67 278,-29.67 278,-35.33 278,-35.33 278,-38.17 275.17,-41 272.33,-41"/>
<path fill="none" stroke="black" d="M273.67,-45C273.67,-45 261.33,-45 261.33,-45 257.17,-45 253,-40.83 253,-36.67 253,-36.67 253,-28.33 253,-28.33 253,-24.17 257.17,-20 261.33,-20 261.33,-20 273.67,-20 273.67,-20 277.83,-20 282,-24.17 282,-28.33 282,-28.33 282,-36.67 282,-36.67 282,-40.83 277.83,-45 273.67,-45"/>
<text text-anchor="start" x="261" y="-30" font-family="Courier,monospace" font-size="10.00">q6</text>
</g>
<!-- 3&#45;&gt;7 -->
<g id="edge5" class="edge">
<title>3-&gt;7</title>
<path fill="none" stroke="black" d="M205.08,-11.74C216.07,-15.45 234.34,-21.63 248.11,-26.28"/>
<polygon fill="black" stroke="black" points="252.96,-27.92 247.5,-28.45 250.59,-27.12 248.22,-26.32 248.22,-26.32 248.22,-26.32 250.59,-27.12 248.94,-24.19 252.96,-27.92 252.96,-27.92"/>
<text text-anchor="start" x="226" y="-27.3" font-family="Courier,monospace" font-size="9.00">a</text>
</g>
<!-- 6 -->
<g id="node8" class="node">
<title>6</title>
<path fill="none" stroke="black" d="M418.33,-122C418.33,-122 408.67,-122 408.67,-122 405.83,-122 403,-119.17 403,-116.33 403,-116.33 403,-110.67 403,-110.67 403,-107.83 405.83,-105 408.67,-105 408.67,-105 418.33,-105 418.33,-105 421.17,-105 424,-107.83 424,-110.67 424,-110.67 424,-116.33 424,-116.33 424,-119.17 421.17,-122 418.33,-122"/>
<path fill="none" stroke="black" d="M419.67,-126C419.67,-126 407.33,-126 407.33,-126 403.17,-126 399,-121.83 399,-117.67 399,-117.67 399,-109.33 399,-109.33 399,-105.17 403.17,-101 407.33,-101 407.33,-101 419.67,-101 419.67,-101 423.83,-101 428,-105.17 428,-109.33 428,-109.33 428,-117.67 428,-117.67 428,-121.83 423.83,-126 419.67,-126"/>
<text text-anchor="start" x="407" y="-111" font-family="Courier,monospace" font-size="10.00">q4</text>
</g>
<!-- 4&#45;&gt;6 -->
<g id="edge3" class="edge">
<title>4-&gt;6</title>
<path fill="none" stroke="black" d="M351.08,-134.26C362.07,-130.55 380.34,-124.37 394.11,-119.72"/>
<polygon fill="black" stroke="black" points="398.96,-118.08 394.94,-121.81 396.59,-118.88 394.22,-119.68 394.22,-119.68 394.22,-119.68 396.59,-118.88 393.5,-117.55 398.96,-118.08 398.96,-118.08"/>
<text text-anchor="start" x="372" y="-133.3" font-family="Courier,monospace" font-size="9.00">b</text>
</g>
<!-- 5&#45;&gt;0 -->
<g id="edge6" class="edge">
<title>5-&gt;0</title>
<path fill="none" stroke="black" d="M132.18,-84.16C137.34,-91.64 145.42,-102.47 154,-110.5 161.63,-117.64 171.31,-124.29 179.18,-129.2"/>
<polygon fill="black" stroke="black" points="183.8,-132.02 178.36,-131.34 181.67,-130.72 179.54,-129.42 179.54,-129.42 179.54,-129.42 181.67,-130.72 180.71,-127.5 183.8,-132.02 183.8,-132.02"/>
<text text-anchor="start" x="157" y="-125.3" font-family="Courier,monospace" font-size="9.00">ε</text>
</g>
<!-- 5&#45;&gt;3 -->
<g id="edge7" class="edge">
<title>5-&gt;3</title>
<path fill="none" stroke="black" d="M128.93,-66.93C132.58,-55.52 140.53,-35.4 154,-23.5 160.88,-17.42 170.47,-13.7 178.48,-11.49"/>
<polygon fill="black" stroke="black" points="183.72,-10.18 179.41,-13.57 181.29,-10.79 178.86,-11.39 178.86,-11.39 178.86,-11.39 181.29,-10.79 178.32,-9.21 183.72,-10.18 183.72,-10.18"/>
<text text-anchor="start" x="157" y="-29.3" font-family="Courier,monospace" font-size="9.00">ε</text>
</g>
<!-- 6&#45;&gt;5 -->
<g id="edge9" class="edge">
<title>6-&gt;5</title>
<path fill="none" stroke="black" d="M398.83,-108.53C384.68,-103.83 361.84,-97.5 341.5,-97.5 193.5,-97.5 193.5,-97.5 193.5,-97.5 174.53,-97.5 153.97,-89.44 140.7,-83.08"/>
<polygon fill="black" stroke="black" points="136.16,-80.83 141.64,-81.03 138.4,-81.94 140.64,-83.04 140.64,-83.04 140.64,-83.04 138.4,-81.94 139.64,-85.06 136.16,-80.83 136.16,-80.83"/>
<text text-anchor="start" x="264.5" y="-103.3" font-family="Courier,monospace" font-size="9.00">ε</text>
</g>
<!-- 7&#45;&gt;5 -->
<g id="edge10" class="edge">
<title>7-&gt;5</title>
<path fill="none" stroke="black" d="M252.8,-36.71C226.31,-44.84 168.33,-62.65 141.13,-71.01"/>
<polygon fill="black" stroke="black" points="136.12,-72.54 140.24,-68.93 138.51,-71.81 140.9,-71.08 140.9,-71.08 140.9,-71.08 138.51,-71.81 141.56,-73.23 136.12,-72.54 136.12,-72.54"/>
<text text-anchor="start" x="191.5" y="-63.3" font-family="Courier,monospace" font-size="9.00">ε</text>
</g>
</g>
</svg>