<svg xmlns="http://www.w3.org/2000/svg" xmlns:xlink="http://www.w3.org/1999/xlink" width="403pt" height="133pt" viewBox="0.00 0.00 403.00 133.00">
<g id="graph0" class="graph" transform="scale(1 1) rotate(0) translate(4 129)">
<title>%3</title>
<polygon fill="white" stroke="transparent" points="-4,4 -4,-129 399,-129 399,4 -4,4"/>
<!-- _START -->
<g id="node1" class="node">
<title>_START</title>
</g>
<!-- 0 -->
<g id="node2" class="node">
<title>0</title>
<path fill="none" stroke="black" d="M71.33,-21C71.33,-21 43.67,-21 43.67,-21 40.83,-21 38,-18.17 38,-15.33 38,-15.33 38,-9.67 38,-9.67 38,-6.83 40.83,-4 43.67,-4 43.67,-4 71.33,-4 71.33,-4 74.17,-4 77,-6.83 77,-9.67 77,-9.67 77,-15.33 77,-15.33 77,-18.17 74.17,-21 71.33,-21"/>
<text text-anchor="start" x="42" y="-10" font-family="Courier,monospace" font-size="10.00">start</text>
</g>
<!-- _START&#45;&gt;0 -->
<g id="edge1" class="edge">
<title>_START-&gt;0</title>
<path fill="none" stroke="black" d="M1.16,-12.5C2.89,-12.5 18.46,-12.5 32.64,-12.5"/>
<polygon fill="black" stroke="black" points="37.78,-12.5 32.78,-14.75 35.28,-12.5 32.78,-12.5 32.78,-12.5 32.78,-12.5 35.28,-12.5 32.78,-10.25 37.78,-12.5 37.78,-12.5"/>
</g>
<!-- 2 -->
<g id="node4" class="node">
<title>2</title>
<path fill="none" stroke="black" d="M230.83,-21C230.83,-21 209.17,-21 209.17,-21 206.33,-21 203.5,-18.17 203.5,-15.33 203.5,-15.33 203.5,-9.67 203.5,-9.67 203.5,-6.83 206.33,-4 209.17,-4 209.17,-4 230.83,-4 230.83,-4 233.67,-4 236.5,-6.83 236.5,-9.67 236.5,-9.67 236.5,-15.33 236.5,-15.33 236.5,-18.17 233.67,-21 230.83,-21"/>
<text text-anchor="start" x="207.5" y="-10" font-family="Courier,monospace" font-size="10.00">loop</text>
</g>
<!-- 0&#45;&gt;2 -->
<g id="edge2" class="edge">
<title>0-&gt;2</title>
<path fill="none" stroke="black" d="M77.23,-12.5C107.4,-12.5 166.57,-12.5 198.09,-12.5"/>
<polygon fill="black" stroke="black" points="203.27,-12.5 198.27,-14.75 200.77,-12.5 198.27,-12.5 198.27,-12.5 198.27,-12.5 200.77,-12.5 198.27,-10.25 203.27,-12.5 203.27,-12.5"/>
<text text-anchor="start" x="98" y="-18.3" font-family="Courier,monospace" font-size="9.00">ε,ε → [S] $</text>
</g>
<!-- 1 -->
<g id="node3" class="node">
<title>1</title>
<path fill="none" stroke="black" d="M385.33,-21C385.33,-21 351.67,-21 351.67,-21 348.83,-21 346,-18.17 346,-15.33 346,-15.33 346,-9.67 346,-9.67 346,-6.83 348.83,-4 351.67,-4 351.67,-4 385.33,-4 385.33,-4 388.17,-4 391,-6.83 391,-9.67 391,-9.67 391,-15.33 391,-15.33 391,-18.17 388.17,-21 385.33,-21"/>
<path fill="none" stroke="black" d="M386.67,-25C386.67,-25 350.33,-25 350.33,-25 346.17,-25 342,-20.83 342,-16.67 342,-16.67 342,-8.33 342,-8.33 342,-4.17 346.17,0 350.33,0 350.33,0 386.67,0 386.67,0 390.83,0 395,-4.17 395,-8.33 395,-8.33 395,-16.67 395,-16.67 395,-20.83 390.83,-25 386.67,-25"/>
<text text-anchor="start" x="350" y="-10" font-family="Courier,monospace" font-size="10.00">accept</text>
</g>
<!-- 2&#45;&gt;1 -->
<g id="edge4" class="edge">
<title>2-&gt;1</title>
<path fill="none" stroke="black" d="M236.68,-12.5C260.47,-12.5 306.16,-12.5 336.74,-12.5"/>
<polygon fill="black" stroke="black" points="341.89,-12.5 336.89,-14.75 339.39,-12.5 336.89,-12.5 336.89,-12.5 336.89,-12.5 339.39,-12.5 336.89,-10.25 341.89,-12.5 341.89,-12.5"/>
<text text-anchor="start" x="284.5" y="-18.3" font-family="Courier,monospace" font-size="9.00">ε,$ → ε</text>
</g>
<!-- 2&#45;&gt;2 -->
<g id="edge3" class="edge">
<title>2-&gt;2</title>
<path fill="none" stroke="black" d="M207.78,-21.19C201.03,-29.67 205.11,-39 220,-39 232.33,-39 237.25,-32.6 234.74,-25.59"/>
<polygon fill="black" stroke="black" points="232.22,-21.19 236.66,-24.41 233.46,-23.35 234.7,-25.52 234.7,-25.52 234.7,-25.52 233.46,-23.35 232.75,-26.64 232.22,-21.19 232.22,-21.19"/>
<text text-anchor="start" x="186" y="-114.8" font-family="Courier,monospace" font-size="9.00">ε,S → [a] T b</text>
<text text-anchor="start" x="202" y="-100.8" font-family="Courier,monospace" font-size="9.00">ε,S → b</text>
<text text-anchor="start" x="191.5" y="-86.8" font-family="Courier,monospace" font-size="9.00">ε,T → [T] a</text>
<text text-anchor="start" x="202" y="-72.8" font-family="Courier,monospace" font-size="9.00">ε,T → ε</text>
<text text-anchor="start" x="202" y="-58.8" font-family="Courier,monospace" font-size="9.00">b,b → ε</text>
<text text-anchor="start" x="202" y="-44.8" font-family="Courier,monospace" font-size="9.00">a,a → ε</text>
</g>
</g>
</svg>