<svg xmlns="http://www.w3.org/2000/svg" xmlns:xlink="http://www.w3.org/1999/xlink" width="1036pt" height="25pt" viewBox="0.00 0.00 1036.00 25.00">
<g id="graph0" class="graph" transform="scale(1 1) rotate(0) translate(4 21)">
<title>%3</title>
<polygon fill="white" stroke="transparent" points="-4,4 -4,-21 1032,-21 1032,4 -4,4"/>
<!-- _START -->
<g id="node1" class="node">
<title>_START</title>
</g>
<!-- 0 -->
<g id="node2" class="node">
<title>0</title>
<path fill="none" stroke="black" d="M160.33,-17C160.33,-17 42.67,-17 42.67,-17 39.83,-17 37,-14.17 37,-11.33 37,-11.33 37,-5.67 37,-5.67 37,-2.83 39.83,0 42.67,0 42.67,0 160.33,0 160.33,0 163.17,0 166,-2.83 166,-5.67 166,-5.67 166,-11.33 166,-11.33 166,-14.17 163.17,-17 160.33,-17"/>
<text text-anchor="start" x="41" y="-6" font-family="Courier,monospace" font-size="10.00">q1,[0] 0 0 0 0 0 0 0</text>
</g>
<!-- _START&#45;&gt;0 -->
<g id="edge1" class="edge">
<title>_START-&gt;0</title>
<path fill="none" stroke="black" d="M1.07,-8.5C2.15,-8.5 15.3,-8.5 31.69,-8.5"/>
<polygon fill="black" stroke="black" points="36.87,-8.5 31.87,-10.75 34.37,-8.5 31.87,-8.5 31.87,-8.5 31.87,-8.5 34.37,-8.5 31.87,-6.25 36.87,-8.5 36.87,-8.5"/>
</g>
<!-- 2 -->
<g id="node4" class="node">
<title>2</title>
<path fill="none" stroke="black" d="M325.33,-17C325.33,-17 207.67,-17 207.67,-17 204.83,-17 202,-14.17 202,-11.33 202,-11.33 202,-5.67 202,-5.67 202,-2.83 204.83,0 207.67,0 207.67,0 325.33,0 325.33,0 328.17,0 331,-2.83 331,-5.67 331,-5.67 331,-11.33 331,-11.33 331,-14.17 328.17,-17 325.33,-17"/>
<text text-anchor="start" x="206" y="-6" font-family="Courier,monospace" font-size="10.00">q2,␣ [0] 0 0 0 0 0 0</text>
</g>
<!-- 0&#45;&gt;2 -->
<g id="edge3" class="edge">
<title>0-&gt;2</title>
<path fill="none" stroke="black" d="M166.45,-8.5C176.4,-8.5 186.72,-8.5 196.77,-8.5"/>
<polygon fill="black" stroke="black" points="202,-8.5 197,-10.75 199.5,-8.5 197,-8.5 197,-8.5 197,-8.5 199.5,-8.5 197,-6.25 202,-8.5 202,-8.5"/>
</g>
<!-- 1 -->
<g id="node3" class="node">
<title>1</title>
<path fill="none" stroke="black" d="M655.33,-17C655.33,-17 537.67,-17 537.67,-17 534.83,-17 532,-14.17 532,-11.33 532,-11.33 532,-5.67 532,-5.67 532,-2.83 534.83,0 537.67,0 537.67,0 655.33,0 655.33,0 658.17,0 661,-2.83 661,-5.67 661,-5.67 661,-11.33 661,-11.33 661,-14.17 658.17,-17 655.33,-17"/>
<text text-anchor="start" x="536" y="-6" font-family="Courier,monospace" font-size="10.00">q4,␣ x 0 [0] 0 0 0 0</text>
</g>
<!-- 4 -->
<g id="node6" class="node">
<title>4</title>
<path fill="none" stroke="black" d="M820.33,-17C820.33,-17 702.67,-17 702.67,-17 699.83,-17 697,-14.17 697,-11.33 697,-11.33 697,-5.67 697,-5.67 697,-2.83 699.83,0 702.67,0 702.67,0 820.33,0 820.33,0 823.17,0 826,-2.83 826,-5.67 826,-5.67 826,-11.33 826,-11.33 826,-14.17 823.17,-17 820.33,-17"/>
<text text-anchor="start" x="701" y="-6" font-family="Courier,monospace" font-size="10.00">q3,␣ x 0 x [0] 0 0 0</text>
</g>
<!-- 1&#45;&gt;4 -->
<g id="edge6" class="edge">
<title>1-&gt;4</title>
<path fill="none" stroke="black" d="M661.45,-8.5C671.4,-8.5 681.72,-8.5 691.77,-8.5"/>
<polygon fill="black" stroke="black" points="697,-8.5 692,-10.75 694.5,-8.5 692,-8.5 692,-8.5 692,-8.5 694.5,-8.5 692,-6.25 697,-8.5 697,-8.5"/>
</g>
<!-- 3 -->
<g id="node5" class="node">
<title>3</title>
<path fill="none" stroke="black" d="M490.33,-17C490.33,-17 372.67,-17 372.67,-17 369.83,-17 367,-14.17 367,-11.33 367,-11.33 367,-5.67 367,-5.67 367,-2.83 369.83,0 372.67,0 372.67,0 490.33,0 490.33,0 493.17,0 496,-2.83 496,-5.67 496,-5.67 496,-11.33 496,-11.33 496,-14.17 493.17,-17 490.33,-17"/>
<text text-anchor="start" x="371" y="-6" font-family="Courier,monospace" font-size="10.00">q3,␣ x [0] 0 0 0 0 0</text>
</g>
<!-- 2&#45;&gt;3 -->
<g id="edge4" class="edge">
<title>2-&gt;3</title>
<path fill="none" stroke="black" d="M331.45,-8.5C341.4,-8.5 351.72,-8.5 361.77,-8.5"/>
<polygon fill="black" stroke="black" points="367,-8.5 362,-10.75 364.5,-8.5 362,-8.5 362,-8.5 362,-8.5 364.5,-8.5 362,-6.25 367,-8.5 367,-8.5"/>
</g>
<!-- 3&#45;&gt;1 -->
<g id="edge5" class="edge">
<title>3-&gt;1</title>
<path fill="none" stroke="black" d="M496.45,-8.5C506.4,-8.5 516.72,-8.5 526.77,-8.5"/>
<polygon fill="black" stroke="black" points="532,-8.5 527,-10.75 529.5,-8.5 527,-8.5 527,-8.5 527,-8.5 529.5,-8.5 527,-6.25 532,-8.5 532,-8.5"/>
</g>
<!-- 5 -->
<g id="node7" class="node">
<title>5</title>
<path fill="none" stroke="black" d="M985.33,-17C985.33,-17 867.67,-17 867.67,-17 864.83,-17 862,-14.17 862,-11.33 862,-11.33 862,-5.67 862,-5.67 862,-2.83 864.83,0 867.67,0 867.67,0 985.33,0 985.33,0 988.17,0 991,-2.83 991,-5.67 991,-5.67 991,-11.33 991,-11.33 991,-14.17 988.17,-17 985.33,-17"/>
<text text-anchor="start" x="866" y="-6" font-family="Courier,monospace" font-size="10.00">q4,␣ x 0 x 0 [0] 0 0</text>
</g>
<!-- 4&#45;&gt;5 -->
<g id="edge7" class="edge">
<title>4-&gt;5</title>
<path fill="none" stroke="black" d="M826.45,-8.5C836.4,-8.5 846.72,-8.5 856.77,-8.5"/>
<polygon fill="black" stroke="black" points="862,-8.5 857,-10.75 859.5,-8.5 857,-8.5 857,-8.5 857,-8.5 859.5,-8.5 857,-6.25 862,-8.5 862,-8.5"/>
</g>
<!-- _DOTS_5 -->
<g id="node8" class="node">
<title>_DOTS_5</title>
</g>
<!-- 5&#45;&gt;_DOTS_5 -->
<g id="edge2" class="edge">
<title>5-&gt;_DOTS_5</title>
<path fill="none" stroke="black" stroke-dasharray="1,5" d="M991.08,-8.5C1009.97,-8.5 1025.97,-8.5 1026.95,-8.5"/>
</g>
</g>
</svg>