<svg xmlns="http://www.w3.org/2000/svg" xmlns:xlink="http://www.w3.org/1999/xlink" width="531pt" height="185pt" viewBox="0.00 0.00 531.00 185.00">
<g id="graph0" class="graph" transform="scale(1 1) rotate(0) translate(4 181)">
<title>%3</title>
<polygon fill="white" stroke="transparent" points="-4,4 -4,-181 527,-181 527,4 -4,4"/>
<!-- _START -->
<g id="node1" class="node">
<title>_START</title>
</g>
<!-- 0 -->
<g id="node2" class="node">
<title>0</title>
<path fill="none" stroke="black" d="M71.33,-126.5C71.33,-126.5 43.67,-126.5 43.67,-126.5 40.83,-126.5 38,-123.67 38,-120.83 38,-120.83 38,-115.17 38,-115.17 38,-112.33 40.83,-109.5 43.67,-109.5 43.67,-109.5 71.33,-109.5 71.33,-109.5 74.17,-109.5 77,-112.33 77,-115.17 77,-115.17 77,-120.83 77,-120.83 77,-123.67 74.17,-126.5 71.33,-126.5"/>
<text text-anchor="start" x="42" y="-115.5" font-family="Courier,monospace" font-size="10.00">start</text>
</g>
<!-- _START&#45;&gt;0 -->
<g id="edge1" class="edge">
<title>_START-&gt;0</title>
<path fill="none" stroke="black" d="M1.16,-118C2.89,-118 18.46,-118 32.64,-118"/>
<polygon fill="black" stroke="black" points="37.78,-118 32.78,-120.25 35.28,-118 32.78,-118 32.78,-118 32.78,-118 35.28,-118 32.78,-115.75 37.78,-118 37.78,-118"/>
</g>
<!-- 1 -->
<g id="node3" class="node">
<title>1</title>
<path fill="none" stroke="black" d="M513.33,-114.5C513.33,-114.5 479.67,-114.5 479.67,-114.5 476.83,-114.5 474,-111.67 474,-108.83 474,-108.83 474,-103.17 474,-103.17 474,-100.33 476.83,-97.5 479.67,-97.5 479.67,-97.5 513.33,-97.5 513.33,-97.5 516.17,-97.5 519,-100.33 519,-103.17 519,-103.17 519,-108.83 519,-108.83 519,-111.67 516.17,-114.5 513.33,-114.5"/>
<path fill="none" stroke="black" d="M514.67,-118.5C514.67,-118.5 478.33,-118.5 478.33,-118.5 474.17,-118.5 470,-114.33 470,-110.17 470,-110.17 470,-101.83 470,-101.83 470,-97.67 474.17,-93.5 478.33,-93.5 478.33,-93.5 514.67,-93.5 514.67,-93.5 518.83,-93.5 523,-97.67 523,-101.83 523,-101.83 523,-110.17 523,-110.17 523,-114.33 518.83,-118.5 514.67,-118.5"/>
<text text-anchor="start" x="478" y="-103.5" font-family="Courier,monospace" font-size="10.00">accept</text>
</g>
<!-- 0&#45;&gt;1 -->
<g id="edge13" class="edge">
<title>0-&gt;1</title>
<path fill="none" stroke="black" d="M66.96,-126.7C80.14,-139.27 106.91,-161 134.5,-161 134.5,-161 134.5,-161 412.5,-161 440.55,-161 466.38,-138.91 481.54,-122.73"/>
<polygon fill="black" stroke="black" points="485.16,-118.76 483.46,-123.97 483.48,-120.6 481.79,-122.45 481.79,-122.45 481.79,-122.45 483.48,-120.6 480.13,-120.94 485.16,-118.76 485.16,-118.76"/>
<text text-anchor="start" x="270.5" y="-166.8" font-family="Courier,monospace" font-size="9.00">ε</text>
</g>
<!-- 8 -->
<g id="node10" class="node">
<title>8</title>
<path fill="none" stroke="black" d="M140.33,-84.5C140.33,-84.5 130.67,-84.5 130.67,-84.5 127.83,-84.5 125,-81.67 125,-78.83 125,-78.83 125,-73.17 125,-73.17 125,-70.33 127.83,-67.5 130.67,-67.5 130.67,-67.5 140.33,-67.5 140.33,-67.5 143.17,-67.5 146,-70.33 146,-73.17 146,-73.17 146,-78.83 146,-78.83 146,-81.67 143.17,-84.5 140.33,-84.5"/>
<text text-anchor="start" x="129" y="-73.5" font-family="Courier,monospace" font-size="10.00">q7</text>
</g>
<!-- 0&#45;&gt;8 -->
<g id="edge12" class="edge">
<title>0-&gt;8</title>
<path fill="none" stroke="black" d="M74.25,-109.3C87.72,-101.85 106.96,-91.22 120.05,-83.99"/>
<polygon fill="black" stroke="black" points="124.57,-81.49 121.28,-85.87 122.38,-82.7 120.2,-83.91 120.2,-83.91 120.2,-83.91 122.38,-82.7 119.11,-81.94 124.57,-81.49 124.57,-81.49"/>
<text text-anchor="start" x="98" y="-102.8" font-family="Courier,monospace" font-size="9.00">ε</text>
</g>
<!-- 2 -->
<g id="node4" class="node">
<title>2</title>
<path fill="none" stroke="black" d="M209.33,-45.5C209.33,-45.5 199.67,-45.5 199.67,-45.5 196.83,-45.5 194,-42.67 194,-39.83 194,-39.83 194,-34.17 194,-34.17 194,-31.33 196.83,-28.5 199.67,-28.5 199.67,-28.5 209.33,-28.5 209.33,-28.5 212.17,-28.5 215,-31.33 215,-34.17 215,-34.17 215,-39.83 215,-39.83 215,-42.67 212.17,-45.5 209.33,-45.5"/>
<text text-anchor="start" x="198" y="-34.5" font-family="Courier,monospace" font-size="10.00">q1</text>
</g>
<!-- 3 -->
<g id="node5" class="node">
<title>3</title>
<path fill="none" stroke="black" d="M278.33,-51.5C278.33,-51.5 268.67,-51.5 268.67,-51.5 265.83,-51.5 263,-48.67 263,-45.83 263,-45.83 263,-40.17 263,-40.17 263,-37.33 265.83,-34.5 268.67,-34.5 268.67,-34.5 278.33,-34.5 278.33,-34.5 281.17,-34.5 284,-37.33 284,-40.17 284,-40.17 284,-45.83 284,-45.83 284,-48.67 281.17,-51.5 278.33,-51.5"/>
<text text-anchor="start" x="267" y="-40.5" font-family="Courier,monospace" font-size="10.00">q2</text>
</g>
<!-- 2&#45;&gt;3 -->
<g id="edge2" class="edge">
<title>2-&gt;3</title>
<path fill="none" stroke="black" d="M215.1,-37.86C226.24,-38.86 244.75,-40.52 257.73,-41.68"/>
<polygon fill="black" stroke="black" points="262.92,-42.14 257.74,-43.94 260.43,-41.92 257.94,-41.7 257.94,-41.7 257.94,-41.7 260.43,-41.92 258.14,-39.45 262.92,-42.14 262.92,-42.14"/>
<text text-anchor="start" x="236" y="-46.8" font-family="Courier,monospace" font-size="9.00">a</text>
</g>
<!-- 4 -->
<g id="node6" class="node">
<title>4</title>
<path fill="none" stroke="black" d="M347.33,-51.5C347.33,-51.5 337.67,-51.5 337.67,-51.5 334.83,-51.5 332,-48.67 332,-45.83 332,-45.83 332,-40.17 332,-40.17 332,-37.33 334.83,-34.5 337.67,-34.5 337.67,-34.5 347.33,-34.5 347.33,-34.5 350.17,-34.5 353,-37.33 353,-40.17 353,-40.17 353,-45.83 353,-45.83 353,-48.67 350.17,-51.5 347.33,-51.5"/>
<text text-anchor="start" x="336" y="-40.5" font-family="Courier,monospace" font-size="10.00">q3</text>
</g>
<!-- 3&#45;&gt;4 -->
<g id="edge4" class="edge">
<title>3-&gt;4</title>
<path fill="none" stroke="black" d="M284.1,-43C295.24,-43 313.75,-43 326.73,-43"/>
<polygon fill="black" stroke="black" points="331.92,-43 326.92,-45.25 329.42,-43 326.92,-43 326.92,-43 326.92,-43 329.42,-43 326.92,-40.75 331.92,-43 331.92,-43"/>
<text text-anchor="start" x="305" y="-48.8" font-family="Courier,monospace" font-size="9.00">ε</text>
</g>
<!-- 6 -->
<g id="node8" class="node">
<title>6</title>
<path fill="none" stroke="black" d="M416.33,-51.5C416.33,-51.5 406.67,-51.5 406.67,-51.5 403.83,-51.5 401,-48.67 401,-45.83 401,-45.83 401,-40.17 401,-40.17 401,-37.33 403.83,-34.5 406.67,-34.5 406.67,-34.5 416.33,-34.5 416.33,-34.5 419.17,-34.5 422,-37.33 422,-40.17 422,-40.17 422,-45.83 422,-45.83 422,-48.67 419.17,-51.5 416.33,-51.5"/>
<text text-anchor="start" x="405" y="-40.5" font-family="Courier,monospace" font-size="10.00">q4</text>
</g>
<!-- 4&#45;&gt;6 -->
<g id="edge3" class="edge">
<title>4-&gt;6</title>
<path fill="none" stroke="black" d="M353.1,-43C364.24,-43 382.75,-43 395.73,-43"/>
<polygon fill="black" stroke="black" points="400.92,-43 395.92,-45.25 398.42,-43 395.92,-43 395.92,-43 395.92,-43 398.42,-43 395.92,-40.75 400.92,-43 400.92,-43"/>
<text text-anchor="start" x="374" y="-48.8" font-family="Courier,monospace" font-size="9.00">b</text>
</g>
<!-- 5 -->
<g id="node7" class="node">
<title>5</title>
<path fill="none" stroke="black" d="M209.33,-80.5C209.33,-80.5 199.67,-80.5 199.67,-80.5 196.83,-80.5 194,-77.67 194,-74.83 194,-74.83 194,-69.17 194,-69.17 194,-66.33 196.83,-63.5 199.67,-63.5 199.67,-63.5 209.33,-63.5 209.33,-63.5 212.17,-63.5 215,-66.33 215,-69.17 215,-69.17 215,-74.83 215,-74.83 215,-77.67 212.17,-80.5 209.33,-80.5"/>
<text text-anchor="start" x="198" y="-69.5" font-family="Courier,monospace" font-size="10.00">q5</text>
</g>
<!-- 7 -->
<g id="node9" class="node">
<title>7</title>
<path fill="none" stroke="black" d="M278.33,-114.5C278.33,-114.5 268.67,-114.5 268.67,-114.5 265.83,-114.5 263,-111.67 263,-108.83 263,-108.83 263,-103.17 263,-103.17 263,-100.33 265.83,-97.5 268.67,-97.5 268.67,-97.5 278.33,-97.5 278.33,-97.5 281.17,-97.5 284,-100.33 284,-103.17 284,-103.17 284,-108.83 284,-108.83 284,-111.67 281.17,-114.5 278.33,-114.5"/>
<text text-anchor="start" x="267" y="-103.5" font-family="Courier,monospace" font-size="10.00">q6</text>
</g>
<!-- 5&#45;&gt;7 -->
<g id="edge5" class="edge">
<title>5-&gt;7</title>
<path fill="none" stroke="black" d="M215.2,-74.95C223.37,-77.61 235.26,-81.88 245,-87 249.7,-89.47 254.55,-92.6 258.85,-95.61"/>
<polygon fill="black" stroke="black" points="262.94,-98.54 257.56,-97.45 260.9,-97.08 258.87,-95.62 258.87,-95.62 258.87,-95.62 260.9,-97.08 260.19,-93.8 262.94,-98.54 262.94,-98.54"/>
<text text-anchor="start" x="236" y="-92.8" font-family="Courier,monospace" font-size="9.00">a</text>
</g>
<!-- 6&#45;&gt;1 -->
<g id="edge11" class="edge">
<title>6-&gt;1</title>
<path fill="none" stroke="black" d="M422.02,-50.23C434.82,-59.94 457.91,-77.47 474.8,-90.29"/>
<polygon fill="black" stroke="black" points="478.95,-93.44 473.61,-92.21 476.96,-91.93 474.97,-90.41 474.97,-90.41 474.97,-90.41 476.96,-91.93 476.33,-88.62 478.95,-93.44 478.95,-93.44"/>
<text text-anchor="start" x="443" y="-78.8" font-family="Courier,monospace" font-size="9.00">ε</text>
</g>
<!-- 6&#45;&gt;8 -->
<g id="edge10" class="edge">
<title>6-&gt;8</title>
<path fill="none" stroke="black" d="M403.25,-34.3C391.91,-21.73 368.66,0 343.5,0 203.5,0 203.5,0 203.5,0 170.61,0 150.02,-40.56 141.31,-62.42"/>
<polygon fill="black" stroke="black" points="139.44,-67.28 139.13,-61.81 140.34,-64.95 141.23,-62.61 141.23,-62.61 141.23,-62.61 140.34,-64.95 143.33,-63.42 139.44,-67.28 139.44,-67.28"/>
<text text-anchor="start" x="270.5" y="-5.8" font-family="Courier,monospace" font-size="9.00">ε</text>
</g>
<!-- 7&#45;&gt;1 -->
<g id="edge9" class="edge">
<title>7-&gt;1</title>
<path fill="none" stroke="black" d="M284.28,-106C315.54,-106 413.9,-106 464.61,-106"/>
<polygon fill="black" stroke="black" points="469.66,-106 464.66,-108.25 467.16,-106 464.66,-106 464.66,-106 464.66,-106 467.16,-106 464.66,-103.75 469.66,-106 469.66,-106"/>
<text text-anchor="start" x="374" y="-111.8" font-family="Courier,monospace" font-size="9.00">ε</text>
</g>
<!-- 7&#45;&gt;8 -->
<g id="edge8" class="edge">
<title>7-&gt;8</title>
<path fill="none" stroke="black" d="M262.84,-106.64C243.42,-107.58 198.55,-108.01 164,-95 159.21,-93.2 154.46,-90.39 150.29,-87.47"/>
<polygon fill="black" stroke="black" points="146.02,-84.31 151.38,-85.48 148.03,-85.8 150.04,-87.28 150.04,-87.28 150.04,-87.28 148.03,-85.8 148.7,-89.09 146.02,-84.31 146.02,-84.31"/>
<text text-anchor="start" x="201.5" y="-111.8" font-family="Courier,monospace" font-size="9.00">ε</text>
</g>
<!-- 8&#45;&gt;2 -->
<g id="edge6" class="edge">
<title>8-&gt;2</title>
<path fill="none" stroke="black" d="M145.96,-67.38C151.06,-63.02 157.6,-57.84 164,-54 171.8,-49.32 181.13,-45.24 188.76,-42.25"/>
<polygon fill="black" stroke="black" points="193.73,-40.37 189.85,-44.24 191.39,-41.25 189.06,-42.14 189.06,-42.14 189.06,-42.14 191.39,-41.25 188.26,-40.04 193.73,-40.37 193.73,-40.37"/>
<text text-anchor="start" x="167" y="-59.8" font-family="Courier,monospace" font-size="9.00">ε</text>
</g>
<!-- 8&#45;&gt;5 -->
<g id="edge7" class="edge">
<title>8-&gt;5</title>
<path fill="none" stroke="black" d="M146.1,-75.43C157.24,-74.76 175.75,-73.66 188.73,-72.88"/>
<polygon fill="black" stroke="black" points="193.92,-72.57 189.06,-75.12 191.42,-72.72 188.93,-72.87 188.93,-72.87 188.93,-72.87 191.42,-72.72 188.79,-70.62 193.92,-72.57 193.92,-72.57"/>
<text text-anchor="start" x="167" y="-80.8" font-family="Courier,monospace" font-size="9.00">ε</text>
</g>
</g>
</svg>