<svg xmlns="http://www.w3.org/2000/svg" xmlns:xlink="http://www.w3.org/1999/xlink" width="600pt" height="186pt" viewBox="0.00 0.00 600.00 185.88">
<g id="graph0" class="graph" transform="scale(1 1) rotate(0) translate(4 181.88)">
<title>%3</title>
<polygon fill="white" stroke="transparent" points="-4,4 -4,-181.88 596,-181.88 596,4 -4,4"/>
<!-- _START -->
<g id="node1" class="node">
<title>_START</title>
</g>
<!-- 0 -->
<g id="node2" class="node">
<title>0</title>
<path fill="none" stroke="black" d="M71.33,-127.38C71.33,-127.38 43.67,-127.38 43.67,-127.38 40.83,-127.38 38,-124.55 38,-121.71 38,-121.71 38,-116.05 38,-116.05 38,-113.21 40.83,-110.38 43.67,-110.38 43.67,-110.38 71.33,-110.38 71.33,-110.38 74.17,-110.38 77,-113.21 77,-116.05 77,-116.05 77,-121.71 77,-121.71 77,-124.55 74.17,-127.38 71.33,-127.38"/>
<text text-anchor="start" x="42" y="-116.38" font-family="Courier,monospace" font-size="10.00">start</text>
</g>
<!-- _START&#45;&gt;0 -->
<g id="edge1" class="edge">
<title>_START-&gt;0</title>
<path fill="none" stroke="black" d="M1.16,-118.88C2.89,-118.88 18.46,-118.88 32.64,-118.88"/>
<polygon fill="black" stroke="black" points="37.78,-118.88 32.78,-121.13 35.28,-118.88 32.78,-118.88 32.78,-118.88 32.78,-118.88 35.28,-118.88 32.78,-116.63 37.78,-118.88 37.78,-118.88"/>
</g>
<!-- 2 -->
<g id="node4" class="node">
<title>2</title>
<path fill="none" stroke="black" d="M140.33,-127.38C140.33,-127.38 130.67,-127.38 130.67,-127.38 127.83,-127.38 125,-124.55 125,-121.71 125,-121.71 125,-116.05 125,-116.05 125,-113.21 127.83,-110.38 130.67,-110.38 130.67,-110.38 140.33,-110.38 140.33,-110.38 143.17,-110.38 146,-113.21 146,-116.05 146,-116.05 146,-121.71 146,-121.71 146,-124.55 143.17,-127.38 140.33,-127.38"/>
<text text-anchor="start" x="129" y="-116.38" font-family="Courier,monospace" font-size="10.00">q8</text>
</g>
<!-- 0&#45;&gt;2 -->
<g id="edge14" class="edge">
<title>0-&gt;2</title>
<path fill="none" stroke="black" d="M77.29,-118.88C90.4,-118.88 107.65,-118.88 119.77,-118.88"/>
<polygon fill="black" stroke="black" points="124.95,-118.88 119.95,-121.13 122.45,-118.88 119.95,-118.88 119.95,-118.88 119.95,-118.88 122.45,-118.88 119.95,-116.63 124.95,-118.88 124.95,-118.88"/>
<text text-anchor="start" x="98" y="-124.68" font-family="Courier,monospace" font-size="9.00">ε</text>
</g>
<!-- 1 -->
<g id="node3" class="node">
<title>1</title>
<path fill="none" stroke="black" d="M582.33,-99.38C582.33,-99.38 548.67,-99.38 548.67,-99.38 545.83,-99.38 543,-96.55 543,-93.71 543,-93.71 543,-88.05 543,-88.05 543,-85.21 545.83,-82.38 548.67,-82.38 548.67,-82.38 582.33,-82.38 582.33,-82.38 585.17,-82.38 588,-85.21 588,-88.05 588,-88.05 588,-93.71 588,-93.71 588,-96.55 585.17,-99.38 582.33,-99.38"/>
<path fill="none" stroke="black" d="M583.67,-103.38C583.67,-103.38 547.33,-103.38 547.33,-103.38 543.17,-103.38 539,-99.21 539,-95.05 539,-95.05 539,-86.71 539,-86.71 539,-82.55 543.17,-78.38 547.33,-78.38 547.33,-78.38 583.67,-78.38 583.67,-78.38 587.83,-78.38 592,-82.55 592,-86.71 592,-86.71 592,-95.05 592,-95.05 592,-99.21 587.83,-103.38 583.67,-103.38"/>
<text text-anchor="start" x="547" y="-88.38" font-family="Courier,monospace" font-size="10.00">accept</text>
</g>
<!-- 2&#45;&gt;1 -->
<g id="edge9" class="edge">
<title>2-&gt;1</title>
<path fill="none" stroke="black" d="M143.75,-127.58C155.09,-140.15 178.34,-161.88 203.5,-161.88 203.5,-161.88 203.5,-161.88 481.5,-161.88 514.61,-161.88 541.16,-128.86 554.7,-107.86"/>
<polygon fill="black" stroke="black" points="557.39,-103.57 556.64,-109 556.06,-105.69 554.73,-107.81 554.73,-107.81 554.73,-107.81 556.06,-105.69 552.82,-106.61 557.39,-103.57 557.39,-103.57"/>
<text text-anchor="start" x="339.5" y="-167.68" font-family="Courier,monospace" font-size="9.00">ε</text>
</g>
<!-- 8 -->
<g id="node10" class="node">
<title>8</title>
<path fill="none" stroke="black" d="M209.33,-85.38C209.33,-85.38 199.67,-85.38 199.67,-85.38 196.83,-85.38 194,-82.55 194,-79.71 194,-79.71 194,-74.05 194,-74.05 194,-71.21 196.83,-68.38 199.67,-68.38 199.67,-68.38 209.33,-68.38 209.33,-68.38 212.17,-68.38 215,-71.21 215,-74.05 215,-74.05 215,-79.71 215,-79.71 215,-82.55 212.17,-85.38 209.33,-85.38"/>
<text text-anchor="start" x="198" y="-74.38" font-family="Courier,monospace" font-size="10.00">q7</text>
</g>
<!-- 2&#45;&gt;8 -->
<g id="edge8" class="edge">
<title>2-&gt;8</title>
<path fill="none" stroke="black" d="M146.1,-112.86C157.44,-105.75 176.42,-93.86 189.42,-85.71"/>
<polygon fill="black" stroke="black" points="193.92,-82.89 190.88,-87.45 191.8,-84.21 189.68,-85.54 189.68,-85.54 189.68,-85.54 191.8,-84.21 188.49,-83.64 193.92,-82.89 193.92,-82.89"/>
<text text-anchor="start" x="167" y="-106.68" font-family="Courier,monospace" font-size="9.00">ε</text>
</g>
<!-- 3 -->
<g id="node5" class="node">
<title>3</title>
<path fill="none" stroke="black" d="M278.33,-81.38C278.33,-81.38 268.67,-81.38 268.67,-81.38 265.83,-81.38 263,-78.55 263,-75.71 263,-75.71 263,-70.05 263,-70.05 263,-67.21 265.83,-64.38 268.67,-64.38 268.67,-64.38 278.33,-64.38 278.33,-64.38 281.17,-64.38 284,-67.21 284,-70.05 284,-70.05 284,-75.71 284,-75.71 284,-78.55 281.17,-81.38 278.33,-81.38"/>
<text text-anchor="start" x="267" y="-70.38" font-family="Courier,monospace" font-size="10.00">q1</text>
</g>
<!-- 4 -->
<g id="node6" class="node">
<title>4</title>
<path fill="none" stroke="black" d="M347.33,-73.38C347.33,-73.38 337.67,-73.38 337.67,-73.38 334.83,-73.38 332,-70.55 332,-67.71 332,-67.71 332,-62.05 332,-62.05 332,-59.21 334.83,-56.38 337.67,-56.38 337.67,-56.38 347.33,-56.38 347.33,-56.38 350.17,-56.38 353,-59.21 353,-62.05 353,-62.05 353,-67.71 353,-67.71 353,-70.55 350.17,-73.38 347.33,-73.38"/>
<text text-anchor="start" x="336" y="-62.38" font-family="Courier,monospace" font-size="10.00">q2</text>
</g>
<!-- 3&#45;&gt;4 -->
<g id="edge2" class="edge">
<title>3-&gt;4</title>
<path fill="none" stroke="black" d="M284.1,-71.73C295.24,-70.4 313.75,-68.19 326.73,-66.64"/>
<polygon fill="black" stroke="black" points="331.92,-66.02 327.22,-68.85 329.44,-66.32 326.95,-66.62 326.95,-66.62 326.95,-66.62 329.44,-66.32 326.69,-64.38 331.92,-66.02 331.92,-66.02"/>
<text text-anchor="start" x="305" y="-75.68" font-family="Courier,monospace" font-size="9.00">a</text>
</g>
<!-- 6 -->
<g id="node8" class="node">
<title>6</title>
<path fill="none" stroke="black" d="M416.33,-79.38C416.33,-79.38 406.67,-79.38 406.67,-79.38 403.83,-79.38 401,-76.55 401,-73.71 401,-73.71 401,-68.05 401,-68.05 401,-65.21 403.83,-62.38 406.67,-62.38 406.67,-62.38 416.33,-62.38 416.33,-62.38 419.17,-62.38 422,-65.21 422,-68.05 422,-68.05 422,-73.71 422,-73.71 422,-76.55 419.17,-79.38 416.33,-79.38"/>
<text text-anchor="start" x="405" y="-68.38" font-family="Courier,monospace" font-size="10.00">q3</text>
</g>
<!-- 4&#45;&gt;6 -->
<g id="edge4" class="edge">
<title>4-&gt;6</title>
<path fill="none" stroke="black" d="M353.1,-65.74C364.24,-66.74 382.75,-68.4 395.73,-69.56"/>
<polygon fill="black" stroke="black" points="400.92,-70.02 395.74,-71.82 398.43,-69.8 395.94,-69.58 395.94,-69.58 395.94,-69.58 398.43,-69.8 396.14,-67.33 400.92,-70.02 400.92,-70.02"/>
<text text-anchor="start" x="374" y="-74.68" font-family="Courier,monospace" font-size="9.00">ε</text>
</g>
<!-- 5 -->
<g id="node7" class="node">
<title>5</title>
<path fill="none" stroke="black" d="M278.33,-46.38C278.33,-46.38 268.67,-46.38 268.67,-46.38 265.83,-46.38 263,-43.55 263,-40.71 263,-40.71 263,-35.05 263,-35.05 263,-32.21 265.83,-29.38 268.67,-29.38 268.67,-29.38 278.33,-29.38 278.33,-29.38 281.17,-29.38 284,-32.21 284,-35.05 284,-35.05 284,-40.71 284,-40.71 284,-43.55 281.17,-46.38 278.33,-46.38"/>
<text text-anchor="start" x="267" y="-35.38" font-family="Courier,monospace" font-size="10.00">q5</text>
</g>
<!-- 9 -->
<g id="node11" class="node">
<title>9</title>
<path fill="none" stroke="black" d="M347.33,-38.38C347.33,-38.38 337.67,-38.38 337.67,-38.38 334.83,-38.38 332,-35.55 332,-32.71 332,-32.71 332,-27.05 332,-27.05 332,-24.21 334.83,-21.38 337.67,-21.38 337.67,-21.38 347.33,-21.38 347.33,-21.38 350.17,-21.38 353,-24.21 353,-27.05 353,-27.05 353,-32.71 353,-32.71 353,-35.55 350.17,-38.38 347.33,-38.38"/>
<text text-anchor="start" x="336" y="-27.38" font-family="Courier,monospace" font-size="10.00">q6</text>
</g>
<!-- 5&#45;&gt;9 -->
<g id="edge5" class="edge">
<title>5-&gt;9</title>
<path fill="none" stroke="black" d="M284.1,-36.73C295.24,-35.4 313.75,-33.19 326.73,-31.64"/>
<polygon fill="black" stroke="black" points="331.92,-31.02 327.22,-33.85 329.44,-31.32 326.95,-31.62 326.95,-31.62 326.95,-31.62 329.44,-31.32 326.69,-29.38 331.92,-31.02 331.92,-31.02"/>
<text text-anchor="start" x="305" y="-40.68" font-family="Courier,monospace" font-size="9.00">a</text>
</g>
<!-- 7 -->
<g id="node9" class="node">
<title>7</title>
<path fill="none" stroke="black" d="M485.33,-99.38C485.33,-99.38 475.67,-99.38 475.67,-99.38 472.83,-99.38 470,-96.55 470,-93.71 470,-93.71 470,-88.05 470,-88.05 470,-85.21 472.83,-82.38 475.67,-82.38 475.67,-82.38 485.33,-82.38 485.33,-82.38 488.17,-82.38 491,-85.21 491,-88.05 491,-88.05 491,-93.71 491,-93.71 491,-96.55 488.17,-99.38 485.33,-99.38"/>
<text text-anchor="start" x="474" y="-88.38" font-family="Courier,monospace" font-size="10.00">q4</text>
</g>
<!-- 6&#45;&gt;7 -->
<g id="edge3" class="edge">
<title>6-&gt;7</title>
<path fill="none" stroke="black" d="M422.03,-72.62C430.1,-74.19 441.93,-76.74 452,-79.88 456.38,-81.24 461.04,-82.99 465.26,-84.69"/>
<polygon fill="black" stroke="black" points="469.96,-86.64 464.48,-86.8 467.65,-85.68 465.34,-84.73 465.34,-84.73 465.34,-84.73 467.65,-85.68 466.2,-82.65 469.96,-86.64 469.96,-86.64"/>
<text text-anchor="start" x="443" y="-85.68" font-family="Courier,monospace" font-size="9.00">b</text>
</g>
<!-- 7&#45;&gt;1 -->
<g id="edge11" class="edge">
<title>7-&gt;1</title>
<path fill="none" stroke="black" d="M491.02,-90.88C501.43,-90.88 518.64,-90.88 533.79,-90.88"/>
<polygon fill="black" stroke="black" points="538.84,-90.88 533.84,-93.13 536.34,-90.88 533.84,-90.88 533.84,-90.88 533.84,-90.88 536.34,-90.88 533.83,-88.63 538.84,-90.88 538.84,-90.88"/>
<text text-anchor="start" x="512" y="-96.68" font-family="Courier,monospace" font-size="9.00">ε</text>
</g>
<!-- 7&#45;&gt;8 -->
<g id="edge10" class="edge">
<title>7-&gt;8</title>
<path fill="none" stroke="black" d="M469.76,-95.48C456.93,-101.1 433.54,-109.88 412.5,-109.88 272.5,-109.88 272.5,-109.88 272.5,-109.88 252.46,-109.88 232.2,-97.86 219.29,-88.32"/>
<polygon fill="black" stroke="black" points="215.2,-85.21 220.54,-86.45 217.19,-86.72 219.18,-88.24 219.18,-88.24 219.18,-88.24 217.19,-86.72 217.82,-90.03 215.2,-85.21 215.2,-85.21"/>
<text text-anchor="start" x="339.5" y="-115.68" font-family="Courier,monospace" font-size="9.00">ε</text>
</g>
<!-- 8&#45;&gt;3 -->
<g id="edge6" class="edge">
<title>8-&gt;3</title>
<path fill="none" stroke="black" d="M215.1,-76.31C226.24,-75.64 244.75,-74.54 257.73,-73.76"/>
<polygon fill="black" stroke="black" points="262.92,-73.45 258.06,-76 260.42,-73.6 257.93,-73.75 257.93,-73.75 257.93,-73.75 260.42,-73.6 257.79,-71.5 262.92,-73.45 262.92,-73.45"/>
<text text-anchor="start" x="236" y="-81.68" font-family="Courier,monospace" font-size="9.00">ε</text>
</g>
<!-- 8&#45;&gt;5 -->
<g id="edge7" class="edge">
<title>8-&gt;5</title>
<path fill="none" stroke="black" d="M214.96,-68.26C220.06,-63.9 226.6,-58.72 233,-54.88 240.8,-50.2 250.13,-46.12 257.76,-43.13"/>
<polygon fill="black" stroke="black" points="262.73,-41.25 258.85,-45.12 260.39,-42.13 258.06,-43.02 258.06,-43.02 258.06,-43.02 260.39,-42.13 257.26,-40.92 262.73,-41.25 262.73,-41.25"/>
<text text-anchor="start" x="236" y="-60.68" font-family="Courier,monospace" font-size="9.00">ε</text>
</g>
<!-- 9&#45;&gt;1 -->
<g id="edge13" class="edge">
<title>9-&gt;1</title>
<path fill="none" stroke="black" d="M353.12,-32.1C372.1,-36.53 415.69,-46.88 452,-56.88 479.8,-64.53 511.19,-74.1 533.73,-81.13"/>
<polygon fill="black" stroke="black" points="538.69,-82.68 533.25,-83.34 536.3,-81.94 533.92,-81.19 533.92,-81.19 533.92,-81.19 536.3,-81.94 534.59,-79.04 538.69,-82.68 538.69,-82.68"/>
<text text-anchor="start" x="443" y="-62.68" font-family="Courier,monospace" font-size="9.00">ε</text>
</g>
<!-- 9&#45;&gt;8 -->
<g id="edge12" class="edge">
<title>9-&gt;8</title>
<path fill="none" stroke="black" d="M331.76,-21.95C316.59,-10.62 286.64,7.59 263,-3.88 237.53,-16.24 219.96,-45.96 211.43,-63.43"/>
<polygon fill="black" stroke="black" points="209.26,-68.01 209.36,-62.53 210.33,-65.75 211.4,-63.49 211.4,-63.49 211.4,-63.49 210.33,-65.75 213.43,-64.45 209.26,-68.01 209.26,-68.01"/>
<text text-anchor="start" x="270.5" y="-9.68" font-family="Courier,monospace" font-size="9.00">ε</text>
</g>
</g>
</svg>