<svg xmlns="http://www.w3.org/2000/svg" xmlns:xlink="http://www.w3.org/1999/xlink" width="875pt" height="33pt" viewBox="0.00 0.00 875.00 33.00">
<g id="graph0" class="graph" transform="scale(1 1) rotate(0) translate(4 29)">
<title>%3</title>
<polygon fill="white" stroke="transparent" points="-4,4 -4,-29 871,-29 871,4 -4,4"/>
<!-- _START -->
<g id="node1" class="node">
<title>_START</title>
</g>
<!-- 2 -->
<g id="node4" class="node">
<title>2</title>
<path fill="none" stroke="black" d="M88.33,-21C88.33,-21 42.67,-21 42.67,-21 39.83,-21 37,-18.17 37,-15.33 37,-15.33 37,-9.67 37,-9.67 37,-6.83 39.83,-4 42.67,-4 42.67,-4 88.33,-4 88.33,-4 91.17,-4 94,-6.83 94,-9.67 94,-9.67 94,-15.33 94,-15.33 94,-18.17 91.17,-21 88.33,-21"/>
<text text-anchor="start" x="41" y="-10" font-family="Courier,monospace" font-size="10.00">q1,[0] 0</text>
</g>
<!-- _START&#45;&gt;2 -->
<g id="edge1" class="edge">
<title>_START-&gt;2</title>
<path fill="none" stroke="black" d="M1.05,-12.5C1.97,-12.5 16.67,-12.5 31.69,-12.5"/>
<polygon fill="black" stroke="black" points="36.78,-12.5 31.78,-14.75 34.28,-12.5 31.78,-12.5 31.78,-12.5 31.78,-12.5 34.28,-12.5 31.78,-10.25 36.78,-12.5 36.78,-12.5"/>
</g>
<!-- 0 -->
<g id="node2" class="node">
<title>0</title>
<path fill="none" stroke="black" d="M181.33,-21C181.33,-21 135.67,-21 135.67,-21 132.83,-21 130,-18.17 130,-15.33 130,-15.33 130,-9.67 130,-9.67 130,-6.83 132.83,-4 135.67,-4 135.67,-4 181.33,-4 181.33,-4 184.17,-4 187,-6.83 187,-9.67 187,-9.67 187,-15.33 187,-15.33 187,-18.17 184.17,-21 181.33,-21"/>
<text text-anchor="start" x="134" y="-10" font-family="Courier,monospace" font-size="10.00">q2,␣ [0]</text>
</g>
<!-- 1 -->
<g id="node3" class="node">
<title>1</title>
<path fill="none" stroke="black" d="M286.33,-21C286.33,-21 228.67,-21 228.67,-21 225.83,-21 223,-18.17 223,-15.33 223,-15.33 223,-9.67 223,-9.67 223,-6.83 225.83,-4 228.67,-4 228.67,-4 286.33,-4 286.33,-4 289.17,-4 292,-6.83 292,-9.67 292,-9.67 292,-15.33 292,-15.33 292,-18.17 289.17,-21 286.33,-21"/>
<text text-anchor="start" x="227" y="-10" font-family="Courier,monospace" font-size="10.00">q3,␣ x [␣]</text>
</g>
<!-- 0&#45;&gt;1 -->
<g id="edge3" class="edge">
<title>0-&gt;1</title>
<path fill="none" stroke="black" d="M187.04,-12.5C196.48,-12.5 207.24,-12.5 217.42,-12.5"/>
<polygon fill="black" stroke="black" points="222.68,-12.5 217.68,-14.75 220.18,-12.5 217.68,-12.5 217.68,-12.5 217.68,-12.5 220.18,-12.5 217.68,-10.25 222.68,-12.5 222.68,-12.5"/>
</g>
<!-- 3 -->
<g id="node5" class="node">
<title>3</title>
<path fill="none" stroke="black" d="M391.33,-21C391.33,-21 333.67,-21 333.67,-21 330.83,-21 328,-18.17 328,-15.33 328,-15.33 328,-9.67 328,-9.67 328,-6.83 330.83,-4 333.67,-4 333.67,-4 391.33,-4 391.33,-4 394.17,-4 397,-6.83 397,-9.67 397,-9.67 397,-15.33 397,-15.33 397,-18.17 394.17,-21 391.33,-21"/>
<text text-anchor="start" x="332" y="-10" font-family="Courier,monospace" font-size="10.00">q5,␣ [x] ␣</text>
</g>
<!-- 1&#45;&gt;3 -->
<g id="edge4" class="edge">
<title>1-&gt;3</title>
<path fill="none" stroke="black" d="M292.23,-12.5C301.92,-12.5 312.57,-12.5 322.55,-12.5"/>
<polygon fill="black" stroke="black" points="327.7,-12.5 322.7,-14.75 325.2,-12.5 322.7,-12.5 322.7,-12.5 322.7,-12.5 325.2,-12.5 322.7,-10.25 327.7,-12.5 327.7,-12.5"/>
</g>
<!-- 2&#45;&gt;0 -->
<g id="edge2" class="edge">
<title>2-&gt;0</title>
<path fill="none" stroke="black" d="M94.3,-12.5C103.91,-12.5 114.77,-12.5 124.75,-12.5"/>
<polygon fill="black" stroke="black" points="129.87,-12.5 124.87,-14.75 127.37,-12.5 124.87,-12.5 124.87,-12.5 124.87,-12.5 127.37,-12.5 124.87,-10.25 129.87,-12.5 129.87,-12.5"/>
</g>
<!-- 4 -->
<g id="node6" class="node">
<title>4</title>
<path fill="none" stroke="black" d="M496.33,-21C496.33,-21 438.67,-21 438.67,-21 435.83,-21 433,-18.17 433,-15.33 433,-15.33 433,-9.67 433,-9.67 433,-6.83 435.83,-4 438.67,-4 438.67,-4 496.33,-4 496.33,-4 499.17,-4 502,-6.83 502,-9.67 502,-9.67 502,-15.33 502,-15.33 502,-18.17 499.17,-21 496.33,-21"/>
<text text-anchor="start" x="437" y="-10" font-family="Courier,monospace" font-size="10.00">q5,[␣] x ␣</text>
</g>
<!-- 3&#45;&gt;4 -->
<g id="edge5" class="edge">
<title>3-&gt;4</title>
<path fill="none" stroke="black" d="M397.23,-12.5C406.92,-12.5 417.57,-12.5 427.55,-12.5"/>
<polygon fill="black" stroke="black" points="432.7,-12.5 427.7,-14.75 430.2,-12.5 427.7,-12.5 427.7,-12.5 427.7,-12.5 430.2,-12.5 427.7,-10.25 432.7,-12.5 432.7,-12.5"/>
</g>
<!-- 5 -->
<g id="node7" class="node">
<title>5</title>
<path fill="none" stroke="black" d="M601.33,-21C601.33,-21 543.67,-21 543.67,-21 540.83,-21 538,-18.17 538,-15.33 538,-15.33 538,-9.67 538,-9.67 538,-6.83 540.83,-4 543.67,-4 543.67,-4 601.33,-4 601.33,-4 604.17,-4 607,-6.83 607,-9.67 607,-9.67 607,-15.33 607,-15.33 607,-18.17 604.17,-21 601.33,-21"/>
<text text-anchor="start" x="542" y="-10" font-family="Courier,monospace" font-size="10.00">q2,␣ [x] ␣</text>
</g>
<!-- 4&#45;&gt;5 -->
<g id="edge6" class="edge">
<title>4-&gt;5</title>
<path fill="none" stroke="black" d="M502.23,-12.5C511.92,-12.5 522.57,-12.5 532.55,-12.5"/>
<polygon fill="black" stroke="black" points="537.7,-12.5 532.7,-14.75 535.2,-12.5 532.7,-12.5 532.7,-12.5 532.7,-12.5 535.2,-12.5 532.7,-10.25 537.7,-12.5 537.7,-12.5"/>
</g>
<!-- 6 -->
<g id="node8" class="node">
<title>6</title>
<path fill="none" stroke="black" d="M706.33,-21C706.33,-21 648.67,-21 648.67,-21 645.83,-21 643,-18.17 643,-15.33 643,-15.33 643,-9.67 643,-9.67 643,-6.83 645.83,-4 648.67,-4 648.67,-4 706.33,-4 706.33,-4 709.17,-4 712,-6.83 712,-9.67 712,-9.67 712,-15.33 712,-15.33 712,-18.17 709.17,-21 706.33,-21"/>
<text text-anchor="start" x="647" y="-10" font-family="Courier,monospace" font-size="10.00">q2,␣ x [␣]</text>
</g>
<!-- 5&#45;&gt;6 -->
<g id="edge7" class="edge">
<title>5-&gt;6</title>
<path fill="none" stroke="black" d="M607.23,-12.5C616.92,-12.5 627.57,-12.5 637.55,-12.5"/>
<polygon fill="black" stroke="black" points="642.7,-12.5 637.7,-14.75 640.2,-12.5 637.7,-12.5 637.7,-12.5 637.7,-12.5 640.2,-12.5 637.7,-10.25 642.7,-12.5 642.7,-12.5"/>
</g>
<!-- 7 -->
<g id="node9" class="node">
<title>7</title>
<path fill="none" stroke="black" d="M857.33,-21C857.33,-21 757.67,-21 757.67,-21 754.83,-21 752,-18.17 752,-15.33 752,-15.33 752,-9.67 752,-9.67 752,-6.83 754.83,-4 757.67,-4 757.67,-4 857.33,-4 857.33,-4 860.17,-4 863,-6.83 863,-9.67 863,-9.67 863,-15.33 863,-15.33 863,-18.17 860.17,-21 857.33,-21"/>
<path fill="none" stroke="black" d="M858.67,-25C858.67,-25 756.33,-25 756.33,-25 752.17,-25 748,-20.83 748,-16.67 748,-16.67 748,-8.33 748,-8.33 748,-4.17 752.17,0 756.33,0 756.33,0 858.67,0 858.67,0 862.83,0 867,-4.17 867,-8.33 867,-8.33 867,-16.67 867,-16.67 867,-20.83 862.83,-25 858.67,-25"/>
<text text-anchor="start" x="756" y="-10" font-family="Courier,monospace" font-size="10.00">qaccept,␣ x ␣ [␣]</text>
</g>
<!-- 6&#45;&gt;7 -->
<g id="edge8" class="edge">
<title>6-&gt;7</title>
<path fill="none" stroke="black" d="M712.13,-12.5C721.55,-12.5 732.12,-12.5 742.67,-12.5"/>
<polygon fill="black" stroke="black" points="747.85,-12.5 742.85,-14.75 745.35,-12.5 742.85,-12.5 742.85,-12.5 742.85,-12.5 745.35,-12.5 742.85,-10.25 747.85,-12.5 747.85,-12.5"/>
</g>
</g>
</svg>