<svg xmlns="http://www.w3.org/2000/svg" xmlns:xlink="http://www.w3.org/1999/xlink" width="175pt" height="37pt" viewBox="0.00 0.00 175.00 36.50">
<g id="graph0" class="graph" transform="scale(1 1) rotate(0) translate(4 32.5)">
<title>%3</title>
<polygon fill="white" stroke="transparent" points="-4,4 -4,-32.5 171,-32.5 171,4 -4,4"/>
<!-- _START -->
<g id="node1" class="node">
<title>_START</title>
</g>
<!-- 1 -->
<g id="node3" class="node">
<title>1</title>
<path fill="none" stroke="black" d="M53.33,-21C53.33,-21 43.67,-21 43.67,-21 40.83,-21 38,-18.17 38,-15.33 38,-15.33 38,-9.67 38,-9.67 38,-6.83 40.83,-4 43.67,-4 43.67,-4 53.33,-4 53.33,-4 56.17,-4 59,-6.83 59,-9.67 59,-9.67 59,-15.33 59,-15.33 59,-18.17 56.17,-21 53.33,-21"/>
<text text-anchor="start" x="42" y="-10" font-family="Courier,monospace" font-size="10.00">q1</text>
</g>
<!-- _START&#45;&gt;1 -->
<g id="edge1" class="edge">
<title>_START-&gt;1</title>
<path fill="none" stroke="black" d="M1.13,-12.5C2.79,-12.5 19.6,-12.5 32.5,-12.5"/>
<polygon fill="black" stroke="black" points="37.74,-12.5 32.74,-14.75 35.24,-12.5 32.74,-12.5 32.74,-12.5 32.74,-12.5 35.24,-12.5 32.74,-10.25 37.74,-12.5 37.74,-12.5"/>
</g>
<!-- 0 -->
<g id="node2" class="node">
<title>0</title>
<path fill="none" stroke="black" d="M157.33,-21C157.33,-21 147.67,-21 147.67,-21 144.83,-21 142,-18.17 142,-15.33 142,-15.33 142,-9.67 142,-9.67 142,-6.83 144.83,-4 147.67,-4 147.67,-4 157.33,-4 157.33,-4 160.17,-4 163,-6.83 163,-9.67 163,-9.67 163,-15.33 163,-15.33 163,-18.17 160.17,-21 157.33,-21"/>
<path fill="none" stroke="black" d="M158.67,-25C158.67,-25 146.33,-25 146.33,-25 142.17,-25 138,-20.83 138,-16.67 138,-16.67 138,-8.33 138,-8.33 138,-4.17 142.17,0 146.33,0 146.33,0 158.67,0 158.67,0 162.83,0 167,-4.17 167,-8.33 167,-8.33 167,-16.67 167,-16.67 167,-20.83 162.83,-25 158.67,-25"/>
<text text-anchor="start" x="146" y="-10" font-family="Courier,monospace" font-size="10.00">q2</text>
</g>
<!-- 1&#45;&gt;0 -->
<g id="edge2" class="edge">
<title>1-&gt;0</title>
<path fill="none" stroke="black" d="M59.28,-12.5C76.1,-12.5 110.8,-12.5 132.51,-12.5"/>
<polygon fill="black" stroke="black" points="137.73,-12.5 132.73,-14.75 135.23,-12.5 132.73,-12.5 132.73,-12.5 132.73,-12.5 135.23,-12.5 132.73,-10.25 137.73,-12.5 137.73,-12.5"/>
<text text-anchor="start" x="80.5" y="-18.3" font-family="Courier,monospace" font-size="9.00">a → b,R</text>
</g>
</g>
</svg>