<svg xmlns="http://www.w3.org/2000/svg" xmlns:xlink="http://www.w3.org/1999/xlink" width="607pt" height="76pt" viewBox="0.00 0.00 607.00 75.50">
<g id="graph0" class="graph" transform="scale(1 1) rotate(0) translate(4 71.5)">
<title>%3</title>
<polygon fill="white" stroke="transparent" points="-4,4 -4,-71.5 603,-71.5 603,4 -4,4"/>
<!-- _START -->
<g id="node1" class="node">
<title>_START</title>
</g>
<!-- 0 -->
<g id="node2" class="node">
<title>0</title>
<path fill="none" stroke="black" d="M62.33,-21C62.33,-21 52.67,-21 52.67,-21 49.83,-21 47,-18.17 47,-15.33 47,-15.33 47,-9.67 47,-9.67 47,-6.83 49.83,-4 52.67,-4 52.67,-4 62.33,-4 62.33,-4 65.17,-4 68,-6.83 68,-9.67 68,-9.67 68,-15.33 68,-15.33 68,-18.17 65.17,-21 62.33,-21"/>
<text text-anchor="start" x="51" y="-10" font-family="Courier,monospace" font-size="10.00">q1</text>
</g>
<!-- _START&#45;&gt;0 -->
<g id="edge1" class="edge">
<title>_START-&gt;0</title>
<path fill="none" stroke="black" d="M1.16,-12.5C3.27,-12.5 25.82,-12.5 41.47,-12.5"/>
<polygon fill="black" stroke="black" points="46.88,-12.5 41.88,-14.75 44.38,-12.5 41.88,-12.5 41.88,-12.5 41.88,-12.5 44.38,-12.5 41.88,-10.25 46.88,-12.5 46.88,-12.5"/>
</g>
<!-- 5 -->
<g id="node7" class="node">
<title>5</title>
<path fill="none" stroke="black" d="M149.33,-21C149.33,-21 139.67,-21 139.67,-21 136.83,-21 134,-18.17 134,-15.33 134,-15.33 134,-9.67 134,-9.67 134,-6.83 136.83,-4 139.67,-4 139.67,-4 149.33,-4 149.33,-4 152.17,-4 155,-6.83 155,-9.67 155,-9.67 155,-15.33 155,-15.33 155,-18.17 152.17,-21 149.33,-21"/>
<text text-anchor="start" x="138" y="-10" font-family="Courier,monospace" font-size="10.00">q1</text>
</g>
<!-- 0&#45;&gt;5 -->
<g id="edge2" class="edge">
<title>0-&gt;5</title>
<path fill="none" stroke="black" d="M68.25,-12.5C82.98,-12.5 111.03,-12.5 128.41,-12.5"/>
<polygon fill="black" stroke="black" points="133.86,-12.5 128.86,-14.75 131.36,-12.5 128.86,-12.5 128.86,-12.5 128.86,-12.5 131.36,-12.5 128.86,-10.25 133.86,-12.5 133.86,-12.5"/>
</g>
<!-- 1 -->
<g id="node3" class="node">
<title>1</title>
<path fill="none" stroke="black" d="M497.33,-21C497.33,-21 487.67,-21 487.67,-21 484.83,-21 482,-18.17 482,-15.33 482,-15.33 482,-9.67 482,-9.67 482,-6.83 484.83,-4 487.67,-4 487.67,-4 497.33,-4 497.33,-4 500.17,-4 503,-6.83 503,-9.67 503,-9.67 503,-15.33 503,-15.33 503,-18.17 500.17,-21 497.33,-21"/>
<text text-anchor="start" x="486" y="-10" font-family="Courier,monospace" font-size="10.00">q3</text>
</g>
<!-- 6 -->
<g id="node8" class="node">
<title>6</title>
<path fill="none" stroke="black" d="M584.33,-21C584.33,-21 574.67,-21 574.67,-21 571.83,-21 569,-18.17 569,-15.33 569,-15.33 569,-9.67 569,-9.67 569,-6.83 571.83,-4 574.67,-4 574.67,-4 584.33,-4 584.33,-4 587.17,-4 590,-6.83 590,-9.67 590,-9.67 590,-15.33 590,-15.33 590,-18.17 587.17,-21 584.33,-21"/>
<path fill="none" stroke="black" d="M585.67,-25C585.67,-25 573.33,-25 573.33,-25 569.17,-25 565,-20.83 565,-16.67 565,-16.67 565,-8.33 565,-8.33 565,-4.17 569.17,0 573.33,0 573.33,0 585.67,0 585.67,0 589.83,0 594,-4.17 594,-8.33 594,-8.33 594,-16.67 594,-16.67 594,-20.83 589.83,-25 585.67,-25"/>
<text text-anchor="start" x="573" y="-10" font-family="Courier,monospace" font-size="10.00">q2</text>
</g>
<!-- 1&#45;&gt;6 -->
<g id="edge7" class="edge">
<title>1-&gt;6</title>
<path fill="none" stroke="black" d="M503.25,-12.5C517,-12.5 542.36,-12.5 559.81,-12.5"/>
<polygon fill="black" stroke="black" points="564.96,-12.5 559.96,-14.75 562.46,-12.5 559.96,-12.5 559.96,-12.5 559.96,-12.5 562.46,-12.5 559.96,-10.25 564.96,-12.5 564.96,-12.5"/>
</g>
<!-- 2 -->
<g id="node4" class="node">
<title>2</title>
<path fill="none" stroke="black" d="M410.33,-21C410.33,-21 400.67,-21 400.67,-21 397.83,-21 395,-18.17 395,-15.33 395,-15.33 395,-9.67 395,-9.67 395,-6.83 397.83,-4 400.67,-4 400.67,-4 410.33,-4 410.33,-4 413.17,-4 416,-6.83 416,-9.67 416,-9.67 416,-15.33 416,-15.33 416,-18.17 413.17,-21 410.33,-21"/>
<text text-anchor="start" x="399" y="-10" font-family="Courier,monospace" font-size="10.00">q2</text>
</g>
<!-- 2&#45;&gt;1 -->
<g id="edge6" class="edge">
<title>2-&gt;1</title>
<path fill="none" stroke="black" d="M416.25,-12.5C430.98,-12.5 459.03,-12.5 476.41,-12.5"/>
<polygon fill="black" stroke="black" points="481.86,-12.5 476.86,-14.75 479.36,-12.5 476.86,-12.5 476.86,-12.5 476.86,-12.5 479.36,-12.5 476.86,-10.25 481.86,-12.5 481.86,-12.5"/>
</g>
<!-- 3 -->
<g id="node5" class="node">
<title>3</title>
<path fill="none" stroke="black" d="M323.33,-21C323.33,-21 313.67,-21 313.67,-21 310.83,-21 308,-18.17 308,-15.33 308,-15.33 308,-9.67 308,-9.67 308,-6.83 310.83,-4 313.67,-4 313.67,-4 323.33,-4 323.33,-4 326.17,-4 329,-6.83 329,-9.67 329,-9.67 329,-15.33 329,-15.33 329,-18.17 326.17,-21 323.33,-21"/>
<text text-anchor="start" x="312" y="-10" font-family="Courier,monospace" font-size="10.00">q1</text>
</g>
<!-- 3&#45;&gt;2 -->
<g id="edge5" class="edge">
<title>3-&gt;2</title>
<path fill="none" stroke="black" d="M329.25,-12.5C343.98,-12.5 372.03,-12.5 389.41,-12.5"/>
<polygon fill="black" stroke="black" points="394.86,-12.5 389.86,-14.75 392.36,-12.5 389.86,-12.5 389.86,-12.5 389.86,-12.5 392.36,-12.5 389.86,-10.25 394.86,-12.5 394.86,-12.5"/>
</g>
<!-- 4 -->
<g id="node6" class="node">
<title>4</title>
<path fill="none" stroke="black" d="M236.33,-21C236.33,-21 226.67,-21 226.67,-21 223.83,-21 221,-18.17 221,-15.33 221,-15.33 221,-9.67 221,-9.67 221,-6.83 223.83,-4 226.67,-4 226.67,-4 236.33,-4 236.33,-4 239.17,-4 242,-6.83 242,-9.67 242,-9.67 242,-15.33 242,-15.33 242,-18.17 239.17,-21 236.33,-21"/>
<text text-anchor="start" x="225" y="-10" font-family="Courier,monospace" font-size="10.00">q1</text>
</g>
<!-- 4&#45;&gt;3 -->
<g id="edge4" class="edge">
<title>4-&gt;3</title>
<path fill="none" stroke="black" d="M242.25,-12.5C256.98,-12.5 285.03,-12.5 302.41,-12.5"/>
<polygon fill="black" stroke="black" points="307.86,-12.5 302.86,-14.75 305.36,-12.5 302.86,-12.5 302.86,-12.5 302.86,-12.5 305.36,-12.5 302.86,-10.25 307.86,-12.5 307.86,-12.5"/>
</g>
<!-- 5&#45;&gt;4 -->
<g id="edge3" class="edge">
<title>5-&gt;4</title>
<path fill="none" stroke="black" d="M155.25,-12.5C169.98,-12.5 198.03,-12.5 215.41,-12.5"/>
<polygon fill="black" stroke="black" points="220.86,-12.5 215.86,-14.75 218.36,-12.5 215.86,-12.5 215.86,-12.5 215.86,-12.5 218.36,-12.5 215.86,-10.25 220.86,-12.5 220.86,-12.5"/>
</g>
<!-- 7 -->
<g id="node9" class="node">
<title>7</title>
</g>
<!-- 8 -->
<g id="node10" class="node">
<title>8</title>
</g>
<!-- 7&#45;&gt;8 -->
<g id="edge8" class="edge">
<title>7-&gt;8</title>
<path fill="none" stroke="white" d="M77.36,-51.5C89.89,-51.5 106.42,-51.5 119.83,-51.5"/>
<polygon fill="white" stroke="white" points="124.98,-51.5 119.98,-53.75 122.48,-51.5 119.98,-51.5 119.98,-51.5 119.98,-51.5 122.48,-51.5 119.98,-49.25 124.98,-51.5 124.98,-51.5"/>
<text text-anchor="start" x="98" y="-57.3" font-family="Courier,monospace" font-size="9.00">0</text>
</g>
<!-- 9 -->
<g id="node11" class="node">
<title>9</title>
</g>
<!-- 8&#45;&gt;9 -->
<g id="edge9" class="edge">
<title>8-&gt;9</title>
<path fill="none" stroke="white" d="M164.36,-51.5C176.89,-51.5 193.42,-51.5 206.83,-51.5"/>
<polygon fill="white" stroke="white" points="211.98,-51.5 206.98,-53.75 209.48,-51.5 206.98,-51.5 206.98,-51.5 206.98,-51.5 209.48,-51.5 206.98,-49.25 211.98,-51.5 211.98,-51.5"/>
<text text-anchor="start" x="185" y="-57.3" font-family="Courier,monospace" font-size="9.00">0</text>
</g>
<!-- 10 -->
<g id="node12" class="node">
<title>10</title>
</g>
<!-- 9&#45;&gt;10 -->
<g id="edge10" class="edge">
<title>9-&gt;10</title>
<path fill="none" stroke="white" d="M251.36,-51.5C263.89,-51.5 280.42,-51.5 293.83,-51.5"/>
<polygon fill="white" stroke="white" points="298.98,-51.5 293.98,-53.75 296.48,-51.5 293.98,-51.5 293.98,-51.5 293.98,-51.5 296.48,-51.5 293.98,-49.25 298.98,-51.5 298.98,-51.5"/>
<text text-anchor="start" x="272" y="-57.3" font-family="Courier,monospace" font-size="9.00">0</text>
</g>
<!-- 11 -->
<g id="node13" class="node">
<title>11</title>
</g>
<!-- 10&#45;&gt;11 -->
<g id="edge11" class="edge">
<title>10-&gt;11</title>
<path fill="none" stroke="white" d="M338.36,-51.5C350.89,-51.5 367.42,-51.5 380.83,-51.5"/>
<polygon fill="white" stroke="white" points="385.98,-51.5 380.98,-53.75 383.48,-51.5 380.98,-51.5 380.98,-51.5 380.98,-51.5 383.48,-51.5 380.98,-49.25 385.98,-51.5 385.98,-51.5"/>
<text text-anchor="start" x="359" y="-57.3" font-family="Courier,monospace" font-size="9.00">1</text>
</g>
<!-- 12 -->
<g id="node14" class="node">
<title>12</title>
</g>
<!-- 11&#45;&gt;12 -->
<g id="edge12" class="edge">
<title>11-&gt;12</title>
<path fill="none" stroke="white" d="M425.36,-51.5C437.89,-51.5 454.42,-51.5 467.83,-51.5"/>
<polygon fill="white" stroke="white" points="472.98,-51.5 467.98,-53.75 470.48,-51.5 467.98,-51.5 467.98,-51.5 467.98,-51.5 470.48,-51.5 467.98,-49.25 472.98,-51.5 472.98,-51.5"/>
<text text-anchor="start" x="446" y="-57.3" font-family="Courier,monospace" font-size="9.00">1</text>
</g>
<!-- 13 -->
<g id="node15" class="node">
<title>13</title>
</g>
<!-- 12&#45;&gt;13 -->
<g id="edge13" class="edge">
<title>12-&gt;13</title>
<path fill="none" stroke="white" d="M512.36,-51.5C524.89,-51.5 541.42,-51.5 554.83,-51.5"/>
<polygon fill="white" stroke="white" points="559.98,-51.5 554.98,-53.75 557.48,-51.5 554.98,-51.5 554.98,-51.5 554.98,-51.5 557.48,-51.5 554.98,-49.25 559.98,-51.5 559.98,-51.5"/>
<text text-anchor="start" x="533" y="-57.3" font-family="Courier,monospace" font-size="9.00">1</text>
</g>
</g>
</svg>