<svg xmlns="http://www.w3.org/2000/svg" xmlns:xlink="http://www.w3.org/1999/xlink" width="600pt" height="211pt" viewBox="0.00 0.00 600.00 211.00">
<g id="graph0" class="graph" transform="scale(1 1) rotate(0) translate(4 207)">
<title>%3</title>
<polygon fill="white" stroke="transparent" points="-4,4 -4,-207 596,-207 596,4 -4,4"/>
<!-- _START -->
<g id="node1" class="node">
<title>_START</title>
</g>
<!-- 0 -->
<g id="node2" class="node">
<title>0</title>
<path fill="none" stroke="black" d="M71.33,-84.5C71.33,-84.5 43.67,-84.5 43.67,-84.5 40.83,-84.5 38,-81.67 38,-78.83 38,-78.83 38,-73.17 38,-73.17 38,-70.33 40.83,-67.5 43.67,-67.5 43.67,-67.5 71.33,-67.5 71.33,-67.5 74.17,-67.5 77,-70.33 77,-73.17 77,-73.17 77,-78.83 77,-78.83 77,-81.67 74.17,-84.5 71.33,-84.5"/>
<text text-anchor="start" x="42" y="-73.5" font-family="Courier,monospace" font-size="10.00">start</text>
</g>
<!-- _START&#45;&gt;0 -->
<g id="edge1" class="edge">
<title>_START-&gt;0</title>
<path fill="none" stroke="black" d="M1.16,-76C2.89,-76 18.46,-76 32.64,-76"/>
<polygon fill="black" stroke="black" points="37.78,-76 32.78,-78.25 35.28,-76 32.78,-76 32.78,-76 32.78,-76 35.28,-76 32.78,-73.75 37.78,-76 37.78,-76"/>
</g>
<!-- 1 -->
<g id="node3" class="node">
<title>1</title>
<path fill="none" stroke="black" d="M582.33,-157.5C582.33,-157.5 548.67,-157.5 548.67,-157.5 545.83,-157.5 543,-154.67 543,-151.83 543,-151.83 543,-146.17 543,-146.17 543,-143.33 545.83,-140.5 548.67,-140.5 548.67,-140.5 582.33,-140.5 582.33,-140.5 585.17,-140.5 588,-143.33 588,-146.17 588,-146.17 588,-151.83 588,-151.83 588,-154.67 585.17,-157.5 582.33,-157.5"/>
<path fill="none" stroke="black" d="M583.67,-161.5C583.67,-161.5 547.33,-161.5 547.33,-161.5 543.17,-161.5 539,-157.33 539,-153.17 539,-153.17 539,-144.83 539,-144.83 539,-140.67 543.17,-136.5 547.33,-136.5 547.33,-136.5 583.67,-136.5 583.67,-136.5 587.83,-136.5 592,-140.67 592,-144.83 592,-144.83 592,-153.17 592,-153.17 592,-157.33 587.83,-161.5 583.67,-161.5"/>
<text text-anchor="start" x="547" y="-146.5" font-family="Courier,monospace" font-size="10.00">accept</text>
</g>
<!-- 0&#45;&gt;1 -->
<g id="edge12" class="edge">
<title>0-&gt;1</title>
<path fill="none" stroke="black" d="M60.08,-84.71C65.36,-110.88 84.99,-187 134.5,-187 134.5,-187 134.5,-187 481.5,-187 504.24,-187 527.57,-175.06 543.68,-164.56"/>
<polygon fill="black" stroke="black" points="548.03,-161.65 545.12,-166.31 545.95,-163.04 543.87,-164.44 543.87,-164.44 543.87,-164.44 545.95,-163.04 542.62,-162.57 548.03,-161.65 548.03,-161.65"/>
<text text-anchor="start" x="305" y="-192.8" font-family="Courier,monospace" font-size="9.00">ε</text>
</g>
<!-- 2 -->
<g id="node4" class="node">
<title>2</title>
<path fill="none" stroke="black" d="M140.33,-84.5C140.33,-84.5 130.67,-84.5 130.67,-84.5 127.83,-84.5 125,-81.67 125,-78.83 125,-78.83 125,-73.17 125,-73.17 125,-70.33 127.83,-67.5 130.67,-67.5 130.67,-67.5 140.33,-67.5 140.33,-67.5 143.17,-67.5 146,-70.33 146,-73.17 146,-73.17 146,-78.83 146,-78.83 146,-81.67 143.17,-84.5 140.33,-84.5"/>
<text text-anchor="start" x="129" y="-73.5" font-family="Courier,monospace" font-size="10.00">q1</text>
</g>
<!-- 0&#45;&gt;2 -->
<g id="edge13" class="edge">
<title>0-&gt;2</title>
<path fill="none" stroke="black" d="M77.29,-76C90.4,-76 107.65,-76 119.77,-76"/>
<polygon fill="black" stroke="black" points="124.95,-76 119.95,-78.25 122.45,-76 119.95,-76 119.95,-76 119.95,-76 122.45,-76 119.95,-73.75 124.95,-76 124.95,-76"/>
<text text-anchor="start" x="98" y="-81.8" font-family="Courier,monospace" font-size="9.00">ε</text>
</g>
<!-- 5 -->
<g id="node7" class="node">
<title>5</title>
<path fill="none" stroke="black" d="M416.33,-101.5C416.33,-101.5 406.67,-101.5 406.67,-101.5 403.83,-101.5 401,-98.67 401,-95.83 401,-95.83 401,-90.17 401,-90.17 401,-87.33 403.83,-84.5 406.67,-84.5 406.67,-84.5 416.33,-84.5 416.33,-84.5 419.17,-84.5 422,-87.33 422,-90.17 422,-90.17 422,-95.83 422,-95.83 422,-98.67 419.17,-101.5 416.33,-101.5"/>
<text text-anchor="start" x="405" y="-90.5" font-family="Courier,monospace" font-size="10.00">q5</text>
</g>
<!-- 0&#45;&gt;5 -->
<g id="edge14" class="edge">
<title>0-&gt;5</title>
<path fill="none" stroke="black" d="M62.19,-67.28C71.28,-47.32 96.81,0 134.5,0 134.5,0 134.5,0 343.5,0 382.14,0 400.71,-53.51 407.43,-79.35"/>
<polygon fill="black" stroke="black" points="408.68,-84.42 405.3,-80.11 408.08,-81.99 407.48,-79.56 407.48,-79.56 407.48,-79.56 408.08,-81.99 409.66,-79.02 408.68,-84.42 408.68,-84.42"/>
<text text-anchor="start" x="236" y="-5.8" font-family="Courier,monospace" font-size="9.00">ε</text>
</g>
<!-- 3 -->
<g id="node5" class="node">
<title>3</title>
<path fill="none" stroke="black" d="M209.33,-122.5C209.33,-122.5 199.67,-122.5 199.67,-122.5 196.83,-122.5 194,-119.67 194,-116.83 194,-116.83 194,-111.17 194,-111.17 194,-108.33 196.83,-105.5 199.67,-105.5 199.67,-105.5 209.33,-105.5 209.33,-105.5 212.17,-105.5 215,-108.33 215,-111.17 215,-111.17 215,-116.83 215,-116.83 215,-119.67 212.17,-122.5 209.33,-122.5"/>
<text text-anchor="start" x="198" y="-111.5" font-family="Courier,monospace" font-size="10.00">q2</text>
</g>
<!-- 2&#45;&gt;3 -->
<g id="edge2" class="edge">
<title>2-&gt;3</title>
<path fill="none" stroke="black" d="M146.1,-81.44C157.44,-87.88 176.42,-98.64 189.42,-106.02"/>
<polygon fill="black" stroke="black" points="193.92,-108.57 188.46,-108.06 191.74,-107.33 189.57,-106.1 189.57,-106.1 189.57,-106.1 191.74,-107.33 190.68,-104.14 193.92,-108.57 193.92,-108.57"/>
<text text-anchor="start" x="167" y="-102.8" font-family="Courier,monospace" font-size="9.00">a</text>
</g>
<!-- 4 -->
<g id="node6" class="node">
<title>4</title>
<path fill="none" stroke="black" d="M278.33,-123.5C278.33,-123.5 268.67,-123.5 268.67,-123.5 265.83,-123.5 263,-120.67 263,-117.83 263,-117.83 263,-112.17 263,-112.17 263,-109.33 265.83,-106.5 268.67,-106.5 268.67,-106.5 278.33,-106.5 278.33,-106.5 281.17,-106.5 284,-109.33 284,-112.17 284,-112.17 284,-117.83 284,-117.83 284,-120.67 281.17,-123.5 278.33,-123.5"/>
<text text-anchor="start" x="267" y="-112.5" font-family="Courier,monospace" font-size="10.00">q3</text>
</g>
<!-- 3&#45;&gt;4 -->
<g id="edge4" class="edge">
<title>3-&gt;4</title>
<path fill="none" stroke="black" d="M215.1,-114.14C226.24,-114.31 244.75,-114.59 257.73,-114.78"/>
<polygon fill="black" stroke="black" points="262.92,-114.86 257.89,-117.03 260.42,-114.82 257.92,-114.78 257.92,-114.78 257.92,-114.78 260.42,-114.82 257.95,-112.53 262.92,-114.86 262.92,-114.86"/>
<text text-anchor="start" x="236" y="-119.8" font-family="Courier,monospace" font-size="9.00">ε</text>
</g>
<!-- 6 -->
<g id="node8" class="node">
<title>6</title>
<path fill="none" stroke="black" d="M347.33,-120.5C347.33,-120.5 337.67,-120.5 337.67,-120.5 334.83,-120.5 332,-117.67 332,-114.83 332,-114.83 332,-109.17 332,-109.17 332,-106.33 334.83,-103.5 337.67,-103.5 337.67,-103.5 347.33,-103.5 347.33,-103.5 350.17,-103.5 353,-106.33 353,-109.17 353,-109.17 353,-114.83 353,-114.83 353,-117.67 350.17,-120.5 347.33,-120.5"/>
<text text-anchor="start" x="336" y="-109.5" font-family="Courier,monospace" font-size="10.00">q4</text>
</g>
<!-- 4&#45;&gt;6 -->
<g id="edge3" class="edge">
<title>4-&gt;6</title>
<path fill="none" stroke="black" d="M284.1,-114.57C295.24,-114.07 313.75,-113.24 326.73,-112.66"/>
<polygon fill="black" stroke="black" points="331.92,-112.43 327.02,-114.9 329.42,-112.54 326.92,-112.65 326.92,-112.65 326.92,-112.65 329.42,-112.54 326.82,-110.41 331.92,-112.43 331.92,-112.43"/>
<text text-anchor="start" x="305" y="-118.8" font-family="Courier,monospace" font-size="9.00">b</text>
</g>
<!-- 7 -->
<g id="node9" class="node">
<title>7</title>
<path fill="none" stroke="black" d="M485.33,-99.5C485.33,-99.5 475.67,-99.5 475.67,-99.5 472.83,-99.5 470,-96.67 470,-93.83 470,-93.83 470,-88.17 470,-88.17 470,-85.33 472.83,-82.5 475.67,-82.5 475.67,-82.5 485.33,-82.5 485.33,-82.5 488.17,-82.5 491,-85.33 491,-88.17 491,-88.17 491,-93.83 491,-93.83 491,-96.67 488.17,-99.5 485.33,-99.5"/>
<text text-anchor="start" x="474" y="-88.5" font-family="Courier,monospace" font-size="10.00">q6</text>
</g>
<!-- 5&#45;&gt;7 -->
<g id="edge5" class="edge">
<title>5-&gt;7</title>
<path fill="none" stroke="black" d="M422.1,-92.71C433.24,-92.38 451.75,-91.83 464.73,-91.44"/>
<polygon fill="black" stroke="black" points="469.92,-91.29 464.99,-93.68 467.42,-91.36 464.92,-91.44 464.92,-91.44 464.92,-91.44 467.42,-91.36 464.85,-89.19 469.92,-91.29 469.92,-91.29"/>
<text text-anchor="start" x="443" y="-97.8" font-family="Courier,monospace" font-size="9.00">a</text>
</g>
<!-- 6&#45;&gt;1 -->
<g id="edge9" class="edge">
<title>6-&gt;1</title>
<path fill="none" stroke="black" d="M353.23,-116.58C358.4,-118.83 364.93,-121.41 371,-123 427.32,-137.8 495.18,-144.45 533.74,-147.22"/>
<polygon fill="black" stroke="black" points="538.75,-147.57 533.61,-149.46 536.26,-147.39 533.77,-147.22 533.77,-147.22 533.77,-147.22 536.26,-147.39 533.92,-144.97 538.75,-147.57 538.75,-147.57"/>
<text text-anchor="start" x="443" y="-143.8" font-family="Courier,monospace" font-size="9.00">ε</text>
</g>
<!-- 6&#45;&gt;2 -->
<g id="edge10" class="edge">
<title>6-&gt;2</title>
<path fill="none" stroke="black" d="M331.79,-109.35C320.41,-106.31 300.94,-101.32 284,-98 235.85,-88.57 178.15,-81.04 151.43,-77.77"/>
<polygon fill="black" stroke="black" points="146.22,-77.14 151.45,-75.51 148.7,-77.44 151.18,-77.74 151.18,-77.74 151.18,-77.74 148.7,-77.44 150.91,-79.97 146.22,-77.14 146.22,-77.14"/>
<text text-anchor="start" x="236" y="-95.8" font-family="Courier,monospace" font-size="9.00">ε</text>
</g>
<!-- 6&#45;&gt;5 -->
<g id="edge11" class="edge">
<title>6-&gt;5</title>
<path fill="none" stroke="black" d="M353.1,-109.28C364.34,-106.09 383.08,-100.77 396.08,-97.09"/>
<polygon fill="black" stroke="black" points="400.92,-95.72 396.72,-99.25 398.51,-96.4 396.11,-97.08 396.11,-97.08 396.11,-97.08 398.51,-96.4 395.49,-94.92 400.92,-95.72 400.92,-95.72"/>
<text text-anchor="start" x="374" y="-108.8" font-family="Courier,monospace" font-size="9.00">ε</text>
</g>
<!-- 7&#45;&gt;1 -->
<g id="edge6" class="edge">
<title>7-&gt;1</title>
<path fill="none" stroke="black" d="M491.02,-97.65C503.43,-106.32 525.5,-121.75 542.23,-133.44"/>
<polygon fill="black" stroke="black" points="546.36,-136.32 540.97,-135.3 544.31,-134.89 542.26,-133.46 542.26,-133.46 542.26,-133.46 544.31,-134.89 543.55,-131.61 546.36,-136.32 546.36,-136.32"/>
<text text-anchor="start" x="512" y="-123.8" font-family="Courier,monospace" font-size="9.00">ε</text>
</g>
<!-- 7&#45;&gt;2 -->
<g id="edge7" class="edge">
<title>7-&gt;2</title>
<path fill="none" stroke="black" d="M474.06,-82.25C463.94,-67.19 440.68,-38 412.5,-38 203.5,-38 203.5,-38 203.5,-38 182.35,-38 161.77,-52.5 149.12,-63.58"/>
<polygon fill="black" stroke="black" points="145.14,-67.19 147.34,-62.16 147,-65.51 148.85,-63.83 148.85,-63.83 148.85,-63.83 147,-65.51 150.36,-65.5 145.14,-67.19 145.14,-67.19"/>
<text text-anchor="start" x="305" y="-43.8" font-family="Courier,monospace" font-size="9.00">ε</text>
</g>
<!-- 7&#45;&gt;5 -->
<g id="edge8" class="edge">
<title>7-&gt;5</title>
<path fill="none" stroke="black" d="M471.31,-82.41C463.51,-75.33 451.32,-67.03 440,-71 434.17,-73.05 428.66,-76.9 424.12,-80.83"/>
<polygon fill="black" stroke="black" points="420.25,-84.4 422.4,-79.35 422.08,-82.7 423.92,-81.01 423.92,-81.01 423.92,-81.01 422.08,-82.7 425.45,-82.66 420.25,-84.4 420.25,-84.4"/>
<text text-anchor="start" x="443" y="-76.8" font-family="Courier,monospace" font-size="9.00">ε</text>
</g>
</g>
</svg>