<svg xmlns="http://www.w3.org/2000/svg" xmlns:xlink="http://www.w3.org/1999/xlink" width="747pt" height="182pt" viewBox="0.00 0.00 747.00 181.50">
<g id="graph0" class="graph" transform="scale(1 1) rotate(0) translate(4 177.5)">
<title>%3</title>
<polygon fill="white" stroke="transparent" points="-4,4 -4,-177.5 743,-177.5 743,4 -4,4"/>
<!-- _START -->
<g id="node1" class="node">
<title>_START</title>
</g>
<!-- 0 -->
<g id="node2" class="node">
<title>0</title>
<path fill="none" stroke="black" d="M68.33,-131C68.33,-131 46.67,-131 46.67,-131 43.83,-131 41,-128.17 41,-125.33 41,-125.33 41,-119.67 41,-119.67 41,-116.83 43.83,-114 46.67,-114 46.67,-114 68.33,-114 68.33,-114 71.17,-114 74,-116.83 74,-119.67 74,-119.67 74,-125.33 74,-125.33 74,-128.17 71.17,-131 68.33,-131"/>
<text text-anchor="start" x="45" y="-120" font-family="Courier,monospace" font-size="10.00">q1,ε</text>
</g>
<!-- _START&#45;&gt;0 -->
<g id="edge1" class="edge">
<title>_START-&gt;0</title>
<path fill="none" stroke="black" d="M1.16,-122.5C3.01,-122.5 20.55,-122.5 35.4,-122.5"/>
<polygon fill="black" stroke="black" points="40.72,-122.5 35.72,-124.75 38.22,-122.5 35.72,-122.5 35.72,-122.5 35.72,-122.5 38.22,-122.5 35.72,-120.25 40.72,-122.5 40.72,-122.5"/>
</g>
<!-- 1 -->
<g id="node3" class="node">
<title>1</title>
<path fill="none" stroke="black" d="M68.33,-78C68.33,-78 46.67,-78 46.67,-78 43.83,-78 41,-75.17 41,-72.33 41,-72.33 41,-66.67 41,-66.67 41,-63.83 43.83,-61 46.67,-61 46.67,-61 68.33,-61 68.33,-61 71.17,-61 74,-63.83 74,-66.67 74,-66.67 74,-72.33 74,-72.33 74,-75.17 71.17,-78 68.33,-78"/>
<text text-anchor="start" x="45" y="-67" font-family="Courier,monospace" font-size="10.00">q2,$</text>
</g>
<!-- 0&#45;&gt;1 -->
<g id="edge8" class="edge">
<title>0-&gt;1</title>
<path fill="none" stroke="black" d="M57.5,-113.85C57.5,-103.63 57.5,-93.42 57.5,-83.21"/>
<polygon fill="black" stroke="black" points="57.5,-78.2 59.75,-83.2 57.5,-80.7 57.5,-83.2 57.5,-83.2 57.5,-83.2 57.5,-80.7 55.25,-83.2 57.5,-78.2 57.5,-78.2"/>
</g>
<!-- 2 -->
<g id="node4" class="node">
<title>2</title>
<path fill="none" stroke="black" d="M176.33,-78C176.33,-78 130.67,-78 130.67,-78 127.83,-78 125,-75.17 125,-72.33 125,-72.33 125,-66.67 125,-66.67 125,-63.83 127.83,-61 130.67,-61 130.67,-61 176.33,-61 176.33,-61 179.17,-61 182,-63.83 182,-66.67 182,-66.67 182,-72.33 182,-72.33 182,-75.17 179.17,-78 176.33,-78"/>
<text text-anchor="start" x="129" y="-67" font-family="Courier,monospace" font-size="10.00">q2,[0] $</text>
</g>
<!-- 1&#45;&gt;2 -->
<g id="edge9" class="edge">
<title>1-&gt;2</title>
<path fill="none" stroke="black" d="M74.02,-69.5C86.39,-69.5 104.14,-69.5 119.63,-69.5"/>
<polygon fill="black" stroke="black" points="124.79,-69.5 119.79,-71.75 122.29,-69.5 119.79,-69.5 119.79,-69.5 119.79,-69.5 122.29,-69.5 119.79,-67.25 124.79,-69.5 124.79,-69.5"/>
</g>
<!-- 3 -->
<g id="node5" class="node">
<title>3</title>
<path fill="none" stroke="black" d="M293.33,-78C293.33,-78 235.67,-78 235.67,-78 232.83,-78 230,-75.17 230,-72.33 230,-72.33 230,-66.67 230,-66.67 230,-63.83 232.83,-61 235.67,-61 235.67,-61 293.33,-61 293.33,-61 296.17,-61 299,-63.83 299,-66.67 299,-66.67 299,-72.33 299,-72.33 299,-75.17 296.17,-78 293.33,-78"/>
<text text-anchor="start" x="234" y="-67" font-family="Courier,monospace" font-size="10.00">q2,[0] 0 $</text>
</g>
<!-- 2&#45;&gt;3 -->
<g id="edge10" class="edge">
<title>2-&gt;3</title>
<path fill="none" stroke="black" d="M182.01,-69.5C194.92,-69.5 210.55,-69.5 224.65,-69.5"/>
<polygon fill="black" stroke="black" points="229.77,-69.5 224.77,-71.75 227.27,-69.5 224.77,-69.5 224.77,-69.5 224.77,-69.5 227.27,-69.5 224.77,-67.25 229.77,-69.5 229.77,-69.5"/>
</g>
<!-- 4 -->
<g id="node6" class="node">
<title>4</title>
<path fill="none" stroke="black" d="M422.33,-78C422.33,-78 352.67,-78 352.67,-78 349.83,-78 347,-75.17 347,-72.33 347,-72.33 347,-66.67 347,-66.67 347,-63.83 349.83,-61 352.67,-61 352.67,-61 422.33,-61 422.33,-61 425.17,-61 428,-63.83 428,-66.67 428,-66.67 428,-72.33 428,-72.33 428,-75.17 425.17,-78 422.33,-78"/>
<text text-anchor="start" x="351" y="-67" font-family="Courier,monospace" font-size="10.00">q2,[0] 0 0 …</text>
</g>
<!-- 3&#45;&gt;4 -->
<g id="edge11" class="edge">
<title>3-&gt;4</title>
<path fill="none" stroke="black" d="M299.21,-69.5C312.41,-69.5 327.75,-69.5 341.85,-69.5"/>
<polygon fill="black" stroke="black" points="346.98,-69.5 341.98,-71.75 344.48,-69.5 341.98,-69.5 341.98,-69.5 341.98,-69.5 344.48,-69.5 341.98,-67.25 346.98,-69.5 346.98,-69.5"/>
</g>
<!-- 12 -->
<g id="node14" class="node">
<title>12</title>
<path fill="none" stroke="black" d="M539.33,-78C539.33,-78 481.67,-78 481.67,-78 478.83,-78 476,-75.17 476,-72.33 476,-72.33 476,-66.67 476,-66.67 476,-63.83 478.83,-61 481.67,-61 481.67,-61 539.33,-61 539.33,-61 542.17,-61 545,-63.83 545,-66.67 545,-66.67 545,-72.33 545,-72.33 545,-75.17 542.17,-78 539.33,-78"/>
<text text-anchor="start" x="480" y="-67" font-family="Courier,monospace" font-size="10.00">q3,[0] 0 $</text>
</g>
<!-- 4&#45;&gt;12 -->
<g id="edge12" class="edge">
<title>4-&gt;12</title>
<path fill="none" stroke="black" d="M428.12,-69.5C441.75,-69.5 456.99,-69.5 470.57,-69.5"/>
<polygon fill="black" stroke="black" points="475.88,-69.5 470.88,-71.75 473.38,-69.5 470.88,-69.5 470.88,-69.5 470.88,-69.5 473.38,-69.5 470.88,-67.25 475.88,-69.5 475.88,-69.5"/>
</g>
<!-- 5 -->
<g id="node7" class="node">
<title>5</title>
</g>
<!-- 7 -->
<g id="node9" class="node">
<title>7</title>
</g>
<!-- 5&#45;&gt;7 -->
<g id="edge3" class="edge">
<title>5-&gt;7</title>
<path fill="none" stroke="white" d="M173.49,-157.5C191.85,-157.5 219.75,-157.5 239.61,-157.5"/>
<polygon fill="white" stroke="white" points="244.73,-157.5 239.73,-159.75 242.23,-157.5 239.73,-157.5 239.73,-157.5 239.73,-157.5 242.23,-157.5 239.73,-155.25 244.73,-157.5 244.73,-157.5"/>
<text text-anchor="start" x="203" y="-163.3" font-family="Courier,monospace" font-size="9.00">0</text>
</g>
<!-- 6 -->
<g id="node8" class="node">
<title>6</title>
</g>
<!-- 6&#45;&gt;5 -->
<g id="edge2" class="edge">
<title>6-&gt;5</title>
<path fill="none" stroke="white" d="M77.07,-157.5C91.88,-157.5 112.71,-157.5 128.73,-157.5"/>
<polygon fill="white" stroke="white" points="133.97,-157.5 128.97,-159.75 131.47,-157.5 128.97,-157.5 128.97,-157.5 128.97,-157.5 131.47,-157.5 128.97,-155.25 133.97,-157.5 133.97,-157.5"/>
<text text-anchor="start" x="98" y="-163.3" font-family="Courier,monospace" font-size="9.00">0</text>
</g>
<!-- 8 -->
<g id="node10" class="node">
<title>8</title>
</g>
<!-- 7&#45;&gt;8 -->
<g id="edge4" class="edge">
<title>7-&gt;8</title>
<path fill="none" stroke="white" d="M284.14,-157.5C305.22,-157.5 339.59,-157.5 362.62,-157.5"/>
<polygon fill="white" stroke="white" points="367.64,-157.5 362.64,-159.75 365.14,-157.5 362.64,-157.5 362.64,-157.5 362.64,-157.5 365.14,-157.5 362.64,-155.25 367.64,-157.5 367.64,-157.5"/>
<text text-anchor="start" x="320" y="-163.3" font-family="Courier,monospace" font-size="9.00">0</text>
</g>
<!-- 9 -->
<g id="node11" class="node">
<title>9</title>
</g>
<!-- 8&#45;&gt;9 -->
<g id="edge5" class="edge">
<title>8-&gt;9</title>
<path fill="none" stroke="white" d="M407.14,-157.5C428.22,-157.5 462.59,-157.5 485.62,-157.5"/>
<polygon fill="white" stroke="white" points="490.64,-157.5 485.64,-159.75 488.14,-157.5 485.64,-157.5 485.64,-157.5 485.64,-157.5 488.14,-157.5 485.64,-155.25 490.64,-157.5 490.64,-157.5"/>
<text text-anchor="start" x="449" y="-163.3" font-family="Courier,monospace" font-size="9.00">1</text>
</g>
<!-- 10 -->
<g id="node12" class="node">
<title>10</title>
</g>
<!-- 9&#45;&gt;10 -->
<g id="edge6" class="edge">
<title>9-&gt;10</title>
<path fill="none" stroke="white" d="M530.49,-157.5C548.85,-157.5 576.75,-157.5 596.61,-157.5"/>
<polygon fill="white" stroke="white" points="601.73,-157.5 596.73,-159.75 599.23,-157.5 596.73,-157.5 596.73,-157.5 596.73,-157.5 599.23,-157.5 596.73,-155.25 601.73,-157.5 601.73,-157.5"/>
<text text-anchor="start" x="566" y="-163.3" font-family="Courier,monospace" font-size="9.00">1</text>
</g>
<!-- 11 -->
<g id="node13" class="node">
<title>11</title>
</g>
<!-- 10&#45;&gt;11 -->
<g id="edge7" class="edge">
<title>10-&gt;11</title>
<path fill="none" stroke="white" d="M641.27,-157.5C656.23,-157.5 677.29,-157.5 693.48,-157.5"/>
<polygon fill="white" stroke="white" points="698.77,-157.5 693.77,-159.75 696.27,-157.5 693.77,-157.5 693.77,-157.5 693.77,-157.5 696.27,-157.5 693.77,-155.25 698.77,-157.5 698.77,-157.5"/>
<text text-anchor="start" x="671" y="-163.3" font-family="Courier,monospace" font-size="9.00">1</text>
</g>
<!-- 13 -->
<g id="node15" class="node">
<title>13</title>
<path fill="none" stroke="black" d="M644.33,-78C644.33,-78 598.67,-78 598.67,-78 595.83,-78 593,-75.17 593,-72.33 593,-72.33 593,-66.67 593,-66.67 593,-63.83 595.83,-61 598.67,-61 598.67,-61 644.33,-61 644.33,-61 647.17,-61 650,-63.83 650,-66.67 650,-66.67 650,-72.33 650,-72.33 650,-75.17 647.17,-78 644.33,-78"/>
<text text-anchor="start" x="597" y="-67" font-family="Courier,monospace" font-size="10.00">q3,[0] $</text>
</g>
<!-- 12&#45;&gt;13 -->
<g id="edge13" class="edge">
<title>12-&gt;13</title>
<path fill="none" stroke="black" d="M545.09,-69.5C558.57,-69.5 574.05,-69.5 587.47,-69.5"/>
<polygon fill="black" stroke="black" points="592.69,-69.5 587.69,-71.75 590.19,-69.5 587.69,-69.5 587.69,-69.5 587.69,-69.5 590.19,-69.5 587.69,-67.25 592.69,-69.5 592.69,-69.5"/>
</g>
<!-- 14 -->
<g id="node16" class="node">
<title>14</title>
<path fill="none" stroke="black" d="M729.33,-78C729.33,-78 707.67,-78 707.67,-78 704.83,-78 702,-75.17 702,-72.33 702,-72.33 702,-66.67 702,-66.67 702,-63.83 704.83,-61 707.67,-61 707.67,-61 729.33,-61 729.33,-61 732.17,-61 735,-63.83 735,-66.67 735,-66.67 735,-72.33 735,-72.33 735,-75.17 732.17,-78 729.33,-78"/>
<text text-anchor="start" x="706" y="-67" font-family="Courier,monospace" font-size="10.00">q3,$</text>
</g>
<!-- 13&#45;&gt;14 -->
<g id="edge14" class="edge">
<title>13-&gt;14</title>
<path fill="none" stroke="black" d="M650.23,-69.5C665.03,-69.5 682.94,-69.5 696.55,-69.5"/>
<polygon fill="black" stroke="black" points="701.73,-69.5 696.73,-71.75 699.23,-69.5 696.73,-69.5 696.73,-69.5 696.73,-69.5 699.23,-69.5 696.73,-67.25 701.73,-69.5 701.73,-69.5"/>
</g>
<!-- 15 -->
<g id="node17" class="node">
<title>15</title>
<path fill="none" stroke="black" d="M729.33,-21C729.33,-21 707.67,-21 707.67,-21 704.83,-21 702,-18.17 702,-15.33 702,-15.33 702,-9.67 702,-9.67 702,-6.83 704.83,-4 707.67,-4 707.67,-4 729.33,-4 729.33,-4 732.17,-4 735,-6.83 735,-9.67 735,-9.67 735,-15.33 735,-15.33 735,-18.17 732.17,-21 729.33,-21"/>
<path fill="none" stroke="black" d="M730.67,-25C730.67,-25 706.33,-25 706.33,-25 702.17,-25 698,-20.83 698,-16.67 698,-16.67 698,-8.33 698,-8.33 698,-4.17 702.17,0 706.33,0 706.33,0 730.67,0 730.67,0 734.83,0 739,-4.17 739,-8.33 739,-8.33 739,-16.67 739,-16.67 739,-20.83 734.83,-25 730.67,-25"/>
<text text-anchor="start" x="706" y="-10" font-family="Courier,monospace" font-size="10.00">q4,ε</text>
</g>
<!-- 14&#45;&gt;15 -->
<g id="edge15" class="edge">
<title>14-&gt;15</title>
<path fill="none" stroke="black" d="M718.5,-60.89C718.5,-50.82 718.5,-40.75 718.5,-30.68"/>
<polygon fill="black" stroke="black" points="718.5,-25.41 720.75,-30.41 718.5,-27.91 718.5,-30.41 718.5,-30.41 718.5,-30.41 718.5,-27.91 716.25,-30.41 718.5,-25.41 718.5,-25.41"/>
</g>
</g>
</svg>