<svg xmlns="http://www.w3.org/2000/svg" xmlns:xlink="http://www.w3.org/1999/xlink" width="607pt" height="217pt" viewBox="0.00 0.00 607.00 216.50">
<g id="graph0" class="graph" transform="scale(1 1) rotate(0) translate(4 212.5)">
<title>%3</title>
<polygon fill="white" stroke="transparent" points="-4,4 -4,-212.5 603,-212.5 603,4 -4,4"/>
<!-- _START -->
<g id="node1" class="node">
<title>_START</title>
</g>
<!-- 2 -->
<g id="node4" class="node">
<title>2</title>
<path fill="none" stroke="black" d="M62.33,-93C62.33,-93 52.67,-93 52.67,-93 49.83,-93 47,-90.17 47,-87.33 47,-87.33 47,-81.67 47,-81.67 47,-78.83 49.83,-76 52.67,-76 52.67,-76 62.33,-76 62.33,-76 65.17,-76 68,-78.83 68,-81.67 68,-81.67 68,-87.33 68,-87.33 68,-90.17 65.17,-93 62.33,-93"/>
<text text-anchor="start" x="51" y="-82" font-family="Courier,monospace" font-size="10.00">q1</text>
</g>
<!-- _START&#45;&gt;2 -->
<g id="edge1" class="edge">
<title>_START-&gt;2</title>
<path fill="none" stroke="black" d="M1.16,-84.5C3.27,-84.5 25.82,-84.5 41.47,-84.5"/>
<polygon fill="black" stroke="black" points="46.88,-84.5 41.88,-86.75 44.38,-84.5 41.88,-84.5 41.88,-84.5 41.88,-84.5 44.38,-84.5 41.88,-82.25 46.88,-84.5 46.88,-84.5"/>
</g>
<!-- 0 -->
<g id="node2" class="node">
<title>0</title>
<path fill="none" stroke="black" d="M149.33,-70C149.33,-70 139.67,-70 139.67,-70 136.83,-70 134,-67.17 134,-64.33 134,-64.33 134,-58.67 134,-58.67 134,-55.83 136.83,-53 139.67,-53 139.67,-53 149.33,-53 149.33,-53 152.17,-53 155,-55.83 155,-58.67 155,-58.67 155,-64.33 155,-64.33 155,-67.17 152.17,-70 149.33,-70"/>
<text text-anchor="start" x="138" y="-59" font-family="Courier,monospace" font-size="10.00">q2</text>
</g>
<!-- 4 -->
<g id="node6" class="node">
<title>4</title>
<path fill="none" stroke="black" d="M149.33,-17C149.33,-17 139.67,-17 139.67,-17 136.83,-17 134,-14.17 134,-11.33 134,-11.33 134,-5.67 134,-5.67 134,-2.83 136.83,0 139.67,0 139.67,0 149.33,0 149.33,0 152.17,0 155,-2.83 155,-5.67 155,-5.67 155,-11.33 155,-11.33 155,-14.17 152.17,-17 149.33,-17"/>
<text text-anchor="start" x="138" y="-6" font-family="Courier,monospace" font-size="10.00">q3</text>
</g>
<!-- 0&#45;&gt;4 -->
<g id="edge6" class="edge">
<title>0-&gt;4</title>
<path fill="none" stroke="black" d="M144.5,-52.85C144.5,-42.63 144.5,-32.42 144.5,-22.21"/>
<polygon fill="black" stroke="black" points="144.5,-17.2 146.75,-22.2 144.5,-19.7 144.5,-22.2 144.5,-22.2 144.5,-22.2 144.5,-19.7 142.25,-22.2 144.5,-17.2 144.5,-17.2"/>
</g>
<!-- 6 -->
<g id="node8" class="node">
<title>6</title>
<path fill="none" stroke="black" d="M236.33,-58C236.33,-58 226.67,-58 226.67,-58 223.83,-58 221,-55.17 221,-52.33 221,-52.33 221,-46.67 221,-46.67 221,-43.83 223.83,-41 226.67,-41 226.67,-41 236.33,-41 236.33,-41 239.17,-41 242,-43.83 242,-46.67 242,-46.67 242,-52.33 242,-52.33 242,-55.17 239.17,-58 236.33,-58"/>
<text text-anchor="start" x="225" y="-47" font-family="Courier,monospace" font-size="10.00">q3</text>
</g>
<!-- 0&#45;&gt;6 -->
<g id="edge5" class="edge">
<title>0-&gt;6</title>
<path fill="none" stroke="black" d="M155.25,-60.12C170.11,-58.03 198.52,-54.01 215.86,-51.57"/>
<polygon fill="black" stroke="black" points="220.86,-50.86 216.23,-53.79 218.39,-51.21 215.91,-51.56 215.91,-51.56 215.91,-51.56 218.39,-51.21 215.6,-49.33 220.86,-50.86 220.86,-50.86"/>
</g>
<!-- 1 -->
<g id="node3" class="node">
<title>1</title>
<path fill="none" stroke="black" d="M149.33,-110C149.33,-110 139.67,-110 139.67,-110 136.83,-110 134,-107.17 134,-104.33 134,-104.33 134,-98.67 134,-98.67 134,-95.83 136.83,-93 139.67,-93 139.67,-93 149.33,-93 149.33,-93 152.17,-93 155,-95.83 155,-98.67 155,-98.67 155,-104.33 155,-104.33 155,-107.17 152.17,-110 149.33,-110"/>
<text text-anchor="start" x="138" y="-99" font-family="Courier,monospace" font-size="10.00">q1</text>
</g>
<!-- 5 -->
<g id="node7" class="node">
<title>5</title>
<path fill="none" stroke="black" d="M236.33,-115C236.33,-115 226.67,-115 226.67,-115 223.83,-115 221,-112.17 221,-109.33 221,-109.33 221,-103.67 221,-103.67 221,-100.83 223.83,-98 226.67,-98 226.67,-98 236.33,-98 236.33,-98 239.17,-98 242,-100.83 242,-103.67 242,-103.67 242,-109.33 242,-109.33 242,-112.17 239.17,-115 236.33,-115"/>
<text text-anchor="start" x="225" y="-104" font-family="Courier,monospace" font-size="10.00">q1</text>
</g>
<!-- 1&#45;&gt;5 -->
<g id="edge4" class="edge">
<title>1-&gt;5</title>
<path fill="none" stroke="black" d="M155.25,-102.07C170.11,-102.95 198.52,-104.62 215.86,-105.64"/>
<polygon fill="black" stroke="black" points="220.86,-105.93 215.74,-107.89 218.37,-105.79 215.87,-105.64 215.87,-105.64 215.87,-105.64 218.37,-105.79 216,-103.39 220.86,-105.93 220.86,-105.93"/>
</g>
<!-- 2&#45;&gt;0 -->
<g id="edge3" class="edge">
<title>2-&gt;0</title>
<path fill="none" stroke="black" d="M68.25,-81.86C83.11,-77.84 111.52,-70.15 128.86,-65.46"/>
<polygon fill="black" stroke="black" points="133.86,-64.11 129.62,-67.59 131.45,-64.76 129.04,-65.41 129.04,-65.41 129.04,-65.41 131.45,-64.76 128.45,-63.24 133.86,-64.11 133.86,-64.11"/>
</g>
<!-- 2&#45;&gt;1 -->
<g id="edge2" class="edge">
<title>2-&gt;1</title>
<path fill="none" stroke="black" d="M68.25,-86.45C83.11,-89.42 111.52,-95.1 128.86,-98.57"/>
<polygon fill="black" stroke="black" points="133.86,-99.57 128.52,-100.8 131.41,-99.08 128.96,-98.59 128.96,-98.59 128.96,-98.59 131.41,-99.08 129.4,-96.39 133.86,-99.57 133.86,-99.57"/>
</g>
<!-- 3 -->
<g id="node5" class="node">
<title>3</title>
<path fill="none" stroke="black" d="M323.33,-115C323.33,-115 313.67,-115 313.67,-115 310.83,-115 308,-112.17 308,-109.33 308,-109.33 308,-103.67 308,-103.67 308,-100.83 310.83,-98 313.67,-98 313.67,-98 323.33,-98 323.33,-98 326.17,-98 329,-100.83 329,-103.67 329,-103.67 329,-109.33 329,-109.33 329,-112.17 326.17,-115 323.33,-115"/>
<text text-anchor="start" x="312" y="-104" font-family="Courier,monospace" font-size="10.00">q1</text>
</g>
<!-- 9 -->
<g id="node11" class="node">
<title>9</title>
<path fill="none" stroke="black" d="M410.33,-152C410.33,-152 400.67,-152 400.67,-152 397.83,-152 395,-149.17 395,-146.33 395,-146.33 395,-140.67 395,-140.67 395,-137.83 397.83,-135 400.67,-135 400.67,-135 410.33,-135 410.33,-135 413.17,-135 416,-137.83 416,-140.67 416,-140.67 416,-146.33 416,-146.33 416,-149.17 413.17,-152 410.33,-152"/>
<text text-anchor="start" x="399" y="-141" font-family="Courier,monospace" font-size="10.00">q1</text>
</g>
<!-- 3&#45;&gt;9 -->
<g id="edge10" class="edge">
<title>3-&gt;9</title>
<path fill="none" stroke="black" d="M329.25,-110.74C344.11,-117.21 372.52,-129.58 389.86,-137.13"/>
<polygon fill="black" stroke="black" points="394.86,-139.31 389.38,-139.37 392.57,-138.31 390.28,-137.31 390.28,-137.31 390.28,-137.31 392.57,-138.31 391.18,-135.25 394.86,-139.31 394.86,-139.31"/>
</g>
<!-- 10 -->
<g id="node12" class="node">
<title>10</title>
<path fill="none" stroke="black" d="M410.33,-117C410.33,-117 400.67,-117 400.67,-117 397.83,-117 395,-114.17 395,-111.33 395,-111.33 395,-105.67 395,-105.67 395,-102.83 397.83,-100 400.67,-100 400.67,-100 410.33,-100 410.33,-100 413.17,-100 416,-102.83 416,-105.67 416,-105.67 416,-111.33 416,-111.33 416,-114.17 413.17,-117 410.33,-117"/>
<text text-anchor="start" x="399" y="-106" font-family="Courier,monospace" font-size="10.00">q2</text>
</g>
<!-- 3&#45;&gt;10 -->
<g id="edge11" class="edge">
<title>3-&gt;10</title>
<path fill="none" stroke="black" d="M329.25,-106.73C344.11,-107.08 372.52,-107.75 389.86,-108.16"/>
<polygon fill="black" stroke="black" points="394.86,-108.27 389.81,-110.4 392.36,-108.21 389.86,-108.16 389.86,-108.16 389.86,-108.16 392.36,-108.21 389.92,-105.91 394.86,-108.27 394.86,-108.27"/>
</g>
<!-- 5&#45;&gt;3 -->
<g id="edge7" class="edge">
<title>5-&gt;3</title>
<path fill="none" stroke="black" d="M242.25,-106.5C256.98,-106.5 285.03,-106.5 302.41,-106.5"/>
<polygon fill="black" stroke="black" points="307.86,-106.5 302.86,-108.75 305.36,-106.5 302.86,-106.5 302.86,-106.5 302.86,-106.5 305.36,-106.5 302.86,-104.25 307.86,-106.5 307.86,-106.5"/>
</g>
<!-- 7 -->
<g id="node9" class="node">
<title>7</title>
<path fill="none" stroke="black" d="M323.33,-150C323.33,-150 313.67,-150 313.67,-150 310.83,-150 308,-147.17 308,-144.33 308,-144.33 308,-138.67 308,-138.67 308,-135.83 310.83,-133 313.67,-133 313.67,-133 323.33,-133 323.33,-133 326.17,-133 329,-135.83 329,-138.67 329,-138.67 329,-144.33 329,-144.33 329,-147.17 326.17,-150 323.33,-150"/>
<text text-anchor="start" x="312" y="-139" font-family="Courier,monospace" font-size="10.00">q2</text>
</g>
<!-- 5&#45;&gt;7 -->
<g id="edge8" class="edge">
<title>5-&gt;7</title>
<path fill="none" stroke="black" d="M242.25,-110.51C257.11,-116.63 285.52,-128.33 302.86,-135.47"/>
<polygon fill="black" stroke="black" points="307.86,-137.53 302.38,-137.71 305.55,-136.58 303.24,-135.63 303.24,-135.63 303.24,-135.63 305.55,-136.58 304.1,-133.55 307.86,-137.53 307.86,-137.53"/>
</g>
<!-- 8 -->
<g id="node10" class="node">
<title>8</title>
<path fill="none" stroke="black" d="M323.33,-39C323.33,-39 313.67,-39 313.67,-39 310.83,-39 308,-36.17 308,-33.33 308,-33.33 308,-27.67 308,-27.67 308,-24.83 310.83,-22 313.67,-22 313.67,-22 323.33,-22 323.33,-22 326.17,-22 329,-24.83 329,-27.67 329,-27.67 329,-33.33 329,-33.33 329,-36.17 326.17,-39 323.33,-39"/>
<text text-anchor="start" x="312" y="-28" font-family="Courier,monospace" font-size="10.00">q4</text>
</g>
<!-- 6&#45;&gt;8 -->
<g id="edge9" class="edge">
<title>6-&gt;8</title>
<path fill="none" stroke="black" d="M242.25,-47.32C257.11,-44 285.52,-37.65 302.86,-33.77"/>
<polygon fill="black" stroke="black" points="307.86,-32.65 303.47,-35.94 305.42,-33.2 302.98,-33.74 302.98,-33.74 302.98,-33.74 305.42,-33.2 302.49,-31.55 307.86,-32.65 307.86,-32.65"/>
</g>
<!-- 18 -->
<g id="node20" class="node">
<title>18</title>
<path fill="none" stroke="black" d="M323.33,-78C323.33,-78 313.67,-78 313.67,-78 310.83,-78 308,-75.17 308,-72.33 308,-72.33 308,-66.67 308,-66.67 308,-63.83 310.83,-61 313.67,-61 313.67,-61 323.33,-61 323.33,-61 326.17,-61 329,-63.83 329,-66.67 329,-66.67 329,-72.33 329,-72.33 329,-75.17 326.17,-78 323.33,-78"/>
<text text-anchor="start" x="312" y="-67" font-family="Courier,monospace" font-size="10.00">q3</text>
</g>
<!-- 7&#45;&gt;18 -->
<g id="edge12" class="edge">
<title>7-&gt;18</title>
<path fill="none" stroke="black" d="M307.65,-138.2C297.18,-134.37 281.91,-126.93 275,-114.5 271.33,-107.9 271.38,-104.13 275,-97.5 280.91,-86.66 293.02,-79.39 302.97,-74.98"/>
<polygon fill="black" stroke="black" points="307.64,-73.04 303.88,-77.03 305.33,-74 303.02,-74.95 303.02,-74.95 303.02,-74.95 305.33,-74 302.16,-72.88 307.64,-73.04 307.64,-73.04"/>
</g>
<!-- 19 -->
<g id="node21" class="node">
<title>19</title>
<path fill="none" stroke="black" d="M410.33,-29C410.33,-29 400.67,-29 400.67,-29 397.83,-29 395,-26.17 395,-23.33 395,-23.33 395,-17.67 395,-17.67 395,-14.83 397.83,-12 400.67,-12 400.67,-12 410.33,-12 410.33,-12 413.17,-12 416,-14.83 416,-17.67 416,-17.67 416,-23.33 416,-23.33 416,-26.17 413.17,-29 410.33,-29"/>
<text text-anchor="start" x="399" y="-18" font-family="Courier,monospace" font-size="10.00">q4</text>
</g>
<!-- 8&#45;&gt;19 -->
<g id="edge13" class="edge">
<title>8-&gt;19</title>
<path fill="none" stroke="black" d="M329.25,-29.35C344.11,-27.6 372.52,-24.26 389.86,-22.22"/>
<polygon fill="black" stroke="black" points="394.86,-21.63 390.16,-24.45 392.38,-21.93 389.9,-22.22 389.9,-22.22 389.9,-22.22 392.38,-21.93 389.63,-19.98 394.86,-21.63 394.86,-21.63"/>
</g>
<!-- 20 -->
<g id="node22" class="node">
<title>20</title>
<path fill="none" stroke="black" d="M497.33,-152C497.33,-152 487.67,-152 487.67,-152 484.83,-152 482,-149.17 482,-146.33 482,-146.33 482,-140.67 482,-140.67 482,-137.83 484.83,-135 487.67,-135 487.67,-135 497.33,-135 497.33,-135 500.17,-135 503,-137.83 503,-140.67 503,-140.67 503,-146.33 503,-146.33 503,-149.17 500.17,-152 497.33,-152"/>
<text text-anchor="start" x="486" y="-141" font-family="Courier,monospace" font-size="10.00">q1</text>
</g>
<!-- 9&#45;&gt;20 -->
<g id="edge14" class="edge">
<title>9-&gt;20</title>
<path fill="none" stroke="black" d="M416.25,-143.5C430.98,-143.5 459.03,-143.5 476.41,-143.5"/>
<polygon fill="black" stroke="black" points="481.86,-143.5 476.86,-145.75 479.36,-143.5 476.86,-143.5 476.86,-143.5 476.86,-143.5 479.36,-143.5 476.86,-141.25 481.86,-143.5 481.86,-143.5"/>
</g>
<!-- 21 -->
<g id="node23" class="node">
<title>21</title>
<path fill="none" stroke="black" d="M497.33,-101C497.33,-101 487.67,-101 487.67,-101 484.83,-101 482,-98.17 482,-95.33 482,-95.33 482,-89.67 482,-89.67 482,-86.83 484.83,-84 487.67,-84 487.67,-84 497.33,-84 497.33,-84 500.17,-84 503,-86.83 503,-89.67 503,-89.67 503,-95.33 503,-95.33 503,-98.17 500.17,-101 497.33,-101"/>
<text text-anchor="start" x="486" y="-90" font-family="Courier,monospace" font-size="10.00">q3</text>
</g>
<!-- 10&#45;&gt;21 -->
<g id="edge15" class="edge">
<title>10-&gt;21</title>
<path fill="none" stroke="black" d="M416.25,-106.66C431.11,-103.87 459.52,-98.52 476.86,-95.26"/>
<polygon fill="black" stroke="black" points="481.86,-94.31 477.37,-97.45 479.41,-94.78 476.95,-95.24 476.95,-95.24 476.95,-95.24 479.41,-94.78 476.53,-93.03 481.86,-94.31 481.86,-94.31"/>
</g>
<!-- 22 -->
<g id="node24" class="node">
<title>22</title>
<path fill="none" stroke="black" d="M410.33,-64C410.33,-64 400.67,-64 400.67,-64 397.83,-64 395,-61.17 395,-58.33 395,-58.33 395,-52.67 395,-52.67 395,-49.83 397.83,-47 400.67,-47 400.67,-47 410.33,-47 410.33,-47 413.17,-47 416,-49.83 416,-52.67 416,-52.67 416,-58.33 416,-58.33 416,-61.17 413.17,-64 410.33,-64"/>
<text text-anchor="start" x="399" y="-53" font-family="Courier,monospace" font-size="10.00">q3</text>
</g>
<!-- 10&#45;&gt;22 -->
<g id="edge16" class="edge">
<title>10-&gt;22</title>
<path fill="none" stroke="black" d="M405.5,-99.85C405.5,-89.63 405.5,-79.42 405.5,-69.21"/>
<polygon fill="black" stroke="black" points="405.5,-64.2 407.75,-69.2 405.5,-66.7 405.5,-69.2 405.5,-69.2 405.5,-69.2 405.5,-66.7 403.25,-69.2 405.5,-64.2 405.5,-64.2"/>
</g>
<!-- 11 -->
<g id="node13" class="node">
<title>11</title>
</g>
<!-- 12 -->
<g id="node14" class="node">
<title>12</title>
</g>
<!-- 11&#45;&gt;12 -->
<g id="edge24" class="edge">
<title>11-&gt;12</title>
<path fill="none" stroke="white" d="M77.36,-192.5C89.89,-192.5 106.42,-192.5 119.83,-192.5"/>
<polygon fill="white" stroke="white" points="124.98,-192.5 119.98,-194.75 122.48,-192.5 119.98,-192.5 119.98,-192.5 119.98,-192.5 122.48,-192.5 119.98,-190.25 124.98,-192.5 124.98,-192.5"/>
<text text-anchor="start" x="98" y="-198.3" font-family="Courier,monospace" font-size="9.00">1</text>
</g>
<!-- 13 -->
<g id="node15" class="node">
<title>13</title>
</g>
<!-- 12&#45;&gt;13 -->
<g id="edge25" class="edge">
<title>12-&gt;13</title>
<path fill="none" stroke="white" d="M164.36,-192.5C176.89,-192.5 193.42,-192.5 206.83,-192.5"/>
<polygon fill="white" stroke="white" points="211.98,-192.5 206.98,-194.75 209.48,-192.5 206.98,-192.5 206.98,-192.5 206.98,-192.5 209.48,-192.5 206.98,-190.25 211.98,-192.5 211.98,-192.5"/>
<text text-anchor="start" x="185" y="-198.3" font-family="Courier,monospace" font-size="9.00">0</text>
</g>
<!-- 14 -->
<g id="node16" class="node">
<title>14</title>
</g>
<!-- 13&#45;&gt;14 -->
<g id="edge26" class="edge">
<title>13-&gt;14</title>
<path fill="none" stroke="white" d="M251.36,-192.5C263.89,-192.5 280.42,-192.5 293.83,-192.5"/>
<polygon fill="white" stroke="white" points="298.98,-192.5 293.98,-194.75 296.48,-192.5 293.98,-192.5 293.98,-192.5 293.98,-192.5 296.48,-192.5 293.98,-190.25 298.98,-192.5 298.98,-192.5"/>
<text text-anchor="start" x="272" y="-198.3" font-family="Courier,monospace" font-size="9.00">1</text>
</g>
<!-- 15 -->
<g id="node17" class="node">
<title>15</title>
</g>
<!-- 14&#45;&gt;15 -->
<g id="edge27" class="edge">
<title>14-&gt;15</title>
<path fill="none" stroke="white" d="M338.36,-192.5C350.89,-192.5 367.42,-192.5 380.83,-192.5"/>
<polygon fill="white" stroke="white" points="385.98,-192.5 380.98,-194.75 383.48,-192.5 380.98,-192.5 380.98,-192.5 380.98,-192.5 383.48,-192.5 380.98,-190.25 385.98,-192.5 385.98,-192.5"/>
<text text-anchor="start" x="359" y="-198.3" font-family="Courier,monospace" font-size="9.00">1</text>
</g>
<!-- 16 -->
<g id="node18" class="node">
<title>16</title>
</g>
<!-- 15&#45;&gt;16 -->
<g id="edge28" class="edge">
<title>15-&gt;16</title>
<path fill="none" stroke="white" d="M425.36,-192.5C437.89,-192.5 454.42,-192.5 467.83,-192.5"/>
<polygon fill="white" stroke="white" points="472.98,-192.5 467.98,-194.75 470.48,-192.5 467.98,-192.5 467.98,-192.5 467.98,-192.5 470.48,-192.5 467.98,-190.25 472.98,-192.5 472.98,-192.5"/>
<text text-anchor="start" x="446" y="-198.3" font-family="Courier,monospace" font-size="9.00">0</text>
</g>
<!-- 17 -->
<g id="node19" class="node">
<title>17</title>
</g>
<!-- 16&#45;&gt;17 -->
<g id="edge29" class="edge">
<title>16-&gt;17</title>
<path fill="none" stroke="white" d="M512.36,-192.5C524.89,-192.5 541.42,-192.5 554.83,-192.5"/>
<polygon fill="white" stroke="white" points="559.98,-192.5 554.98,-194.75 557.48,-192.5 554.98,-192.5 554.98,-192.5 554.98,-192.5 557.48,-192.5 554.98,-190.25 559.98,-192.5 559.98,-192.5"/>
<text text-anchor="start" x="533" y="-198.3" font-family="Courier,monospace" font-size="9.00">1</text>
</g>
<!-- 18&#45;&gt;19 -->
<g id="edge17" class="edge">
<title>18-&gt;19</title>
<path fill="none" stroke="black" d="M329.25,-63.88C344.24,-55.24 373.01,-38.65 390.31,-28.68"/>
<polygon fill="black" stroke="black" points="394.86,-26.06 391.66,-30.5 392.7,-27.3 390.53,-28.55 390.53,-28.55 390.53,-28.55 392.7,-27.3 389.41,-26.6 394.86,-26.06 394.86,-26.06"/>
</g>
<!-- 23 -->
<g id="node25" class="node">
<title>23</title>
<path fill="none" stroke="black" d="M497.33,-37C497.33,-37 487.67,-37 487.67,-37 484.83,-37 482,-34.17 482,-31.33 482,-31.33 482,-25.67 482,-25.67 482,-22.83 484.83,-20 487.67,-20 487.67,-20 497.33,-20 497.33,-20 500.17,-20 503,-22.83 503,-25.67 503,-25.67 503,-31.33 503,-31.33 503,-34.17 500.17,-37 497.33,-37"/>
<text text-anchor="start" x="486" y="-26" font-family="Courier,monospace" font-size="10.00">q4</text>
</g>
<!-- 19&#45;&gt;23 -->
<g id="edge18" class="edge">
<title>19-&gt;23</title>
<path fill="none" stroke="black" d="M416.25,-21.42C431.11,-22.82 459.52,-25.49 476.86,-27.12"/>
<polygon fill="black" stroke="black" points="481.86,-27.59 476.67,-29.36 479.37,-27.36 476.89,-27.12 476.89,-27.12 476.89,-27.12 479.37,-27.36 477.1,-24.88 481.86,-27.59 481.86,-27.59"/>
</g>
<!-- 24 -->
<g id="node26" class="node">
<title>24</title>
<path fill="none" stroke="black" d="M584.33,-166C584.33,-166 574.67,-166 574.67,-166 571.83,-166 569,-163.17 569,-160.33 569,-160.33 569,-154.67 569,-154.67 569,-151.83 571.83,-149 574.67,-149 574.67,-149 584.33,-149 584.33,-149 587.17,-149 590,-151.83 590,-154.67 590,-154.67 590,-160.33 590,-160.33 590,-163.17 587.17,-166 584.33,-166"/>
<text text-anchor="start" x="573" y="-155" font-family="Courier,monospace" font-size="10.00">q1</text>
</g>
<!-- 20&#45;&gt;24 -->
<g id="edge19" class="edge">
<title>20-&gt;24</title>
<path fill="none" stroke="black" d="M503.25,-145.11C518.11,-147.55 546.52,-152.23 563.86,-155.09"/>
<polygon fill="black" stroke="black" points="568.86,-155.91 563.56,-157.32 566.4,-155.51 563.93,-155.1 563.93,-155.1 563.93,-155.1 566.4,-155.51 564.3,-152.88 568.86,-155.91 568.86,-155.91"/>
</g>
<!-- 25 -->
<g id="node27" class="node">
<title>25</title>
<path fill="none" stroke="black" d="M584.33,-131C584.33,-131 574.67,-131 574.67,-131 571.83,-131 569,-128.17 569,-125.33 569,-125.33 569,-119.67 569,-119.67 569,-116.83 571.83,-114 574.67,-114 574.67,-114 584.33,-114 584.33,-114 587.17,-114 590,-116.83 590,-119.67 590,-119.67 590,-125.33 590,-125.33 590,-128.17 587.17,-131 584.33,-131"/>
<text text-anchor="start" x="573" y="-120" font-family="Courier,monospace" font-size="10.00">q2</text>
</g>
<!-- 20&#45;&gt;25 -->
<g id="edge20" class="edge">
<title>20-&gt;25</title>
<path fill="none" stroke="black" d="M503.25,-141.09C518.11,-137.42 546.52,-130.4 563.86,-126.12"/>
<polygon fill="black" stroke="black" points="568.86,-124.88 564.55,-128.26 566.44,-125.48 564.01,-126.08 564.01,-126.08 564.01,-126.08 566.44,-125.48 563.47,-123.9 568.86,-124.88 568.86,-124.88"/>
</g>
<!-- 26 -->
<g id="node28" class="node">
<title>26</title>
<path fill="none" stroke="black" d="M584.33,-39C584.33,-39 574.67,-39 574.67,-39 571.83,-39 569,-36.17 569,-33.33 569,-33.33 569,-27.67 569,-27.67 569,-24.83 571.83,-22 574.67,-22 574.67,-22 584.33,-22 584.33,-22 587.17,-22 590,-24.83 590,-27.67 590,-27.67 590,-33.33 590,-33.33 590,-36.17 587.17,-39 584.33,-39"/>
<path fill="none" stroke="black" d="M585.67,-43C585.67,-43 573.33,-43 573.33,-43 569.17,-43 565,-38.83 565,-34.67 565,-34.67 565,-26.33 565,-26.33 565,-22.17 569.17,-18 573.33,-18 573.33,-18 585.67,-18 585.67,-18 589.83,-18 594,-22.17 594,-26.33 594,-26.33 594,-34.67 594,-34.67 594,-38.83 589.83,-43 585.67,-43"/>
<text text-anchor="start" x="573" y="-28" font-family="Courier,monospace" font-size="10.00">q4</text>
</g>
<!-- 21&#45;&gt;26 -->
<g id="edge21" class="edge">
<title>21-&gt;26</title>
<path fill="none" stroke="black" d="M503.25,-85.39C517.24,-75.18 543.24,-56.22 560.71,-43.48"/>
<polygon fill="black" stroke="black" points="564.96,-40.38 562.24,-45.14 562.94,-41.85 560.92,-43.33 560.92,-43.33 560.92,-43.33 562.94,-41.85 559.59,-41.51 564.96,-40.38 564.96,-40.38"/>
</g>
<!-- 23&#45;&gt;26 -->
<g id="edge22" class="edge">
<title>23-&gt;26</title>
<path fill="none" stroke="black" d="M503.25,-28.73C517,-29.05 542.36,-29.65 559.81,-30.06"/>
<polygon fill="black" stroke="black" points="564.96,-30.18 559.9,-32.31 562.46,-30.12 559.96,-30.06 559.96,-30.06 559.96,-30.06 562.46,-30.12 560.01,-27.81 564.96,-30.18 564.96,-30.18"/>
</g>
<!-- 27 -->
<g id="node29" class="node">
<title>27</title>
<path fill="none" stroke="black" d="M584.33,-78C584.33,-78 574.67,-78 574.67,-78 571.83,-78 569,-75.17 569,-72.33 569,-72.33 569,-66.67 569,-66.67 569,-63.83 571.83,-61 574.67,-61 574.67,-61 584.33,-61 584.33,-61 587.17,-61 590,-63.83 590,-66.67 590,-66.67 590,-72.33 590,-72.33 590,-75.17 587.17,-78 584.33,-78"/>
<text text-anchor="start" x="573" y="-67" font-family="Courier,monospace" font-size="10.00">q3</text>
</g>
<!-- 25&#45;&gt;27 -->
<g id="edge23" class="edge">
<title>25-&gt;27</title>
<path fill="none" stroke="black" d="M579.5,-113.85C579.5,-103.63 579.5,-93.42 579.5,-83.21"/>
<polygon fill="black" stroke="black" points="579.5,-78.2 581.75,-83.2 579.5,-80.7 579.5,-83.2 579.5,-83.2 579.5,-83.2 579.5,-80.7 577.25,-83.2 579.5,-78.2 579.5,-78.2"/>
</g>
</g>
</svg>